M48
; DRILL file KiCad 10.0.0 date 2026-03-21T17:30:22
; FORMAT={-:-/ absolute / metric / decimal}
; #@! TF.CreationDate,2026-03-21T17:30:22+02:00
; #@! TF.GenerationSoftware,Kicad,Pcbnew,10.0.0
; #@! TF.FileFunction,MixedPlating,1,6
FMAT,2
METRIC
; #@! TA.AperFunction,Plated,PTH,ViaDrill
T1C0.150
; #@! TA.AperFunction,Plated,PTH,ViaDrill
T2C0.200
; #@! TA.AperFunction,Plated,PTH,ViaDrill
T3C0.300
; #@! TA.AperFunction,Plated,PTH,ViaDrill
T4C0.500
; #@! TA.AperFunction,Plated,PTH,ComponentDrill
T5C0.635
; #@! TA.AperFunction,Plated,PTH,ComponentDrill
T6C0.838
; #@! TA.AperFunction,Plated,PTH,ViaDrill
T7C1.000
; #@! TA.AperFunction,Plated,PTH,ComponentDrill
T8C1.000
; #@! TA.AperFunction,Plated,PTH,ComponentDrill
T9C1.016
; #@! TA.AperFunction,Plated,PTH,ComponentDrill
T10C1.194
; #@! TA.AperFunction,Plated,PTH,ViaDrill
T11C2.000
; #@! TA.AperFunction,NonPlated,NPTH,ComponentDrill
T12C3.200
%
G90
G05
T1
X105.901Y-94.304
X113.151Y-150.304
X125.251Y-141.454
X132.701Y-140.654
X139.151Y-99.554
X139.351Y-100.604
X139.751Y-98.054
X140.201Y-93.054
X140.301Y-101.154
X141.051Y-103.604
X141.201Y-99.019
X141.401Y-99.554
X141.451Y-100.134
X141.501Y-100.659
X141.551Y-102.704
X141.601Y-102.154
X141.701Y-97.154
X141.701Y-97.604
X141.701Y-98.134
X141.701Y-98.634
X141.701Y-101.154
X141.701Y-101.654
X142.151Y-90.504
X142.461Y-95.944
X142.701Y-108.279
X142.951Y-87.954
X143.001Y-86.754
X143.051Y-95.904
X143.214Y-108.104
X143.824Y-108.104
X144.051Y-89.654
X144.051Y-90.354
X144.351Y-93.404
X144.351Y-95.054
X144.351Y-97.154
X144.351Y-104.054
X144.376Y-108.329
X144.751Y-89.654
X144.751Y-90.354
X144.851Y-104.004
X144.901Y-112.904
X145.401Y-97.104
X145.701Y-88.054
X145.801Y-86.804
X145.901Y-97.104
X145.901Y-123.454
X146.001Y-120.404
X146.151Y-117.404
X146.276Y-119.879
X146.351Y-103.804
X146.401Y-115.604
X146.851Y-94.504
X146.851Y-96.054
X146.851Y-103.804
X146.851Y-116.104
X146.901Y-97.154
X147.051Y-90.504
X147.151Y-114.604
X147.201Y-111.604
X147.201Y-112.604
X147.201Y-113.104
X147.201Y-118.704
X147.301Y-109.254
X147.751Y-118.104
X148.051Y-110.054
X148.151Y-106.054
X148.301Y-110.554
X148.401Y-120.354
X148.451Y-116.104
X148.501Y-103.704
X148.801Y-104.654
X148.801Y-119.854
X149.001Y-91.154
X149.301Y-119.854
X149.521Y-96.174
X149.551Y-100.604
X149.551Y-101.154
X149.591Y-97.644
X149.601Y-97.154
X149.601Y-98.154
X149.601Y-101.654
X149.601Y-102.154
X149.601Y-102.654
X149.641Y-95.704
X150.001Y-88.554
X150.051Y-86.354
X150.551Y-108.654
X151.051Y-90.254
X151.051Y-90.954
X151.351Y-108.654
X151.801Y-90.254
X151.801Y-90.954
X151.901Y-100.204
X152.401Y-103.454
X152.701Y-88.554
X152.801Y-86.354
X152.951Y-107.354
X152.951Y-108.754
X153.951Y-120.004
X154.051Y-91.154
X154.351Y-98.204
X154.451Y-108.654
X154.451Y-120.004
X154.501Y-99.604
X154.751Y-102.654
X154.801Y-101.104
X154.951Y-98.054
X155.251Y-92.404
X155.351Y-108.704
X155.401Y-99.134
X155.401Y-102.154
X155.451Y-120.004
X155.551Y-100.134
X155.751Y-99.654
X155.851Y-100.589
X155.901Y-101.754
X155.901Y-104.104
X155.951Y-108.654
X155.971Y-104.854
X156.001Y-101.104
X156.001Y-120.004
X156.051Y-97.104
X156.051Y-98.634
X156.101Y-97.804
X156.101Y-102.504
X156.301Y-95.854
X156.351Y-90.554
X156.501Y-108.704
X156.951Y-120.004
X157.101Y-87.004
X157.101Y-87.904
X157.131Y-105.929
X157.151Y-95.904
X157.151Y-108.504
X157.501Y-120.004
X157.601Y-108.104
X157.699Y-106.054
X158.309Y-106.054
X158.351Y-89.654
X158.351Y-90.404
X158.401Y-108.704
X158.701Y-93.004
X158.701Y-95.054
X158.701Y-97.154
X158.701Y-103.754
X158.801Y-120.004
X158.901Y-105.804
X159.151Y-89.654
X159.151Y-90.404
X159.201Y-103.754
X159.201Y-119.654
X159.701Y-97.154
X159.701Y-109.604
X159.801Y-114.054
X159.851Y-114.604
X159.851Y-117.584
X159.901Y-110.104
X159.901Y-111.604
X159.901Y-119.754
X159.951Y-113.104
X159.981Y-115.604
X160.001Y-116.054
X160.251Y-97.154
X160.351Y-87.004
X160.501Y-88.054
X160.701Y-103.754
X160.751Y-104.954
X161.201Y-96.054
X161.201Y-97.154
X161.201Y-103.754
X161.201Y-104.954
X161.251Y-94.454
X161.301Y-117.579
X161.356Y-119.679
X161.401Y-90.504
X161.551Y-115.904
X161.601Y-111.604
X161.801Y-113.104
X161.878Y-119.704
X161.956Y-117.679
X162.026Y-116.556
X162.026Y-117.166
X162.031Y-116.054
X162.488Y-119.704
X162.651Y-95.704
X162.701Y-104.704
X162.751Y-98.154
X163.031Y-119.754
X163.401Y-95.754
X163.801Y-101.614
X163.951Y-101.154
X164.001Y-97.154
X164.001Y-97.654
X164.001Y-102.054
X164.001Y-102.504
X164.001Y-105.854
X164.011Y-100.604
X164.151Y-88.054
X164.151Y-103.454
X166.051Y-89.554
X166.401Y-88.904
X166.451Y-90.004
X166.601Y-99.154
X166.701Y-86.704
X167.001Y-89.404
X167.201Y-99.404
X167.701Y-86.254
X168.051Y-91.804
X169.151Y-89.204
X169.551Y-88.004
X175.711Y-102.964
X176.301Y-102.404
T2
X112.351Y-131.254
X113.101Y-150.954
X114.851Y-143.604
X114.951Y-131.254
X130.501Y-142.054
X143.501Y-81.084
X143.821Y-81.904
X143.821Y-82.704
X143.821Y-83.504
X143.821Y-84.304
X143.821Y-85.104
X143.821Y-85.904
X145.041Y-81.904
X145.041Y-82.704
X145.041Y-83.504
X145.041Y-84.304
X145.041Y-85.104
X145.041Y-85.904
X145.331Y-81.084
X149.481Y-81.554
X150.731Y-65.474
X150.831Y-66.304
X150.831Y-67.104
X150.831Y-67.904
X150.831Y-68.704
X150.831Y-69.504
X150.831Y-70.304
X150.831Y-71.104
X150.831Y-71.904
X150.831Y-72.704
X150.831Y-73.504
X150.831Y-74.304
X150.831Y-75.104
X150.831Y-75.904
X150.831Y-76.704
X150.831Y-77.504
X150.831Y-78.304
X150.831Y-79.104
X150.831Y-79.904
X150.831Y-81.504
X150.831Y-82.304
X150.831Y-83.104
X150.831Y-83.904
X150.831Y-84.704
X150.831Y-85.504
X152.051Y-66.304
X152.051Y-67.104
X152.051Y-67.904
X152.051Y-68.704
X152.051Y-69.504
X152.051Y-70.304
X152.051Y-71.104
X152.051Y-71.904
X152.051Y-72.704
X152.051Y-73.504
X152.051Y-74.304
X152.051Y-75.104
X152.051Y-75.904
X152.051Y-76.704
X152.051Y-77.504
X152.051Y-78.304
X152.051Y-79.104
X152.051Y-79.904
X152.051Y-80.704
X152.051Y-81.504
X152.051Y-82.304
X152.051Y-83.104
X152.051Y-83.904
X152.051Y-84.704
X152.051Y-85.504
X152.171Y-65.484
X157.921Y-80.634
X158.091Y-81.504
X158.091Y-82.304
X158.091Y-83.104
X158.091Y-83.904
X158.091Y-84.704
X158.091Y-85.504
X158.091Y-86.304
X159.311Y-81.504
X159.311Y-82.304
X159.311Y-83.104
X159.311Y-83.904
X159.311Y-84.704
X159.311Y-85.504
X159.311Y-86.304
X159.441Y-80.614
X168.751Y-86.154
X169.317Y-85.588
X169.611Y-86.994
X169.882Y-85.023
X170.177Y-86.428
X170.447Y-84.458
X170.742Y-85.863
X171.012Y-83.893
X171.307Y-85.298
X171.577Y-83.328
X171.872Y-84.733
X172.142Y-82.763
X172.437Y-84.168
X173.172Y-83.723
T3
X99.891Y-140.532
X100.841Y-114.482
X100.891Y-60.532
X100.891Y-70.532
X100.891Y-80.532
X100.891Y-90.532
X100.891Y-100.532
X100.891Y-110.532
X100.891Y-120.532
X100.891Y-130.532
X100.891Y-150.532
X101.141Y-125.282
X102.141Y-76.132
X103.056Y-73.374
X103.113Y-71.532
X103.391Y-65.532
X103.391Y-95.532
X103.391Y-105.532
X103.391Y-115.532
X103.391Y-145.532
X103.433Y-75.074
X103.796Y-69.821
X103.841Y-85.582
X104.241Y-134.882
X104.391Y-110.932
X104.547Y-67.325
X104.741Y-116.832
X104.741Y-139.582
X104.773Y-76.572
X105.023Y-68.447
X105.241Y-83.982
X105.291Y-88.732
X105.341Y-90.482
X105.391Y-86.132
X105.891Y-80.532
X105.891Y-100.532
X105.891Y-120.532
X105.891Y-150.532
X106.041Y-82.082
X106.34Y-77.542
X106.641Y-67.482
X106.691Y-129.982
X106.991Y-92.182
X107.091Y-105.532
X107.341Y-93.732
X108.041Y-134.482
X108.144Y-77.918
X108.391Y-145.532
X108.441Y-82.182
X108.47Y-67.311
X109.291Y-78.632
X109.891Y-92.132
X109.968Y-77.653
X110.091Y-130.182
X110.274Y-67.686
X110.891Y-80.532
X110.891Y-90.532
X110.891Y-100.532
X110.891Y-110.532
X110.891Y-140.532
X110.891Y-150.532
X110.941Y-66.532
X111.041Y-82.082
X111.091Y-128.132
X111.591Y-76.782
X111.841Y-68.656
X111.841Y-146.482
X112.291Y-127.082
X112.441Y-92.132
X112.818Y-75.407
X112.982Y-70.104
X113.391Y-95.532
X113.391Y-105.532
X113.531Y-126.662
X113.741Y-131.282
X114.191Y-82.232
X115.141Y-85.432
X115.241Y-83.832
X115.241Y-92.082
X115.291Y-77.932
X115.341Y-89.332
X115.491Y-75.482
X115.691Y-128.532
X115.891Y-80.532
X115.891Y-90.532
X115.891Y-100.532
X115.891Y-110.532
X115.891Y-130.532
X115.891Y-140.532
X116.041Y-152.282
X116.741Y-105.582
X118.391Y-115.532
X119.091Y-134.432
X119.491Y-130.032
X120.891Y-111.582
X120.891Y-130.532
X120.891Y-151.332
X121.591Y-134.782
X121.741Y-118.282
X121.841Y-140.482
X123.391Y-105.532
X123.391Y-115.532
X124.291Y-129.582
X124.591Y-125.682
X125.841Y-111.732
X125.891Y-140.532
X125.941Y-106.432
X127.541Y-114.532
X127.641Y-122.032
X128.391Y-105.532
X128.391Y-125.532
X128.441Y-134.532
X128.891Y-110.232
X130.391Y-80.832
X130.391Y-84.832
X130.441Y-90.482
X130.541Y-111.482
X130.791Y-106.232
X130.891Y-70.532
X130.941Y-121.232
X131.141Y-129.682
X131.541Y-128.982
X132.241Y-110.082
X133.141Y-142.282
X133.391Y-85.532
X133.391Y-105.532
X133.591Y-134.532
X133.941Y-129.232
X134.241Y-117.182
X134.991Y-80.882
X135.341Y-107.382
X135.641Y-91.982
X135.741Y-106.232
X135.841Y-75.482
X135.891Y-70.532
X135.891Y-140.532
X136.841Y-134.482
X137.091Y-106.082
X138.391Y-85.532
X138.391Y-125.532
X138.441Y-133.432
X138.591Y-90.132
X138.691Y-91.932
X139.291Y-84.982
X139.291Y-141.032
X139.341Y-74.982
X139.391Y-76.932
X139.391Y-78.882
X139.391Y-80.632
X139.391Y-82.732
X139.791Y-116.182
X140.091Y-91.832
X140.491Y-86.182
X140.641Y-133.232
X140.791Y-138.632
X140.891Y-70.532
X140.891Y-90.532
X140.891Y-120.532
X140.891Y-140.532
X140.941Y-76.132
X141.041Y-123.532
X141.131Y-125.332
X141.291Y-115.582
X141.441Y-117.732
X141.641Y-92.082
X141.691Y-86.032
X141.791Y-122.232
X142.391Y-109.932
X142.491Y-116.382
X143.441Y-75.982
X144.551Y-145.522
X144.951Y-113.604
X145.291Y-110.132
X145.381Y-144.512
X145.541Y-76.132
X145.591Y-118.332
X145.841Y-133.182
X145.841Y-135.682
X145.841Y-138.182
X145.841Y-140.682
X145.841Y-143.182
X145.891Y-60.532
X145.891Y-70.532
X146.291Y-66.782
X146.391Y-64.682
X146.391Y-122.832
X146.391Y-126.632
X146.391Y-131.982
X146.441Y-125.632
X146.491Y-69.182
X146.541Y-124.182
X146.591Y-62.282
X146.591Y-86.032
X147.241Y-106.032
X147.291Y-91.982
X147.341Y-152.792
X147.541Y-76.182
X147.991Y-70.332
X147.991Y-86.082
X148.191Y-90.532
X148.341Y-60.282
X148.391Y-75.532
X148.781Y-152.692
X149.341Y-84.982
X149.391Y-83.532
X149.441Y-77.182
X149.441Y-80.582
X149.541Y-78.932
X149.691Y-70.482
X150.891Y-60.532
X150.891Y-80.532
X151.041Y-59.232
X151.391Y-152.582
X152.741Y-94.182
X152.741Y-152.532
X153.191Y-93.482
X153.391Y-75.532
X153.441Y-60.032
X153.476Y-94.229
X153.541Y-80.632
X153.541Y-83.332
X153.591Y-78.282
X153.641Y-70.632
X153.791Y-105.982
X153.841Y-76.232
X153.991Y-86.182
X154.141Y-152.582
X154.191Y-92.082
X154.391Y-89.982
X155.141Y-90.682
X155.291Y-86.182
X155.891Y-70.532
X155.891Y-153.332
X155.941Y-60.032
X156.291Y-76.032
X156.341Y-65.332
X156.341Y-67.882
X156.391Y-63.732
X156.491Y-69.782
X156.841Y-86.082
X157.691Y-152.732
X158.541Y-152.732
X158.891Y-75.232
X159.041Y-65.532
X160.241Y-76.132
X160.841Y-86.082
X160.891Y-60.532
X160.891Y-70.532
X160.891Y-120.532
X161.141Y-65.582
X161.141Y-152.482
X161.191Y-92.032
X162.391Y-90.182
X162.741Y-152.482
X162.791Y-89.132
X163.291Y-75.982
X163.391Y-65.532
X163.591Y-139.432
X163.641Y-80.582
X163.641Y-84.332
X163.641Y-121.182
X163.681Y-125.532
X163.731Y-124.512
X163.741Y-78.582
X163.741Y-82.382
X163.741Y-118.882
X163.741Y-141.232
X163.791Y-86.632
X163.791Y-114.882
X163.791Y-123.432
X163.971Y-126.622
X164.381Y-127.822
X164.441Y-152.532
X164.471Y-128.972
X164.841Y-141.182
X164.891Y-115.432
X164.951Y-131.282
X165.191Y-106.132
X165.491Y-101.432
X165.891Y-60.532
X165.891Y-130.532
X166.191Y-153.182
X166.541Y-141.182
X166.641Y-80.482
X166.791Y-84.132
X166.891Y-81.682
X166.941Y-95.582
X167.641Y-85.082
X167.751Y-95.304
X168.391Y-75.532
X168.541Y-95.232
X168.741Y-133.382
X168.801Y-130.762
X168.811Y-144.952
X168.941Y-79.782
X169.191Y-90.182
X169.671Y-145.912
X169.681Y-143.662
X169.941Y-93.132
X169.991Y-94.432
X170.091Y-78.182
X170.141Y-95.482
X170.341Y-101.932
X170.616Y-117.607
X170.691Y-134.332
X170.741Y-122.432
X170.791Y-105.632
X170.841Y-87.982
X170.891Y-60.532
X170.891Y-110.532
X170.891Y-120.532
X170.891Y-130.532
X170.891Y-140.532
X170.941Y-111.832
X171.421Y-144.322
X171.541Y-101.482
X171.891Y-137.482
X171.991Y-89.082
X172.541Y-95.482
X172.691Y-75.982
X173.091Y-118.532
X173.391Y-105.532
X173.841Y-111.632
X174.341Y-77.382
X174.591Y-88.382
X175.191Y-86.332
X175.391Y-126.882
X175.891Y-60.532
X175.891Y-99.782
X175.891Y-120.532
X175.891Y-130.532
X175.891Y-140.532
X175.941Y-86.832
X176.041Y-92.482
X176.391Y-90.132
X177.091Y-80.032
X177.541Y-85.432
X177.691Y-97.282
X178.041Y-90.232
X178.091Y-127.932
X178.391Y-135.532
X178.441Y-131.782
X179.641Y-83.432
X179.941Y-97.332
X180.291Y-115.682
X180.741Y-99.832
X180.891Y-60.532
X180.891Y-80.532
X180.891Y-110.532
X180.891Y-120.532
X180.891Y-130.532
X180.891Y-140.532
X181.041Y-105.432
X182.841Y-115.832
X183.391Y-85.532
X183.391Y-135.532
X183.541Y-131.982
X183.841Y-109.682
X184.841Y-104.532
X185.891Y-60.532
X185.891Y-110.532
X185.891Y-120.532
X185.891Y-130.532
X185.991Y-101.032
X186.191Y-104.632
X188.441Y-115.882
X188.491Y-130.782
X190.891Y-60.532
X190.891Y-110.532
X190.891Y-130.532
X190.941Y-119.732
X191.141Y-80.382
X191.491Y-85.282
X191.491Y-95.332
X191.641Y-90.532
X192.541Y-100.482
X193.391Y-115.882
X193.391Y-145.532
X193.891Y-85.182
X195.691Y-95.582
X195.891Y-60.532
X195.891Y-80.282
X195.891Y-90.532
X195.891Y-100.532
X195.891Y-110.532
X195.891Y-130.532
X195.891Y-150.532
X196.641Y-120.332
X196.741Y-125.482
X197.091Y-105.632
X197.541Y-141.282
T4
X143.651Y-97.954
X143.651Y-100.504
X143.701Y-99.104
X143.751Y-101.804
X144.901Y-97.954
X144.901Y-100.554
X144.901Y-101.754
X145.051Y-99.154
X146.301Y-98.004
X146.301Y-99.154
X146.301Y-100.604
X146.351Y-101.704
X147.351Y-101.754
X147.401Y-100.554
X147.451Y-98.054
X147.501Y-99.154
X158.051Y-97.904
X158.051Y-100.454
X158.101Y-99.204
X158.101Y-101.804
X159.251Y-99.204
X159.251Y-101.854
X159.301Y-97.954
X159.301Y-100.554
X160.601Y-97.954
X160.701Y-99.154
X160.701Y-100.654
X160.751Y-101.854
X161.801Y-100.704
X161.801Y-101.804
X161.851Y-98.004
X161.901Y-99.104
T5
X177.371Y-107.294
X177.371Y-108.564
X177.371Y-114.754
X177.371Y-116.024
T6
X176.101Y-106.659
X176.101Y-109.199
X176.101Y-114.119
X176.101Y-116.659
X178.641Y-106.659
X178.641Y-109.199
X178.641Y-114.119
X178.641Y-116.659
T7
X109.001Y-128.104
X114.201Y-68.604
X119.401Y-58.304
X120.101Y-128.004
X121.401Y-69.204
X123.501Y-68.604
X125.001Y-66.604
X125.901Y-68.404
X132.801Y-64.704
X132.901Y-68.304
X134.001Y-153.604
X134.951Y-141.554
X136.751Y-129.254
X144.401Y-153.504
X147.421Y-145.504
X147.431Y-143.394
X151.701Y-111.804
X151.701Y-114.554
X151.851Y-117.104
X154.101Y-111.854
X154.151Y-114.404
X154.401Y-117.154
X156.601Y-111.804
X156.701Y-114.404
X156.801Y-117.204
X165.911Y-144.694
X167.571Y-143.274
X168.901Y-153.404
X169.401Y-66.704
X169.401Y-68.904
X179.801Y-153.604
X186.101Y-64.004
T8
X103.301Y-123.034
X103.301Y-125.574
X109.631Y-59.804
X112.171Y-59.804
X126.631Y-151.204
X129.171Y-151.204
X139.331Y-59.704
X141.871Y-59.704
X185.031Y-150.904
X187.571Y-150.904
X192.501Y-69.234
X192.501Y-71.774
T9
X107.241Y-136.334
X107.241Y-138.874
X109.781Y-136.334
X109.781Y-138.874
X112.321Y-136.334
X112.321Y-138.874
X114.861Y-136.334
X114.861Y-138.874
X117.401Y-136.334
X117.401Y-138.874
X119.941Y-136.334
X119.941Y-138.874
X185.781Y-81.404
X185.781Y-83.944
X185.781Y-86.484
X185.781Y-89.024
X185.781Y-91.564
X185.781Y-94.104
X185.781Y-96.644
X188.321Y-81.404
X188.321Y-83.944
X188.321Y-86.484
X188.321Y-89.024
X188.321Y-91.564
X188.321Y-94.104
X188.321Y-96.644
T10
X105.811Y-70.094
X105.811Y-75.174
X107.631Y-84.554
X107.631Y-89.634
X110.891Y-70.094
X110.891Y-75.174
X112.711Y-84.554
X112.711Y-89.634
X141.891Y-78.464
X141.891Y-83.544
X146.971Y-78.464
X146.971Y-83.544
X148.751Y-134.194
X148.751Y-139.274
X148.901Y-62.464
X148.901Y-67.544
X153.831Y-134.194
X153.831Y-139.274
X153.981Y-62.464
X153.981Y-67.544
X156.161Y-78.464
X156.161Y-83.544
X160.521Y-134.625
X160.521Y-139.706
X161.241Y-78.464
X161.241Y-83.544
X165.601Y-134.625
X165.601Y-139.706
X169.289Y-83.024
X172.881Y-79.431
X172.881Y-86.616
X176.473Y-83.024
X188.671Y-122.264
X188.671Y-127.344
X188.671Y-136.184
X188.671Y-141.264
X188.821Y-103.104
X188.821Y-108.184
X193.751Y-122.264
X193.751Y-127.344
X193.751Y-136.184
X193.751Y-141.264
X193.901Y-103.104
X193.901Y-108.184
T11
X133.151Y-90.104
T12
X103.501Y-60.004
X103.501Y-150.004
X193.501Y-60.004
X193.501Y-150.004
M30
