%TF.GenerationSoftware,KiCad,Pcbnew,10.0.0*%
%TF.CreationDate,2026-03-23T00:54:02+02:00*%
%TF.ProjectId,Clocks_Freq_Synth_board,436c6f63-6b73-45f4-9672-65715f53796e,rev?*%
%TF.SameCoordinates,Original*%
%TF.FileFunction,Soldermask,Bot*%
%TF.FilePolarity,Negative*%
%FSLAX46Y46*%
G04 Gerber Fmt 4.6, Leading zero omitted, Abs format (unit mm)*
G04 Created by KiCad (PCBNEW 10.0.0) date 2026-03-23 00:54:02*
%MOMM*%
%LPD*%
G01*
G04 APERTURE LIST*
G04 Aperture macros list*
%AMFreePoly0*
4,1,17,0.351552,0.797921,0.797921,0.351552,0.812800,0.315631,0.812800,-0.315631,0.797921,-0.351552,0.351552,-0.797921,0.315631,-0.812800,-0.315631,-0.812800,-0.351552,-0.797921,-0.797921,-0.351552,-0.812800,-0.315631,-0.812800,0.315631,-0.797921,0.351552,-0.351552,0.797921,-0.315631,0.812800,0.315631,0.812800,0.351552,0.797921,0.351552,0.797921,$1*%
G04 Aperture macros list end*
%ADD10C,1.892600*%
%ADD11O,3.101600X1.601600*%
%ADD12O,1.601600X3.101600*%
%ADD13C,3.200000*%
%ADD14FreePoly0,180.000000*%
%ADD15C,1.244600*%
%ADD16C,1.447800*%
%ADD17FreePoly0,90.000000*%
G04 APERTURE END LIST*
D10*
%TO.C,J5*%
X160521100Y-134625500D03*
X160521100Y-139705500D03*
X165601100Y-139705500D03*
X165601100Y-134625500D03*
%TD*%
%TO.C,J9*%
X110891100Y-75173600D03*
X110891100Y-70093600D03*
X105811100Y-70093600D03*
X105811100Y-75173600D03*
%TD*%
D11*
%TO.C,X10*%
X103301100Y-123033600D03*
X103301100Y-125573600D03*
%TD*%
%TO.C,X15*%
X192501100Y-71773600D03*
X192501100Y-69233600D03*
%TD*%
D12*
%TO.C,X12*%
X185031100Y-150903600D03*
X187571100Y-150903600D03*
%TD*%
D10*
%TO.C,J7*%
X188671100Y-127343600D03*
X193751100Y-127343600D03*
X193751100Y-122263600D03*
X188671100Y-122263600D03*
%TD*%
D13*
%TO.C,UNK_HOLE_3*%
X103501100Y-60003600D03*
%TD*%
D10*
%TO.C,J12*%
X169288998Y-83023600D03*
X172881100Y-86615702D03*
X176473202Y-83023600D03*
X172881100Y-79431498D03*
%TD*%
D13*
%TO.C,UNK_HOLE_1*%
X193501100Y-150003600D03*
%TD*%
D10*
%TO.C,J2*%
X188821100Y-108183600D03*
X193901100Y-108183600D03*
X193901100Y-103103600D03*
X188821100Y-103103600D03*
%TD*%
%TO.C,J11*%
X156161100Y-78463600D03*
X156161100Y-83543600D03*
X161241100Y-83543600D03*
X161241100Y-78463600D03*
%TD*%
D12*
%TO.C,X13*%
X112171100Y-59803600D03*
X109631100Y-59803600D03*
%TD*%
D10*
%TO.C,J1*%
X148901100Y-62463600D03*
X148901100Y-67543600D03*
X153981100Y-67543600D03*
X153981100Y-62463600D03*
%TD*%
%TO.C,J8*%
X188671100Y-136183600D03*
X188671100Y-141263600D03*
X193751100Y-141263600D03*
X193751100Y-136183600D03*
%TD*%
%TO.C,J10*%
X141891100Y-78463600D03*
X141891100Y-83543600D03*
X146971100Y-83543600D03*
X146971100Y-78463600D03*
%TD*%
D14*
%TO.C,JP1*%
X119941100Y-136333600D03*
X119941100Y-138873600D03*
X117401100Y-136333600D03*
X117401100Y-138873600D03*
X114861100Y-136333600D03*
X114861100Y-138873600D03*
X112321100Y-136333600D03*
X112321100Y-138873600D03*
X109781100Y-136333600D03*
X109781100Y-138873600D03*
X107241100Y-136333600D03*
X107241100Y-138873600D03*
%TD*%
D12*
%TO.C,X11*%
X126631100Y-151203600D03*
X129171100Y-151203600D03*
%TD*%
D13*
%TO.C,UNK_HOLE_2*%
X193501100Y-60003600D03*
%TD*%
D10*
%TO.C,J6*%
X148751100Y-134193600D03*
X148751100Y-139273600D03*
X153831100Y-139273600D03*
X153831100Y-134193600D03*
%TD*%
D15*
%TO.C,J4*%
X177371100Y-114753600D03*
X177371100Y-116023600D03*
D16*
X178641100Y-114118600D03*
X178641100Y-116658600D03*
X176101100Y-114118600D03*
X176101100Y-116658600D03*
%TD*%
D12*
%TO.C,X14*%
X141871100Y-59703600D03*
X139331100Y-59703600D03*
%TD*%
D10*
%TO.C,J13*%
X107631100Y-89633600D03*
X112711100Y-89633600D03*
X112711100Y-84553600D03*
X107631100Y-84553600D03*
%TD*%
D17*
%TO.C,JP2*%
X188321100Y-96643600D03*
X185781100Y-96643600D03*
X188321100Y-94103600D03*
X185781100Y-94103600D03*
X188321100Y-91563600D03*
X185781100Y-91563600D03*
X188321100Y-89023600D03*
X185781100Y-89023600D03*
X188321100Y-86483600D03*
X185781100Y-86483600D03*
X188321100Y-83943600D03*
X185781100Y-83943600D03*
X188321100Y-81403600D03*
X185781100Y-81403600D03*
%TD*%
D13*
%TO.C,UNK_HOLE_0*%
X103501100Y-150003600D03*
%TD*%
D15*
%TO.C,J3*%
X177371100Y-107293600D03*
X177371100Y-108563600D03*
D16*
X178641100Y-106658600D03*
X178641100Y-109198600D03*
X176101100Y-106658600D03*
X176101100Y-109198600D03*
%TD*%
M02*
