%TF.GenerationSoftware,KiCad,Pcbnew,10.0.0*%
%TF.CreationDate,2026-03-23T00:54:02+02:00*%
%TF.ProjectId,Clocks_Freq_Synth_board,436c6f63-6b73-45f4-9672-65715f53796e,rev?*%
%TF.SameCoordinates,Original*%
%TF.FileFunction,Soldermask,Top*%
%TF.FilePolarity,Negative*%
%FSLAX46Y46*%
G04 Gerber Fmt 4.6, Leading zero omitted, Abs format (unit mm)*
G04 Created by KiCad (PCBNEW 10.0.0) date 2026-03-23 00:54:02*
%MOMM*%
%LPD*%
G01*
G04 APERTURE LIST*
G04 Aperture macros list*
%AMRoundRect*
0 Rectangle with rounded corners*
0 $1 Rounding radius*
0 $2 $3 $4 $5 $6 $7 $8 $9 X,Y pos of 4 corners*
0 Add a 4 corners polygon primitive as box body*
4,1,4,$2,$3,$4,$5,$6,$7,$8,$9,$2,$3,0*
0 Add four circle primitives for the rounded corners*
1,1,$1+$1,$2,$3*
1,1,$1+$1,$4,$5*
1,1,$1+$1,$6,$7*
1,1,$1+$1,$8,$9*
0 Add four rect primitives between the rounded corners*
20,1,$1+$1,$2,$3,$4,$5,0*
20,1,$1+$1,$4,$5,$6,$7,0*
20,1,$1+$1,$6,$7,$8,$9,0*
20,1,$1+$1,$8,$9,$2,$3,0*%
%AMFreePoly0*
4,1,17,0.351552,0.797921,0.797921,0.351552,0.812800,0.315631,0.812800,-0.315631,0.797921,-0.351552,0.351552,-0.797921,0.315631,-0.812800,-0.315631,-0.812800,-0.351552,-0.797921,-0.797921,-0.351552,-0.812800,-0.315631,-0.812800,0.315631,-0.797921,0.351552,-0.351552,0.797921,-0.315631,0.812800,0.315631,0.812800,0.351552,0.797921,0.351552,0.797921,$1*%
G04 Aperture macros list end*
%ADD10C,2.540000*%
%ADD11C,1.220000*%
%ADD12C,2.000000*%
%ADD13C,1.200000*%
%ADD14RoundRect,0.330300X-0.000010X-0.000010X0.000010X-0.000010X0.000010X0.000010X-0.000010X0.000010X0*%
%ADD15C,1.892600*%
%ADD16RoundRect,0.330300X0.000010X0.000010X-0.000010X0.000010X-0.000010X-0.000010X0.000010X-0.000010X0*%
%ADD17RoundRect,0.050800X0.175000X-0.125000X0.175000X0.125000X-0.175000X0.125000X-0.175000X-0.125000X0*%
%ADD18RoundRect,0.050800X-0.140000X-0.215000X0.140000X-0.215000X0.140000X0.215000X-0.140000X0.215000X0*%
%ADD19RoundRect,0.050800X-0.125000X-0.175000X0.125000X-0.175000X0.125000X0.175000X-0.125000X0.175000X0*%
%ADD20O,3.101600X1.601600*%
%ADD21RoundRect,0.050800X0.420000X0.465000X-0.420000X0.465000X-0.420000X-0.465000X0.420000X-0.465000X0*%
%ADD22RoundRect,0.050800X-1.350000X0.800000X-1.350000X-0.800000X1.350000X-0.800000X1.350000X0.800000X0*%
%ADD23RoundRect,0.050800X0.482600X-1.041400X0.482600X1.041400X-0.482600X1.041400X-0.482600X-1.041400X0*%
%ADD24RoundRect,0.050800X-0.450000X0.350000X-0.450000X-0.350000X0.450000X-0.350000X0.450000X0.350000X0*%
%ADD25RoundRect,0.050800X-0.175000X0.125000X-0.175000X-0.125000X0.175000X-0.125000X0.175000X0.125000X0*%
%ADD26RoundRect,0.050800X0.088900X0.355600X-0.088900X0.355600X-0.088900X-0.355600X0.088900X-0.355600X0*%
%ADD27RoundRect,0.050800X0.355600X-0.088900X0.355600X0.088900X-0.355600X0.088900X-0.355600X-0.088900X0*%
%ADD28RoundRect,0.050800X-0.723900X0.723900X-0.723900X-0.723900X0.723900X-0.723900X0.723900X0.723900X0*%
%ADD29RoundRect,0.050800X-0.420000X-0.465000X0.420000X-0.465000X0.420000X0.465000X-0.420000X0.465000X0*%
%ADD30O,1.601600X3.101600*%
%ADD31RoundRect,0.050800X-0.215000X0.140000X-0.215000X-0.140000X0.215000X-0.140000X0.215000X0.140000X0*%
%ADD32RoundRect,0.050800X-0.800000X-1.350000X0.800000X-1.350000X0.800000X1.350000X-0.800000X1.350000X0*%
%ADD33RoundRect,0.050800X0.125000X0.175000X-0.125000X0.175000X-0.125000X-0.175000X0.125000X-0.175000X0*%
%ADD34RoundRect,0.330300X0.000010X-0.000010X0.000010X0.000010X-0.000010X0.000010X-0.000010X-0.000010X0*%
%ADD35RoundRect,0.050800X0.101600X0.177800X-0.101600X0.177800X-0.101600X-0.177800X0.101600X-0.177800X0*%
%ADD36RoundRect,0.050800X0.177800X0.330200X-0.177800X0.330200X-0.177800X-0.330200X0.177800X-0.330200X0*%
%ADD37RoundRect,0.050800X0.800000X1.350000X-0.800000X1.350000X-0.800000X-1.350000X0.800000X-1.350000X0*%
%ADD38RoundRect,0.050800X-0.406400X-0.152400X0.406400X-0.152400X0.406400X0.152400X-0.406400X0.152400X0*%
%ADD39RoundRect,0.050800X0.152400X-0.406400X0.152400X0.406400X-0.152400X0.406400X-0.152400X-0.406400X0*%
%ADD40RoundRect,0.050800X-4.178300X-4.178300X4.178300X-4.178300X4.178300X4.178300X-4.178300X4.178300X0*%
%ADD41C,3.200000*%
%ADD42RoundRect,0.330300X0.000000X-0.000014X0.000014X0.000000X0.000000X0.000014X-0.000014X0.000000X0*%
%ADD43RoundRect,0.050800X0.215000X-0.140000X0.215000X0.140000X-0.215000X0.140000X-0.215000X-0.140000X0*%
%ADD44RoundRect,0.050800X1.350000X-0.800000X1.350000X0.800000X-1.350000X0.800000X-1.350000X-0.800000X0*%
%ADD45RoundRect,0.165240X-0.385560X-0.385560X0.385560X-0.385560X0.385560X0.385560X-0.385560X0.385560X0*%
%ADD46RoundRect,0.050800X0.900000X2.000000X-0.900000X2.000000X-0.900000X-2.000000X0.900000X-2.000000X0*%
%ADD47RoundRect,0.050800X2.000000X-0.900000X2.000000X0.900000X-2.000000X0.900000X-2.000000X-0.900000X0*%
%ADD48RoundRect,0.050800X-1.778000X-1.651000X1.778000X-1.651000X1.778000X1.651000X-1.778000X1.651000X0*%
%ADD49RoundRect,0.050800X1.778000X1.651000X-1.778000X1.651000X-1.778000X-1.651000X1.778000X-1.651000X0*%
%ADD50FreePoly0,180.000000*%
%ADD51RoundRect,0.050800X-0.350000X-0.450000X0.350000X-0.450000X0.350000X0.450000X-0.350000X0.450000X0*%
%ADD52RoundRect,0.050800X0.140000X0.215000X-0.140000X0.215000X-0.140000X-0.215000X0.140000X-0.215000X0*%
%ADD53RoundRect,0.050800X0.314309X0.188585X0.188585X0.314309X-0.314309X-0.188585X-0.188585X-0.314309X0*%
%ADD54RoundRect,0.050800X0.188585X-0.314309X0.314309X-0.188585X-0.188585X0.314309X-0.314309X0.188585X0*%
%ADD55RoundRect,0.050800X0.000000X1.023749X-1.023749X0.000000X0.000000X-1.023749X1.023749X0.000000X0*%
%ADD56C,1.244600*%
%ADD57C,1.447800*%
%ADD58RoundRect,0.050800X0.228600X-0.127000X0.228600X0.127000X-0.228600X0.127000X-0.228600X-0.127000X0*%
%ADD59RoundRect,0.050800X0.127000X0.228600X-0.127000X0.228600X-0.127000X-0.228600X0.127000X-0.228600X0*%
%ADD60RoundRect,0.050800X-0.228600X0.127000X-0.228600X-0.127000X0.228600X-0.127000X0.228600X0.127000X0*%
%ADD61RoundRect,0.050800X-0.127000X-0.228600X0.127000X-0.228600X0.127000X0.228600X-0.127000X0.228600X0*%
%ADD62RoundRect,0.050800X1.193800X1.193800X-1.193800X1.193800X-1.193800X-1.193800X1.193800X-1.193800X0*%
%ADD63RoundRect,0.050800X-0.465000X0.420000X-0.465000X-0.420000X0.465000X-0.420000X0.465000X0.420000X0*%
%ADD64RoundRect,0.050800X0.197566X0.053882X0.053882X0.197566X-0.197566X-0.053882X-0.053882X-0.197566X0*%
%ADD65RoundRect,0.050800X0.359210X0.107763X0.107763X0.359210X-0.359210X-0.107763X-0.107763X-0.359210X0*%
%ADD66FreePoly0,90.000000*%
%ADD67RoundRect,0.050800X-0.900000X-2.000000X0.900000X-2.000000X0.900000X2.000000X-0.900000X2.000000X0*%
G04 APERTURE END LIST*
D10*
X144411100Y-84483600D02*
X144411100Y-86648000D01*
X144411100Y-87359200D02*
X144411100Y-88555800D01*
X144431100Y-81003600D02*
X144411100Y-84483600D01*
D11*
X151381100Y-128053600D02*
X151321100Y-136793600D01*
X151381100Y-128053600D02*
G75*
G02*
X154511100Y-125503600I2840000J-290000D01*
G01*
D12*
X151441100Y-85968000D02*
X151441100Y-70083600D01*
D10*
X151441100Y-86679200D02*
X151441100Y-89145800D01*
D12*
X151441200Y-69983700D02*
X151471200Y-64913500D01*
D11*
X156461700Y-119235800D02*
X156461700Y-124243000D01*
X156461700Y-124243000D02*
G75*
G02*
X155201100Y-125503600I-1260600J0D01*
G01*
X157960300Y-119235800D02*
X157960300Y-124062800D01*
D10*
X158701100Y-81003600D02*
X158701100Y-86648000D01*
X158701100Y-88545800D02*
X158701100Y-87359200D01*
D13*
X159073300Y-110832400D02*
X166050203Y-110832400D01*
X159133300Y-112321000D02*
X167536396Y-112321000D01*
D11*
X159401100Y-125503600D02*
G75*
G02*
X157960300Y-124062800I0J1440800D01*
G01*
X159531100Y-125503600D02*
G75*
G02*
X163071100Y-129043600I0J-3540000D01*
G01*
X163071100Y-129043600D02*
X163051100Y-136973600D01*
X167463131Y-88291569D02*
X168339650Y-87415050D01*
D13*
X167606396Y-112351000D02*
G75*
G02*
X169402452Y-113094949I4J-2540000D01*
G01*
X167949809Y-110122004D02*
X169254262Y-108817550D01*
X168139808Y-109952004D02*
G75*
G02*
X165990203Y-110842402I-2149608J2149604D01*
G01*
D11*
X168842546Y-86912154D02*
X172625034Y-83129666D01*
D13*
X169434262Y-108657550D02*
G75*
G02*
X171230315Y-107913610I1796038J-1796050D01*
G01*
X169502450Y-113164950D02*
X170930703Y-114593204D01*
X171410315Y-107893600D02*
X177001100Y-107893600D01*
X173010309Y-115393600D02*
X176750046Y-115393600D01*
X173020308Y-115413600D02*
G75*
G02*
X170870699Y-114523208I-8J3040000D01*
G01*
D14*
%TO.C,J5*%
X163061100Y-137165500D03*
D15*
X160521100Y-134625500D03*
X160521100Y-139705500D03*
X165601100Y-139705500D03*
X165601100Y-134625500D03*
%TD*%
D16*
%TO.C,J9*%
X108351100Y-72633600D03*
D15*
X110891100Y-75173600D03*
X110891100Y-70093600D03*
X105811100Y-70093600D03*
X105811100Y-75173600D03*
%TD*%
D17*
%TO.C,C60*%
X151451100Y-100653600D03*
X151451100Y-100153600D03*
%TD*%
D18*
%TO.C,R39*%
X161466100Y-113623600D03*
X161976100Y-113623600D03*
%TD*%
D19*
%TO.C,C20*%
X153911100Y-120463600D03*
X154411100Y-120463600D03*
%TD*%
D20*
%TO.C,X10*%
X103301100Y-123033600D03*
X103301100Y-125573600D03*
%TD*%
D21*
%TO.C,FB1*%
X167706100Y-98133600D03*
X166116100Y-98133600D03*
%TD*%
D22*
%TO.C,C29*%
X179901100Y-148703600D03*
X179901100Y-151503600D03*
%TD*%
D23*
%TO.C,X6*%
X129831100Y-138932500D03*
X134911100Y-138932500D03*
X134911100Y-131134700D03*
X129831100Y-131134700D03*
%TD*%
D24*
%TO.C,C19*%
X151361100Y-130083600D03*
X151361100Y-131383600D03*
%TD*%
D23*
%TO.C,X5*%
X130081100Y-127282500D03*
X135161100Y-127282500D03*
X135161100Y-119484700D03*
X130081100Y-119484700D03*
%TD*%
D20*
%TO.C,X15*%
X192501100Y-71773600D03*
X192501100Y-69233600D03*
%TD*%
D19*
%TO.C,C24*%
X160381100Y-117583600D03*
X160881100Y-117583600D03*
%TD*%
%TO.C,C35*%
X155461100Y-120463600D03*
X155961100Y-120463600D03*
%TD*%
D25*
%TO.C,C12*%
X145311100Y-104453600D03*
X145311100Y-104953600D03*
%TD*%
D26*
%TO.C,U2*%
X144919100Y-88555800D03*
X144411100Y-88555800D03*
X143903100Y-88555800D03*
D27*
X142963300Y-89495600D03*
X142963300Y-90003600D03*
X142963300Y-90511600D03*
D26*
X143903100Y-91451400D03*
X144411100Y-91451400D03*
X144919100Y-91451400D03*
D27*
X145858900Y-90511600D03*
X145858900Y-90003600D03*
X145858900Y-89495600D03*
D28*
X144411100Y-90003600D03*
%TD*%
D19*
%TO.C,C8*%
X147761100Y-115133600D03*
X148261100Y-115133600D03*
%TD*%
D29*
%TO.C,FB3*%
X149766100Y-105353600D03*
X151356100Y-105353600D03*
%TD*%
D30*
%TO.C,X12*%
X185031100Y-150903600D03*
X187571100Y-150903600D03*
%TD*%
D18*
%TO.C,R27*%
X164116100Y-98453600D03*
X164626100Y-98453600D03*
%TD*%
D31*
%TO.C,R35*%
X155441100Y-98038600D03*
X155441100Y-98548600D03*
%TD*%
D18*
%TO.C,R13*%
X143356100Y-103933600D03*
X143866100Y-103933600D03*
%TD*%
D32*
%TO.C,C47*%
X128001100Y-68303600D03*
X130801100Y-68303600D03*
%TD*%
D17*
%TO.C,C65*%
X143651100Y-94253600D03*
X143651100Y-93753600D03*
%TD*%
D31*
%TO.C,R36*%
X154341100Y-98588600D03*
X154341100Y-99098600D03*
%TD*%
D19*
%TO.C,C36*%
X159411100Y-120263600D03*
X159911100Y-120263600D03*
%TD*%
D25*
%TO.C,C73*%
X164601100Y-100593600D03*
X164601100Y-101093600D03*
%TD*%
D31*
%TO.C,R25*%
X139891100Y-100108600D03*
X139891100Y-100618600D03*
%TD*%
D33*
%TO.C,C38*%
X140981100Y-99563600D03*
X140481100Y-99563600D03*
%TD*%
D34*
%TO.C,J7*%
X191211100Y-124803600D03*
D15*
X188671100Y-127343600D03*
X193751100Y-127343600D03*
X193751100Y-122263600D03*
X188671100Y-122263600D03*
%TD*%
D35*
%TO.C,U5*%
X151441100Y-86679200D03*
X151441100Y-85968000D03*
D36*
X152063400Y-86323600D03*
X150818800Y-86323600D03*
%TD*%
D37*
%TO.C,C45*%
X119301100Y-69503600D03*
X116501100Y-69503600D03*
%TD*%
D38*
%TO.C,IC1*%
X149298900Y-110091800D03*
X149298900Y-110574400D03*
X149298900Y-111082400D03*
X149298900Y-111590400D03*
X149298900Y-112073000D03*
X149298900Y-112581000D03*
X149298900Y-113089000D03*
X149298900Y-113571600D03*
X149298900Y-114079600D03*
X149298900Y-114587600D03*
X149298900Y-115095600D03*
X149298900Y-115578200D03*
X149298900Y-116086200D03*
X149298900Y-116594200D03*
X149298900Y-117076800D03*
X149298900Y-117584800D03*
X149298900Y-118092800D03*
X149298900Y-118575400D03*
D39*
X149959300Y-119235800D03*
X150441900Y-119235800D03*
X150949900Y-119235800D03*
X151457900Y-119235800D03*
X151940500Y-119235800D03*
X152448500Y-119235800D03*
X152956500Y-119235800D03*
X153439100Y-119235800D03*
X153947100Y-119235800D03*
X154455100Y-119235800D03*
X154963100Y-119235800D03*
X155445700Y-119235800D03*
X155953700Y-119235800D03*
X156461700Y-119235800D03*
X156944300Y-119235800D03*
X157452300Y-119235800D03*
X157960300Y-119235800D03*
X158442900Y-119235800D03*
D38*
X159103300Y-118575400D03*
X159103300Y-118092800D03*
X159103300Y-117584800D03*
X159103300Y-117076800D03*
X159103300Y-116594200D03*
X159103300Y-116086200D03*
X159103300Y-115578200D03*
X159103300Y-115095600D03*
X159103300Y-114587600D03*
X159103300Y-114079600D03*
X159103300Y-113571600D03*
X159103300Y-113089000D03*
X159103300Y-112581000D03*
X159103300Y-112073000D03*
X159103300Y-111590400D03*
X159103300Y-111082400D03*
X159103300Y-110574400D03*
X159103300Y-110091800D03*
D39*
X158442900Y-109431400D03*
X157960300Y-109431400D03*
X157452300Y-109431400D03*
X156944300Y-109431400D03*
X156461700Y-109431400D03*
X155953700Y-109431400D03*
X155445700Y-109431400D03*
X154963100Y-109431400D03*
X154455100Y-109431400D03*
X153947100Y-109431400D03*
X153439100Y-109431400D03*
X152956500Y-109431400D03*
X152448500Y-109431400D03*
X151940500Y-109431400D03*
X151457900Y-109431400D03*
X150949900Y-109431400D03*
X150441900Y-109431400D03*
X149959300Y-109431400D03*
D40*
X154201100Y-114333600D03*
%TD*%
D17*
%TO.C,C42*%
X160351100Y-110003600D03*
X160351100Y-109503600D03*
%TD*%
D19*
%TO.C,L8*%
X160496100Y-95693600D03*
X161046100Y-95693600D03*
%TD*%
D25*
%TO.C,C62*%
X148361100Y-104133600D03*
X148361100Y-104633600D03*
%TD*%
%TO.C,C69*%
X159691100Y-104423600D03*
X159691100Y-104923600D03*
%TD*%
D33*
%TO.C,C34*%
X147951100Y-116143600D03*
X147451100Y-116143600D03*
%TD*%
D18*
%TO.C,R31*%
X166716100Y-100743600D03*
X167226100Y-100743600D03*
%TD*%
D41*
%TO.C,UNK_HOLE_3*%
X103501100Y-60003600D03*
%TD*%
D42*
%TO.C,J12*%
X172881100Y-83023600D03*
D15*
X169288998Y-83023600D03*
X172881100Y-86615702D03*
X176473202Y-83023600D03*
X172881100Y-79431498D03*
%TD*%
D33*
%TO.C,C78*%
X155671100Y-102673600D03*
X155171100Y-102673600D03*
%TD*%
D19*
%TO.C,C49*%
X146361100Y-104943600D03*
X146861100Y-104943600D03*
%TD*%
D17*
%TO.C,C74*%
X164541100Y-97643600D03*
X164541100Y-97143600D03*
%TD*%
%TO.C,C87*%
X159441100Y-94253600D03*
X159441100Y-93753600D03*
%TD*%
%TO.C,C91*%
X160471100Y-95343600D03*
X160471100Y-94843600D03*
%TD*%
D43*
%TO.C,R23*%
X139841100Y-99528600D03*
X139841100Y-99018600D03*
%TD*%
D22*
%TO.C,C46*%
X132801100Y-59803600D03*
X132801100Y-62603600D03*
%TD*%
D44*
%TO.C,C51*%
X186201100Y-69103600D03*
X186201100Y-66303600D03*
%TD*%
D43*
%TO.C,R8*%
X112361100Y-133758600D03*
X112361100Y-133248600D03*
%TD*%
D17*
%TO.C,C63*%
X144341100Y-94253600D03*
X144341100Y-93753600D03*
%TD*%
D31*
%TO.C,R41*%
X156471100Y-121278600D03*
X156471100Y-121788600D03*
%TD*%
D41*
%TO.C,UNK_HOLE_1*%
X193501100Y-150003600D03*
%TD*%
D26*
%TO.C,U7*%
X159219100Y-88555800D03*
X158711100Y-88555800D03*
X158203100Y-88555800D03*
D27*
X157263300Y-89495600D03*
X157263300Y-90003600D03*
X157263300Y-90511600D03*
D26*
X158203100Y-91451400D03*
X158711100Y-91451400D03*
X159219100Y-91451400D03*
D27*
X160158900Y-90511600D03*
X160158900Y-90003600D03*
X160158900Y-89495600D03*
D28*
X158711100Y-90003600D03*
%TD*%
D19*
%TO.C,L2*%
X144516100Y-94603600D03*
X145066100Y-94603600D03*
%TD*%
D31*
%TO.C,R22*%
X140281100Y-98058600D03*
X140281100Y-98568600D03*
%TD*%
D22*
%TO.C,C27*%
X144801100Y-148303600D03*
X144801100Y-151103600D03*
%TD*%
D34*
%TO.C,J2*%
X191361100Y-105643600D03*
D15*
X188821100Y-108183600D03*
X193901100Y-108183600D03*
X193901100Y-103103600D03*
X188821100Y-103103600D03*
%TD*%
D14*
%TO.C,J11*%
X158701100Y-81003600D03*
D15*
X156161100Y-78463600D03*
X156161100Y-83543600D03*
X161241100Y-83543600D03*
X161241100Y-78463600D03*
%TD*%
D45*
%TO.C,D2*%
X155331100Y-95270600D03*
X155331100Y-93516600D03*
%TD*%
D30*
%TO.C,X13*%
X112171100Y-59803600D03*
X109631100Y-59803600D03*
%TD*%
D19*
%TO.C,L7*%
X161396100Y-95693600D03*
X161946100Y-95693600D03*
%TD*%
D17*
%TO.C,C59*%
X148151100Y-105683600D03*
X148151100Y-105183600D03*
%TD*%
D31*
%TO.C,R38*%
X154741100Y-100138600D03*
X154741100Y-100648600D03*
%TD*%
D25*
%TO.C,C50*%
X150141100Y-101633600D03*
X150141100Y-102133600D03*
%TD*%
D33*
%TO.C,C56*%
X150611100Y-95563600D03*
X150111100Y-95563600D03*
%TD*%
D18*
%TO.C,R4*%
X130026100Y-140843600D03*
X130536100Y-140843600D03*
%TD*%
D19*
%TO.C,C37*%
X160451100Y-116043600D03*
X160951100Y-116043600D03*
%TD*%
D14*
%TO.C,J1*%
X151441100Y-65003600D03*
D15*
X148901100Y-62463600D03*
X148901100Y-67543600D03*
X153981100Y-67543600D03*
X153981100Y-62463600D03*
%TD*%
D14*
%TO.C,J8*%
X191211100Y-138723600D03*
D15*
X188671100Y-136183600D03*
X188671100Y-141263600D03*
X193751100Y-141263600D03*
X193751100Y-136183600D03*
%TD*%
D14*
%TO.C,J10*%
X144431100Y-81003600D03*
D15*
X141891100Y-78463600D03*
X141891100Y-83543600D03*
X146971100Y-83543600D03*
X146971100Y-78463600D03*
%TD*%
D25*
%TO.C,C11*%
X145871100Y-104453600D03*
X145871100Y-104953600D03*
%TD*%
D46*
%TO.C,L10*%
X141801100Y-148803600D03*
X136801100Y-148803600D03*
%TD*%
D18*
%TO.C,R12*%
X145356100Y-103933600D03*
X145866100Y-103933600D03*
%TD*%
D31*
%TO.C,R24*%
X140821100Y-100658600D03*
X140821100Y-101168600D03*
%TD*%
D47*
%TO.C,L12*%
X120701100Y-66503600D03*
X120701100Y-61503600D03*
%TD*%
D22*
%TO.C,C25*%
X133701100Y-148703600D03*
X133701100Y-151503600D03*
%TD*%
D19*
%TO.C,L6*%
X157996100Y-94603600D03*
X158546100Y-94603600D03*
%TD*%
D17*
%TO.C,C84*%
X167201100Y-100293600D03*
X167201100Y-99793600D03*
%TD*%
D19*
%TO.C,C30*%
X155961100Y-108173600D03*
X156461100Y-108173600D03*
%TD*%
D48*
%TO.C,X4*%
X109821100Y-96163600D03*
X109821100Y-105053600D03*
X109821100Y-113943600D03*
D49*
X133321100Y-113943600D03*
X133321100Y-96163600D03*
%TD*%
D19*
%TO.C,L1*%
X147026100Y-95683600D03*
X147576100Y-95683600D03*
%TD*%
%TO.C,C43*%
X154811100Y-108273600D03*
X155311100Y-108273600D03*
%TD*%
D50*
%TO.C,JP1*%
X119941100Y-136333600D03*
X119941100Y-138873600D03*
X117401100Y-136333600D03*
X117401100Y-138873600D03*
X114861100Y-136333600D03*
X114861100Y-138873600D03*
X112321100Y-136333600D03*
X112321100Y-138873600D03*
X109781100Y-136333600D03*
X109781100Y-138873600D03*
X107241100Y-136333600D03*
X107241100Y-138873600D03*
%TD*%
D17*
%TO.C,C26*%
X160341100Y-114603600D03*
X160341100Y-114103600D03*
%TD*%
D43*
%TO.C,R10*%
X114861100Y-133708600D03*
X114861100Y-133198600D03*
%TD*%
D31*
%TO.C,R7*%
X114871100Y-142428600D03*
X114871100Y-142938600D03*
%TD*%
D17*
%TO.C,C1*%
X146871100Y-95343600D03*
X146871100Y-94843600D03*
%TD*%
D51*
%TO.C,C15*%
X184631100Y-124843600D03*
X185931100Y-124843600D03*
%TD*%
D45*
%TO.C,D1*%
X140251100Y-96000600D03*
X140251100Y-94246600D03*
%TD*%
D17*
%TO.C,C66*%
X147611100Y-95313600D03*
X147611100Y-94813600D03*
%TD*%
D22*
%TO.C,C21*%
X108301100Y-123003600D03*
X108301100Y-125803600D03*
%TD*%
D31*
%TO.C,R6*%
X114881100Y-141378600D03*
X114881100Y-141888600D03*
%TD*%
D18*
%TO.C,R5*%
X146266100Y-116843600D03*
X146776100Y-116843600D03*
%TD*%
D19*
%TO.C,C10*%
X146881100Y-115583600D03*
X147381100Y-115583600D03*
%TD*%
%TO.C,C7*%
X147761100Y-114613600D03*
X148261100Y-114613600D03*
%TD*%
D18*
%TO.C,R20*%
X148856100Y-104123600D03*
X149366100Y-104123600D03*
%TD*%
D17*
%TO.C,C86*%
X158701100Y-94253600D03*
X158701100Y-93753600D03*
%TD*%
D43*
%TO.C,R11*%
X114921100Y-132558600D03*
X114921100Y-132048600D03*
%TD*%
D19*
%TO.C,C40*%
X144361100Y-104483600D03*
X144861100Y-104483600D03*
%TD*%
%TO.C,C79*%
X158721100Y-104163600D03*
X159221100Y-104163600D03*
%TD*%
D18*
%TO.C,R33*%
X162786100Y-104103600D03*
X163296100Y-104103600D03*
%TD*%
D19*
%TO.C,C76*%
X156321100Y-95363600D03*
X156821100Y-95363600D03*
%TD*%
D30*
%TO.C,X11*%
X126631100Y-151203600D03*
X129171100Y-151203600D03*
%TD*%
D19*
%TO.C,C61*%
X151911100Y-102963600D03*
X152411100Y-102963600D03*
%TD*%
%TO.C,C28*%
X160311100Y-111593600D03*
X160811100Y-111593600D03*
%TD*%
D22*
%TO.C,C31*%
X168801100Y-148603600D03*
X168801100Y-151403600D03*
%TD*%
D19*
%TO.C,L5*%
X158896100Y-94603600D03*
X159446100Y-94603600D03*
%TD*%
D17*
%TO.C,C88*%
X157941100Y-94253600D03*
X157941100Y-93753600D03*
%TD*%
D52*
%TO.C,R16*%
X151536100Y-101293600D03*
X151026100Y-101293600D03*
%TD*%
D41*
%TO.C,UNK_HOLE_2*%
X193501100Y-60003600D03*
%TD*%
D25*
%TO.C,C81*%
X161201100Y-104093600D03*
X161201100Y-104593600D03*
%TD*%
D24*
%TO.C,C17*%
X163081100Y-130083600D03*
X163081100Y-131383600D03*
%TD*%
D19*
%TO.C,C55*%
X142461100Y-95403600D03*
X142961100Y-95403600D03*
%TD*%
D31*
%TO.C,R34*%
X155321100Y-96538600D03*
X155321100Y-97048600D03*
%TD*%
D25*
%TO.C,C14*%
X143321100Y-104403600D03*
X143321100Y-104903600D03*
%TD*%
D18*
%TO.C,R32*%
X163706100Y-104103600D03*
X164216100Y-104103600D03*
%TD*%
D19*
%TO.C,C41*%
X160511100Y-113123600D03*
X161011100Y-113123600D03*
%TD*%
D31*
%TO.C,R37*%
X155341100Y-100588600D03*
X155341100Y-101098600D03*
%TD*%
D43*
%TO.C,R9*%
X112321100Y-132568600D03*
X112321100Y-132058600D03*
%TD*%
D53*
%TO.C,U9*%
X167794059Y-88719061D03*
X167434849Y-88359851D03*
X167075639Y-88000641D03*
D54*
X165746561Y-88000641D03*
X165387351Y-88359851D03*
X165028141Y-88719061D03*
D53*
X165028141Y-90048139D03*
X165387351Y-90407349D03*
X165746561Y-90766559D03*
D54*
X167075639Y-90766559D03*
X167434849Y-90407349D03*
X167794059Y-90048139D03*
D55*
X166411100Y-89383600D03*
%TD*%
D14*
%TO.C,J6*%
X151291100Y-136733600D03*
D15*
X148751100Y-134193600D03*
X148751100Y-139273600D03*
X153831100Y-139273600D03*
X153831100Y-134193600D03*
%TD*%
D18*
%TO.C,R26*%
X157716100Y-103843600D03*
X158226100Y-103843600D03*
%TD*%
D19*
%TO.C,L3*%
X143666100Y-94603600D03*
X144216100Y-94603600D03*
%TD*%
%TO.C,C5*%
X147771100Y-112613600D03*
X148271100Y-112613600D03*
%TD*%
D56*
%TO.C,J4*%
X177371100Y-114753600D03*
X177371100Y-116023600D03*
D57*
X178641100Y-114118600D03*
X178641100Y-116658600D03*
X176101100Y-114118600D03*
X176101100Y-116658600D03*
%TD*%
D19*
%TO.C,L4*%
X146176100Y-95683600D03*
X146726100Y-95683600D03*
%TD*%
D30*
%TO.C,X14*%
X141871100Y-59703600D03*
X139331100Y-59703600D03*
%TD*%
D47*
%TO.C,L13*%
X128101100Y-64803600D03*
X128101100Y-59803600D03*
%TD*%
D17*
%TO.C,C89*%
X161201100Y-95343600D03*
X161201100Y-94843600D03*
%TD*%
D33*
%TO.C,C44*%
X151081100Y-108183600D03*
X150581100Y-108183600D03*
%TD*%
D58*
%TO.C,U1*%
X148846900Y-102633600D03*
X148846900Y-102133600D03*
X148846900Y-101633600D03*
X148846900Y-101133600D03*
X148846900Y-100633600D03*
X148846900Y-100133600D03*
X148846900Y-99633600D03*
X148846900Y-99133600D03*
X148846900Y-98633600D03*
X148846900Y-98133600D03*
X148846900Y-97633600D03*
X148846900Y-97133600D03*
D59*
X148371100Y-96657800D03*
X147871100Y-96657800D03*
X147371100Y-96657800D03*
X146871100Y-96657800D03*
X146371100Y-96657800D03*
X145871100Y-96657800D03*
X145371100Y-96657800D03*
X144871100Y-96657800D03*
X144371100Y-96657800D03*
X143871100Y-96657800D03*
X143371100Y-96657800D03*
X142871100Y-96657800D03*
D60*
X142395300Y-97133600D03*
X142395300Y-97633600D03*
X142395300Y-98133600D03*
X142395300Y-98633600D03*
X142395300Y-99133600D03*
X142395300Y-99633600D03*
X142395300Y-100133600D03*
X142395300Y-100633600D03*
X142395300Y-101133600D03*
X142395300Y-101633600D03*
X142395300Y-102133600D03*
X142395300Y-102633600D03*
D61*
X142871100Y-103109400D03*
X143371100Y-103109400D03*
X143871100Y-103109400D03*
X144371100Y-103109400D03*
X144871100Y-103109400D03*
X145371100Y-103109400D03*
X145871100Y-103109400D03*
X146371100Y-103109400D03*
X146871100Y-103109400D03*
X147371100Y-103109400D03*
X147871100Y-103109400D03*
X148371100Y-103109400D03*
D62*
X146933600Y-101196100D03*
X146933600Y-98571100D03*
X144308600Y-98571100D03*
X144308600Y-101196100D03*
%TD*%
D33*
%TO.C,C18*%
X149321100Y-120363600D03*
X148821100Y-120363600D03*
%TD*%
D25*
%TO.C,C80*%
X160751100Y-104093600D03*
X160751100Y-104593600D03*
%TD*%
D34*
%TO.C,J13*%
X110171100Y-87093600D03*
D15*
X107631100Y-89633600D03*
X112711100Y-89633600D03*
X112711100Y-84553600D03*
X107631100Y-84553600D03*
%TD*%
D52*
%TO.C,R29*%
X165676100Y-99643600D03*
X165166100Y-99643600D03*
%TD*%
D19*
%TO.C,C22*%
X156961100Y-120473600D03*
X157461100Y-120473600D03*
%TD*%
D17*
%TO.C,C9*%
X147261100Y-117363600D03*
X147261100Y-116863600D03*
%TD*%
D19*
%TO.C,C2*%
X129991100Y-141483600D03*
X130491100Y-141483600D03*
%TD*%
D17*
%TO.C,C32*%
X152981100Y-108353600D03*
X152981100Y-107853600D03*
%TD*%
D18*
%TO.C,R15*%
X150206100Y-99963600D03*
X150716100Y-99963600D03*
%TD*%
D35*
%TO.C,U8*%
X158701100Y-87359200D03*
X158701100Y-86648000D03*
D36*
X159323400Y-87003600D03*
X158078800Y-87003600D03*
%TD*%
D33*
%TO.C,C82*%
X163551100Y-105863600D03*
X163051100Y-105863600D03*
%TD*%
D25*
%TO.C,C13*%
X143901100Y-104403600D03*
X143901100Y-104903600D03*
%TD*%
D17*
%TO.C,C57*%
X150191100Y-97653600D03*
X150191100Y-97153600D03*
%TD*%
D33*
%TO.C,C92*%
X115681100Y-87083600D03*
X115181100Y-87083600D03*
%TD*%
D63*
%TO.C,FB4*%
X161961100Y-105878600D03*
X161961100Y-107468600D03*
%TD*%
D64*
%TO.C,U10*%
X168339653Y-87415047D03*
X168842547Y-86912153D03*
D65*
X169031133Y-87603633D03*
X168151067Y-86723567D03*
%TD*%
D26*
%TO.C,U3*%
X151919100Y-89175800D03*
X151411100Y-89175800D03*
X150903100Y-89175800D03*
D27*
X149963300Y-90115600D03*
X149963300Y-90623600D03*
X149963300Y-91131600D03*
D26*
X150903100Y-92071400D03*
X151411100Y-92071400D03*
X151919100Y-92071400D03*
D27*
X152858900Y-91131600D03*
X152858900Y-90623600D03*
X152858900Y-90115600D03*
D28*
X151411100Y-90623600D03*
%TD*%
D58*
%TO.C,U6*%
X163206900Y-102633600D03*
X163206900Y-102133600D03*
X163206900Y-101633600D03*
X163206900Y-101133600D03*
X163206900Y-100633600D03*
X163206900Y-100133600D03*
X163206900Y-99633600D03*
X163206900Y-99133600D03*
X163206900Y-98633600D03*
X163206900Y-98133600D03*
X163206900Y-97633600D03*
X163206900Y-97133600D03*
D59*
X162731100Y-96657800D03*
X162231100Y-96657800D03*
X161731100Y-96657800D03*
X161231100Y-96657800D03*
X160731100Y-96657800D03*
X160231100Y-96657800D03*
X159731100Y-96657800D03*
X159231100Y-96657800D03*
X158731100Y-96657800D03*
X158231100Y-96657800D03*
X157731100Y-96657800D03*
X157231100Y-96657800D03*
D60*
X156755300Y-97133600D03*
X156755300Y-97633600D03*
X156755300Y-98133600D03*
X156755300Y-98633600D03*
X156755300Y-99133600D03*
X156755300Y-99633600D03*
X156755300Y-100133600D03*
X156755300Y-100633600D03*
X156755300Y-101133600D03*
X156755300Y-101633600D03*
X156755300Y-102133600D03*
X156755300Y-102633600D03*
D61*
X157231100Y-103109400D03*
X157731100Y-103109400D03*
X158231100Y-103109400D03*
X158731100Y-103109400D03*
X159231100Y-103109400D03*
X159731100Y-103109400D03*
X160231100Y-103109400D03*
X160731100Y-103109400D03*
X161231100Y-103109400D03*
X161731100Y-103109400D03*
X162231100Y-103109400D03*
X162731100Y-103109400D03*
D62*
X161293600Y-101196100D03*
X161293600Y-98571100D03*
X158668600Y-98571100D03*
X158668600Y-101196100D03*
%TD*%
D25*
%TO.C,C71*%
X157691100Y-104733600D03*
X157691100Y-105233600D03*
%TD*%
%TO.C,C58*%
X150121100Y-100583600D03*
X150121100Y-101083600D03*
%TD*%
D19*
%TO.C,C6*%
X147771100Y-113083600D03*
X148271100Y-113083600D03*
%TD*%
D17*
%TO.C,C90*%
X161971100Y-95343600D03*
X161971100Y-94843600D03*
%TD*%
D31*
%TO.C,R14*%
X150241100Y-98578600D03*
X150241100Y-99088600D03*
%TD*%
D25*
%TO.C,C68*%
X160241100Y-104393600D03*
X160241100Y-104893600D03*
%TD*%
D17*
%TO.C,C16*%
X147571100Y-110603600D03*
X147571100Y-110103600D03*
%TD*%
D31*
%TO.C,R21*%
X141031100Y-97578600D03*
X141031100Y-98088600D03*
%TD*%
D44*
%TO.C,C33*%
X116201100Y-61303600D03*
X116201100Y-58503600D03*
%TD*%
D52*
%TO.C,R2*%
X105896100Y-96193600D03*
X105386100Y-96193600D03*
%TD*%
D18*
%TO.C,R1*%
X159716100Y-103893600D03*
X160226100Y-103893600D03*
%TD*%
%TO.C,R28*%
X164146100Y-99653600D03*
X164656100Y-99653600D03*
%TD*%
D19*
%TO.C,C4*%
X147731100Y-111613600D03*
X148231100Y-111613600D03*
%TD*%
D66*
%TO.C,JP2*%
X188321100Y-96643600D03*
X185781100Y-96643600D03*
X188321100Y-94103600D03*
X185781100Y-94103600D03*
X188321100Y-91563600D03*
X185781100Y-91563600D03*
X188321100Y-89023600D03*
X185781100Y-89023600D03*
X188321100Y-86483600D03*
X185781100Y-86483600D03*
X188321100Y-83943600D03*
X185781100Y-83943600D03*
X188321100Y-81403600D03*
X185781100Y-81403600D03*
%TD*%
D43*
%TO.C,R17*%
X150981100Y-102408600D03*
X150981100Y-101898600D03*
%TD*%
D41*
%TO.C,UNK_HOLE_0*%
X103501100Y-150003600D03*
%TD*%
D33*
%TO.C,C75*%
X163471100Y-95173600D03*
X162971100Y-95173600D03*
%TD*%
D56*
%TO.C,J3*%
X177371100Y-107293600D03*
X177371100Y-108563600D03*
D57*
X178641100Y-106658600D03*
X178641100Y-109198600D03*
X176101100Y-106658600D03*
X176101100Y-109198600D03*
%TD*%
D43*
%TO.C,R30*%
X166131100Y-100738600D03*
X166131100Y-100228600D03*
%TD*%
D25*
%TO.C,C70*%
X158316100Y-104728600D03*
X158316100Y-105228600D03*
%TD*%
D19*
%TO.C,C3*%
X147711100Y-109283600D03*
X148211100Y-109283600D03*
%TD*%
D25*
%TO.C,C39*%
X141061100Y-102683600D03*
X141061100Y-103183600D03*
%TD*%
D67*
%TO.C,L11*%
X171801100Y-148703600D03*
X176801100Y-148703600D03*
%TD*%
D18*
%TO.C,R18*%
X150956100Y-102933600D03*
X151466100Y-102933600D03*
%TD*%
D17*
%TO.C,C83*%
X166121100Y-99643600D03*
X166121100Y-99143600D03*
%TD*%
D35*
%TO.C,U4*%
X144411100Y-87359200D03*
X144411100Y-86648000D03*
D36*
X145033400Y-87003600D03*
X143788800Y-87003600D03*
%TD*%
D21*
%TO.C,FB2*%
X152876100Y-98993600D03*
X151286100Y-98993600D03*
%TD*%
D19*
%TO.C,C48*%
X146361100Y-104463600D03*
X146861100Y-104463600D03*
%TD*%
D17*
%TO.C,C64*%
X145071100Y-94253600D03*
X145071100Y-93753600D03*
%TD*%
D31*
%TO.C,R3*%
X105881100Y-95028600D03*
X105881100Y-95538600D03*
%TD*%
D22*
%TO.C,C23*%
X119501100Y-123103600D03*
X119501100Y-125903600D03*
%TD*%
D25*
%TO.C,C72*%
X164501100Y-101543600D03*
X164501100Y-102043600D03*
%TD*%
D18*
%TO.C,R19*%
X149866100Y-104113600D03*
X150376100Y-104113600D03*
%TD*%
D46*
%TO.C,L9*%
X116401100Y-123103600D03*
X111401100Y-123103600D03*
%TD*%
D25*
%TO.C,C85*%
X162241100Y-104093600D03*
X162241100Y-104593600D03*
%TD*%
D17*
%TO.C,C67*%
X146161100Y-95313600D03*
X146161100Y-94813600D03*
%TD*%
D33*
%TO.C,C77*%
X155371100Y-99623600D03*
X154871100Y-99623600D03*
%TD*%
D31*
%TO.C,R40*%
X157951100Y-121278600D03*
X157951100Y-121788600D03*
%TD*%
M02*
