%TF.GenerationSoftware,KiCad,Pcbnew,10.0.0*%
%TF.CreationDate,2026-03-23T00:54:02+02:00*%
%TF.ProjectId,Clocks_Freq_Synth_board,436c6f63-6b73-45f4-9672-65715f53796e,rev?*%
%TF.SameCoordinates,Original*%
%TF.FileFunction,Copper,L3,Inr*%
%TF.FilePolarity,Positive*%
%FSLAX46Y46*%
G04 Gerber Fmt 4.6, Leading zero omitted, Abs format (unit mm)*
G04 Created by KiCad (PCBNEW 10.0.0) date 2026-03-23 00:54:02*
%MOMM*%
%LPD*%
G01*
G04 APERTURE LIST*
G04 Aperture macros list*
%AMOutline5P*
0 Free polygon, 5 corners , with rotation*
0 The origin of the aperture is its center*
0 number of corners: always 5*
0 $1 to $10 corner X, Y*
0 $11 Rotation angle, in degrees counterclockwise*
0 create outline with 5 corners*
4,1,5,$1,$2,$3,$4,$5,$6,$7,$8,$9,$10,$1,$2,$11*%
%AMOutline6P*
0 Free polygon, 6 corners , with rotation*
0 The origin of the aperture is its center*
0 number of corners: always 6*
0 $1 to $12 corner X, Y*
0 $13 Rotation angle, in degrees counterclockwise*
0 create outline with 6 corners*
4,1,6,$1,$2,$3,$4,$5,$6,$7,$8,$9,$10,$11,$12,$1,$2,$13*%
%AMOutline7P*
0 Free polygon, 7 corners , with rotation*
0 The origin of the aperture is its center*
0 number of corners: always 7*
0 $1 to $14 corner X, Y*
0 $15 Rotation angle, in degrees counterclockwise*
0 create outline with 7 corners*
4,1,7,$1,$2,$3,$4,$5,$6,$7,$8,$9,$10,$11,$12,$13,$14,$1,$2,$15*%
%AMOutline8P*
0 Free polygon, 8 corners , with rotation*
0 The origin of the aperture is its center*
0 number of corners: always 8*
0 $1 to $16 corner X, Y*
0 $17 Rotation angle, in degrees counterclockwise*
0 create outline with 8 corners*
4,1,8,$1,$2,$3,$4,$5,$6,$7,$8,$9,$10,$11,$12,$13,$14,$15,$16,$1,$2,$17*%
G04 Aperture macros list end*
%TA.AperFunction,ComponentPad*%
%ADD10C,1.791000*%
%TD*%
%TA.AperFunction,ComponentPad*%
%ADD11O,3.000000X1.500000*%
%TD*%
%TA.AperFunction,ComponentPad*%
%ADD12O,1.500000X3.000000*%
%TD*%
%TA.AperFunction,ComponentPad*%
%ADD13Outline8P,-0.762000X0.315631X-0.315631X0.762000X0.315631X0.762000X0.762000X0.315631X0.762000X-0.315631X0.315631X-0.762000X-0.315631X-0.762000X-0.762000X-0.315631X180.000000*%
%TD*%
%TA.AperFunction,ComponentPad*%
%ADD14C,1.143000*%
%TD*%
%TA.AperFunction,ComponentPad*%
%ADD15C,1.346200*%
%TD*%
%TA.AperFunction,ComponentPad*%
%ADD16Outline8P,-0.762000X0.315631X-0.315631X0.762000X0.315631X0.762000X0.762000X0.315631X0.762000X-0.315631X0.315631X-0.762000X-0.315631X-0.762000X-0.762000X-0.315631X90.000000*%
%TD*%
%TA.AperFunction,ViaPad*%
%ADD17C,0.350000*%
%TD*%
%TA.AperFunction,ViaPad*%
%ADD18C,0.450000*%
%TD*%
%TA.AperFunction,ViaPad*%
%ADD19C,0.500000*%
%TD*%
%TA.AperFunction,ViaPad*%
%ADD20C,0.750000*%
%TD*%
%TA.AperFunction,ViaPad*%
%ADD21C,1.500000*%
%TD*%
%TA.AperFunction,ViaPad*%
%ADD22C,0.400000*%
%TD*%
%TA.AperFunction,ViaPad*%
%ADD23C,3.000000*%
%TD*%
%TA.AperFunction,Conductor*%
%ADD24C,0.150000*%
%TD*%
G04 APERTURE END LIST*
D10*
%TO.N,GND*%
%TO.C,J5*%
X160521100Y-134625500D03*
X160521100Y-139705500D03*
X165601100Y-139705500D03*
X165601100Y-134625500D03*
%TD*%
%TO.N,GND*%
%TO.C,J9*%
X110891100Y-75173600D03*
X110891100Y-70093600D03*
X105811100Y-70093600D03*
X105811100Y-75173600D03*
%TD*%
D11*
%TO.N,N$69*%
%TO.C,X10*%
X103301100Y-123033600D03*
%TO.N,GND*%
X103301100Y-125573600D03*
%TD*%
%TO.N,+5V0_LO*%
%TO.C,X15*%
X192501100Y-71773600D03*
%TO.N,GND*%
X192501100Y-69233600D03*
%TD*%
D12*
%TO.N,N$73*%
%TO.C,X12*%
X185031100Y-150903600D03*
%TO.N,GND*%
X187571100Y-150903600D03*
%TD*%
D10*
%TO.N,GND*%
%TO.C,J7*%
X188671100Y-127343600D03*
X193751100Y-127343600D03*
X193751100Y-122263600D03*
X188671100Y-122263600D03*
%TD*%
%TO.N,GND*%
%TO.C,J12*%
X169288998Y-83023600D03*
X172881100Y-86615702D03*
X176473202Y-83023600D03*
X172881100Y-79431498D03*
%TD*%
%TO.N,GND*%
%TO.C,J2*%
X188821100Y-108183600D03*
X193901100Y-108183600D03*
X193901100Y-103103600D03*
X188821100Y-103103600D03*
%TD*%
%TO.N,GND*%
%TO.C,J11*%
X156161100Y-78463600D03*
X156161100Y-83543600D03*
X161241100Y-83543600D03*
X161241100Y-78463600D03*
%TD*%
D12*
%TO.N,N$75*%
%TO.C,X13*%
X112171100Y-59803600D03*
%TO.N,GND*%
X109631100Y-59803600D03*
%TD*%
D10*
%TO.N,GND*%
%TO.C,J1*%
X148901100Y-62463600D03*
X148901100Y-67543600D03*
X153981100Y-67543600D03*
X153981100Y-62463600D03*
%TD*%
%TO.N,GND*%
%TO.C,J8*%
X188671100Y-136183600D03*
X188671100Y-141263600D03*
X193751100Y-141263600D03*
X193751100Y-136183600D03*
%TD*%
%TO.N,GND*%
%TO.C,J10*%
X141891100Y-78463600D03*
X141891100Y-83543600D03*
X146971100Y-83543600D03*
X146971100Y-78463600D03*
%TD*%
D13*
%TO.N,AD9523_PD*%
%TO.C,JP1*%
X119941100Y-136333600D03*
%TO.N,AD9523_REF_SEL*%
X119941100Y-138873600D03*
%TO.N,AD9523_SYNC*%
X117401100Y-136333600D03*
%TO.N,AD9523_RESET*%
X117401100Y-138873600D03*
%TO.N,AD9523_CS*%
X114861100Y-136333600D03*
%TO.N,AD9523_SCLK*%
X114861100Y-138873600D03*
%TO.N,AD9523_SDIO*%
X112321100Y-136333600D03*
%TO.N,AD9523_SDO*%
X112321100Y-138873600D03*
%TO.N,AD9523_STATUS0*%
X109781100Y-136333600D03*
%TO.N,AD9523_STATUS1*%
X109781100Y-138873600D03*
%TO.N,AD9523_EEPROM_SEL*%
X107241100Y-136333600D03*
%TO.N,GND*%
X107241100Y-138873600D03*
%TD*%
D12*
%TO.N,N$71*%
%TO.C,X11*%
X126631100Y-151203600D03*
%TO.N,GND*%
X129171100Y-151203600D03*
%TD*%
D10*
%TO.N,GND*%
%TO.C,J6*%
X148751100Y-134193600D03*
X148751100Y-139273600D03*
X153831100Y-139273600D03*
X153831100Y-134193600D03*
%TD*%
D14*
%TO.N,AD9523_OUT5_P*%
%TO.C,J4*%
X177371100Y-114753600D03*
%TO.N,AD9523_OUT5_N*%
X177371100Y-116023600D03*
D15*
%TO.N,N/C*%
X178641100Y-114118600D03*
X178641100Y-116658600D03*
X176101100Y-114118600D03*
X176101100Y-116658600D03*
%TD*%
D12*
%TO.N,N$77*%
%TO.C,X14*%
X141871100Y-59703600D03*
%TO.N,GND*%
X139331100Y-59703600D03*
%TD*%
D10*
%TO.N,GND*%
%TO.C,J13*%
X107631100Y-89633600D03*
X112711100Y-89633600D03*
X112711100Y-84553600D03*
X107631100Y-84553600D03*
%TD*%
D16*
%TO.N,ADF4382_SDO*%
%TO.C,JP2*%
X188321100Y-96643600D03*
%TO.N,ADF4382_SCLK*%
X185781100Y-96643600D03*
%TO.N,ADF4382_SDIO*%
X188321100Y-94103600D03*
%TO.N,ADF4382_TX_CS*%
X185781100Y-94103600D03*
%TO.N,ADF4382_TX_CE*%
X188321100Y-91563600D03*
%TO.N,ADF4382_TX_DELSTR*%
X185781100Y-91563600D03*
%TO.N,ADF4382_TX_DELADJ*%
X188321100Y-89023600D03*
%TO.N,ADF4382_TX_LKDET*%
X185781100Y-89023600D03*
%TO.N,ADF4382_RX_CS*%
X188321100Y-86483600D03*
%TO.N,ADF4382_RX_CE*%
X185781100Y-86483600D03*
%TO.N,ADF4382_RX_DELSTR*%
X188321100Y-83943600D03*
%TO.N,ADF4382_RX_DELADJ*%
X185781100Y-83943600D03*
%TO.N,ADF4382_RX_LKDET*%
X188321100Y-81403600D03*
%TO.N,GND*%
X185781100Y-81403600D03*
%TD*%
D14*
%TO.N,AD9523_OUT4_P*%
%TO.C,J3*%
X177371100Y-107293600D03*
%TO.N,AD9523_OUT4_N*%
X177371100Y-108563600D03*
D15*
%TO.N,N/C*%
X178641100Y-106658600D03*
X178641100Y-109198600D03*
X176101100Y-106658600D03*
X176101100Y-109198600D03*
%TD*%
D17*
%TO.N,GND*%
X144751100Y-89653600D03*
D18*
X152051100Y-70303600D03*
D19*
X130441100Y-90481600D03*
X119491100Y-130031600D03*
D18*
X150831100Y-67103600D03*
X150831100Y-81503600D03*
X145041100Y-83503600D03*
D20*
X161801100Y-100703600D03*
D19*
X168741100Y-133381600D03*
X110891100Y-100531600D03*
D17*
X161956100Y-117678600D03*
D19*
X146391100Y-122831600D03*
X180891100Y-120531600D03*
X148341100Y-60281600D03*
D21*
X154151100Y-114403600D03*
D19*
X168391100Y-75531600D03*
X135641100Y-91981600D03*
X177691100Y-97281600D03*
X135741100Y-106231600D03*
D20*
X146301100Y-100603600D03*
D19*
X135891100Y-140531600D03*
D17*
X147151100Y-114603600D03*
D19*
X138441100Y-133431600D03*
X115141100Y-85431600D03*
X163741100Y-118881600D03*
D17*
X152701100Y-88553600D03*
D19*
X139391100Y-82731600D03*
D17*
X148151100Y-106053600D03*
D19*
X113741100Y-131281600D03*
X177541100Y-85431600D03*
D17*
X146851100Y-94503600D03*
X151051100Y-90253600D03*
D18*
X152051100Y-71103600D03*
X152051100Y-77503600D03*
D21*
X156701100Y-114403600D03*
D22*
X114951100Y-131253600D03*
D19*
X105391100Y-86131600D03*
X106041100Y-82081600D03*
X100891100Y-130531600D03*
X162391100Y-90181600D03*
X110891100Y-140531600D03*
X155941100Y-60031600D03*
X104391100Y-110931600D03*
D21*
X123501100Y-68603600D03*
D18*
X152051100Y-68703600D03*
D19*
X153641100Y-70631600D03*
D18*
X150831100Y-85503600D03*
X172141800Y-82762900D03*
D19*
X130391100Y-80831600D03*
X141641100Y-92081600D03*
X145841100Y-143181600D03*
X110941100Y-66531600D03*
D21*
X169401100Y-66703600D03*
D17*
X149001100Y-91153600D03*
D19*
X170791100Y-105631600D03*
X181041100Y-105431600D03*
D17*
X166451100Y-90003600D03*
D19*
X160891100Y-60531600D03*
D18*
X152051100Y-66303600D03*
D17*
X158901100Y-105803600D03*
D20*
X144901100Y-100553600D03*
X159301100Y-97953600D03*
D19*
X145891100Y-60531600D03*
D17*
X176301100Y-102403600D03*
D19*
X125891100Y-140531600D03*
D20*
X146351100Y-101703600D03*
D17*
X154501100Y-99603600D03*
D20*
X158101100Y-101803600D03*
D18*
X143821100Y-84303600D03*
D17*
X151801100Y-90253600D03*
D19*
X161191100Y-92031600D03*
D17*
X163031100Y-119753600D03*
D19*
X195891100Y-150531600D03*
X123391100Y-115531600D03*
X146591100Y-62281600D03*
X105291100Y-88731600D03*
D21*
X136751100Y-129253600D03*
D18*
X150831100Y-82303600D03*
D19*
X196741100Y-125481600D03*
X178441100Y-131781600D03*
D17*
X151051100Y-90953600D03*
D18*
X150831100Y-73503600D03*
D19*
X140091100Y-91831600D03*
X130941100Y-121231600D03*
X160891100Y-120531600D03*
X147291100Y-91981600D03*
D18*
X169316800Y-85587900D03*
D17*
X143001100Y-86753600D03*
X167201100Y-99403600D03*
D19*
X170891100Y-110531600D03*
X100891100Y-110531600D03*
X164471100Y-128971600D03*
D17*
X139151100Y-99553600D03*
X144751100Y-90353600D03*
X160751100Y-104953600D03*
D19*
X110891100Y-80531600D03*
X166191100Y-153181600D03*
X165891100Y-130531600D03*
X107091100Y-105531600D03*
X120891100Y-130531600D03*
D17*
X159801100Y-114053600D03*
D19*
X175891100Y-130531600D03*
X163741100Y-82381600D03*
X161141100Y-152481600D03*
X138391100Y-85531600D03*
D18*
X145041100Y-81903600D03*
D19*
X151041100Y-59231600D03*
X105891100Y-150531600D03*
X178391100Y-135531600D03*
X145541100Y-76131600D03*
X165491100Y-101431600D03*
X139791100Y-116181600D03*
X163791100Y-123431600D03*
X196641100Y-120331600D03*
D17*
X168051100Y-91803600D03*
D19*
X146491100Y-69181600D03*
X164951100Y-131281600D03*
D17*
X147201100Y-111603600D03*
D19*
X157691100Y-152731600D03*
D18*
X152051100Y-73503600D03*
D19*
X188441100Y-115881600D03*
X191491100Y-95331600D03*
X175891100Y-99781600D03*
X103112540Y-71532450D03*
X140891100Y-120531600D03*
X163731100Y-124511600D03*
X110891100Y-110531600D03*
D21*
X132801100Y-64703600D03*
D19*
X153441100Y-60031600D03*
D17*
X169551100Y-88003600D03*
X146851100Y-103803600D03*
X158701100Y-97153600D03*
D18*
X150831100Y-70303600D03*
X143821100Y-82703600D03*
D19*
X110891100Y-90531600D03*
D17*
X161201100Y-97153600D03*
D19*
X103391100Y-65531600D03*
X108041100Y-134481600D03*
X170891100Y-130531600D03*
X168811100Y-144951600D03*
D17*
X160251100Y-97153600D03*
X141701100Y-97153600D03*
D19*
X133141100Y-142281600D03*
X146541100Y-124181600D03*
X183391100Y-85531600D03*
X141441100Y-117731600D03*
X103795740Y-69821041D03*
X166641100Y-80481600D03*
X178091100Y-127931600D03*
X107341100Y-93731600D03*
X135341100Y-107381600D03*
D18*
X150831100Y-69503600D03*
D19*
X145891100Y-70531600D03*
X103391100Y-115531600D03*
X113391100Y-95531600D03*
X149391100Y-83531600D03*
X175941100Y-86831600D03*
X163641100Y-121181600D03*
D18*
X150831100Y-72703600D03*
D19*
X170891100Y-140531600D03*
D17*
X156351100Y-90553600D03*
D19*
X147341100Y-152791600D03*
X111841059Y-68656247D03*
X145841100Y-138181600D03*
X156841100Y-86081600D03*
X173091100Y-118531600D03*
X163291100Y-75981600D03*
D18*
X143821100Y-85903600D03*
D20*
X147351100Y-101753600D03*
D18*
X158091100Y-83903600D03*
X145041100Y-85103600D03*
D20*
X143651100Y-100503600D03*
D19*
X115891100Y-140531600D03*
D20*
X147451100Y-98053600D03*
D17*
X158351100Y-89653600D03*
X162651100Y-95703600D03*
D19*
X115241100Y-83831600D03*
D20*
X160701100Y-100653600D03*
D19*
X133391100Y-85531600D03*
X112818437Y-75407069D03*
D20*
X158051100Y-97903600D03*
D19*
X176041100Y-92481600D03*
X130391100Y-84831600D03*
D18*
X150831100Y-66303600D03*
D19*
X170616100Y-117606600D03*
D18*
X157921100Y-80633600D03*
D19*
X120891100Y-111581600D03*
X114191100Y-82231600D03*
X145841100Y-133181600D03*
D21*
X147431100Y-143393600D03*
D18*
X171011800Y-83892900D03*
D19*
X173391100Y-105531600D03*
D22*
X112351100Y-131253600D03*
D18*
X170176800Y-86427900D03*
D19*
X166541100Y-141181600D03*
X127541100Y-114531600D03*
D17*
X162031100Y-116053600D03*
D19*
X174341100Y-77381600D03*
X112981584Y-70103622D03*
X139341100Y-74981600D03*
D17*
X151801100Y-90953600D03*
D19*
X158541100Y-152731600D03*
X123391100Y-105531600D03*
X191141100Y-80381600D03*
X104773118Y-76571863D03*
X158891100Y-75231600D03*
D17*
X145901100Y-97103600D03*
X143051100Y-95903600D03*
D22*
X113101100Y-150953600D03*
D19*
X140941100Y-76131600D03*
X151391100Y-152581600D03*
D17*
X157101100Y-87003600D03*
D19*
X146441100Y-125631600D03*
X103055881Y-73374319D03*
X108391100Y-145531600D03*
D18*
X150831100Y-71903600D03*
D21*
X179801100Y-153603600D03*
D19*
X100891100Y-60531600D03*
X140791100Y-138631600D03*
D21*
X154401100Y-117153600D03*
D19*
X178041100Y-90231600D03*
X132241100Y-110081600D03*
D17*
X144351100Y-93403600D03*
D19*
X165191100Y-106131600D03*
D18*
X150731100Y-65473600D03*
D19*
X153541100Y-83331600D03*
X143441100Y-75981600D03*
X155891100Y-153331600D03*
D17*
X146851100Y-116103600D03*
X147051100Y-90503600D03*
D18*
X143821100Y-85103600D03*
D19*
X153541100Y-80631600D03*
D17*
X154951100Y-98053600D03*
D18*
X159311100Y-84703600D03*
D19*
X137091100Y-106081600D03*
X177091100Y-80031600D03*
X141791100Y-122231600D03*
X110891100Y-150531600D03*
X180891100Y-60531600D03*
D17*
X163951100Y-101153600D03*
D18*
X152051100Y-85503600D03*
D19*
X171991100Y-89081600D03*
X103391100Y-145531600D03*
X152741100Y-152531600D03*
X108441100Y-82181600D03*
X156341100Y-67881600D03*
X161141100Y-65581600D03*
D17*
X144051100Y-89653600D03*
D19*
X115691100Y-128531600D03*
D17*
X144051100Y-90353600D03*
D19*
X145841100Y-140681600D03*
X173841100Y-111631600D03*
D17*
X158351100Y-90403600D03*
X150001100Y-88553600D03*
D19*
X153841100Y-76231600D03*
X115891100Y-80531600D03*
X175391100Y-126881600D03*
D18*
X143821100Y-81903600D03*
D21*
X144401100Y-153503600D03*
D19*
X124291100Y-129581600D03*
X170891100Y-60531600D03*
D18*
X150831100Y-71103600D03*
D19*
X162791100Y-89131600D03*
X125941100Y-106431600D03*
X100891100Y-90531600D03*
X141691100Y-86031600D03*
X188491100Y-130781600D03*
D17*
X154051100Y-91153600D03*
D20*
X160601100Y-97953600D03*
D18*
X150831100Y-74303600D03*
X143821100Y-83503600D03*
D21*
X156801100Y-117203600D03*
D19*
X116041100Y-152281600D03*
D18*
X145041100Y-85903600D03*
D19*
X175891100Y-140531600D03*
D17*
X146151100Y-117403600D03*
D18*
X158091100Y-84703600D03*
D17*
X142951100Y-87953600D03*
D20*
X144901100Y-97953600D03*
D19*
X155291100Y-86181600D03*
X150891100Y-80531600D03*
D20*
X161901100Y-99103600D03*
D21*
X186101100Y-64003600D03*
D19*
X147991100Y-86081600D03*
X153191100Y-93481600D03*
X104546512Y-67324644D03*
D17*
X159201100Y-119653600D03*
D19*
X128391100Y-125531600D03*
D18*
X152051100Y-79903600D03*
D19*
X128441100Y-134531600D03*
X153991100Y-86181600D03*
X140641100Y-133231600D03*
X112291100Y-127081600D03*
D17*
X141701100Y-97603600D03*
D21*
X151701100Y-111803600D03*
D20*
X160751100Y-101853600D03*
D19*
X166891100Y-81681600D03*
D21*
X154101100Y-111853600D03*
D19*
X163741100Y-141231600D03*
X139291100Y-141031600D03*
X99891100Y-140531600D03*
X105891100Y-80531600D03*
X146391100Y-126631600D03*
D18*
X150831100Y-75903600D03*
X158091100Y-81503600D03*
D19*
X141131100Y-125331600D03*
D17*
X149601100Y-97153600D03*
X149601100Y-102153600D03*
D19*
X105891100Y-120531600D03*
X131541100Y-128981600D03*
X140491100Y-86181600D03*
X105023075Y-68446507D03*
X190891100Y-130531600D03*
D17*
X161801100Y-113103600D03*
D18*
X159441100Y-80613600D03*
D19*
X115241100Y-92081600D03*
X170891100Y-120531600D03*
D22*
X130501100Y-142053600D03*
D19*
X146391100Y-64681600D03*
X109291100Y-78631600D03*
X166791100Y-84131600D03*
D21*
X168901100Y-153403600D03*
D19*
X141291100Y-115581600D03*
X100891100Y-70531600D03*
X121741100Y-118281600D03*
X169671100Y-145911600D03*
D18*
X152051100Y-80703600D03*
D19*
X149441100Y-80581600D03*
X170141100Y-95481600D03*
X140891100Y-70531600D03*
X163391100Y-65531600D03*
X108143940Y-77917504D03*
X184841100Y-104531600D03*
X101141100Y-125281600D03*
D20*
X158101100Y-99203600D03*
D19*
X156391100Y-63731600D03*
X175191100Y-86331600D03*
D17*
X148051100Y-110053600D03*
D18*
X145041100Y-84303600D03*
D19*
X170091100Y-78181600D03*
X125841100Y-111731600D03*
D17*
X144376100Y-108328600D03*
D19*
X160241100Y-76131600D03*
X195891100Y-90531600D03*
D21*
X167571100Y-143273600D03*
X109001100Y-128103600D03*
D20*
X161851100Y-98003600D03*
D19*
X147991100Y-70331600D03*
X100891100Y-80531600D03*
X131141100Y-129681600D03*
D20*
X159251100Y-101853600D03*
D19*
X105341100Y-90481600D03*
X174591100Y-88381600D03*
D17*
X157501100Y-120003600D03*
D19*
X167641100Y-85081600D03*
X171541100Y-101481600D03*
D17*
X141051100Y-103603600D03*
X162751100Y-98153600D03*
D19*
X106691100Y-129981600D03*
D21*
X151701100Y-114553600D03*
D19*
X163681100Y-125531600D03*
D17*
X157101100Y-87903600D03*
D18*
X168751100Y-86153600D03*
D19*
X162741100Y-152481600D03*
D17*
X145701100Y-88053600D03*
X162701100Y-104703600D03*
D18*
X159311100Y-82303600D03*
X152051100Y-82303600D03*
D19*
X154391100Y-89981600D03*
D20*
X144901100Y-101753600D03*
D18*
X171576800Y-83327900D03*
D20*
X158051100Y-100453600D03*
D17*
X148801100Y-119853600D03*
D20*
X159301100Y-100553600D03*
D19*
X163641100Y-84331600D03*
X110091100Y-130181600D03*
X155141100Y-90681600D03*
X169941100Y-93131600D03*
X139391100Y-78881600D03*
X146591100Y-86031600D03*
X111841100Y-146481600D03*
X195891100Y-130531600D03*
D17*
X146401100Y-115603600D03*
D18*
X150831100Y-78303600D03*
D19*
X149441100Y-77181600D03*
X195891100Y-80281600D03*
X172541100Y-95481600D03*
X136841100Y-134481600D03*
X171421100Y-144321600D03*
X186191100Y-104631600D03*
X170741100Y-122431600D03*
X120891100Y-151331600D03*
D17*
X147201100Y-113103600D03*
X145401100Y-97103600D03*
X164001100Y-102053600D03*
D18*
X159311100Y-81503600D03*
D19*
X130791100Y-106231600D03*
X170691100Y-134331600D03*
X145291100Y-110131600D03*
X103432593Y-75074488D03*
D22*
X114851100Y-143603600D03*
D17*
X152801100Y-86353600D03*
D19*
X160891100Y-70531600D03*
D17*
X152401100Y-103453600D03*
D19*
X128391100Y-105531600D03*
D18*
X150831100Y-83903600D03*
D17*
X159981100Y-115603600D03*
D18*
X152051100Y-69503600D03*
D19*
X159041100Y-65531600D03*
X145381100Y-144511600D03*
X169191100Y-90181600D03*
X144551100Y-145521600D03*
X115891100Y-110531600D03*
X145841100Y-135681600D03*
D18*
X158091100Y-83103600D03*
D20*
X161801100Y-101803600D03*
D18*
X145331100Y-81083600D03*
D19*
X156341100Y-65331600D03*
D17*
X159151100Y-90403600D03*
D18*
X171871800Y-84732900D03*
D19*
X152741100Y-94181600D03*
D17*
X167701100Y-86253600D03*
D19*
X164441100Y-152531600D03*
X193891100Y-85181600D03*
X195891100Y-100531600D03*
D17*
X154751100Y-102653600D03*
D18*
X158091100Y-86303600D03*
D19*
X179641100Y-83431600D03*
X180891100Y-140531600D03*
D18*
X169881800Y-85022900D03*
D17*
X164151100Y-88053600D03*
D18*
X152051100Y-74303600D03*
D19*
X160841100Y-86081600D03*
X104741100Y-116831600D03*
D17*
X154351100Y-98203600D03*
D20*
X146301100Y-98003600D03*
D19*
X134241100Y-117181600D03*
D20*
X143751100Y-101803600D03*
D18*
X152051100Y-78303600D03*
D19*
X197091100Y-105631600D03*
D17*
X144351100Y-97153600D03*
D19*
X185891100Y-60531600D03*
X169681100Y-143661600D03*
D17*
X160501100Y-88053600D03*
D19*
X115291100Y-77931600D03*
X180291100Y-115681600D03*
X115491100Y-75481600D03*
D17*
X156051100Y-97103600D03*
D20*
X147401100Y-100553600D03*
D17*
X166401100Y-88903600D03*
X150051100Y-86353600D03*
X152951100Y-107353600D03*
X159701100Y-97153600D03*
X166601100Y-99153600D03*
D18*
X150831100Y-77503600D03*
D19*
X191641100Y-90531600D03*
X104241100Y-134881600D03*
X115891100Y-100531600D03*
X103391100Y-95531600D03*
X140891100Y-140531600D03*
X127641100Y-122031600D03*
D21*
X134951100Y-141553600D03*
D19*
X142391100Y-109931600D03*
D18*
X152051100Y-67903600D03*
D17*
X142151100Y-90503600D03*
D19*
X119091100Y-134431600D03*
D17*
X147201100Y-118703600D03*
D19*
X106991100Y-92181600D03*
D18*
X152051100Y-84703600D03*
D19*
X156491100Y-69781600D03*
X185991100Y-101031600D03*
X111591100Y-76781600D03*
X116741100Y-105581600D03*
X163791100Y-86631600D03*
X121591100Y-134781600D03*
X175891100Y-60531600D03*
D18*
X159311100Y-83903600D03*
D19*
X185891100Y-110531600D03*
X139291100Y-84981600D03*
X133941100Y-129231600D03*
X115341100Y-89331600D03*
X153391100Y-75531600D03*
X154141100Y-152581600D03*
D21*
X151851100Y-117103600D03*
D19*
X166941100Y-95581600D03*
X163791100Y-114881600D03*
X168941100Y-79781600D03*
X182841100Y-115831600D03*
X102141100Y-76131600D03*
X193391100Y-145531600D03*
D17*
X142701100Y-108278600D03*
X161301100Y-117578600D03*
D19*
X106641100Y-67481600D03*
D17*
X149641100Y-95703600D03*
X159201100Y-103753600D03*
X155901100Y-104103600D03*
D19*
X109967665Y-77653466D03*
X113531100Y-126661600D03*
D18*
X150831100Y-75103600D03*
D19*
X139391100Y-76931600D03*
X180891100Y-80531600D03*
X110274284Y-67686244D03*
D18*
X152051100Y-83103600D03*
D20*
X159251100Y-99203600D03*
D19*
X170841100Y-87981600D03*
X140891100Y-90531600D03*
D17*
X161401100Y-90503600D03*
D21*
X114201100Y-68603600D03*
D18*
X150831100Y-84703600D03*
D19*
X128891100Y-110231600D03*
X130891100Y-70531600D03*
X135891100Y-70531600D03*
X138691100Y-91931600D03*
D17*
X164001100Y-105853600D03*
D19*
X121841100Y-140481600D03*
D17*
X158701100Y-93003600D03*
D19*
X139391100Y-80631600D03*
D17*
X161356100Y-119678600D03*
D19*
X113391100Y-105531600D03*
D18*
X159311100Y-83103600D03*
D20*
X160701100Y-99153600D03*
D19*
X105241100Y-83981600D03*
X133391100Y-105531600D03*
D17*
X156001100Y-120003600D03*
X160351100Y-87003600D03*
D19*
X153791100Y-105981600D03*
X111041100Y-82081600D03*
X170341100Y-101931600D03*
X164381100Y-127821600D03*
X155891100Y-70531600D03*
X147541100Y-76181600D03*
X179941100Y-97331600D03*
X146291100Y-66781600D03*
D18*
X170741800Y-85862900D03*
D17*
X161201100Y-104953600D03*
X140201100Y-93053600D03*
X169151100Y-89203600D03*
D18*
X152051100Y-76703600D03*
D19*
X168541100Y-95231600D03*
X180891100Y-130531600D03*
X118391100Y-115531600D03*
D17*
X145801100Y-86803600D03*
D19*
X164841100Y-141181600D03*
X149341100Y-84981600D03*
D21*
X125001100Y-66603600D03*
D17*
X139751100Y-98053600D03*
D19*
X180741100Y-99831600D03*
D18*
X159311100Y-86303600D03*
D19*
X103391100Y-105531600D03*
X197541100Y-141281600D03*
D17*
X155251100Y-92403600D03*
D19*
X163591100Y-139431600D03*
X100891100Y-120531600D03*
D17*
X151901100Y-100203600D03*
D18*
X150831100Y-68703600D03*
D17*
X105901100Y-94303600D03*
D18*
X152051100Y-83903600D03*
D19*
X172691100Y-75981600D03*
D21*
X120101100Y-128003600D03*
D19*
X138391100Y-125531600D03*
D18*
X158091100Y-82303600D03*
D17*
X148501100Y-103703600D03*
X164151100Y-103453600D03*
X155351100Y-108703600D03*
D18*
X150831100Y-67903600D03*
D17*
X167001100Y-89403600D03*
D19*
X195691100Y-95581600D03*
D17*
X159151100Y-89653600D03*
D19*
X190891100Y-60531600D03*
D17*
X161601100Y-111603600D03*
X166051100Y-89553600D03*
D19*
X145591100Y-118331600D03*
X108470237Y-67310607D03*
D18*
X143501100Y-81083600D03*
X152051100Y-81503600D03*
D19*
X148781100Y-152691600D03*
D17*
X159901100Y-119753600D03*
X144901100Y-112903600D03*
D19*
X148191100Y-90531600D03*
X163641100Y-80581600D03*
D20*
X143651100Y-97953600D03*
D18*
X150831100Y-76703600D03*
D19*
X109891100Y-92131600D03*
D17*
X154451100Y-120003600D03*
X149601100Y-102653600D03*
D19*
X169991100Y-94431600D03*
D18*
X145041100Y-82703600D03*
X171306800Y-85297900D03*
X149481100Y-81553600D03*
D19*
X100891100Y-100531600D03*
X190891100Y-110531600D03*
X183391100Y-135531600D03*
D18*
X152051100Y-67103600D03*
D19*
X134991100Y-80881600D03*
D20*
X146301100Y-99153600D03*
D19*
X192541100Y-100481600D03*
X148391100Y-75531600D03*
X104741100Y-139581600D03*
D17*
X161251100Y-94453600D03*
D21*
X156601100Y-111803600D03*
D20*
X147501100Y-99153600D03*
D19*
X154191100Y-92081600D03*
D18*
X152171100Y-65483600D03*
D19*
X150891100Y-60531600D03*
D17*
X144851100Y-104003600D03*
D19*
X185891100Y-120531600D03*
D17*
X164001100Y-97153600D03*
D19*
X156291100Y-76031600D03*
D18*
X152051100Y-72703600D03*
D20*
X145051100Y-99153600D03*
D19*
X135841100Y-75481600D03*
X142491100Y-116381600D03*
X130541100Y-111481600D03*
D18*
X152051100Y-75103600D03*
D17*
X150551100Y-108653600D03*
X149551100Y-101153600D03*
D23*
X133151100Y-90103600D03*
D19*
X103841100Y-85581600D03*
D17*
X164001100Y-102503600D03*
D19*
X115891100Y-90531600D03*
D17*
X149601100Y-98153600D03*
X157131100Y-105928600D03*
D18*
X159311100Y-85503600D03*
D17*
X146001100Y-120403600D03*
D19*
X171891100Y-137481600D03*
X195891100Y-110531600D03*
X153591100Y-78281600D03*
D18*
X169611100Y-86993600D03*
D19*
X180891100Y-110531600D03*
X111091100Y-128131600D03*
D18*
X150831100Y-79903600D03*
X152051100Y-75903600D03*
D19*
X165891100Y-60531600D03*
D17*
X159701100Y-109603600D03*
D19*
X115891100Y-130531600D03*
X183541100Y-131981600D03*
X185891100Y-130531600D03*
X175891100Y-120531600D03*
D21*
X134001100Y-153603600D03*
D19*
X106339893Y-77541866D03*
D17*
X147301100Y-109253600D03*
D19*
X124591100Y-125681600D03*
D17*
X166701100Y-86703600D03*
D19*
X100841100Y-114481600D03*
X176391100Y-90131600D03*
X138591100Y-90131600D03*
X146391100Y-131981600D03*
X133591100Y-134531600D03*
X149541100Y-78931600D03*
X105891100Y-100531600D03*
D17*
X147201100Y-112603600D03*
D18*
X150831100Y-83103600D03*
X170446800Y-84457900D03*
X150831100Y-79103600D03*
X173171800Y-83722900D03*
D19*
X149691100Y-70481600D03*
D17*
X157151100Y-95903600D03*
D19*
X163971100Y-126621600D03*
D17*
X156501100Y-108703600D03*
D19*
X100891100Y-150531600D03*
X191491100Y-85281600D03*
X195891100Y-60531600D03*
D18*
X152051100Y-71903600D03*
D19*
X141041100Y-123531600D03*
D17*
X161551100Y-115903600D03*
D21*
X119401100Y-58303600D03*
D19*
X183841100Y-109681600D03*
X164891100Y-115431600D03*
X190941100Y-119731600D03*
D17*
X148401100Y-120353600D03*
D20*
X143701100Y-99103600D03*
D18*
X152051100Y-79103600D03*
D19*
X163741100Y-78581600D03*
D18*
X158091100Y-85503600D03*
D19*
X112441100Y-92131600D03*
D18*
X172436800Y-84167900D03*
D21*
X132901100Y-68303600D03*
D19*
X170941100Y-111831600D03*
X147241100Y-106031600D03*
D17*
X146901100Y-97153600D03*
D19*
X168801100Y-130761600D03*
X193391100Y-115881600D03*
D17*
X148801100Y-104653600D03*
D21*
%TO.N,+5V0_LO*%
X169401100Y-68903600D03*
D19*
X167751100Y-95303600D03*
X153476100Y-94228600D03*
D17*
%TO.N,+3V3_LO_1*%
X140301100Y-101153600D03*
X146351100Y-103803600D03*
D21*
X121401100Y-69203600D03*
D17*
X156101100Y-102503600D03*
X158701100Y-103753600D03*
X139351100Y-100603600D03*
X161201100Y-103753600D03*
X144351100Y-104053600D03*
X163801100Y-101613600D03*
X141401100Y-99553600D03*
X155751100Y-99653600D03*
X141551100Y-102703600D03*
X149601100Y-101653600D03*
X154801100Y-101103600D03*
X160701100Y-103753600D03*
%TO.N,+1V8_CLOCK*%
X160001100Y-116053600D03*
X159951100Y-113103600D03*
X159901100Y-110103600D03*
X155451100Y-120003600D03*
X158801100Y-120003600D03*
X154451100Y-108653600D03*
X151351100Y-108653600D03*
D21*
X165911100Y-144693600D03*
D17*
%TO.N,+3V3_CLOCK*%
X148451100Y-116103600D03*
X152951100Y-108753600D03*
X159901100Y-111603600D03*
X149301100Y-119853600D03*
X148301100Y-110553600D03*
X156951100Y-120003600D03*
D21*
X147421100Y-145503600D03*
D17*
X159851100Y-114603600D03*
X153951100Y-120003600D03*
X155951100Y-108653600D03*
X159851100Y-117583600D03*
D19*
%TO.N,OSC_CTRL*%
X144951100Y-113603600D03*
D17*
X132701100Y-140653600D03*
%TO.N,AD9523_STATUS0*%
X157601100Y-108103600D03*
%TO.N,AD9523_PD*%
X145901100Y-123453600D03*
%TO.N,AD9523_REF_SEL*%
X147751100Y-118103600D03*
%TO.N,AD9523_SYNC*%
X146276100Y-119878600D03*
%TO.N,AD9523_RESET*%
X125251100Y-141453600D03*
%TO.N,AD9523_OUT9_N*%
X161878100Y-119703600D03*
X143824100Y-108103600D03*
%TO.N,AD9523_OUT9_P*%
X143214100Y-108103600D03*
X162488100Y-119703600D03*
%TO.N,AD9523_OUT8_N*%
X158308600Y-106053600D03*
X162026100Y-117165600D03*
%TO.N,AD9523_OUT8_P*%
X162026100Y-116555600D03*
X157698600Y-106053600D03*
%TO.N,AD9523_EEPROM_SEL*%
X157151100Y-108503600D03*
%TO.N,AD9523_STATUS1*%
X158401100Y-108703600D03*
X113151100Y-150303600D03*
%TO.N,ADF4382_SCLK*%
X141701100Y-101653600D03*
X155901100Y-101753600D03*
%TO.N,ADF4382_SDIO*%
X156001100Y-101103600D03*
X141701100Y-101153600D03*
%TO.N,ADF4382_TX_CS*%
X141501100Y-100658600D03*
%TO.N,ADF4382_TX_CE*%
X141451100Y-100133600D03*
%TO.N,ADF4382_TX_DELSTR*%
X141201100Y-99018600D03*
%TO.N,ADF4382_TX_DELADJ*%
X141701100Y-98633600D03*
%TO.N,ADF4382_TX_LKDET*%
X141701100Y-98133600D03*
%TO.N,N$51*%
X175711100Y-102963600D03*
X155971100Y-104853600D03*
%TO.N,ADF4382_RX_LKDET*%
X156101100Y-97803600D03*
%TO.N,ADF4382_RX_DELADJ*%
X156051100Y-98633600D03*
%TO.N,ADF4382_RX_DELSTR*%
X155401100Y-99133600D03*
%TO.N,ADF4382_RX_CE*%
X155551100Y-100133600D03*
%TO.N,ADF4382_RX_CS*%
X155851100Y-100588600D03*
%TO.N,ADF4382_SDO*%
X155401100Y-102153600D03*
X141601100Y-102153600D03*
%TO.N,+3V3_LO_2*%
X144351100Y-95053600D03*
D21*
X125901100Y-68403600D03*
D17*
X146851100Y-96053600D03*
X149591100Y-97643600D03*
X149521100Y-96173600D03*
X161201100Y-96053600D03*
X163401100Y-95753600D03*
X164011100Y-100603600D03*
X158701100Y-95053600D03*
X156301100Y-95853600D03*
X149551100Y-100603600D03*
X142461100Y-95943600D03*
X164001100Y-97653600D03*
%TD*%
%TO.N,OSC_CTRL*%
D24*
X144951100Y-113603600D02*
X139901100Y-113603600D01*
X132701100Y-120803600D02*
X132701100Y-140653600D01*
X139901100Y-113603600D02*
X132701100Y-120803600D01*
%TO.N,AD9523_RESET*%
X118151100Y-141453600D02*
X117401100Y-140703600D01*
X125251100Y-141453600D02*
X118151100Y-141453600D01*
X117401100Y-140703600D02*
X117401100Y-138873600D01*
%TD*%
%TA.AperFunction,Conductor*%
%TO.N,+3V3_CLOCK*%
G36*
X147100911Y-106357767D02*
G01*
X147101128Y-106356959D01*
X147105812Y-106358214D01*
X147194953Y-106382099D01*
X147194954Y-106382100D01*
X147194956Y-106382100D01*
X147287246Y-106382100D01*
X147287246Y-106382099D01*
X147376388Y-106358214D01*
X147376387Y-106358214D01*
X147381072Y-106356959D01*
X147381288Y-106357767D01*
X147402246Y-106353600D01*
X162577100Y-106353600D01*
X162629426Y-106375274D01*
X162651100Y-106427600D01*
X162651100Y-119362169D01*
X162629426Y-119414495D01*
X162577100Y-119436169D01*
X162548783Y-119430537D01*
X162542900Y-119428100D01*
X162433300Y-119428100D01*
X162392399Y-119445042D01*
X162332043Y-119470042D01*
X162254542Y-119547543D01*
X162251467Y-119554968D01*
X162211418Y-119595016D01*
X162154781Y-119595016D01*
X162114733Y-119554968D01*
X162111657Y-119547543D01*
X162111657Y-119547542D01*
X162034158Y-119470043D01*
X161932900Y-119428100D01*
X161823300Y-119428100D01*
X161782399Y-119445042D01*
X161722043Y-119470042D01*
X161722040Y-119470044D01*
X161681925Y-119510159D01*
X161629599Y-119531833D01*
X161577274Y-119510159D01*
X161545215Y-119478100D01*
X161512158Y-119445043D01*
X161410900Y-119403100D01*
X161301300Y-119403100D01*
X161260399Y-119420042D01*
X161200043Y-119445042D01*
X161122542Y-119522543D01*
X161091476Y-119597543D01*
X161080600Y-119623800D01*
X161080600Y-119733400D01*
X161107690Y-119798800D01*
X161112187Y-119809658D01*
X161122543Y-119834658D01*
X161200042Y-119912157D01*
X161301300Y-119954100D01*
X161301301Y-119954100D01*
X161410898Y-119954100D01*
X161410900Y-119954100D01*
X161512158Y-119912157D01*
X161552275Y-119872039D01*
X161604600Y-119850366D01*
X161656924Y-119872039D01*
X161722042Y-119937157D01*
X161823300Y-119979100D01*
X161823301Y-119979100D01*
X161932898Y-119979100D01*
X161932900Y-119979100D01*
X162034158Y-119937157D01*
X162111657Y-119859658D01*
X162114732Y-119852232D01*
X162154780Y-119812183D01*
X162211417Y-119812182D01*
X162251465Y-119852228D01*
X162254543Y-119859658D01*
X162332042Y-119937157D01*
X162433300Y-119979100D01*
X162433301Y-119979100D01*
X162542898Y-119979100D01*
X162542900Y-119979100D01*
X162548780Y-119976663D01*
X162605415Y-119976662D01*
X162645466Y-120016708D01*
X162651100Y-120045030D01*
X162651100Y-142579600D01*
X162629426Y-142631926D01*
X162577100Y-142653600D01*
X156651100Y-142653600D01*
X156651100Y-152079600D01*
X156629426Y-152131926D01*
X156577100Y-152153600D01*
X146425100Y-152153600D01*
X146372774Y-152131926D01*
X146351100Y-152079600D01*
X146351100Y-143309833D01*
X146580600Y-143309833D01*
X146580600Y-143477366D01*
X146613282Y-143641675D01*
X146613284Y-143641682D01*
X146677396Y-143796462D01*
X146677397Y-143796463D01*
X146770474Y-143935762D01*
X146888938Y-144054226D01*
X147028237Y-144147303D01*
X147183018Y-144211416D01*
X147347333Y-144244100D01*
X147347334Y-144244100D01*
X147514866Y-144244100D01*
X147514867Y-144244100D01*
X147679182Y-144211416D01*
X147833963Y-144147303D01*
X147973262Y-144054226D01*
X148091726Y-143935762D01*
X148184803Y-143796463D01*
X148248916Y-143641682D01*
X148281600Y-143477367D01*
X148281600Y-143309833D01*
X148248916Y-143145518D01*
X148184803Y-142990737D01*
X148091726Y-142851438D01*
X147973262Y-142732974D01*
X147833963Y-142639897D01*
X147833964Y-142639897D01*
X147833962Y-142639896D01*
X147679182Y-142575784D01*
X147679175Y-142575782D01*
X147555388Y-142551160D01*
X147514867Y-142543100D01*
X147347333Y-142543100D01*
X147314828Y-142549565D01*
X147183024Y-142575782D01*
X147183017Y-142575784D01*
X147028237Y-142639896D01*
X146888941Y-142732971D01*
X146770471Y-142851441D01*
X146677396Y-142990737D01*
X146613284Y-143145517D01*
X146613282Y-143145524D01*
X146580600Y-143309833D01*
X146351100Y-143309833D01*
X146351100Y-139175504D01*
X147755100Y-139175504D01*
X147755100Y-139371695D01*
X147793374Y-139564116D01*
X147793377Y-139564126D01*
X147868453Y-139745378D01*
X147868455Y-139745381D01*
X147868456Y-139745383D01*
X147977456Y-139908513D01*
X148116187Y-140047244D01*
X148279317Y-140156244D01*
X148279322Y-140156246D01*
X148279321Y-140156246D01*
X148330110Y-140177283D01*
X148460578Y-140231324D01*
X148653003Y-140269600D01*
X148653005Y-140269600D01*
X148849195Y-140269600D01*
X148849197Y-140269600D01*
X149041622Y-140231324D01*
X149222883Y-140156244D01*
X149386013Y-140047244D01*
X149524744Y-139908513D01*
X149633744Y-139745383D01*
X149708824Y-139564122D01*
X149747100Y-139371697D01*
X149747100Y-139175504D01*
X152835100Y-139175504D01*
X152835100Y-139371695D01*
X152873374Y-139564116D01*
X152873377Y-139564126D01*
X152948453Y-139745378D01*
X152948455Y-139745381D01*
X152948456Y-139745383D01*
X153057456Y-139908513D01*
X153196187Y-140047244D01*
X153359317Y-140156244D01*
X153359322Y-140156246D01*
X153359321Y-140156246D01*
X153410110Y-140177283D01*
X153540578Y-140231324D01*
X153733003Y-140269600D01*
X153733005Y-140269600D01*
X153929195Y-140269600D01*
X153929197Y-140269600D01*
X154121622Y-140231324D01*
X154302883Y-140156244D01*
X154466013Y-140047244D01*
X154604744Y-139908513D01*
X154713744Y-139745383D01*
X154770896Y-139607404D01*
X159525100Y-139607404D01*
X159525100Y-139803595D01*
X159563374Y-139996016D01*
X159563377Y-139996026D01*
X159638453Y-140177278D01*
X159638455Y-140177281D01*
X159638456Y-140177283D01*
X159747456Y-140340413D01*
X159886187Y-140479144D01*
X160049317Y-140588144D01*
X160049322Y-140588146D01*
X160049321Y-140588146D01*
X160163539Y-140635456D01*
X160230578Y-140663224D01*
X160423003Y-140701500D01*
X160423005Y-140701500D01*
X160619195Y-140701500D01*
X160619197Y-140701500D01*
X160811622Y-140663224D01*
X160992883Y-140588144D01*
X161156013Y-140479144D01*
X161294744Y-140340413D01*
X161403744Y-140177283D01*
X161478824Y-139996022D01*
X161517100Y-139803597D01*
X161517100Y-139607403D01*
X161478824Y-139414978D01*
X161460896Y-139371695D01*
X161403746Y-139233721D01*
X161403745Y-139233719D01*
X161403744Y-139233717D01*
X161294744Y-139070587D01*
X161156013Y-138931856D01*
X160992883Y-138822856D01*
X160992879Y-138822854D01*
X160992877Y-138822853D01*
X160992878Y-138822853D01*
X160811626Y-138747777D01*
X160811616Y-138747774D01*
X160682756Y-138722142D01*
X160619197Y-138709500D01*
X160423003Y-138709500D01*
X160368452Y-138720350D01*
X160230583Y-138747774D01*
X160230573Y-138747777D01*
X160049321Y-138822853D01*
X159886187Y-138931855D01*
X159886186Y-138931857D01*
X159747457Y-139070586D01*
X159747455Y-139070587D01*
X159638453Y-139233721D01*
X159563377Y-139414973D01*
X159563374Y-139414983D01*
X159525100Y-139607404D01*
X154770896Y-139607404D01*
X154788824Y-139564122D01*
X154827100Y-139371697D01*
X154827100Y-139175503D01*
X154788824Y-138983078D01*
X154767608Y-138931857D01*
X154713746Y-138801821D01*
X154713745Y-138801819D01*
X154713744Y-138801817D01*
X154604744Y-138638687D01*
X154466013Y-138499956D01*
X154302883Y-138390956D01*
X154302879Y-138390954D01*
X154302877Y-138390953D01*
X154302878Y-138390953D01*
X154121626Y-138315877D01*
X154121616Y-138315874D01*
X153992756Y-138290242D01*
X153929197Y-138277600D01*
X153733003Y-138277600D01*
X153678452Y-138288450D01*
X153540583Y-138315874D01*
X153540573Y-138315877D01*
X153359321Y-138390953D01*
X153196187Y-138499955D01*
X153196186Y-138499957D01*
X153057457Y-138638686D01*
X153057455Y-138638687D01*
X152948453Y-138801821D01*
X152873377Y-138983073D01*
X152873374Y-138983083D01*
X152835100Y-139175504D01*
X149747100Y-139175504D01*
X149747100Y-139175503D01*
X149708824Y-138983078D01*
X149687608Y-138931857D01*
X149633746Y-138801821D01*
X149633745Y-138801819D01*
X149633744Y-138801817D01*
X149524744Y-138638687D01*
X149386013Y-138499956D01*
X149222883Y-138390956D01*
X149222879Y-138390954D01*
X149222877Y-138390953D01*
X149222878Y-138390953D01*
X149041626Y-138315877D01*
X149041616Y-138315874D01*
X148912756Y-138290242D01*
X148849197Y-138277600D01*
X148653003Y-138277600D01*
X148598452Y-138288450D01*
X148460583Y-138315874D01*
X148460573Y-138315877D01*
X148279321Y-138390953D01*
X148116187Y-138499955D01*
X148116186Y-138499957D01*
X147977457Y-138638686D01*
X147977455Y-138638687D01*
X147868453Y-138801821D01*
X147793377Y-138983073D01*
X147793374Y-138983083D01*
X147755100Y-139175504D01*
X146351100Y-139175504D01*
X146351100Y-134095504D01*
X147755100Y-134095504D01*
X147755100Y-134291695D01*
X147793374Y-134484116D01*
X147793377Y-134484126D01*
X147868453Y-134665378D01*
X147868455Y-134665381D01*
X147868456Y-134665383D01*
X147977456Y-134828513D01*
X148116187Y-134967244D01*
X148279317Y-135076244D01*
X148279322Y-135076246D01*
X148279321Y-135076246D01*
X148330110Y-135097283D01*
X148460578Y-135151324D01*
X148653003Y-135189600D01*
X148653005Y-135189600D01*
X148849195Y-135189600D01*
X148849197Y-135189600D01*
X149041622Y-135151324D01*
X149222883Y-135076244D01*
X149386013Y-134967244D01*
X149524744Y-134828513D01*
X149633744Y-134665383D01*
X149708824Y-134484122D01*
X149747100Y-134291697D01*
X149747100Y-134095504D01*
X152835100Y-134095504D01*
X152835100Y-134291695D01*
X152873374Y-134484116D01*
X152873377Y-134484126D01*
X152948453Y-134665378D01*
X152948455Y-134665381D01*
X152948456Y-134665383D01*
X153057456Y-134828513D01*
X153196187Y-134967244D01*
X153359317Y-135076244D01*
X153359322Y-135076246D01*
X153359321Y-135076246D01*
X153410110Y-135097283D01*
X153540578Y-135151324D01*
X153733003Y-135189600D01*
X153733005Y-135189600D01*
X153929195Y-135189600D01*
X153929197Y-135189600D01*
X154121622Y-135151324D01*
X154302883Y-135076244D01*
X154466013Y-134967244D01*
X154604744Y-134828513D01*
X154713744Y-134665383D01*
X154770896Y-134527404D01*
X159525100Y-134527404D01*
X159525100Y-134723595D01*
X159563374Y-134916016D01*
X159563377Y-134916026D01*
X159638453Y-135097278D01*
X159638455Y-135097281D01*
X159638456Y-135097283D01*
X159747456Y-135260413D01*
X159886187Y-135399144D01*
X160049317Y-135508144D01*
X160049322Y-135508146D01*
X160049321Y-135508146D01*
X160230573Y-135583222D01*
X160230578Y-135583224D01*
X160423003Y-135621500D01*
X160423005Y-135621500D01*
X160619195Y-135621500D01*
X160619197Y-135621500D01*
X160811622Y-135583224D01*
X160992883Y-135508144D01*
X161156013Y-135399144D01*
X161294744Y-135260413D01*
X161403744Y-135097283D01*
X161478824Y-134916022D01*
X161517100Y-134723597D01*
X161517100Y-134527403D01*
X161478824Y-134334978D01*
X161403744Y-134153717D01*
X161294744Y-133990587D01*
X161156013Y-133851856D01*
X160992883Y-133742856D01*
X160992879Y-133742854D01*
X160992877Y-133742853D01*
X160992878Y-133742853D01*
X160811626Y-133667777D01*
X160811616Y-133667774D01*
X160682756Y-133642142D01*
X160619197Y-133629500D01*
X160423003Y-133629500D01*
X160368452Y-133640350D01*
X160230583Y-133667774D01*
X160230573Y-133667777D01*
X160049321Y-133742853D01*
X159886187Y-133851855D01*
X159886186Y-133851857D01*
X159747457Y-133990586D01*
X159747455Y-133990587D01*
X159638453Y-134153721D01*
X159563377Y-134334973D01*
X159563374Y-134334983D01*
X159525100Y-134527404D01*
X154770896Y-134527404D01*
X154788824Y-134484122D01*
X154827100Y-134291697D01*
X154827100Y-134095503D01*
X154788824Y-133903078D01*
X154767608Y-133851857D01*
X154713746Y-133721821D01*
X154713745Y-133721819D01*
X154713744Y-133721817D01*
X154604744Y-133558687D01*
X154466013Y-133419956D01*
X154302883Y-133310956D01*
X154302879Y-133310954D01*
X154302877Y-133310953D01*
X154302878Y-133310953D01*
X154121626Y-133235877D01*
X154121616Y-133235874D01*
X153992756Y-133210242D01*
X153929197Y-133197600D01*
X153733003Y-133197600D01*
X153678452Y-133208450D01*
X153540583Y-133235874D01*
X153540573Y-133235877D01*
X153359321Y-133310953D01*
X153196187Y-133419955D01*
X153196186Y-133419957D01*
X153057457Y-133558686D01*
X153057455Y-133558687D01*
X152948453Y-133721821D01*
X152873377Y-133903073D01*
X152873374Y-133903083D01*
X152835100Y-134095504D01*
X149747100Y-134095504D01*
X149747100Y-134095503D01*
X149708824Y-133903078D01*
X149687608Y-133851857D01*
X149633746Y-133721821D01*
X149633745Y-133721819D01*
X149633744Y-133721817D01*
X149524744Y-133558687D01*
X149386013Y-133419956D01*
X149222883Y-133310956D01*
X149222879Y-133310954D01*
X149222877Y-133310953D01*
X149222878Y-133310953D01*
X149041626Y-133235877D01*
X149041616Y-133235874D01*
X148912756Y-133210242D01*
X148849197Y-133197600D01*
X148653003Y-133197600D01*
X148598452Y-133208450D01*
X148460583Y-133235874D01*
X148460573Y-133235877D01*
X148279321Y-133310953D01*
X148116187Y-133419955D01*
X148116186Y-133419957D01*
X147977457Y-133558686D01*
X147977455Y-133558687D01*
X147868453Y-133721821D01*
X147793377Y-133903073D01*
X147793374Y-133903083D01*
X147755100Y-134095504D01*
X146351100Y-134095504D01*
X146351100Y-132406100D01*
X146372774Y-132353774D01*
X146425100Y-132332100D01*
X146437246Y-132332100D01*
X146437246Y-132332099D01*
X146526388Y-132308214D01*
X146606312Y-132262069D01*
X146671569Y-132196812D01*
X146717714Y-132116888D01*
X146741599Y-132027746D01*
X146741600Y-132027746D01*
X146741600Y-131935454D01*
X146741599Y-131935453D01*
X146717715Y-131846315D01*
X146717713Y-131846310D01*
X146671571Y-131766391D01*
X146671570Y-131766390D01*
X146671569Y-131766388D01*
X146606312Y-131701131D01*
X146606309Y-131701129D01*
X146606308Y-131701128D01*
X146526389Y-131654986D01*
X146526384Y-131654984D01*
X146437246Y-131631100D01*
X146437244Y-131631100D01*
X146425100Y-131631100D01*
X146372774Y-131609426D01*
X146351100Y-131557100D01*
X146351100Y-127056100D01*
X146372774Y-127003774D01*
X146425100Y-126982100D01*
X146437246Y-126982100D01*
X146437246Y-126982099D01*
X146526388Y-126958214D01*
X146606312Y-126912069D01*
X146671569Y-126846812D01*
X146717714Y-126766888D01*
X146741599Y-126677746D01*
X146741600Y-126677746D01*
X146741600Y-126585454D01*
X146741599Y-126585453D01*
X146717715Y-126496315D01*
X146717713Y-126496310D01*
X146671571Y-126416391D01*
X146671570Y-126416390D01*
X146671569Y-126416388D01*
X146606312Y-126351131D01*
X146606309Y-126351129D01*
X146606308Y-126351128D01*
X146526389Y-126304986D01*
X146526384Y-126304984D01*
X146437246Y-126281100D01*
X146437244Y-126281100D01*
X146425100Y-126281100D01*
X146372774Y-126259426D01*
X146351100Y-126207100D01*
X146351100Y-126056100D01*
X146372774Y-126003774D01*
X146425100Y-125982100D01*
X146487246Y-125982100D01*
X146487246Y-125982099D01*
X146576388Y-125958214D01*
X146656312Y-125912069D01*
X146721569Y-125846812D01*
X146767714Y-125766888D01*
X146791599Y-125677746D01*
X146791600Y-125677746D01*
X146791600Y-125585454D01*
X146791599Y-125585453D01*
X146789533Y-125577744D01*
X146767714Y-125496312D01*
X146721569Y-125416388D01*
X146656312Y-125351131D01*
X146656309Y-125351129D01*
X146656308Y-125351128D01*
X146576389Y-125304986D01*
X146576384Y-125304984D01*
X146487246Y-125281100D01*
X146487244Y-125281100D01*
X146425100Y-125281100D01*
X146372774Y-125259426D01*
X146351100Y-125207100D01*
X146351100Y-124589992D01*
X146372774Y-124537666D01*
X146425100Y-124515992D01*
X146444250Y-124518513D01*
X146476688Y-124527205D01*
X146494955Y-124532100D01*
X146494956Y-124532100D01*
X146587246Y-124532100D01*
X146587246Y-124532099D01*
X146676388Y-124508214D01*
X146756312Y-124462069D01*
X146821569Y-124396812D01*
X146867714Y-124316888D01*
X146891599Y-124227746D01*
X146891600Y-124227746D01*
X146891600Y-124135454D01*
X146891599Y-124135453D01*
X146867715Y-124046315D01*
X146867713Y-124046310D01*
X146821571Y-123966391D01*
X146821570Y-123966390D01*
X146821569Y-123966388D01*
X146756312Y-123901131D01*
X146756309Y-123901129D01*
X146756308Y-123901128D01*
X146676389Y-123854986D01*
X146676384Y-123854984D01*
X146587246Y-123831100D01*
X146587244Y-123831100D01*
X146494956Y-123831100D01*
X146444252Y-123844686D01*
X146388100Y-123837293D01*
X146353621Y-123792359D01*
X146351100Y-123773207D01*
X146351100Y-123256100D01*
X146372774Y-123203774D01*
X146425100Y-123182100D01*
X146437246Y-123182100D01*
X146437246Y-123182099D01*
X146526388Y-123158214D01*
X146606312Y-123112069D01*
X146671569Y-123046812D01*
X146717714Y-122966888D01*
X146741599Y-122877746D01*
X146741600Y-122877746D01*
X146741600Y-122785454D01*
X146741599Y-122785453D01*
X146717715Y-122696315D01*
X146717713Y-122696310D01*
X146671571Y-122616391D01*
X146671570Y-122616390D01*
X146671569Y-122616388D01*
X146606312Y-122551131D01*
X146606309Y-122551129D01*
X146606308Y-122551128D01*
X146526389Y-122504986D01*
X146526384Y-122504984D01*
X146437246Y-122481100D01*
X146437244Y-122481100D01*
X146425100Y-122481100D01*
X146372774Y-122459426D01*
X146351100Y-122407100D01*
X146351100Y-120298800D01*
X148125600Y-120298800D01*
X148125600Y-120408400D01*
X148167543Y-120509658D01*
X148245042Y-120587157D01*
X148346300Y-120629100D01*
X148346301Y-120629100D01*
X148455898Y-120629100D01*
X148455900Y-120629100D01*
X148557158Y-120587157D01*
X148634657Y-120509658D01*
X148644683Y-120485453D01*
X160540600Y-120485453D01*
X160540600Y-120577746D01*
X160564484Y-120666884D01*
X160564486Y-120666889D01*
X160610628Y-120746808D01*
X160610629Y-120746809D01*
X160610631Y-120746812D01*
X160675888Y-120812069D01*
X160755812Y-120858214D01*
X160755813Y-120858214D01*
X160755815Y-120858215D01*
X160800384Y-120870157D01*
X160844953Y-120882099D01*
X160844954Y-120882100D01*
X160844956Y-120882100D01*
X160937246Y-120882100D01*
X160937246Y-120882099D01*
X161026388Y-120858214D01*
X161106312Y-120812069D01*
X161171569Y-120746812D01*
X161217714Y-120666888D01*
X161241599Y-120577746D01*
X161241600Y-120577746D01*
X161241600Y-120485454D01*
X161241599Y-120485453D01*
X161217715Y-120396315D01*
X161217713Y-120396310D01*
X161171571Y-120316391D01*
X161171570Y-120316390D01*
X161171569Y-120316388D01*
X161106312Y-120251131D01*
X161106309Y-120251129D01*
X161106308Y-120251128D01*
X161026389Y-120204986D01*
X161026384Y-120204984D01*
X160937246Y-120181100D01*
X160937244Y-120181100D01*
X160844956Y-120181100D01*
X160844954Y-120181100D01*
X160755815Y-120204984D01*
X160755810Y-120204986D01*
X160675891Y-120251128D01*
X160610628Y-120316391D01*
X160564486Y-120396310D01*
X160564484Y-120396315D01*
X160540600Y-120485453D01*
X148644683Y-120485453D01*
X148676600Y-120408400D01*
X148676600Y-120298800D01*
X148645681Y-120224155D01*
X148645681Y-120167519D01*
X148685729Y-120127470D01*
X148742365Y-120127470D01*
X148746300Y-120129100D01*
X148746302Y-120129100D01*
X148855898Y-120129100D01*
X148855900Y-120129100D01*
X148957158Y-120087157D01*
X149034657Y-120009658D01*
X149059866Y-119948800D01*
X154175600Y-119948800D01*
X154175600Y-120058400D01*
X154217543Y-120159658D01*
X154295042Y-120237157D01*
X154396300Y-120279100D01*
X154396301Y-120279100D01*
X154505898Y-120279100D01*
X154505900Y-120279100D01*
X154607158Y-120237157D01*
X154684657Y-120159658D01*
X154726600Y-120058400D01*
X154726600Y-119948800D01*
X155175600Y-119948800D01*
X155175600Y-120058400D01*
X155217543Y-120159658D01*
X155295042Y-120237157D01*
X155396300Y-120279100D01*
X155396301Y-120279100D01*
X155505898Y-120279100D01*
X155505900Y-120279100D01*
X155607158Y-120237157D01*
X155673775Y-120170539D01*
X155726100Y-120148866D01*
X155778424Y-120170539D01*
X155845042Y-120237157D01*
X155946300Y-120279100D01*
X155946301Y-120279100D01*
X156055898Y-120279100D01*
X156055900Y-120279100D01*
X156157158Y-120237157D01*
X156234657Y-120159658D01*
X156276600Y-120058400D01*
X156276600Y-119948800D01*
X157225600Y-119948800D01*
X157225600Y-120058400D01*
X157267543Y-120159658D01*
X157345042Y-120237157D01*
X157446300Y-120279100D01*
X157446301Y-120279100D01*
X157555898Y-120279100D01*
X157555900Y-120279100D01*
X157657158Y-120237157D01*
X157734657Y-120159658D01*
X157776600Y-120058400D01*
X157776600Y-119948800D01*
X158525600Y-119948800D01*
X158525600Y-120058400D01*
X158567543Y-120159658D01*
X158645042Y-120237157D01*
X158746300Y-120279100D01*
X158746301Y-120279100D01*
X158855898Y-120279100D01*
X158855900Y-120279100D01*
X158957158Y-120237157D01*
X159034657Y-120159658D01*
X159076600Y-120058400D01*
X159076600Y-120003100D01*
X159098274Y-119950774D01*
X159150600Y-119929100D01*
X159255898Y-119929100D01*
X159255900Y-119929100D01*
X159357158Y-119887157D01*
X159434657Y-119809658D01*
X159476600Y-119708400D01*
X159476600Y-119698800D01*
X159625600Y-119698800D01*
X159625600Y-119808400D01*
X159667543Y-119909658D01*
X159745042Y-119987157D01*
X159846300Y-120029100D01*
X159846301Y-120029100D01*
X159955898Y-120029100D01*
X159955900Y-120029100D01*
X160057158Y-119987157D01*
X160134657Y-119909658D01*
X160176600Y-119808400D01*
X160176600Y-119698800D01*
X160134657Y-119597542D01*
X160057158Y-119520043D01*
X159955900Y-119478100D01*
X159846300Y-119478100D01*
X159804358Y-119495473D01*
X159745043Y-119520042D01*
X159667542Y-119597543D01*
X159633600Y-119679486D01*
X159625600Y-119698800D01*
X159476600Y-119698800D01*
X159476600Y-119598800D01*
X159434657Y-119497542D01*
X159357158Y-119420043D01*
X159255900Y-119378100D01*
X159146300Y-119378100D01*
X159104358Y-119395473D01*
X159045043Y-119420042D01*
X158967542Y-119497543D01*
X158925600Y-119598800D01*
X158925600Y-119654100D01*
X158903926Y-119706426D01*
X158851600Y-119728100D01*
X158746300Y-119728100D01*
X158704358Y-119745473D01*
X158645043Y-119770042D01*
X158567542Y-119847543D01*
X158540349Y-119913193D01*
X158525600Y-119948800D01*
X157776600Y-119948800D01*
X157734657Y-119847542D01*
X157657158Y-119770043D01*
X157555900Y-119728100D01*
X157446300Y-119728100D01*
X157404358Y-119745473D01*
X157345043Y-119770042D01*
X157267542Y-119847543D01*
X157240349Y-119913193D01*
X157225600Y-119948800D01*
X156276600Y-119948800D01*
X156234657Y-119847542D01*
X156157158Y-119770043D01*
X156055900Y-119728100D01*
X155946300Y-119728100D01*
X155904358Y-119745473D01*
X155845043Y-119770042D01*
X155845042Y-119770042D01*
X155845042Y-119770043D01*
X155778424Y-119836660D01*
X155726100Y-119858334D01*
X155673775Y-119836660D01*
X155607158Y-119770043D01*
X155505900Y-119728100D01*
X155396300Y-119728100D01*
X155354358Y-119745473D01*
X155295043Y-119770042D01*
X155217542Y-119847543D01*
X155190349Y-119913193D01*
X155175600Y-119948800D01*
X154726600Y-119948800D01*
X154684657Y-119847542D01*
X154607158Y-119770043D01*
X154505900Y-119728100D01*
X154396300Y-119728100D01*
X154354358Y-119745473D01*
X154295043Y-119770042D01*
X154217542Y-119847543D01*
X154190349Y-119913193D01*
X154175600Y-119948800D01*
X149059866Y-119948800D01*
X149076600Y-119908400D01*
X149076600Y-119798800D01*
X149034657Y-119697542D01*
X148957158Y-119620043D01*
X148855900Y-119578100D01*
X148746300Y-119578100D01*
X148705462Y-119595016D01*
X148645043Y-119620042D01*
X148567542Y-119697543D01*
X148525600Y-119798800D01*
X148525600Y-119908401D01*
X148556518Y-119983044D01*
X148556518Y-120039681D01*
X148516469Y-120079729D01*
X148459833Y-120079729D01*
X148455900Y-120078100D01*
X148346300Y-120078100D01*
X148324435Y-120087157D01*
X148245043Y-120120042D01*
X148167542Y-120197543D01*
X148145345Y-120251131D01*
X148125600Y-120298800D01*
X146351100Y-120298800D01*
X146351100Y-120195177D01*
X146372774Y-120142851D01*
X146396780Y-120126811D01*
X146432158Y-120112157D01*
X146509657Y-120034658D01*
X146551600Y-119933400D01*
X146551600Y-119823800D01*
X146509657Y-119722542D01*
X146432158Y-119645043D01*
X146396781Y-119630389D01*
X146356733Y-119590340D01*
X146351100Y-119562022D01*
X146351100Y-118648800D01*
X146925600Y-118648800D01*
X146925600Y-118758400D01*
X146967543Y-118859658D01*
X147045042Y-118937157D01*
X147146300Y-118979100D01*
X147146301Y-118979100D01*
X147255898Y-118979100D01*
X147255900Y-118979100D01*
X147357158Y-118937157D01*
X147434657Y-118859658D01*
X147476600Y-118758400D01*
X147476600Y-118648800D01*
X147434657Y-118547542D01*
X147357158Y-118470043D01*
X147349541Y-118466888D01*
X147327500Y-118457758D01*
X147255900Y-118428100D01*
X147146300Y-118428100D01*
X147104358Y-118445473D01*
X147045043Y-118470042D01*
X146967542Y-118547543D01*
X146925600Y-118648800D01*
X146351100Y-118648800D01*
X146351100Y-118048800D01*
X147475600Y-118048800D01*
X147475600Y-118158400D01*
X147517543Y-118259658D01*
X147595042Y-118337157D01*
X147696300Y-118379100D01*
X147696301Y-118379100D01*
X147805898Y-118379100D01*
X147805900Y-118379100D01*
X147907158Y-118337157D01*
X147984657Y-118259658D01*
X148026600Y-118158400D01*
X148026600Y-118048800D01*
X147984657Y-117947542D01*
X147907158Y-117870043D01*
X147805900Y-117828100D01*
X147696300Y-117828100D01*
X147680473Y-117834656D01*
X147595043Y-117870042D01*
X147517542Y-117947543D01*
X147475600Y-118048800D01*
X146351100Y-118048800D01*
X146351100Y-117623866D01*
X146372773Y-117571541D01*
X146384657Y-117559658D01*
X146426600Y-117458400D01*
X146426600Y-117348800D01*
X146384657Y-117247542D01*
X146384654Y-117247539D01*
X146372773Y-117235657D01*
X146351100Y-117183333D01*
X146351100Y-117019833D01*
X151000600Y-117019833D01*
X151000600Y-117187366D01*
X151033282Y-117351675D01*
X151033284Y-117351682D01*
X151097396Y-117506462D01*
X151182213Y-117633399D01*
X151190474Y-117645762D01*
X151308938Y-117764226D01*
X151448237Y-117857303D01*
X151603018Y-117921416D01*
X151767333Y-117954100D01*
X151767334Y-117954100D01*
X151934866Y-117954100D01*
X151934867Y-117954100D01*
X152099182Y-117921416D01*
X152253963Y-117857303D01*
X152393262Y-117764226D01*
X152511726Y-117645762D01*
X152604803Y-117506463D01*
X152668916Y-117351682D01*
X152701600Y-117187367D01*
X152701600Y-117069833D01*
X153550600Y-117069833D01*
X153550600Y-117237366D01*
X153583282Y-117401675D01*
X153583284Y-117401682D01*
X153647396Y-117556462D01*
X153730975Y-117681546D01*
X153740474Y-117695762D01*
X153858938Y-117814226D01*
X153998237Y-117907303D01*
X154153018Y-117971416D01*
X154317333Y-118004100D01*
X154317334Y-118004100D01*
X154484866Y-118004100D01*
X154484867Y-118004100D01*
X154649182Y-117971416D01*
X154803963Y-117907303D01*
X154943262Y-117814226D01*
X155061726Y-117695762D01*
X155154803Y-117556463D01*
X155218916Y-117401682D01*
X155251600Y-117237367D01*
X155251600Y-117119833D01*
X155950600Y-117119833D01*
X155950600Y-117287367D01*
X155957420Y-117321656D01*
X155983282Y-117451675D01*
X155983284Y-117451682D01*
X156047396Y-117606462D01*
X156140471Y-117745758D01*
X156140474Y-117745762D01*
X156258938Y-117864226D01*
X156398237Y-117957303D01*
X156553018Y-118021416D01*
X156717333Y-118054100D01*
X156717334Y-118054100D01*
X156884866Y-118054100D01*
X156884867Y-118054100D01*
X157049182Y-118021416D01*
X157203963Y-117957303D01*
X157343262Y-117864226D01*
X157461726Y-117745762D01*
X157554803Y-117606463D01*
X157589043Y-117523800D01*
X161025600Y-117523800D01*
X161025600Y-117633400D01*
X161067543Y-117734658D01*
X161145042Y-117812157D01*
X161246300Y-117854100D01*
X161246301Y-117854100D01*
X161355898Y-117854100D01*
X161355900Y-117854100D01*
X161457158Y-117812157D01*
X161534657Y-117734658D01*
X161540068Y-117721595D01*
X161580116Y-117681546D01*
X161636753Y-117681546D01*
X161676802Y-117721594D01*
X161679790Y-117731444D01*
X161719826Y-117828100D01*
X161722543Y-117834658D01*
X161800042Y-117912157D01*
X161901300Y-117954100D01*
X161901301Y-117954100D01*
X162010898Y-117954100D01*
X162010900Y-117954100D01*
X162112158Y-117912157D01*
X162189657Y-117834658D01*
X162231600Y-117733400D01*
X162231600Y-117623800D01*
X162189657Y-117522542D01*
X162176447Y-117509332D01*
X162154774Y-117457008D01*
X162176448Y-117404682D01*
X162177476Y-117403838D01*
X162182156Y-117399157D01*
X162182158Y-117399157D01*
X162259657Y-117321658D01*
X162301600Y-117220400D01*
X162301600Y-117110800D01*
X162259657Y-117009542D01*
X162182158Y-116932043D01*
X162174732Y-116928967D01*
X162134683Y-116888920D01*
X162134682Y-116832283D01*
X162174728Y-116792234D01*
X162182158Y-116789157D01*
X162259657Y-116711658D01*
X162301600Y-116610400D01*
X162301600Y-116500800D01*
X162259657Y-116399542D01*
X162219539Y-116359424D01*
X162197866Y-116307100D01*
X162219539Y-116254775D01*
X162264657Y-116209658D01*
X162306600Y-116108400D01*
X162306600Y-115998800D01*
X162264657Y-115897542D01*
X162187158Y-115820043D01*
X162183674Y-115818600D01*
X162157500Y-115807758D01*
X162085900Y-115778100D01*
X161976300Y-115778100D01*
X161891893Y-115813062D01*
X161835256Y-115813062D01*
X161795208Y-115773014D01*
X161792415Y-115766272D01*
X161784657Y-115747542D01*
X161707158Y-115670043D01*
X161605900Y-115628100D01*
X161496300Y-115628100D01*
X161454358Y-115645473D01*
X161395043Y-115670042D01*
X161317542Y-115747543D01*
X161306992Y-115773014D01*
X161275600Y-115848800D01*
X161275600Y-115958400D01*
X161317543Y-116059658D01*
X161395042Y-116137157D01*
X161496300Y-116179100D01*
X161496301Y-116179100D01*
X161605898Y-116179100D01*
X161605900Y-116179100D01*
X161690307Y-116144137D01*
X161746942Y-116144137D01*
X161777979Y-116168311D01*
X161783472Y-116175689D01*
X161797543Y-116209658D01*
X161841470Y-116253585D01*
X161844688Y-116257907D01*
X161850401Y-116280539D01*
X161859333Y-116302101D01*
X161857166Y-116307331D01*
X161858552Y-116312821D01*
X161846590Y-116332862D01*
X161837659Y-116354425D01*
X161792544Y-116399540D01*
X161792542Y-116399543D01*
X161771685Y-116449896D01*
X161750600Y-116500800D01*
X161750600Y-116610400D01*
X161792543Y-116711658D01*
X161870042Y-116789157D01*
X161877313Y-116792169D01*
X161877468Y-116792233D01*
X161917516Y-116832282D01*
X161917516Y-116888919D01*
X161877468Y-116928967D01*
X161870043Y-116932042D01*
X161792542Y-117009543D01*
X161788280Y-117019833D01*
X161750600Y-117110800D01*
X161750600Y-117220400D01*
X161792543Y-117321658D01*
X161805752Y-117334867D01*
X161827426Y-117387192D01*
X161805752Y-117439518D01*
X161804722Y-117440363D01*
X161722541Y-117522544D01*
X161717130Y-117535608D01*
X161677079Y-117575655D01*
X161620442Y-117575652D01*
X161580395Y-117535601D01*
X161577409Y-117525756D01*
X161576600Y-117523802D01*
X161576600Y-117523800D01*
X161534657Y-117422542D01*
X161457158Y-117345043D01*
X161355900Y-117303100D01*
X161246300Y-117303100D01*
X161204358Y-117320473D01*
X161145043Y-117345042D01*
X161067542Y-117422543D01*
X161052690Y-117458399D01*
X161025600Y-117523800D01*
X157589043Y-117523800D01*
X157618916Y-117451682D01*
X157651600Y-117287367D01*
X157651600Y-117119833D01*
X157618916Y-116955518D01*
X157554803Y-116800737D01*
X157461726Y-116661438D01*
X157343262Y-116542974D01*
X157343258Y-116542971D01*
X157203962Y-116449896D01*
X157049182Y-116385784D01*
X157049175Y-116385782D01*
X156916670Y-116359426D01*
X156884867Y-116353100D01*
X156717333Y-116353100D01*
X156685530Y-116359426D01*
X156553024Y-116385782D01*
X156553017Y-116385784D01*
X156398237Y-116449896D01*
X156258941Y-116542971D01*
X156140471Y-116661441D01*
X156047396Y-116800737D01*
X155983284Y-116955517D01*
X155983282Y-116955524D01*
X155952397Y-117110800D01*
X155950600Y-117119833D01*
X155251600Y-117119833D01*
X155251600Y-117069833D01*
X155218916Y-116905518D01*
X155154803Y-116750737D01*
X155061726Y-116611438D01*
X154943262Y-116492974D01*
X154878793Y-116449897D01*
X154803962Y-116399896D01*
X154649182Y-116335784D01*
X154649175Y-116335782D01*
X154525388Y-116311160D01*
X154484867Y-116303100D01*
X154317333Y-116303100D01*
X154296062Y-116307331D01*
X154153024Y-116335782D01*
X154153017Y-116335784D01*
X153998237Y-116399896D01*
X153858941Y-116492971D01*
X153740471Y-116611441D01*
X153647396Y-116750737D01*
X153583284Y-116905517D01*
X153583282Y-116905524D01*
X153550600Y-117069833D01*
X152701600Y-117069833D01*
X152701600Y-117019833D01*
X152668916Y-116855518D01*
X152604803Y-116700737D01*
X152511726Y-116561438D01*
X152393262Y-116442974D01*
X152328793Y-116399897D01*
X152253962Y-116349896D01*
X152099182Y-116285784D01*
X152099175Y-116285782D01*
X151975388Y-116261160D01*
X151934867Y-116253100D01*
X151767333Y-116253100D01*
X151734828Y-116259565D01*
X151603024Y-116285782D01*
X151603017Y-116285784D01*
X151448237Y-116349896D01*
X151308941Y-116442971D01*
X151190471Y-116561441D01*
X151097396Y-116700737D01*
X151033284Y-116855517D01*
X151033282Y-116855524D01*
X151000600Y-117019833D01*
X146351100Y-117019833D01*
X146351100Y-115953100D01*
X146372774Y-115900774D01*
X146406383Y-115881506D01*
X146415586Y-115879100D01*
X146455900Y-115879100D01*
X146524883Y-115850525D01*
X146529790Y-115849243D01*
X146553197Y-115852470D01*
X146576825Y-115852470D01*
X146580603Y-115856248D01*
X146585896Y-115856978D01*
X146600164Y-115875809D01*
X146616874Y-115892518D01*
X146616874Y-115897861D01*
X146620101Y-115902120D01*
X146616874Y-115925527D01*
X146616874Y-115949155D01*
X146575600Y-116048799D01*
X146575600Y-116048800D01*
X146575600Y-116158400D01*
X146596831Y-116209656D01*
X146614826Y-116253100D01*
X146617543Y-116259658D01*
X146695042Y-116337157D01*
X146796300Y-116379100D01*
X146796301Y-116379100D01*
X146905898Y-116379100D01*
X146905900Y-116379100D01*
X147007158Y-116337157D01*
X147084657Y-116259658D01*
X147126600Y-116158400D01*
X147126600Y-116048800D01*
X147084657Y-115947542D01*
X147007158Y-115870043D01*
X146905900Y-115828100D01*
X146796300Y-115828100D01*
X146732010Y-115854729D01*
X146675373Y-115854729D01*
X146635325Y-115814680D01*
X146635325Y-115758045D01*
X146676600Y-115658400D01*
X146676600Y-115548800D01*
X159705600Y-115548800D01*
X159705600Y-115658400D01*
X159747543Y-115759658D01*
X159774159Y-115786274D01*
X159795833Y-115838599D01*
X159774161Y-115890923D01*
X159767544Y-115897539D01*
X159767542Y-115897542D01*
X159742334Y-115958400D01*
X159725600Y-115998800D01*
X159725600Y-116108400D01*
X159767543Y-116209658D01*
X159845042Y-116287157D01*
X159946300Y-116329100D01*
X159946301Y-116329100D01*
X160055898Y-116329100D01*
X160055900Y-116329100D01*
X160157158Y-116287157D01*
X160234657Y-116209658D01*
X160276600Y-116108400D01*
X160276600Y-115998800D01*
X160234657Y-115897542D01*
X160208039Y-115870924D01*
X160186366Y-115818600D01*
X160208039Y-115766275D01*
X160214657Y-115759658D01*
X160256600Y-115658400D01*
X160256600Y-115548800D01*
X160214657Y-115447542D01*
X160137158Y-115370043D01*
X160035900Y-115328100D01*
X159926300Y-115328100D01*
X159884358Y-115345473D01*
X159825043Y-115370042D01*
X159747542Y-115447543D01*
X159705600Y-115548800D01*
X146676600Y-115548800D01*
X146634657Y-115447542D01*
X146557158Y-115370043D01*
X146455900Y-115328100D01*
X146425100Y-115328100D01*
X146372774Y-115306426D01*
X146351100Y-115254100D01*
X146351100Y-114548800D01*
X146875600Y-114548800D01*
X146875600Y-114658400D01*
X146917543Y-114759658D01*
X146995042Y-114837157D01*
X147096300Y-114879100D01*
X147096301Y-114879100D01*
X147205898Y-114879100D01*
X147205900Y-114879100D01*
X147307158Y-114837157D01*
X147384657Y-114759658D01*
X147426600Y-114658400D01*
X147426600Y-114548800D01*
X147393890Y-114469833D01*
X150850600Y-114469833D01*
X150850600Y-114637367D01*
X150854784Y-114658400D01*
X150883282Y-114801675D01*
X150883284Y-114801682D01*
X150947396Y-114956462D01*
X151040471Y-115095758D01*
X151040474Y-115095762D01*
X151158938Y-115214226D01*
X151298237Y-115307303D01*
X151453018Y-115371416D01*
X151617333Y-115404100D01*
X151617334Y-115404100D01*
X151784866Y-115404100D01*
X151784867Y-115404100D01*
X151949182Y-115371416D01*
X152103963Y-115307303D01*
X152243262Y-115214226D01*
X152361726Y-115095762D01*
X152454803Y-114956463D01*
X152518916Y-114801682D01*
X152551600Y-114637367D01*
X152551600Y-114469833D01*
X152521763Y-114319833D01*
X153300600Y-114319833D01*
X153300600Y-114487366D01*
X153333282Y-114651675D01*
X153333284Y-114651682D01*
X153397396Y-114806462D01*
X153490471Y-114945758D01*
X153490474Y-114945762D01*
X153608938Y-115064226D01*
X153748237Y-115157303D01*
X153903018Y-115221416D01*
X154067333Y-115254100D01*
X154067334Y-115254100D01*
X154234866Y-115254100D01*
X154234867Y-115254100D01*
X154399182Y-115221416D01*
X154553963Y-115157303D01*
X154693262Y-115064226D01*
X154811726Y-114945762D01*
X154904803Y-114806463D01*
X154968916Y-114651682D01*
X155001600Y-114487367D01*
X155001600Y-114319833D01*
X155850600Y-114319833D01*
X155850600Y-114487366D01*
X155883282Y-114651675D01*
X155883284Y-114651682D01*
X155947396Y-114806462D01*
X156040471Y-114945758D01*
X156040474Y-114945762D01*
X156158938Y-115064226D01*
X156298237Y-115157303D01*
X156453018Y-115221416D01*
X156617333Y-115254100D01*
X156617334Y-115254100D01*
X156784866Y-115254100D01*
X156784867Y-115254100D01*
X156949182Y-115221416D01*
X157103963Y-115157303D01*
X157243262Y-115064226D01*
X157361726Y-114945762D01*
X157454803Y-114806463D01*
X157518916Y-114651682D01*
X157551600Y-114487367D01*
X157551600Y-114319833D01*
X157518916Y-114155518D01*
X157454803Y-114000737D01*
X157453509Y-113998800D01*
X159525600Y-113998800D01*
X159525600Y-114108400D01*
X159567543Y-114209658D01*
X159645042Y-114287157D01*
X159746300Y-114329100D01*
X159746301Y-114329100D01*
X159855898Y-114329100D01*
X159855900Y-114329100D01*
X159957158Y-114287157D01*
X160034657Y-114209658D01*
X160076600Y-114108400D01*
X160076600Y-113998800D01*
X160034657Y-113897542D01*
X159957158Y-113820043D01*
X159855900Y-113778100D01*
X159746300Y-113778100D01*
X159704358Y-113795473D01*
X159645043Y-113820042D01*
X159567542Y-113897543D01*
X159525600Y-113998800D01*
X157453509Y-113998800D01*
X157361726Y-113861438D01*
X157243262Y-113742974D01*
X157243258Y-113742971D01*
X157103962Y-113649896D01*
X156949182Y-113585784D01*
X156949175Y-113585782D01*
X156825388Y-113561160D01*
X156784867Y-113553100D01*
X156617333Y-113553100D01*
X156584828Y-113559565D01*
X156453024Y-113585782D01*
X156453017Y-113585784D01*
X156298237Y-113649896D01*
X156158941Y-113742971D01*
X156040471Y-113861441D01*
X155947396Y-114000737D01*
X155883284Y-114155517D01*
X155883282Y-114155524D01*
X155850600Y-114319833D01*
X155001600Y-114319833D01*
X154968916Y-114155518D01*
X154904803Y-114000737D01*
X154811726Y-113861438D01*
X154693262Y-113742974D01*
X154693258Y-113742971D01*
X154553962Y-113649896D01*
X154399182Y-113585784D01*
X154399175Y-113585782D01*
X154275388Y-113561160D01*
X154234867Y-113553100D01*
X154067333Y-113553100D01*
X154034828Y-113559565D01*
X153903024Y-113585782D01*
X153903017Y-113585784D01*
X153748237Y-113649896D01*
X153608941Y-113742971D01*
X153490471Y-113861441D01*
X153397396Y-114000737D01*
X153333284Y-114155517D01*
X153333282Y-114155524D01*
X153300600Y-114319833D01*
X152521763Y-114319833D01*
X152518916Y-114305518D01*
X152454803Y-114150737D01*
X152361726Y-114011438D01*
X152243262Y-113892974D01*
X152196070Y-113861441D01*
X152103962Y-113799896D01*
X151949182Y-113735784D01*
X151949175Y-113735782D01*
X151825388Y-113711160D01*
X151784867Y-113703100D01*
X151617333Y-113703100D01*
X151584828Y-113709565D01*
X151453024Y-113735782D01*
X151453017Y-113735784D01*
X151298237Y-113799896D01*
X151158941Y-113892971D01*
X151040471Y-114011441D01*
X150947396Y-114150737D01*
X150883284Y-114305517D01*
X150883282Y-114305524D01*
X150870449Y-114370042D01*
X150850600Y-114469833D01*
X147393890Y-114469833D01*
X147384657Y-114447542D01*
X147307158Y-114370043D01*
X147205900Y-114328100D01*
X147096300Y-114328100D01*
X147054358Y-114345473D01*
X146995043Y-114370042D01*
X146917542Y-114447543D01*
X146898085Y-114494517D01*
X146875600Y-114548800D01*
X146351100Y-114548800D01*
X146351100Y-112548800D01*
X146925600Y-112548800D01*
X146925600Y-112658400D01*
X146967543Y-112759658D01*
X147009160Y-112801275D01*
X147030834Y-112853600D01*
X147009160Y-112905924D01*
X146967543Y-112947542D01*
X146967542Y-112947543D01*
X146925600Y-113048800D01*
X146925600Y-113158400D01*
X146967543Y-113259658D01*
X147045042Y-113337157D01*
X147146300Y-113379100D01*
X147146301Y-113379100D01*
X147255898Y-113379100D01*
X147255900Y-113379100D01*
X147357158Y-113337157D01*
X147434657Y-113259658D01*
X147476600Y-113158400D01*
X147476600Y-113048800D01*
X159675600Y-113048800D01*
X159675600Y-113158400D01*
X159717543Y-113259658D01*
X159795042Y-113337157D01*
X159896300Y-113379100D01*
X159896301Y-113379100D01*
X160005898Y-113379100D01*
X160005900Y-113379100D01*
X160107158Y-113337157D01*
X160184657Y-113259658D01*
X160226600Y-113158400D01*
X160226600Y-113048800D01*
X161525600Y-113048800D01*
X161525600Y-113158400D01*
X161567543Y-113259658D01*
X161645042Y-113337157D01*
X161746300Y-113379100D01*
X161746301Y-113379100D01*
X161855898Y-113379100D01*
X161855900Y-113379100D01*
X161957158Y-113337157D01*
X162034657Y-113259658D01*
X162076600Y-113158400D01*
X162076600Y-113048800D01*
X162034657Y-112947542D01*
X161957158Y-112870043D01*
X161855900Y-112828100D01*
X161746300Y-112828100D01*
X161724435Y-112837157D01*
X161645043Y-112870042D01*
X161567542Y-112947543D01*
X161525600Y-113048800D01*
X160226600Y-113048800D01*
X160184657Y-112947542D01*
X160107158Y-112870043D01*
X160005900Y-112828100D01*
X159896300Y-112828100D01*
X159874435Y-112837157D01*
X159795043Y-112870042D01*
X159717542Y-112947543D01*
X159675600Y-113048800D01*
X147476600Y-113048800D01*
X147434657Y-112947542D01*
X147393039Y-112905924D01*
X147371366Y-112853600D01*
X147393039Y-112801275D01*
X147434657Y-112759658D01*
X147476600Y-112658400D01*
X147476600Y-112548800D01*
X147434657Y-112447542D01*
X147357158Y-112370043D01*
X147255900Y-112328100D01*
X147146300Y-112328100D01*
X147104358Y-112345473D01*
X147045043Y-112370042D01*
X146967542Y-112447543D01*
X146960632Y-112464226D01*
X146925600Y-112548800D01*
X146351100Y-112548800D01*
X146351100Y-111548800D01*
X146925600Y-111548800D01*
X146925600Y-111658400D01*
X146967543Y-111759658D01*
X147045042Y-111837157D01*
X147146300Y-111879100D01*
X147146301Y-111879100D01*
X147255898Y-111879100D01*
X147255900Y-111879100D01*
X147357158Y-111837157D01*
X147434657Y-111759658D01*
X147451153Y-111719833D01*
X150850600Y-111719833D01*
X150850600Y-111887366D01*
X150883282Y-112051675D01*
X150883284Y-112051682D01*
X150947396Y-112206462D01*
X151040471Y-112345758D01*
X151040474Y-112345762D01*
X151158938Y-112464226D01*
X151298237Y-112557303D01*
X151453018Y-112621416D01*
X151617333Y-112654100D01*
X151617334Y-112654100D01*
X151784866Y-112654100D01*
X151784867Y-112654100D01*
X151949182Y-112621416D01*
X152103963Y-112557303D01*
X152243262Y-112464226D01*
X152361726Y-112345762D01*
X152454803Y-112206463D01*
X152518916Y-112051682D01*
X152551600Y-111887367D01*
X152551600Y-111769833D01*
X153250600Y-111769833D01*
X153250600Y-111937366D01*
X153283282Y-112101675D01*
X153283284Y-112101682D01*
X153347396Y-112256462D01*
X153407062Y-112345758D01*
X153440474Y-112395762D01*
X153558938Y-112514226D01*
X153698237Y-112607303D01*
X153853018Y-112671416D01*
X154017333Y-112704100D01*
X154017334Y-112704100D01*
X154184866Y-112704100D01*
X154184867Y-112704100D01*
X154349182Y-112671416D01*
X154503963Y-112607303D01*
X154643262Y-112514226D01*
X154761726Y-112395762D01*
X154854803Y-112256463D01*
X154918916Y-112101682D01*
X154951600Y-111937367D01*
X154951600Y-111769833D01*
X154941654Y-111719833D01*
X155750600Y-111719833D01*
X155750600Y-111887366D01*
X155783282Y-112051675D01*
X155783284Y-112051682D01*
X155847396Y-112206462D01*
X155940471Y-112345758D01*
X155940474Y-112345762D01*
X156058938Y-112464226D01*
X156198237Y-112557303D01*
X156353018Y-112621416D01*
X156517333Y-112654100D01*
X156517334Y-112654100D01*
X156684866Y-112654100D01*
X156684867Y-112654100D01*
X156849182Y-112621416D01*
X157003963Y-112557303D01*
X157143262Y-112464226D01*
X157261726Y-112345762D01*
X157354803Y-112206463D01*
X157418916Y-112051682D01*
X157451600Y-111887367D01*
X157451600Y-111719833D01*
X157418916Y-111555518D01*
X157416133Y-111548800D01*
X161325600Y-111548800D01*
X161325600Y-111658400D01*
X161367543Y-111759658D01*
X161445042Y-111837157D01*
X161546300Y-111879100D01*
X161546301Y-111879100D01*
X161655898Y-111879100D01*
X161655900Y-111879100D01*
X161757158Y-111837157D01*
X161834657Y-111759658D01*
X161876600Y-111658400D01*
X161876600Y-111548800D01*
X161834657Y-111447542D01*
X161757158Y-111370043D01*
X161655900Y-111328100D01*
X161546300Y-111328100D01*
X161504358Y-111345473D01*
X161445043Y-111370042D01*
X161367542Y-111447543D01*
X161325600Y-111548800D01*
X157416133Y-111548800D01*
X157354803Y-111400737D01*
X157261726Y-111261438D01*
X157143262Y-111142974D01*
X157078793Y-111099897D01*
X157003962Y-111049896D01*
X156849182Y-110985784D01*
X156849175Y-110985782D01*
X156725388Y-110961160D01*
X156684867Y-110953100D01*
X156517333Y-110953100D01*
X156484828Y-110959565D01*
X156353024Y-110985782D01*
X156353017Y-110985784D01*
X156198237Y-111049896D01*
X156058941Y-111142971D01*
X155940471Y-111261441D01*
X155847396Y-111400737D01*
X155783284Y-111555517D01*
X155783282Y-111555524D01*
X155750600Y-111719833D01*
X154941654Y-111719833D01*
X154918917Y-111605524D01*
X154918916Y-111605518D01*
X154854803Y-111450737D01*
X154761726Y-111311438D01*
X154643262Y-111192974D01*
X154643258Y-111192971D01*
X154503962Y-111099896D01*
X154349182Y-111035784D01*
X154349175Y-111035782D01*
X154225388Y-111011160D01*
X154184867Y-111003100D01*
X154017333Y-111003100D01*
X153984828Y-111009565D01*
X153853024Y-111035782D01*
X153853017Y-111035784D01*
X153698237Y-111099896D01*
X153558941Y-111192971D01*
X153440471Y-111311441D01*
X153347396Y-111450737D01*
X153283284Y-111605517D01*
X153283282Y-111605524D01*
X153250600Y-111769833D01*
X152551600Y-111769833D01*
X152551600Y-111719833D01*
X152518916Y-111555518D01*
X152454803Y-111400737D01*
X152361726Y-111261438D01*
X152243262Y-111142974D01*
X152178793Y-111099897D01*
X152103962Y-111049896D01*
X151949182Y-110985784D01*
X151949175Y-110985782D01*
X151825388Y-110961160D01*
X151784867Y-110953100D01*
X151617333Y-110953100D01*
X151584828Y-110959565D01*
X151453024Y-110985782D01*
X151453017Y-110985784D01*
X151298237Y-111049896D01*
X151158941Y-111142971D01*
X151040471Y-111261441D01*
X150947396Y-111400737D01*
X150883284Y-111555517D01*
X150883282Y-111555524D01*
X150850600Y-111719833D01*
X147451153Y-111719833D01*
X147476600Y-111658400D01*
X147476600Y-111548800D01*
X147434657Y-111447542D01*
X147357158Y-111370043D01*
X147255900Y-111328100D01*
X147146300Y-111328100D01*
X147104358Y-111345473D01*
X147045043Y-111370042D01*
X146967542Y-111447543D01*
X146925600Y-111548800D01*
X146351100Y-111548800D01*
X146351100Y-109998800D01*
X147775600Y-109998800D01*
X147775600Y-110108400D01*
X147817543Y-110209658D01*
X147895042Y-110287157D01*
X147996300Y-110329100D01*
X147996301Y-110329100D01*
X148105898Y-110329100D01*
X148105900Y-110329100D01*
X148207158Y-110287157D01*
X148284657Y-110209658D01*
X148326600Y-110108400D01*
X148326600Y-109998800D01*
X148284657Y-109897542D01*
X148207158Y-109820043D01*
X148105900Y-109778100D01*
X147996300Y-109778100D01*
X147954358Y-109795473D01*
X147895043Y-109820042D01*
X147817542Y-109897543D01*
X147789601Y-109964999D01*
X147775600Y-109998800D01*
X146351100Y-109998800D01*
X146351100Y-109548800D01*
X159425600Y-109548800D01*
X159425600Y-109658400D01*
X159467543Y-109759658D01*
X159545042Y-109837157D01*
X159620262Y-109868314D01*
X159660311Y-109908362D01*
X159660311Y-109964999D01*
X159625600Y-110048798D01*
X159625600Y-110048800D01*
X159625600Y-110158400D01*
X159667543Y-110259658D01*
X159745042Y-110337157D01*
X159846300Y-110379100D01*
X159846301Y-110379100D01*
X159955898Y-110379100D01*
X159955900Y-110379100D01*
X160057158Y-110337157D01*
X160134657Y-110259658D01*
X160176600Y-110158400D01*
X160176600Y-110048800D01*
X160134657Y-109947542D01*
X160057158Y-109870043D01*
X159981935Y-109838884D01*
X159941888Y-109798836D01*
X159941888Y-109742201D01*
X159976600Y-109658400D01*
X159976600Y-109548800D01*
X159934657Y-109447542D01*
X159857158Y-109370043D01*
X159755900Y-109328100D01*
X159646300Y-109328100D01*
X159604358Y-109345473D01*
X159545043Y-109370042D01*
X159467542Y-109447543D01*
X159433760Y-109529100D01*
X159425600Y-109548800D01*
X146351100Y-109548800D01*
X146351100Y-109198800D01*
X147025600Y-109198800D01*
X147025600Y-109308400D01*
X147067543Y-109409658D01*
X147145042Y-109487157D01*
X147246300Y-109529100D01*
X147246301Y-109529100D01*
X147355898Y-109529100D01*
X147355900Y-109529100D01*
X147457158Y-109487157D01*
X147534657Y-109409658D01*
X147576600Y-109308400D01*
X147576600Y-109198800D01*
X147534657Y-109097542D01*
X147457158Y-109020043D01*
X147355900Y-108978100D01*
X147246300Y-108978100D01*
X147204358Y-108995473D01*
X147145043Y-109020042D01*
X147067542Y-109097543D01*
X147025600Y-109198800D01*
X146351100Y-109198800D01*
X146351100Y-108598800D01*
X150275600Y-108598800D01*
X150275600Y-108708400D01*
X150317543Y-108809658D01*
X150395042Y-108887157D01*
X150496300Y-108929100D01*
X150496301Y-108929100D01*
X150605898Y-108929100D01*
X150605900Y-108929100D01*
X150707158Y-108887157D01*
X150784657Y-108809658D01*
X150826600Y-108708400D01*
X150826600Y-108598800D01*
X151075600Y-108598800D01*
X151075600Y-108708400D01*
X151117543Y-108809658D01*
X151195042Y-108887157D01*
X151296300Y-108929100D01*
X151296301Y-108929100D01*
X151405898Y-108929100D01*
X151405900Y-108929100D01*
X151507158Y-108887157D01*
X151584657Y-108809658D01*
X151626600Y-108708400D01*
X151626600Y-108598800D01*
X154175600Y-108598800D01*
X154175600Y-108708400D01*
X154217543Y-108809658D01*
X154295042Y-108887157D01*
X154396300Y-108929100D01*
X154396301Y-108929100D01*
X154505898Y-108929100D01*
X154505900Y-108929100D01*
X154607158Y-108887157D01*
X154684657Y-108809658D01*
X154726600Y-108708400D01*
X154726600Y-108648800D01*
X155075600Y-108648800D01*
X155075600Y-108758400D01*
X155117543Y-108859658D01*
X155195042Y-108937157D01*
X155296300Y-108979100D01*
X155296301Y-108979100D01*
X155405898Y-108979100D01*
X155405900Y-108979100D01*
X155507158Y-108937157D01*
X155584657Y-108859658D01*
X155626600Y-108758400D01*
X155626600Y-108648800D01*
X156225600Y-108648800D01*
X156225600Y-108758400D01*
X156267543Y-108859658D01*
X156345042Y-108937157D01*
X156446300Y-108979100D01*
X156446301Y-108979100D01*
X156555898Y-108979100D01*
X156555900Y-108979100D01*
X156657158Y-108937157D01*
X156734657Y-108859658D01*
X156776600Y-108758400D01*
X156776600Y-108691414D01*
X156798274Y-108639088D01*
X156850600Y-108617414D01*
X156902926Y-108639088D01*
X156912888Y-108653998D01*
X156913492Y-108653595D01*
X156917541Y-108659654D01*
X156917543Y-108659658D01*
X156995042Y-108737157D01*
X157096300Y-108779100D01*
X157096301Y-108779100D01*
X157205898Y-108779100D01*
X157205900Y-108779100D01*
X157307158Y-108737157D01*
X157384657Y-108659658D01*
X157389155Y-108648800D01*
X158125600Y-108648800D01*
X158125600Y-108758400D01*
X158167543Y-108859658D01*
X158245042Y-108937157D01*
X158346300Y-108979100D01*
X158346301Y-108979100D01*
X158455898Y-108979100D01*
X158455900Y-108979100D01*
X158557158Y-108937157D01*
X158634657Y-108859658D01*
X158676600Y-108758400D01*
X158676600Y-108648800D01*
X158634657Y-108547542D01*
X158557158Y-108470043D01*
X158455900Y-108428100D01*
X158346300Y-108428100D01*
X158313921Y-108441512D01*
X158245043Y-108470042D01*
X158167542Y-108547543D01*
X158129623Y-108639088D01*
X158125600Y-108648800D01*
X157389155Y-108648800D01*
X157426600Y-108558400D01*
X157426600Y-108448800D01*
X157426600Y-108441512D01*
X157430355Y-108441512D01*
X157438799Y-108399046D01*
X157485889Y-108367578D01*
X157528646Y-108371787D01*
X157546300Y-108379100D01*
X157546302Y-108379100D01*
X157655898Y-108379100D01*
X157655900Y-108379100D01*
X157757158Y-108337157D01*
X157834657Y-108259658D01*
X157876600Y-108158400D01*
X157876600Y-108048800D01*
X157834657Y-107947542D01*
X157757158Y-107870043D01*
X157655900Y-107828100D01*
X157546300Y-107828100D01*
X157504358Y-107845473D01*
X157445043Y-107870042D01*
X157367542Y-107947543D01*
X157325600Y-108048800D01*
X157325600Y-108165688D01*
X157321854Y-108165688D01*
X157313377Y-108208188D01*
X157266268Y-108239630D01*
X157223551Y-108235411D01*
X157205900Y-108228100D01*
X157096300Y-108228100D01*
X157054358Y-108245473D01*
X156995043Y-108270042D01*
X156917542Y-108347543D01*
X156875600Y-108448800D01*
X156875600Y-108515785D01*
X156853926Y-108568111D01*
X156801600Y-108589785D01*
X156749274Y-108568111D01*
X156739311Y-108553201D01*
X156738708Y-108553605D01*
X156734657Y-108547543D01*
X156734657Y-108547542D01*
X156657158Y-108470043D01*
X156555900Y-108428100D01*
X156446300Y-108428100D01*
X156413921Y-108441512D01*
X156345043Y-108470042D01*
X156267542Y-108547543D01*
X156229623Y-108639088D01*
X156225600Y-108648800D01*
X155626600Y-108648800D01*
X155584657Y-108547542D01*
X155507158Y-108470043D01*
X155405900Y-108428100D01*
X155296300Y-108428100D01*
X155263921Y-108441512D01*
X155195043Y-108470042D01*
X155117542Y-108547543D01*
X155079623Y-108639088D01*
X155075600Y-108648800D01*
X154726600Y-108648800D01*
X154726600Y-108598800D01*
X154684657Y-108497542D01*
X154607158Y-108420043D01*
X154505900Y-108378100D01*
X154396300Y-108378100D01*
X154354358Y-108395473D01*
X154295043Y-108420042D01*
X154217542Y-108497543D01*
X154192335Y-108558399D01*
X154175600Y-108598800D01*
X151626600Y-108598800D01*
X151584657Y-108497542D01*
X151507158Y-108420043D01*
X151405900Y-108378100D01*
X151296300Y-108378100D01*
X151254358Y-108395473D01*
X151195043Y-108420042D01*
X151117542Y-108497543D01*
X151092335Y-108558399D01*
X151075600Y-108598800D01*
X150826600Y-108598800D01*
X150784657Y-108497542D01*
X150707158Y-108420043D01*
X150605900Y-108378100D01*
X150496300Y-108378100D01*
X150454358Y-108395473D01*
X150395043Y-108420042D01*
X150317542Y-108497543D01*
X150292335Y-108558399D01*
X150275600Y-108598800D01*
X146351100Y-108598800D01*
X146351100Y-107298800D01*
X152675600Y-107298800D01*
X152675600Y-107408400D01*
X152717543Y-107509658D01*
X152795042Y-107587157D01*
X152896300Y-107629100D01*
X152896301Y-107629100D01*
X153005898Y-107629100D01*
X153005900Y-107629100D01*
X153107158Y-107587157D01*
X153184657Y-107509658D01*
X153226600Y-107408400D01*
X153226600Y-107298800D01*
X153184657Y-107197542D01*
X153107158Y-107120043D01*
X153005900Y-107078100D01*
X152896300Y-107078100D01*
X152854358Y-107095473D01*
X152795043Y-107120042D01*
X152717542Y-107197543D01*
X152675600Y-107298800D01*
X146351100Y-107298800D01*
X146351100Y-106427600D01*
X146372774Y-106375274D01*
X146425100Y-106353600D01*
X147079954Y-106353600D01*
X147100911Y-106357767D01*
G37*
%TD.AperFunction*%
%TD*%
%TA.AperFunction,Conductor*%
%TO.N,+3V3_LO_1*%
G36*
X123131506Y-66855425D02*
G01*
X123134882Y-66856823D01*
X123147871Y-66869805D01*
X123149273Y-66873188D01*
X123149273Y-66878961D01*
X123149702Y-66878961D01*
X123151100Y-67807154D01*
X123149272Y-67816377D01*
X123146885Y-67822138D01*
X123133898Y-67835124D01*
X123098241Y-67849893D01*
X122958942Y-67942970D01*
X122840470Y-68061442D01*
X122747391Y-68200743D01*
X122683284Y-68355512D01*
X122683284Y-68355514D01*
X122683281Y-68355525D01*
X122650600Y-68519823D01*
X122650600Y-68687375D01*
X122683281Y-68851673D01*
X122683284Y-68851684D01*
X122683284Y-68851686D01*
X122747392Y-69006455D01*
X122747391Y-69006455D01*
X122747394Y-69006459D01*
X122774023Y-69046312D01*
X122840474Y-69145762D01*
X122958938Y-69264226D01*
X123018072Y-69303738D01*
X123098240Y-69357305D01*
X123109561Y-69361993D01*
X123117567Y-69365310D01*
X123131874Y-69371236D01*
X123139659Y-69376437D01*
X123144069Y-69380846D01*
X123151100Y-69397815D01*
X123151100Y-99353600D01*
X138898771Y-99353600D01*
X138907952Y-99355425D01*
X138910339Y-99356414D01*
X138923329Y-99369401D01*
X138923331Y-99387770D01*
X138923329Y-99387775D01*
X138922340Y-99390162D01*
X138918764Y-99395514D01*
X138918856Y-99395575D01*
X138917543Y-99397539D01*
X138912755Y-99409100D01*
X138904471Y-99429100D01*
X138881692Y-99484094D01*
X138875600Y-99498800D01*
X138875600Y-99608400D01*
X138917543Y-99709658D01*
X138995042Y-99787157D01*
X139066641Y-99816814D01*
X139096298Y-99829100D01*
X139096299Y-99829100D01*
X139096300Y-99829100D01*
X139205901Y-99829100D01*
X139224600Y-99821353D01*
X139224602Y-99821352D01*
X139235560Y-99816813D01*
X139307158Y-99787157D01*
X139384657Y-99709658D01*
X139426600Y-99608400D01*
X139426600Y-99498800D01*
X139420508Y-99484094D01*
X139405368Y-99447543D01*
X139384657Y-99397542D01*
X139383345Y-99395578D01*
X139383436Y-99395516D01*
X139379855Y-99390153D01*
X139378866Y-99387764D01*
X139378872Y-99369396D01*
X139391862Y-99356413D01*
X139394245Y-99355427D01*
X139394250Y-99355425D01*
X139403429Y-99353600D01*
X143277747Y-99353600D01*
X143286930Y-99355426D01*
X143293204Y-99358025D01*
X143304803Y-99368198D01*
X143320599Y-99395557D01*
X143320602Y-99395560D01*
X143320603Y-99395561D01*
X143320605Y-99395564D01*
X143409136Y-99484095D01*
X143517564Y-99546695D01*
X143638499Y-99579100D01*
X143638500Y-99579100D01*
X143763700Y-99579100D01*
X143763701Y-99579100D01*
X143884636Y-99546695D01*
X143993064Y-99484095D01*
X144081595Y-99395564D01*
X144086461Y-99387136D01*
X144096510Y-99369730D01*
X144102682Y-99362694D01*
X144108074Y-99358558D01*
X144122682Y-99353600D01*
X144322327Y-99353600D01*
X144331506Y-99355425D01*
X144331511Y-99355427D01*
X144334882Y-99356823D01*
X144347871Y-99369805D01*
X144349273Y-99373190D01*
X144351100Y-99382372D01*
X144351100Y-101253600D01*
X144351101Y-101253600D01*
X144742865Y-101253600D01*
X144750273Y-101255269D01*
X144750936Y-101255183D01*
X144751368Y-101255516D01*
X144753157Y-101255919D01*
X144754878Y-101256736D01*
X144754363Y-101257820D01*
X144765494Y-101266385D01*
X144767865Y-101284600D01*
X144756663Y-101299158D01*
X144756557Y-101299219D01*
X144750798Y-101301599D01*
X144717566Y-101310503D01*
X144609136Y-101373105D01*
X144520605Y-101461636D01*
X144458003Y-101570066D01*
X144450640Y-101597548D01*
X144450305Y-101598799D01*
X144425600Y-101690999D01*
X144425600Y-101816201D01*
X144435286Y-101852349D01*
X144436190Y-101855722D01*
X144436190Y-101855723D01*
X144444607Y-101887136D01*
X144452752Y-101917534D01*
X144458005Y-101937136D01*
X144520605Y-102045564D01*
X144609136Y-102134095D01*
X144717564Y-102196695D01*
X144838499Y-102229100D01*
X144838500Y-102229100D01*
X144963700Y-102229100D01*
X144963701Y-102229100D01*
X145084636Y-102196695D01*
X145193064Y-102134095D01*
X145281595Y-102045564D01*
X145344195Y-101937136D01*
X145376600Y-101816201D01*
X145376600Y-101690999D01*
X145344195Y-101570064D01*
X145281595Y-101461636D01*
X145193064Y-101373105D01*
X145106460Y-101323105D01*
X145088731Y-101312869D01*
X145088729Y-101312868D01*
X145084636Y-101310505D01*
X145084635Y-101310504D01*
X145084634Y-101310504D01*
X145052960Y-101302017D01*
X145044567Y-101297879D01*
X145042996Y-101296674D01*
X145033809Y-101280768D01*
X145038560Y-101263024D01*
X145051455Y-101254432D01*
X145051506Y-101254418D01*
X145051573Y-101254401D01*
X145057720Y-101253600D01*
X146085181Y-101253600D01*
X146094362Y-101255425D01*
X146096749Y-101256414D01*
X146109739Y-101269401D01*
X146109744Y-101287763D01*
X146109533Y-101288273D01*
X146099357Y-101299882D01*
X146059137Y-101323104D01*
X145970605Y-101411636D01*
X145908003Y-101520066D01*
X145896865Y-101561636D01*
X145894607Y-101570064D01*
X145875600Y-101640999D01*
X145875600Y-101766201D01*
X145886291Y-101806100D01*
X145888997Y-101816199D01*
X145888997Y-101816200D01*
X145905582Y-101878100D01*
X145905583Y-101878100D01*
X145908005Y-101887136D01*
X145970605Y-101995564D01*
X146059136Y-102084095D01*
X146167564Y-102146695D01*
X146288499Y-102179100D01*
X146288500Y-102179100D01*
X146413700Y-102179100D01*
X146413701Y-102179100D01*
X146534636Y-102146695D01*
X146643064Y-102084095D01*
X146731595Y-101995564D01*
X146794195Y-101887136D01*
X146826600Y-101766201D01*
X146826600Y-101640999D01*
X146794195Y-101520064D01*
X146731595Y-101411636D01*
X146643064Y-101323105D01*
X146643061Y-101323103D01*
X146643060Y-101323102D01*
X146604378Y-101300768D01*
X146597339Y-101294596D01*
X146595768Y-101292549D01*
X146591012Y-101274806D01*
X146600195Y-101258898D01*
X146600654Y-101258545D01*
X146615247Y-101253600D01*
X147192865Y-101253600D01*
X147202041Y-101255424D01*
X147203025Y-101255831D01*
X147203868Y-101256180D01*
X147216862Y-101269164D01*
X147216868Y-101287532D01*
X147206663Y-101299158D01*
X147206557Y-101299219D01*
X147200798Y-101301599D01*
X147167566Y-101310503D01*
X147059136Y-101373105D01*
X146970605Y-101461636D01*
X146908003Y-101570066D01*
X146900640Y-101597548D01*
X146900305Y-101598799D01*
X146875600Y-101690999D01*
X146875600Y-101816201D01*
X146885286Y-101852349D01*
X146886190Y-101855722D01*
X146886190Y-101855723D01*
X146894607Y-101887136D01*
X146902752Y-101917534D01*
X146908005Y-101937136D01*
X146970605Y-102045564D01*
X147059136Y-102134095D01*
X147167564Y-102196695D01*
X147288499Y-102229100D01*
X147288500Y-102229100D01*
X147413700Y-102229100D01*
X147413701Y-102229100D01*
X147534636Y-102196695D01*
X147643064Y-102134095D01*
X147678361Y-102098798D01*
X149325600Y-102098798D01*
X149325600Y-102098799D01*
X149325600Y-102098800D01*
X149325600Y-102208400D01*
X149367543Y-102309658D01*
X149367545Y-102309660D01*
X149367546Y-102309661D01*
X149441140Y-102383256D01*
X149446342Y-102391042D01*
X149447739Y-102394415D01*
X149447739Y-102412784D01*
X149446341Y-102416159D01*
X149441139Y-102423944D01*
X149367546Y-102497538D01*
X149367544Y-102497540D01*
X149367543Y-102497542D01*
X149325600Y-102598800D01*
X149325600Y-102708400D01*
X149367543Y-102809658D01*
X149445042Y-102887157D01*
X149516641Y-102916814D01*
X149546298Y-102929100D01*
X149546299Y-102929100D01*
X149546300Y-102929100D01*
X149655901Y-102929100D01*
X149674600Y-102921353D01*
X149674602Y-102921352D01*
X149685560Y-102916813D01*
X149757158Y-102887157D01*
X149834657Y-102809658D01*
X149876600Y-102708400D01*
X149876600Y-102598800D01*
X154475600Y-102598800D01*
X154475600Y-102708400D01*
X154517543Y-102809658D01*
X154595042Y-102887157D01*
X154666641Y-102916814D01*
X154696298Y-102929100D01*
X154696299Y-102929100D01*
X154696300Y-102929100D01*
X154805901Y-102929100D01*
X154824600Y-102921353D01*
X154824602Y-102921352D01*
X154835560Y-102916813D01*
X154907158Y-102887157D01*
X154984657Y-102809658D01*
X155026600Y-102708400D01*
X155026600Y-102598800D01*
X154984657Y-102497542D01*
X154907158Y-102420043D01*
X154856529Y-102399071D01*
X154805902Y-102378100D01*
X154805901Y-102378100D01*
X154805900Y-102378100D01*
X154696300Y-102378100D01*
X154696299Y-102378100D01*
X154696298Y-102378100D01*
X154645671Y-102399071D01*
X154595042Y-102420043D01*
X154517543Y-102497542D01*
X154475600Y-102598800D01*
X149876600Y-102598800D01*
X149834657Y-102497542D01*
X149834653Y-102497538D01*
X149761058Y-102423942D01*
X149755857Y-102416158D01*
X149754459Y-102412784D01*
X149754458Y-102394419D01*
X149755860Y-102391033D01*
X149761058Y-102383255D01*
X149834657Y-102309658D01*
X149876600Y-102208400D01*
X149876600Y-102098800D01*
X149876599Y-102098798D01*
X155125600Y-102098798D01*
X155125600Y-102098799D01*
X155125600Y-102098800D01*
X155125600Y-102208400D01*
X155167543Y-102309658D01*
X155245042Y-102387157D01*
X155316641Y-102416814D01*
X155346298Y-102429100D01*
X155346299Y-102429100D01*
X155346300Y-102429100D01*
X155455901Y-102429100D01*
X155474600Y-102421353D01*
X155474602Y-102421352D01*
X155487142Y-102416158D01*
X155557158Y-102387157D01*
X155634657Y-102309658D01*
X155676600Y-102208400D01*
X155676600Y-102098800D01*
X155676206Y-102097850D01*
X155675259Y-102095562D01*
X155675259Y-102095563D01*
X155667097Y-102075860D01*
X155651056Y-102037134D01*
X155634658Y-101997544D01*
X155634657Y-101997543D01*
X155634657Y-101997542D01*
X155557158Y-101920043D01*
X155477768Y-101887158D01*
X155477710Y-101887134D01*
X155455902Y-101878100D01*
X155455901Y-101878100D01*
X155455900Y-101878100D01*
X155346300Y-101878100D01*
X155346299Y-101878100D01*
X155346298Y-101878100D01*
X155324490Y-101887134D01*
X155324432Y-101887158D01*
X155245042Y-101920043D01*
X155167542Y-101997543D01*
X155167540Y-101997546D01*
X155167020Y-101998801D01*
X155167021Y-101998802D01*
X155126941Y-102095562D01*
X155126940Y-102095561D01*
X155125600Y-102098798D01*
X149876599Y-102098798D01*
X149875259Y-102095563D01*
X149867097Y-102075860D01*
X149835179Y-101998802D01*
X149834658Y-101997544D01*
X149834657Y-101997543D01*
X149834657Y-101997542D01*
X149757158Y-101920043D01*
X149677768Y-101887158D01*
X149677710Y-101887134D01*
X149655902Y-101878100D01*
X149655901Y-101878100D01*
X149655900Y-101878100D01*
X149546300Y-101878100D01*
X149546299Y-101878100D01*
X149546298Y-101878100D01*
X149524490Y-101887134D01*
X149524432Y-101887158D01*
X149445042Y-101920043D01*
X149367542Y-101997543D01*
X149367540Y-101997546D01*
X149367020Y-101998801D01*
X149367021Y-101998802D01*
X149326941Y-102095562D01*
X149326940Y-102095561D01*
X149325600Y-102098798D01*
X147678361Y-102098798D01*
X147731595Y-102045564D01*
X147794195Y-101937136D01*
X147826600Y-101816201D01*
X147826600Y-101698800D01*
X155625600Y-101698800D01*
X155625600Y-101808400D01*
X155625859Y-101809025D01*
X155625859Y-101809027D01*
X155645174Y-101855657D01*
X155667543Y-101909658D01*
X155745042Y-101987157D01*
X155816641Y-102016814D01*
X155846298Y-102029100D01*
X155846299Y-102029100D01*
X155846300Y-102029100D01*
X155955901Y-102029100D01*
X155974600Y-102021353D01*
X155974602Y-102021352D01*
X155985560Y-102016813D01*
X156057158Y-101987157D01*
X156134657Y-101909658D01*
X156176600Y-101808400D01*
X156176600Y-101698800D01*
X156134657Y-101597542D01*
X156057158Y-101520043D01*
X156002837Y-101497542D01*
X156002827Y-101497538D01*
X155955902Y-101478100D01*
X155955901Y-101478100D01*
X155955900Y-101478100D01*
X155846300Y-101478100D01*
X155846299Y-101478100D01*
X155846298Y-101478100D01*
X155799363Y-101497542D01*
X155745042Y-101520043D01*
X155667542Y-101597543D01*
X155667540Y-101597546D01*
X155667020Y-101598800D01*
X155667021Y-101598801D01*
X155638897Y-101666696D01*
X155638896Y-101666700D01*
X155637503Y-101670065D01*
X155625600Y-101698800D01*
X147826600Y-101698800D01*
X147826600Y-101690999D01*
X147794195Y-101570064D01*
X147731595Y-101461636D01*
X147643064Y-101373105D01*
X147556460Y-101323105D01*
X147538731Y-101312869D01*
X147538729Y-101312868D01*
X147534636Y-101310505D01*
X147534635Y-101310504D01*
X147534634Y-101310504D01*
X147502960Y-101302017D01*
X147494567Y-101297879D01*
X147492996Y-101296674D01*
X147483809Y-101280768D01*
X147488560Y-101263024D01*
X147501455Y-101254432D01*
X147501506Y-101254418D01*
X147501573Y-101254401D01*
X147507720Y-101253600D01*
X149273514Y-101253600D01*
X149282697Y-101255427D01*
X149288458Y-101257813D01*
X149301448Y-101270801D01*
X149301448Y-101270802D01*
X149317541Y-101309657D01*
X149361484Y-101353599D01*
X149395042Y-101387157D01*
X149454139Y-101411636D01*
X149496298Y-101429100D01*
X149496299Y-101429100D01*
X149496300Y-101429100D01*
X149605901Y-101429100D01*
X149624600Y-101421353D01*
X149624602Y-101421352D01*
X149645082Y-101412869D01*
X149707158Y-101387157D01*
X149784657Y-101309658D01*
X149799913Y-101272824D01*
X149805116Y-101265039D01*
X149809528Y-101260628D01*
X149826497Y-101253600D01*
X153351099Y-101253600D01*
X153351100Y-101253600D01*
X153351100Y-100078800D01*
X155275600Y-100078800D01*
X155275600Y-100188400D01*
X155317543Y-100289658D01*
X155395042Y-100367157D01*
X155452601Y-100390999D01*
X155496298Y-100409100D01*
X155496299Y-100409100D01*
X155586561Y-100409100D01*
X155595740Y-100410925D01*
X155599116Y-100412323D01*
X155612105Y-100425305D01*
X155612114Y-100425325D01*
X155612523Y-100426314D01*
X155612518Y-100444670D01*
X155588547Y-100502543D01*
X155581290Y-100520064D01*
X155575600Y-100533800D01*
X155575600Y-100643400D01*
X155617543Y-100744658D01*
X155695042Y-100822157D01*
X155796300Y-100864100D01*
X155796302Y-100864100D01*
X155797023Y-100864399D01*
X155801167Y-100866614D01*
X155804795Y-100869038D01*
X155815000Y-100884312D01*
X155812630Y-100900302D01*
X155811842Y-100901777D01*
X155807644Y-100907438D01*
X155767546Y-100947537D01*
X155767546Y-100947538D01*
X155767544Y-100947539D01*
X155746832Y-100997543D01*
X155725600Y-101048800D01*
X155725600Y-101158400D01*
X155767543Y-101259658D01*
X155845042Y-101337157D01*
X155845043Y-101337157D01*
X155845044Y-101337158D01*
X155851809Y-101339960D01*
X155901708Y-101360629D01*
X155946298Y-101379100D01*
X156055901Y-101379100D01*
X156055902Y-101379100D01*
X156070373Y-101373105D01*
X156088491Y-101365600D01*
X156157158Y-101337157D01*
X156234657Y-101259658D01*
X156276600Y-101158400D01*
X156276600Y-101048800D01*
X156234657Y-100947542D01*
X156157158Y-100870043D01*
X156118669Y-100854100D01*
X156055897Y-100828098D01*
X156055896Y-100828097D01*
X156055170Y-100827797D01*
X156051021Y-100825579D01*
X156047395Y-100823155D01*
X156037195Y-100807878D01*
X156039568Y-100791894D01*
X156040358Y-100790416D01*
X156044549Y-100784764D01*
X156084657Y-100744658D01*
X156126600Y-100643400D01*
X156126600Y-100533800D01*
X156084657Y-100432542D01*
X156007158Y-100355043D01*
X155922715Y-100320065D01*
X155922713Y-100320064D01*
X155905902Y-100313100D01*
X155905901Y-100313100D01*
X155905900Y-100313100D01*
X155815638Y-100313100D01*
X155806456Y-100311274D01*
X155803079Y-100309875D01*
X155790091Y-100296890D01*
X155789678Y-100295891D01*
X155789679Y-100277530D01*
X155826600Y-100188400D01*
X155826600Y-100078800D01*
X155819021Y-100060504D01*
X155805599Y-100028100D01*
X155784657Y-99977542D01*
X155707158Y-99900043D01*
X155656529Y-99879071D01*
X155605902Y-99858100D01*
X155605901Y-99858100D01*
X155605900Y-99858100D01*
X155496300Y-99858100D01*
X155496299Y-99858100D01*
X155496298Y-99858100D01*
X155445671Y-99879071D01*
X155395042Y-99900043D01*
X155317543Y-99977542D01*
X155317543Y-99977543D01*
X155284686Y-100056863D01*
X155284685Y-100056866D01*
X155283179Y-100060504D01*
X155275600Y-100078800D01*
X153351100Y-100078800D01*
X153351100Y-99548800D01*
X154225600Y-99548800D01*
X154225600Y-99658400D01*
X154267543Y-99759658D01*
X154345042Y-99837157D01*
X154416641Y-99866814D01*
X154446298Y-99879100D01*
X154446299Y-99879100D01*
X154446300Y-99879100D01*
X154555901Y-99879100D01*
X154574600Y-99871353D01*
X154574602Y-99871352D01*
X154606596Y-99858100D01*
X154657158Y-99837157D01*
X154734657Y-99759658D01*
X154776600Y-99658400D01*
X154776600Y-99548800D01*
X154734657Y-99447542D01*
X154657158Y-99370043D01*
X154577715Y-99337136D01*
X154555902Y-99328100D01*
X154555901Y-99328100D01*
X154555900Y-99328100D01*
X154446300Y-99328100D01*
X154446299Y-99328100D01*
X154446298Y-99328100D01*
X154424485Y-99337136D01*
X154345042Y-99370043D01*
X154267543Y-99447542D01*
X154225600Y-99548800D01*
X153351100Y-99548800D01*
X153351100Y-99282372D01*
X153352925Y-99273193D01*
X153354323Y-99269816D01*
X153367304Y-99256828D01*
X153370696Y-99255423D01*
X153379873Y-99253600D01*
X155131798Y-99253600D01*
X155140981Y-99255427D01*
X155146742Y-99257813D01*
X155159732Y-99270801D01*
X155159732Y-99270802D01*
X155167541Y-99289655D01*
X155167542Y-99289656D01*
X155167543Y-99289658D01*
X155245042Y-99367157D01*
X155311220Y-99394569D01*
X155313612Y-99395560D01*
X155346298Y-99409100D01*
X155346299Y-99409100D01*
X155346300Y-99409100D01*
X155455901Y-99409100D01*
X155474600Y-99401353D01*
X155474602Y-99401352D01*
X155488692Y-99395516D01*
X155557158Y-99367157D01*
X155634657Y-99289658D01*
X155641630Y-99272822D01*
X155646830Y-99265039D01*
X155651245Y-99260625D01*
X155668212Y-99253600D01*
X157322327Y-99253600D01*
X157331506Y-99255425D01*
X157334882Y-99256823D01*
X157347871Y-99269805D01*
X157349273Y-99273190D01*
X157351100Y-99282372D01*
X157351100Y-101353600D01*
X157835181Y-101353600D01*
X157844362Y-101355425D01*
X157846749Y-101356414D01*
X157859739Y-101369401D01*
X157859750Y-101387748D01*
X157859539Y-101388259D01*
X157849356Y-101399883D01*
X157814441Y-101420042D01*
X157814440Y-101420043D01*
X157812173Y-101421352D01*
X157809136Y-101423105D01*
X157720605Y-101511636D01*
X157658003Y-101620066D01*
X157650840Y-101646802D01*
X157644607Y-101670064D01*
X157625600Y-101740999D01*
X157625600Y-101866201D01*
X157638998Y-101916201D01*
X157658003Y-101987131D01*
X157658005Y-101987136D01*
X157720605Y-102095564D01*
X157809136Y-102184095D01*
X157917564Y-102246695D01*
X158038499Y-102279100D01*
X158038500Y-102279100D01*
X158163700Y-102279100D01*
X158163701Y-102279100D01*
X158284636Y-102246695D01*
X158393064Y-102184095D01*
X158481595Y-102095564D01*
X158544195Y-101987136D01*
X158576600Y-101866201D01*
X158576600Y-101740999D01*
X158544195Y-101620064D01*
X158481595Y-101511636D01*
X158393064Y-101423105D01*
X158393061Y-101423103D01*
X158393060Y-101423102D01*
X158354378Y-101400768D01*
X158347339Y-101394596D01*
X158345768Y-101392549D01*
X158341012Y-101374806D01*
X158350195Y-101358898D01*
X158350654Y-101358545D01*
X158365247Y-101353600D01*
X159092865Y-101353600D01*
X159102041Y-101355424D01*
X159103025Y-101355831D01*
X159103868Y-101356180D01*
X159116862Y-101369164D01*
X159116868Y-101387532D01*
X159106663Y-101399158D01*
X159106557Y-101399219D01*
X159100798Y-101401599D01*
X159067566Y-101410503D01*
X158959136Y-101473105D01*
X158870605Y-101561636D01*
X158808004Y-101670065D01*
X158796750Y-101712069D01*
X158796749Y-101712071D01*
X158779057Y-101778100D01*
X158775600Y-101791000D01*
X158775600Y-101916200D01*
X158778247Y-101926079D01*
X158797396Y-101997544D01*
X158805851Y-102029100D01*
X158808005Y-102037136D01*
X158870605Y-102145564D01*
X158959136Y-102234095D01*
X159067564Y-102296695D01*
X159188499Y-102329100D01*
X159188500Y-102329100D01*
X159313700Y-102329100D01*
X159313701Y-102329100D01*
X159434636Y-102296695D01*
X159543064Y-102234095D01*
X159631595Y-102145564D01*
X159694195Y-102037136D01*
X159726600Y-101916201D01*
X159726600Y-101790999D01*
X159694195Y-101670064D01*
X159631595Y-101561636D01*
X159543064Y-101473105D01*
X159450384Y-101419597D01*
X159438731Y-101412869D01*
X159438729Y-101412868D01*
X159434636Y-101410505D01*
X159434635Y-101410504D01*
X159434634Y-101410504D01*
X159402960Y-101402017D01*
X159394567Y-101397879D01*
X159392996Y-101396674D01*
X159383809Y-101380768D01*
X159388560Y-101363024D01*
X159401455Y-101354432D01*
X159401506Y-101354418D01*
X159401573Y-101354401D01*
X159407720Y-101353600D01*
X160592865Y-101353600D01*
X160600273Y-101355269D01*
X160600936Y-101355183D01*
X160601368Y-101355516D01*
X160603157Y-101355919D01*
X160604878Y-101356736D01*
X160604363Y-101357820D01*
X160615494Y-101366385D01*
X160617865Y-101384600D01*
X160606663Y-101399158D01*
X160606557Y-101399219D01*
X160600798Y-101401599D01*
X160567566Y-101410503D01*
X160459136Y-101473105D01*
X160370605Y-101561636D01*
X160308004Y-101670065D01*
X160296750Y-101712069D01*
X160296749Y-101712071D01*
X160279057Y-101778100D01*
X160275600Y-101791000D01*
X160275600Y-101916200D01*
X160278247Y-101926079D01*
X160297396Y-101997544D01*
X160305851Y-102029100D01*
X160308005Y-102037136D01*
X160370605Y-102145564D01*
X160459136Y-102234095D01*
X160567564Y-102296695D01*
X160688499Y-102329100D01*
X160688500Y-102329100D01*
X160813700Y-102329100D01*
X160813701Y-102329100D01*
X160934636Y-102296695D01*
X161043064Y-102234095D01*
X161131595Y-102145564D01*
X161194195Y-102037136D01*
X161226600Y-101916201D01*
X161226600Y-101790999D01*
X161194195Y-101670064D01*
X161131595Y-101561636D01*
X161043064Y-101473105D01*
X160950384Y-101419597D01*
X160938731Y-101412869D01*
X160938729Y-101412868D01*
X160934636Y-101410505D01*
X160934635Y-101410504D01*
X160934634Y-101410504D01*
X160902960Y-101402017D01*
X160894567Y-101397879D01*
X160892996Y-101396674D01*
X160883809Y-101380768D01*
X160888560Y-101363024D01*
X160901455Y-101354432D01*
X160901506Y-101354418D01*
X160901573Y-101354401D01*
X160907720Y-101353600D01*
X161535181Y-101353600D01*
X161544362Y-101355425D01*
X161546749Y-101356414D01*
X161559739Y-101369401D01*
X161559750Y-101387748D01*
X161559539Y-101388259D01*
X161549356Y-101399883D01*
X161514441Y-101420042D01*
X161514440Y-101420043D01*
X161512173Y-101421352D01*
X161509136Y-101423105D01*
X161420605Y-101511636D01*
X161358003Y-101620066D01*
X161350840Y-101646802D01*
X161344607Y-101670064D01*
X161325600Y-101740999D01*
X161325600Y-101866201D01*
X161338998Y-101916201D01*
X161358003Y-101987131D01*
X161358005Y-101987136D01*
X161420605Y-102095564D01*
X161509136Y-102184095D01*
X161617564Y-102246695D01*
X161738499Y-102279100D01*
X161738500Y-102279100D01*
X161863700Y-102279100D01*
X161863701Y-102279100D01*
X161984636Y-102246695D01*
X162093064Y-102184095D01*
X162181595Y-102095564D01*
X162237461Y-101998800D01*
X163725600Y-101998800D01*
X163725600Y-102108400D01*
X163725647Y-102108513D01*
X163725647Y-102108516D01*
X163749060Y-102165036D01*
X163767543Y-102209658D01*
X163767546Y-102209661D01*
X163816142Y-102258258D01*
X163821338Y-102266035D01*
X163822739Y-102269416D01*
X163822739Y-102287783D01*
X163822738Y-102287786D01*
X163821340Y-102291160D01*
X163816139Y-102298943D01*
X163767546Y-102347537D01*
X163767546Y-102347538D01*
X163767544Y-102347539D01*
X163735896Y-102423944D01*
X163725600Y-102448800D01*
X163725600Y-102558400D01*
X163767543Y-102659658D01*
X163845042Y-102737157D01*
X163916641Y-102766814D01*
X163946298Y-102779100D01*
X163946299Y-102779100D01*
X163946300Y-102779100D01*
X164055901Y-102779100D01*
X164074600Y-102771353D01*
X164074602Y-102771352D01*
X164085560Y-102766813D01*
X164157158Y-102737157D01*
X164234657Y-102659658D01*
X164276600Y-102558400D01*
X164276600Y-102448800D01*
X164234657Y-102347542D01*
X164216215Y-102329100D01*
X164186058Y-102298942D01*
X164180857Y-102291158D01*
X164179459Y-102287784D01*
X164179458Y-102269419D01*
X164180860Y-102266033D01*
X164186058Y-102258255D01*
X164234657Y-102209658D01*
X164276600Y-102108400D01*
X164276600Y-101998800D01*
X164276079Y-101997543D01*
X164256997Y-101951475D01*
X164234657Y-101897542D01*
X164157158Y-101820043D01*
X164082526Y-101789129D01*
X164073336Y-101785322D01*
X164055902Y-101778100D01*
X164055901Y-101778100D01*
X164055900Y-101778100D01*
X163946300Y-101778100D01*
X163946299Y-101778100D01*
X163946298Y-101778100D01*
X163928864Y-101785322D01*
X163919674Y-101789129D01*
X163845042Y-101820043D01*
X163767541Y-101897544D01*
X163761417Y-101912331D01*
X163727858Y-101993346D01*
X163727857Y-101993349D01*
X163726121Y-101997543D01*
X163725600Y-101998800D01*
X162237461Y-101998800D01*
X162244195Y-101987136D01*
X162257594Y-101937133D01*
X162260758Y-101925322D01*
X162276600Y-101866201D01*
X162276600Y-101740999D01*
X162244195Y-101620064D01*
X162181595Y-101511636D01*
X162093064Y-101423105D01*
X162093061Y-101423103D01*
X162093060Y-101423102D01*
X162054378Y-101400768D01*
X162047339Y-101394596D01*
X162045768Y-101392549D01*
X162041012Y-101374806D01*
X162050195Y-101358898D01*
X162050654Y-101358545D01*
X162065247Y-101353600D01*
X163746770Y-101353600D01*
X163755954Y-101355427D01*
X163764102Y-101358802D01*
X163771888Y-101364004D01*
X163785484Y-101377599D01*
X163785484Y-101377600D01*
X163791137Y-101383252D01*
X163795042Y-101387157D01*
X163865057Y-101416158D01*
X163873358Y-101419596D01*
X163873359Y-101419597D01*
X163881006Y-101422764D01*
X163896299Y-101429100D01*
X163896300Y-101429100D01*
X164005901Y-101429100D01*
X164024600Y-101421353D01*
X164024602Y-101421352D01*
X164045082Y-101412869D01*
X164107158Y-101387157D01*
X164122927Y-101371388D01*
X164130314Y-101364001D01*
X164138094Y-101358803D01*
X164146249Y-101355425D01*
X164155430Y-101353600D01*
X165113086Y-101353600D01*
X165122265Y-101355425D01*
X165122270Y-101355427D01*
X165125641Y-101356823D01*
X165138630Y-101369805D01*
X165139257Y-101371317D01*
X165140088Y-101383802D01*
X165140805Y-101383897D01*
X165140600Y-101385455D01*
X165140600Y-101385456D01*
X165140600Y-101477744D01*
X165145904Y-101497538D01*
X165151934Y-101520043D01*
X165163668Y-101563835D01*
X165163668Y-101563837D01*
X165164486Y-101566891D01*
X165210624Y-101646802D01*
X165210626Y-101646804D01*
X165210628Y-101646808D01*
X165210629Y-101646809D01*
X165210631Y-101646812D01*
X165210634Y-101646815D01*
X165275885Y-101712067D01*
X165276022Y-101712166D01*
X165276509Y-101712428D01*
X165355806Y-101758212D01*
X165355808Y-101758212D01*
X165355809Y-101758213D01*
X165355810Y-101758213D01*
X165355811Y-101758213D01*
X165355812Y-101758214D01*
X165444956Y-101782100D01*
X165444957Y-101782100D01*
X165522327Y-101782100D01*
X165531506Y-101783925D01*
X165534882Y-101785323D01*
X165547871Y-101798305D01*
X165549273Y-101801690D01*
X165551100Y-101810872D01*
X165551100Y-105324827D01*
X165549273Y-105334012D01*
X165547875Y-105337387D01*
X165534887Y-105350374D01*
X165531510Y-105351773D01*
X165522327Y-105353600D01*
X133711683Y-105353600D01*
X133702497Y-105351772D01*
X133696224Y-105349173D01*
X133684626Y-105339002D01*
X133681741Y-105334006D01*
X133671571Y-105316391D01*
X133671570Y-105316390D01*
X133671569Y-105316388D01*
X133671568Y-105316387D01*
X133671567Y-105316385D01*
X133606314Y-105251133D01*
X133606306Y-105251126D01*
X133526392Y-105204986D01*
X133526389Y-105204985D01*
X133459845Y-105187156D01*
X133459844Y-105187155D01*
X133437244Y-105181100D01*
X133344956Y-105181100D01*
X133322354Y-105187155D01*
X133322355Y-105187156D01*
X133258863Y-105204168D01*
X133258860Y-105204168D01*
X133255807Y-105204986D01*
X133175894Y-105251125D01*
X133110625Y-105316394D01*
X133098460Y-105337465D01*
X133092288Y-105344504D01*
X133086900Y-105348639D01*
X133072288Y-105353600D01*
X128711683Y-105353600D01*
X128702497Y-105351772D01*
X128696224Y-105349173D01*
X128684626Y-105339002D01*
X128681741Y-105334006D01*
X128671571Y-105316391D01*
X128671570Y-105316390D01*
X128671569Y-105316388D01*
X128671568Y-105316387D01*
X128671567Y-105316385D01*
X128606314Y-105251133D01*
X128606306Y-105251126D01*
X128526392Y-105204986D01*
X128526389Y-105204985D01*
X128459845Y-105187156D01*
X128459844Y-105187155D01*
X128437244Y-105181100D01*
X128344956Y-105181100D01*
X128322354Y-105187155D01*
X128322355Y-105187156D01*
X128258863Y-105204168D01*
X128258860Y-105204168D01*
X128255807Y-105204986D01*
X128175894Y-105251125D01*
X128110625Y-105316394D01*
X128098460Y-105337465D01*
X128092288Y-105344504D01*
X128086900Y-105348639D01*
X128072288Y-105353600D01*
X123711683Y-105353600D01*
X123702497Y-105351772D01*
X123696224Y-105349173D01*
X123684626Y-105339002D01*
X123681741Y-105334006D01*
X123671571Y-105316391D01*
X123671570Y-105316390D01*
X123671569Y-105316388D01*
X123671568Y-105316387D01*
X123671567Y-105316385D01*
X123606314Y-105251133D01*
X123606306Y-105251126D01*
X123526392Y-105204986D01*
X123526389Y-105204985D01*
X123459845Y-105187156D01*
X123459844Y-105187155D01*
X123437244Y-105181100D01*
X123344956Y-105181100D01*
X123322354Y-105187155D01*
X123322355Y-105187156D01*
X123258863Y-105204168D01*
X123258860Y-105204168D01*
X123255807Y-105204986D01*
X123175894Y-105251125D01*
X123110625Y-105316394D01*
X123098460Y-105337465D01*
X123092288Y-105344504D01*
X123086900Y-105348639D01*
X123072288Y-105353600D01*
X117023496Y-105353600D01*
X117014315Y-105351774D01*
X117006160Y-105348396D01*
X116998381Y-105343199D01*
X116956311Y-105301130D01*
X116956308Y-105301128D01*
X116956307Y-105301127D01*
X116876392Y-105254986D01*
X116876389Y-105254985D01*
X116816958Y-105239062D01*
X116816954Y-105239061D01*
X116787244Y-105231100D01*
X116787243Y-105231100D01*
X116694956Y-105231100D01*
X116665240Y-105239061D01*
X116665241Y-105239062D01*
X116608863Y-105254168D01*
X116608860Y-105254168D01*
X116605807Y-105254986D01*
X116525895Y-105301124D01*
X116525885Y-105301131D01*
X116483820Y-105343196D01*
X116476036Y-105348397D01*
X116467890Y-105351772D01*
X116458704Y-105353600D01*
X116379873Y-105353600D01*
X116370691Y-105351774D01*
X116370686Y-105351772D01*
X116367314Y-105350375D01*
X116354326Y-105337390D01*
X116352925Y-105334006D01*
X116351100Y-105324827D01*
X116351100Y-104598800D01*
X148525600Y-104598800D01*
X148525600Y-104708400D01*
X148567543Y-104809658D01*
X148645042Y-104887157D01*
X148716641Y-104916814D01*
X148746298Y-104929100D01*
X148746299Y-104929100D01*
X148746300Y-104929100D01*
X148855901Y-104929100D01*
X148874600Y-104921353D01*
X148874602Y-104921352D01*
X148885560Y-104916813D01*
X148957158Y-104887157D01*
X149034657Y-104809658D01*
X149039155Y-104798800D01*
X155695600Y-104798800D01*
X155695600Y-104908400D01*
X155695647Y-104908513D01*
X155695647Y-104908516D01*
X155707512Y-104937158D01*
X155737543Y-105009658D01*
X155815042Y-105087157D01*
X155886641Y-105116814D01*
X155916298Y-105129100D01*
X156025901Y-105129100D01*
X156025902Y-105129100D01*
X156036061Y-105124891D01*
X156052178Y-105118215D01*
X156127158Y-105087157D01*
X156204657Y-105009658D01*
X156246600Y-104908400D01*
X156246600Y-104898800D01*
X160475600Y-104898800D01*
X160475600Y-105008400D01*
X160475732Y-105008718D01*
X160475732Y-105008720D01*
X160476121Y-105009658D01*
X160517543Y-105109658D01*
X160595042Y-105187157D01*
X160666641Y-105216814D01*
X160696298Y-105229100D01*
X160696299Y-105229100D01*
X160696300Y-105229100D01*
X160805901Y-105229100D01*
X160824600Y-105221353D01*
X160824602Y-105221352D01*
X160907156Y-105187158D01*
X160907156Y-105187157D01*
X160907158Y-105187157D01*
X160955755Y-105138558D01*
X160963533Y-105133360D01*
X160966917Y-105131958D01*
X160985279Y-105131958D01*
X160988658Y-105133357D01*
X160996442Y-105138558D01*
X161038985Y-105181100D01*
X161045042Y-105187157D01*
X161116641Y-105216814D01*
X161146298Y-105229100D01*
X161146299Y-105229100D01*
X161146300Y-105229100D01*
X161255901Y-105229100D01*
X161274600Y-105221353D01*
X161274602Y-105221352D01*
X161316089Y-105204168D01*
X161357158Y-105187157D01*
X161434657Y-105109658D01*
X161476600Y-105008400D01*
X161476600Y-104898800D01*
X161470187Y-104883319D01*
X161467097Y-104875860D01*
X161434657Y-104797542D01*
X161357158Y-104720043D01*
X161302837Y-104697542D01*
X161255902Y-104678100D01*
X161255901Y-104678100D01*
X161255900Y-104678100D01*
X161146300Y-104678100D01*
X161146299Y-104678100D01*
X161146298Y-104678100D01*
X161099363Y-104697542D01*
X161045039Y-104720044D01*
X161045038Y-104720046D01*
X161045037Y-104720046D01*
X160996443Y-104768639D01*
X160988657Y-104773841D01*
X160985284Y-104775238D01*
X160966923Y-104775241D01*
X160964731Y-104774334D01*
X160963545Y-104773842D01*
X160955758Y-104768642D01*
X160907161Y-104720046D01*
X160907158Y-104720043D01*
X160907157Y-104720042D01*
X160839652Y-104692081D01*
X160805902Y-104678100D01*
X160805901Y-104678100D01*
X160805900Y-104678100D01*
X160696300Y-104678100D01*
X160696299Y-104678100D01*
X160696298Y-104678100D01*
X160649363Y-104697542D01*
X160595042Y-104720043D01*
X160517543Y-104797542D01*
X160496571Y-104848171D01*
X160491813Y-104859658D01*
X160482012Y-104883319D01*
X160482011Y-104883320D01*
X160480423Y-104887157D01*
X160475600Y-104898800D01*
X156246600Y-104898800D01*
X156246600Y-104798800D01*
X156246079Y-104797543D01*
X156235505Y-104772014D01*
X156204657Y-104697542D01*
X156155915Y-104648800D01*
X162425600Y-104648800D01*
X162425600Y-104758400D01*
X162467543Y-104859658D01*
X162545042Y-104937157D01*
X162616641Y-104966814D01*
X162646298Y-104979100D01*
X162646299Y-104979100D01*
X162646300Y-104979100D01*
X162755901Y-104979100D01*
X162774600Y-104971353D01*
X162774602Y-104971352D01*
X162785560Y-104966813D01*
X162857158Y-104937157D01*
X162934657Y-104859658D01*
X162976600Y-104758400D01*
X162976600Y-104648800D01*
X162934657Y-104547542D01*
X162857158Y-104470043D01*
X162806529Y-104449071D01*
X162755902Y-104428100D01*
X162755901Y-104428100D01*
X162755900Y-104428100D01*
X162646300Y-104428100D01*
X162646299Y-104428100D01*
X162646298Y-104428100D01*
X162595671Y-104449071D01*
X162545042Y-104470043D01*
X162467543Y-104547542D01*
X162425600Y-104648800D01*
X156155915Y-104648800D01*
X156127158Y-104620043D01*
X156075871Y-104598799D01*
X156075869Y-104598798D01*
X156025902Y-104578100D01*
X156025901Y-104578100D01*
X156025900Y-104578100D01*
X155916300Y-104578100D01*
X155916299Y-104578100D01*
X155916298Y-104578100D01*
X155866331Y-104598798D01*
X155866329Y-104598799D01*
X155815042Y-104620043D01*
X155737543Y-104697542D01*
X155728223Y-104720043D01*
X155716571Y-104748172D01*
X155697858Y-104793346D01*
X155697857Y-104793349D01*
X155696121Y-104797543D01*
X155695600Y-104798800D01*
X149039155Y-104798800D01*
X149076600Y-104708400D01*
X149076600Y-104598800D01*
X149076599Y-104598798D01*
X149055368Y-104547543D01*
X149034657Y-104497542D01*
X148957158Y-104420043D01*
X148906529Y-104399071D01*
X148855902Y-104378100D01*
X148855901Y-104378100D01*
X148855900Y-104378100D01*
X148746300Y-104378100D01*
X148746299Y-104378100D01*
X148746298Y-104378100D01*
X148695671Y-104399071D01*
X148645042Y-104420043D01*
X148567543Y-104497542D01*
X148567543Y-104497543D01*
X148525601Y-104598798D01*
X148525600Y-104598800D01*
X116351100Y-104598800D01*
X116351100Y-103948800D01*
X144575600Y-103948800D01*
X144575600Y-104058400D01*
X144575647Y-104058513D01*
X144575647Y-104058516D01*
X144580965Y-104071353D01*
X144617543Y-104159658D01*
X144695042Y-104237157D01*
X144766641Y-104266814D01*
X144796298Y-104279100D01*
X144796299Y-104279100D01*
X144796300Y-104279100D01*
X144905901Y-104279100D01*
X144924600Y-104271353D01*
X144924602Y-104271352D01*
X144952839Y-104259656D01*
X145007158Y-104237157D01*
X145084657Y-104159658D01*
X145126600Y-104058400D01*
X145126600Y-103948800D01*
X145126079Y-103947543D01*
X145117097Y-103925860D01*
X145110385Y-103909656D01*
X145084658Y-103847544D01*
X145084657Y-103847543D01*
X145084657Y-103847542D01*
X145007158Y-103770043D01*
X144955875Y-103748800D01*
X146575600Y-103748800D01*
X146575600Y-103858400D01*
X146617543Y-103959658D01*
X146695042Y-104037157D01*
X146766641Y-104066814D01*
X146796298Y-104079100D01*
X146796299Y-104079100D01*
X146796300Y-104079100D01*
X146905901Y-104079100D01*
X146924600Y-104071353D01*
X146924602Y-104071352D01*
X146935560Y-104066813D01*
X146979048Y-104048800D01*
X155625600Y-104048800D01*
X155625600Y-104158400D01*
X155625732Y-104158718D01*
X155625732Y-104158720D01*
X155626121Y-104159658D01*
X155667543Y-104259658D01*
X155745042Y-104337157D01*
X155816641Y-104366814D01*
X155846298Y-104379100D01*
X155846299Y-104379100D01*
X155846300Y-104379100D01*
X155955901Y-104379100D01*
X155974600Y-104371353D01*
X155974602Y-104371352D01*
X155985560Y-104366813D01*
X156057158Y-104337157D01*
X156134657Y-104259658D01*
X156176600Y-104158400D01*
X156176600Y-104048800D01*
X156134657Y-103947542D01*
X156057158Y-103870043D01*
X156002837Y-103847542D01*
X155955902Y-103828100D01*
X155955901Y-103828100D01*
X155955900Y-103828100D01*
X155846300Y-103828100D01*
X155846299Y-103828100D01*
X155846298Y-103828100D01*
X155799363Y-103847542D01*
X155745042Y-103870043D01*
X155667543Y-103947542D01*
X155654471Y-103979100D01*
X155642097Y-104008971D01*
X155636970Y-104021352D01*
X155630423Y-104037157D01*
X155625600Y-104048800D01*
X146979048Y-104048800D01*
X147007158Y-104037157D01*
X147084657Y-103959658D01*
X147126600Y-103858400D01*
X147126600Y-103748800D01*
X147123501Y-103741319D01*
X147115231Y-103721353D01*
X147085178Y-103648800D01*
X148225600Y-103648800D01*
X148225600Y-103758400D01*
X148225647Y-103758513D01*
X148225647Y-103758516D01*
X148249060Y-103815036D01*
X148267543Y-103859658D01*
X148345042Y-103937157D01*
X148416641Y-103966814D01*
X148446298Y-103979100D01*
X148446299Y-103979100D01*
X148446300Y-103979100D01*
X148555901Y-103979100D01*
X148574600Y-103971353D01*
X148574602Y-103971352D01*
X148602839Y-103959656D01*
X148657158Y-103937157D01*
X148734657Y-103859658D01*
X148776600Y-103758400D01*
X148776600Y-103648800D01*
X148776079Y-103647543D01*
X148767097Y-103625860D01*
X148760385Y-103609656D01*
X148734658Y-103547544D01*
X148734657Y-103547543D01*
X148734657Y-103547542D01*
X148657158Y-103470043D01*
X148602837Y-103447542D01*
X148555902Y-103428100D01*
X148555901Y-103428100D01*
X148555900Y-103428100D01*
X148446300Y-103428100D01*
X148446299Y-103428100D01*
X148446298Y-103428100D01*
X148399363Y-103447542D01*
X148345042Y-103470043D01*
X148267543Y-103547542D01*
X148267542Y-103547543D01*
X148267540Y-103547546D01*
X148267020Y-103548800D01*
X148267021Y-103548801D01*
X148227858Y-103643346D01*
X148227857Y-103643349D01*
X148226121Y-103647543D01*
X148225600Y-103648800D01*
X147085178Y-103648800D01*
X147084657Y-103647542D01*
X147007158Y-103570043D01*
X146952837Y-103547542D01*
X146942707Y-103543346D01*
X146905902Y-103528100D01*
X146905901Y-103528100D01*
X146905900Y-103528100D01*
X146796300Y-103528100D01*
X146796299Y-103528100D01*
X146796298Y-103528100D01*
X146759493Y-103543346D01*
X146749363Y-103547542D01*
X146695042Y-103570043D01*
X146617543Y-103647542D01*
X146604320Y-103679465D01*
X146578699Y-103741319D01*
X146575600Y-103748800D01*
X144955875Y-103748800D01*
X144937815Y-103741319D01*
X144937815Y-103741318D01*
X144905902Y-103728100D01*
X144905901Y-103728100D01*
X144905900Y-103728100D01*
X144796300Y-103728100D01*
X144796299Y-103728100D01*
X144796298Y-103728100D01*
X144746329Y-103748799D01*
X144695042Y-103770043D01*
X144617541Y-103847544D01*
X144608223Y-103870042D01*
X144577858Y-103943346D01*
X144577857Y-103943349D01*
X144576121Y-103947543D01*
X144575600Y-103948800D01*
X116351100Y-103948800D01*
X116351100Y-103548800D01*
X140775600Y-103548800D01*
X140775600Y-103658400D01*
X140775647Y-103658513D01*
X140775647Y-103658516D01*
X140787512Y-103687158D01*
X140817543Y-103759658D01*
X140895042Y-103837157D01*
X140966641Y-103866814D01*
X140996298Y-103879100D01*
X141105901Y-103879100D01*
X141105902Y-103879100D01*
X141114354Y-103875598D01*
X141127765Y-103870043D01*
X141207158Y-103837157D01*
X141284657Y-103759658D01*
X141326600Y-103658400D01*
X141326600Y-103548800D01*
X141326079Y-103547543D01*
X141314688Y-103520043D01*
X141284657Y-103447542D01*
X141235915Y-103398800D01*
X152125600Y-103398800D01*
X152125600Y-103508400D01*
X152167543Y-103609658D01*
X152245042Y-103687157D01*
X152316641Y-103716814D01*
X152346298Y-103729100D01*
X152346299Y-103729100D01*
X152346300Y-103729100D01*
X152455901Y-103729100D01*
X152474600Y-103721353D01*
X152474602Y-103721352D01*
X152485560Y-103716813D01*
X152529048Y-103698800D01*
X158925600Y-103698800D01*
X158925600Y-103808400D01*
X158925732Y-103808718D01*
X158925732Y-103808720D01*
X158933760Y-103828100D01*
X158967543Y-103909658D01*
X159045042Y-103987157D01*
X159116641Y-104016814D01*
X159146298Y-104029100D01*
X159146299Y-104029100D01*
X159146300Y-104029100D01*
X159255901Y-104029100D01*
X159274600Y-104021353D01*
X159274602Y-104021352D01*
X159285560Y-104016813D01*
X159357158Y-103987157D01*
X159434657Y-103909658D01*
X159476600Y-103808400D01*
X159476600Y-103698800D01*
X159434657Y-103597542D01*
X159357158Y-103520043D01*
X159306529Y-103499071D01*
X159255902Y-103478100D01*
X159255901Y-103478100D01*
X159255900Y-103478100D01*
X159146300Y-103478100D01*
X159146299Y-103478100D01*
X159146298Y-103478100D01*
X159095671Y-103499071D01*
X159045042Y-103520043D01*
X158967543Y-103597542D01*
X158946832Y-103647542D01*
X158930423Y-103687157D01*
X158925600Y-103698800D01*
X152529048Y-103698800D01*
X152557158Y-103687157D01*
X152634657Y-103609658D01*
X152676600Y-103508400D01*
X152676600Y-103398800D01*
X163875600Y-103398800D01*
X163875600Y-103508400D01*
X163917543Y-103609658D01*
X163995042Y-103687157D01*
X164066641Y-103716814D01*
X164096298Y-103729100D01*
X164096299Y-103729100D01*
X164096300Y-103729100D01*
X164205901Y-103729100D01*
X164224600Y-103721353D01*
X164224602Y-103721352D01*
X164235560Y-103716813D01*
X164307158Y-103687157D01*
X164384657Y-103609658D01*
X164426600Y-103508400D01*
X164426600Y-103398800D01*
X164384657Y-103297542D01*
X164307158Y-103220043D01*
X164256529Y-103199071D01*
X164205902Y-103178100D01*
X164205901Y-103178100D01*
X164205900Y-103178100D01*
X164096300Y-103178100D01*
X164096299Y-103178100D01*
X164096298Y-103178100D01*
X164045671Y-103199071D01*
X163995042Y-103220043D01*
X163917543Y-103297542D01*
X163875600Y-103398800D01*
X152676600Y-103398800D01*
X152634657Y-103297542D01*
X152557158Y-103220043D01*
X152506529Y-103199071D01*
X152455902Y-103178100D01*
X152455901Y-103178100D01*
X152455900Y-103178100D01*
X152346300Y-103178100D01*
X152346299Y-103178100D01*
X152346298Y-103178100D01*
X152295671Y-103199071D01*
X152245042Y-103220043D01*
X152167543Y-103297542D01*
X152125600Y-103398800D01*
X141235915Y-103398800D01*
X141207158Y-103370043D01*
X141156529Y-103349071D01*
X141105902Y-103328100D01*
X141105901Y-103328100D01*
X141105900Y-103328100D01*
X140996300Y-103328100D01*
X140996299Y-103328100D01*
X140996298Y-103328100D01*
X140945671Y-103349071D01*
X140895042Y-103370043D01*
X140817542Y-103447543D01*
X140777858Y-103543346D01*
X140777857Y-103543349D01*
X140776121Y-103547543D01*
X140775600Y-103548800D01*
X116351100Y-103548800D01*
X116351100Y-100078800D01*
X141175600Y-100078800D01*
X141175600Y-100188400D01*
X141217543Y-100289658D01*
X141295042Y-100367157D01*
X141295043Y-100367157D01*
X141295044Y-100367158D01*
X141333731Y-100383182D01*
X141341518Y-100388384D01*
X141344104Y-100390970D01*
X141351133Y-100407941D01*
X141351133Y-100409009D01*
X141344104Y-100425980D01*
X141267544Y-100502539D01*
X141254596Y-100533799D01*
X141225600Y-100603800D01*
X141225600Y-100713400D01*
X141267543Y-100814658D01*
X141345042Y-100892157D01*
X141412364Y-100920043D01*
X141446298Y-100934100D01*
X141446299Y-100934100D01*
X141446300Y-100934100D01*
X141468271Y-100934100D01*
X141477452Y-100935925D01*
X141479839Y-100936914D01*
X141492829Y-100949901D01*
X141492831Y-100968270D01*
X141492828Y-100968278D01*
X141491839Y-100970664D01*
X141486639Y-100978444D01*
X141469521Y-100995561D01*
X141469522Y-100995562D01*
X141467543Y-100997540D01*
X141467543Y-100997542D01*
X141467543Y-100997543D01*
X141432932Y-101081100D01*
X141425600Y-101098800D01*
X141425600Y-101208400D01*
X141467543Y-101309658D01*
X141467545Y-101309660D01*
X141467546Y-101309661D01*
X141541140Y-101383256D01*
X141546342Y-101391042D01*
X141547739Y-101394415D01*
X141547739Y-101412784D01*
X141546341Y-101416159D01*
X141541139Y-101423944D01*
X141503449Y-101461635D01*
X141467543Y-101497541D01*
X141467543Y-101497542D01*
X141426123Y-101597538D01*
X141426119Y-101597548D01*
X141425601Y-101598798D01*
X141425600Y-101598800D01*
X141425600Y-101708400D01*
X141467543Y-101809658D01*
X141467546Y-101809661D01*
X141510233Y-101852349D01*
X141515434Y-101860132D01*
X141516832Y-101863506D01*
X141516834Y-101881875D01*
X141516827Y-101881892D01*
X141516417Y-101882880D01*
X141503435Y-101895854D01*
X141470928Y-101909320D01*
X141445043Y-101920042D01*
X141367542Y-101997543D01*
X141367540Y-101997546D01*
X141367020Y-101998801D01*
X141367021Y-101998802D01*
X141326941Y-102095562D01*
X141326940Y-102095561D01*
X141325600Y-102098798D01*
X141325600Y-102098799D01*
X141325600Y-102098800D01*
X141325600Y-102208400D01*
X141367543Y-102309658D01*
X141445042Y-102387157D01*
X141516641Y-102416814D01*
X141546298Y-102429100D01*
X141546299Y-102429100D01*
X141546300Y-102429100D01*
X141655901Y-102429100D01*
X141674600Y-102421353D01*
X141674602Y-102421352D01*
X141687142Y-102416158D01*
X141757158Y-102387157D01*
X141834657Y-102309658D01*
X141876600Y-102208400D01*
X141876600Y-102098800D01*
X141876206Y-102097850D01*
X141875259Y-102095562D01*
X141875259Y-102095563D01*
X141867097Y-102075860D01*
X141851056Y-102037134D01*
X141834657Y-101997542D01*
X141824247Y-101987131D01*
X141824245Y-101987130D01*
X141791961Y-101954845D01*
X141786763Y-101947062D01*
X141785364Y-101943684D01*
X141785364Y-101925324D01*
X141785776Y-101924330D01*
X141798759Y-101911345D01*
X141857158Y-101887157D01*
X141934657Y-101809658D01*
X141963097Y-101740999D01*
X143275600Y-101740999D01*
X143275600Y-101866201D01*
X143288998Y-101916201D01*
X143308003Y-101987131D01*
X143308005Y-101987136D01*
X143370605Y-102095564D01*
X143459136Y-102184095D01*
X143567564Y-102246695D01*
X143688499Y-102279100D01*
X143688500Y-102279100D01*
X143813700Y-102279100D01*
X143813701Y-102279100D01*
X143934636Y-102246695D01*
X144043064Y-102184095D01*
X144131595Y-102095564D01*
X144194195Y-101987136D01*
X144226600Y-101866201D01*
X144226600Y-101740999D01*
X144194195Y-101620064D01*
X144131595Y-101511636D01*
X144043064Y-101423105D01*
X143974988Y-101383802D01*
X143938733Y-101362870D01*
X143938730Y-101362869D01*
X143934636Y-101360505D01*
X143934635Y-101360504D01*
X143934634Y-101360504D01*
X143928282Y-101358802D01*
X143857965Y-101339960D01*
X143857965Y-101339959D01*
X143813701Y-101328100D01*
X143688499Y-101328100D01*
X143656094Y-101336781D01*
X143656095Y-101336782D01*
X143567566Y-101360503D01*
X143459136Y-101423105D01*
X143370605Y-101511636D01*
X143308003Y-101620066D01*
X143300840Y-101646802D01*
X143294607Y-101670064D01*
X143275600Y-101740999D01*
X141963097Y-101740999D01*
X141976600Y-101708400D01*
X141976600Y-101598800D01*
X141976599Y-101598798D01*
X141976081Y-101597548D01*
X141976077Y-101597538D01*
X141973899Y-101592281D01*
X141961206Y-101561636D01*
X141934657Y-101497542D01*
X141898750Y-101461635D01*
X141861058Y-101423942D01*
X141855857Y-101416158D01*
X141854459Y-101412784D01*
X141854458Y-101394419D01*
X141855860Y-101391033D01*
X141861058Y-101383255D01*
X141934657Y-101309658D01*
X141976600Y-101208400D01*
X141976600Y-101098800D01*
X141934657Y-100997542D01*
X141857158Y-100920043D01*
X141798061Y-100895564D01*
X141798059Y-100895563D01*
X141755902Y-100878100D01*
X141755901Y-100878100D01*
X141755900Y-100878100D01*
X141733929Y-100878100D01*
X141724742Y-100876272D01*
X141722355Y-100875283D01*
X141709368Y-100862293D01*
X141709368Y-100843929D01*
X141710358Y-100841537D01*
X141715558Y-100833755D01*
X141734657Y-100814658D01*
X141776600Y-100713400D01*
X141776600Y-100603800D01*
X141734657Y-100502542D01*
X141673114Y-100440999D01*
X143175600Y-100440999D01*
X143175600Y-100566201D01*
X143208005Y-100687136D01*
X143270605Y-100795564D01*
X143359136Y-100884095D01*
X143467564Y-100946695D01*
X143588499Y-100979100D01*
X143588500Y-100979100D01*
X143713700Y-100979100D01*
X143713701Y-100979100D01*
X143834636Y-100946695D01*
X143943064Y-100884095D01*
X144031595Y-100795564D01*
X144094195Y-100687136D01*
X144126600Y-100566201D01*
X144126600Y-100440999D01*
X144094195Y-100320064D01*
X144031595Y-100211636D01*
X143943064Y-100123105D01*
X143879395Y-100086346D01*
X143838733Y-100062870D01*
X143838730Y-100062869D01*
X143834636Y-100060505D01*
X143834635Y-100060504D01*
X143834634Y-100060504D01*
X143757965Y-100039960D01*
X143757965Y-100039959D01*
X143713701Y-100028100D01*
X143588499Y-100028100D01*
X143556094Y-100036781D01*
X143556095Y-100036782D01*
X143467566Y-100060503D01*
X143435875Y-100078800D01*
X143359136Y-100123105D01*
X143270605Y-100211636D01*
X143208004Y-100320065D01*
X143195386Y-100367157D01*
X143175600Y-100440999D01*
X141673114Y-100440999D01*
X141657158Y-100425043D01*
X141657156Y-100425042D01*
X141618462Y-100409013D01*
X141610676Y-100403811D01*
X141608095Y-100401230D01*
X141601066Y-100384259D01*
X141601066Y-100383190D01*
X141608094Y-100366220D01*
X141684657Y-100289658D01*
X141726600Y-100188400D01*
X141726600Y-100078800D01*
X141719021Y-100060504D01*
X141705599Y-100028100D01*
X141684657Y-99977542D01*
X141607158Y-99900043D01*
X141556529Y-99879071D01*
X141505902Y-99858100D01*
X141505901Y-99858100D01*
X141505900Y-99858100D01*
X141396300Y-99858100D01*
X141396299Y-99858100D01*
X141396298Y-99858100D01*
X141345671Y-99879071D01*
X141295042Y-99900043D01*
X141217543Y-99977542D01*
X141217543Y-99977543D01*
X141184686Y-100056863D01*
X141184685Y-100056866D01*
X141183179Y-100060504D01*
X141175600Y-100078800D01*
X116351100Y-100078800D01*
X116351100Y-66882372D01*
X116352925Y-66873193D01*
X116354323Y-66869816D01*
X116367304Y-66856828D01*
X116370696Y-66855423D01*
X116379873Y-66853600D01*
X123122327Y-66853600D01*
X123131506Y-66855425D01*
G37*
%TD.AperFunction*%
%TD*%
%TA.AperFunction,Conductor*%
%TO.N,+3V3_LO_2*%
G36*
X124226435Y-66960629D02*
G01*
X124231637Y-66968416D01*
X124247394Y-67006459D01*
X124284552Y-67062069D01*
X124340474Y-67145762D01*
X124458938Y-67264226D01*
X124517659Y-67303462D01*
X124598240Y-67357305D01*
X124753015Y-67421415D01*
X124753022Y-67421417D01*
X124912306Y-67453100D01*
X124917333Y-67454100D01*
X124917337Y-67454100D01*
X125084863Y-67454100D01*
X125084867Y-67454100D01*
X125249182Y-67421416D01*
X125300775Y-67400045D01*
X125403959Y-67357305D01*
X125403960Y-67357304D01*
X125403963Y-67357303D01*
X125543262Y-67264226D01*
X125661726Y-67145762D01*
X125754803Y-67006463D01*
X125770563Y-66968416D01*
X125783552Y-66955427D01*
X125792736Y-66953600D01*
X130327100Y-66953600D01*
X130344071Y-66960629D01*
X130351100Y-66977600D01*
X130351100Y-80461038D01*
X130344071Y-80478009D01*
X130333312Y-80484220D01*
X130255810Y-80504986D01*
X130255809Y-80504986D01*
X130175891Y-80551128D01*
X130110628Y-80616391D01*
X130064486Y-80696309D01*
X130064486Y-80696310D01*
X130051051Y-80746453D01*
X130040600Y-80785456D01*
X130040600Y-80877744D01*
X130055165Y-80932100D01*
X130064486Y-80966889D01*
X130064486Y-80966890D01*
X130110628Y-81046808D01*
X130110629Y-81046809D01*
X130110631Y-81046812D01*
X130175888Y-81112069D01*
X130175890Y-81112070D01*
X130175891Y-81112071D01*
X130255809Y-81158213D01*
X130255812Y-81158214D01*
X130333312Y-81178980D01*
X130347884Y-81190161D01*
X130351100Y-81202161D01*
X130351100Y-84461038D01*
X130344071Y-84478009D01*
X130333312Y-84484220D01*
X130255810Y-84504986D01*
X130255809Y-84504986D01*
X130175891Y-84551128D01*
X130110628Y-84616391D01*
X130064486Y-84696309D01*
X130064486Y-84696310D01*
X130051051Y-84746453D01*
X130040600Y-84785456D01*
X130040600Y-84877744D01*
X130047491Y-84903462D01*
X130064486Y-84966889D01*
X130064486Y-84966890D01*
X130110628Y-85046808D01*
X130110629Y-85046809D01*
X130110631Y-85046812D01*
X130175888Y-85112069D01*
X130175890Y-85112070D01*
X130175891Y-85112071D01*
X130255809Y-85158213D01*
X130255812Y-85158214D01*
X130333312Y-85178980D01*
X130347884Y-85190161D01*
X130351100Y-85202161D01*
X130351100Y-90124435D01*
X130344071Y-90141406D01*
X130333312Y-90147617D01*
X130305810Y-90154986D01*
X130305809Y-90154986D01*
X130225891Y-90201128D01*
X130160628Y-90266391D01*
X130114486Y-90346309D01*
X130114486Y-90346310D01*
X130100955Y-90396812D01*
X130090600Y-90435456D01*
X130090600Y-90527744D01*
X130106520Y-90587157D01*
X130114486Y-90616889D01*
X130114486Y-90616890D01*
X130160628Y-90696808D01*
X130160629Y-90696809D01*
X130160631Y-90696812D01*
X130225888Y-90762069D01*
X130225890Y-90762070D01*
X130225891Y-90762071D01*
X130305808Y-90808212D01*
X130305812Y-90808214D01*
X130333314Y-90815583D01*
X130347884Y-90826762D01*
X130351100Y-90838763D01*
X130351100Y-92653600D01*
X155129965Y-92653600D01*
X155139148Y-92655426D01*
X155151708Y-92660629D01*
X155196299Y-92679100D01*
X155196300Y-92679100D01*
X155305901Y-92679100D01*
X155350492Y-92660629D01*
X155363051Y-92655426D01*
X155372235Y-92653600D01*
X164527100Y-92653600D01*
X164544071Y-92660629D01*
X164551100Y-92677600D01*
X164551100Y-100929600D01*
X164544071Y-100946571D01*
X164527100Y-100953600D01*
X164150657Y-100953600D01*
X164133687Y-100946571D01*
X164107161Y-100920046D01*
X164107158Y-100920043D01*
X164027710Y-100887134D01*
X164005901Y-100878100D01*
X164005900Y-100878100D01*
X163896300Y-100878100D01*
X163896299Y-100878100D01*
X163874490Y-100887134D01*
X163795042Y-100920043D01*
X163795040Y-100920044D01*
X163795038Y-100920046D01*
X163768513Y-100946571D01*
X163751543Y-100953600D01*
X162247392Y-100953600D01*
X162230421Y-100946571D01*
X162223392Y-100929600D01*
X162226607Y-100917600D01*
X162229477Y-100912629D01*
X162244195Y-100887136D01*
X162276600Y-100766201D01*
X162276600Y-100640999D01*
X162244195Y-100520064D01*
X162181595Y-100411636D01*
X162093064Y-100323105D01*
X161984636Y-100260505D01*
X161984635Y-100260504D01*
X161984634Y-100260504D01*
X161907965Y-100239960D01*
X161863701Y-100228100D01*
X161738499Y-100228100D01*
X161706095Y-100236782D01*
X161617565Y-100260504D01*
X161509136Y-100323105D01*
X161420605Y-100411636D01*
X161358004Y-100520065D01*
X161340792Y-100584302D01*
X161325600Y-100640999D01*
X161325600Y-100766201D01*
X161331209Y-100787134D01*
X161358004Y-100887134D01*
X161375593Y-100917600D01*
X161377990Y-100935812D01*
X161366808Y-100950385D01*
X161354808Y-100953600D01*
X161118524Y-100953600D01*
X161101553Y-100946571D01*
X161094524Y-100929600D01*
X161097738Y-100917602D01*
X161144195Y-100837136D01*
X161176600Y-100716201D01*
X161176600Y-100590999D01*
X161144195Y-100470064D01*
X161081595Y-100361636D01*
X160993064Y-100273105D01*
X160884636Y-100210505D01*
X160884635Y-100210504D01*
X160884634Y-100210504D01*
X160802140Y-100188400D01*
X160763701Y-100178100D01*
X160638499Y-100178100D01*
X160606095Y-100186782D01*
X160517565Y-100210504D01*
X160409136Y-100273105D01*
X160320605Y-100361636D01*
X160258004Y-100470065D01*
X160238998Y-100540999D01*
X160225600Y-100590999D01*
X160225600Y-100716201D01*
X160238997Y-100766199D01*
X160257189Y-100834094D01*
X160258005Y-100837136D01*
X160304461Y-100917601D01*
X160306858Y-100935812D01*
X160295676Y-100950385D01*
X160283676Y-100953600D01*
X159631500Y-100953600D01*
X159614529Y-100946571D01*
X159607500Y-100929600D01*
X159614528Y-100912630D01*
X159681595Y-100845564D01*
X159744195Y-100737136D01*
X159776600Y-100616201D01*
X159776600Y-100490999D01*
X159744195Y-100370064D01*
X159681595Y-100261636D01*
X159593064Y-100173105D01*
X159484636Y-100110505D01*
X159484635Y-100110504D01*
X159484634Y-100110504D01*
X159407965Y-100089960D01*
X159363701Y-100078100D01*
X159238499Y-100078100D01*
X159206095Y-100086782D01*
X159117565Y-100110504D01*
X159009136Y-100173105D01*
X158920605Y-100261636D01*
X158858004Y-100370065D01*
X158844607Y-100420064D01*
X158825600Y-100490999D01*
X158825600Y-100616201D01*
X158858005Y-100737136D01*
X158920605Y-100845564D01*
X158987671Y-100912630D01*
X158994700Y-100929600D01*
X158987671Y-100946571D01*
X158970700Y-100953600D01*
X158204562Y-100953600D01*
X158187591Y-100946571D01*
X158180562Y-100929600D01*
X158187591Y-100912629D01*
X158198350Y-100906418D01*
X158200044Y-100905963D01*
X158234636Y-100896695D01*
X158343064Y-100834095D01*
X158431595Y-100745564D01*
X158494195Y-100637136D01*
X158526600Y-100516201D01*
X158526600Y-100390999D01*
X158494195Y-100270064D01*
X158431595Y-100161636D01*
X158343064Y-100073105D01*
X158234636Y-100010505D01*
X158234635Y-100010504D01*
X158234634Y-100010504D01*
X158157965Y-99989960D01*
X158113701Y-99978100D01*
X157988499Y-99978100D01*
X157956095Y-99986782D01*
X157867565Y-100010504D01*
X157759136Y-100073105D01*
X157670605Y-100161636D01*
X157608004Y-100270065D01*
X157598282Y-100306350D01*
X157587100Y-100320923D01*
X157568888Y-100323320D01*
X157554315Y-100312138D01*
X157551100Y-100300138D01*
X157551100Y-99140999D01*
X157625600Y-99140999D01*
X157625600Y-99266201D01*
X157633076Y-99294100D01*
X157655583Y-99378100D01*
X157658005Y-99387136D01*
X157720605Y-99495564D01*
X157809136Y-99584095D01*
X157917564Y-99646695D01*
X158038499Y-99679100D01*
X158038500Y-99679100D01*
X158163700Y-99679100D01*
X158163701Y-99679100D01*
X158284636Y-99646695D01*
X158393064Y-99584095D01*
X158481595Y-99495564D01*
X158544195Y-99387136D01*
X158576600Y-99266201D01*
X158576600Y-99140999D01*
X158775600Y-99140999D01*
X158775600Y-99266201D01*
X158783076Y-99294100D01*
X158805583Y-99378100D01*
X158808005Y-99387136D01*
X158870605Y-99495564D01*
X158959136Y-99584095D01*
X159067564Y-99646695D01*
X159188499Y-99679100D01*
X159188500Y-99679100D01*
X159313700Y-99679100D01*
X159313701Y-99679100D01*
X159434636Y-99646695D01*
X159543064Y-99584095D01*
X159631595Y-99495564D01*
X159694195Y-99387136D01*
X159726600Y-99266201D01*
X159726600Y-99140999D01*
X159713202Y-99090999D01*
X160225600Y-99090999D01*
X160225600Y-99216201D01*
X160235235Y-99252157D01*
X160255583Y-99328100D01*
X160258005Y-99337136D01*
X160320605Y-99445564D01*
X160409136Y-99534095D01*
X160517564Y-99596695D01*
X160638499Y-99629100D01*
X160638500Y-99629100D01*
X160763700Y-99629100D01*
X160763701Y-99629100D01*
X160884636Y-99596695D01*
X160993064Y-99534095D01*
X161081595Y-99445564D01*
X161144195Y-99337136D01*
X161176600Y-99216201D01*
X161176600Y-99090999D01*
X161163202Y-99040999D01*
X161425600Y-99040999D01*
X161425600Y-99166201D01*
X161438997Y-99216199D01*
X161455583Y-99278100D01*
X161458005Y-99287136D01*
X161520605Y-99395564D01*
X161609136Y-99484095D01*
X161717564Y-99546695D01*
X161838499Y-99579100D01*
X161838500Y-99579100D01*
X161963700Y-99579100D01*
X161963701Y-99579100D01*
X162084636Y-99546695D01*
X162193064Y-99484095D01*
X162281595Y-99395564D01*
X162344195Y-99287136D01*
X162376600Y-99166201D01*
X162376600Y-99040999D01*
X162344195Y-98920064D01*
X162281595Y-98811636D01*
X162193064Y-98723105D01*
X162084636Y-98660505D01*
X162084635Y-98660504D01*
X162084634Y-98660504D01*
X162007965Y-98639960D01*
X161963701Y-98628100D01*
X161838499Y-98628100D01*
X161806095Y-98636782D01*
X161717565Y-98660504D01*
X161609136Y-98723105D01*
X161520605Y-98811636D01*
X161458004Y-98920065D01*
X161434282Y-99008595D01*
X161425600Y-99040999D01*
X161163202Y-99040999D01*
X161144195Y-98970064D01*
X161081595Y-98861636D01*
X160993064Y-98773105D01*
X160884636Y-98710505D01*
X160884635Y-98710504D01*
X160884634Y-98710504D01*
X160802140Y-98688400D01*
X160763701Y-98678100D01*
X160638499Y-98678100D01*
X160606095Y-98686782D01*
X160517565Y-98710504D01*
X160409136Y-98773105D01*
X160320605Y-98861636D01*
X160258004Y-98970065D01*
X160238998Y-99040999D01*
X160225600Y-99090999D01*
X159713202Y-99090999D01*
X159694195Y-99020064D01*
X159631595Y-98911636D01*
X159543064Y-98823105D01*
X159434636Y-98760505D01*
X159434635Y-98760504D01*
X159434634Y-98760504D01*
X159357965Y-98739960D01*
X159313701Y-98728100D01*
X159188499Y-98728100D01*
X159156095Y-98736782D01*
X159067565Y-98760504D01*
X158959136Y-98823105D01*
X158870605Y-98911636D01*
X158808004Y-99020065D01*
X158793713Y-99073400D01*
X158775600Y-99140999D01*
X158576600Y-99140999D01*
X158544195Y-99020064D01*
X158481595Y-98911636D01*
X158393064Y-98823105D01*
X158284636Y-98760505D01*
X158284635Y-98760504D01*
X158284634Y-98760504D01*
X158207965Y-98739960D01*
X158163701Y-98728100D01*
X158038499Y-98728100D01*
X158006095Y-98736782D01*
X157917565Y-98760504D01*
X157809136Y-98823105D01*
X157720605Y-98911636D01*
X157658004Y-99020065D01*
X157643713Y-99073400D01*
X157625600Y-99140999D01*
X157551100Y-99140999D01*
X157551100Y-98753601D01*
X157551100Y-98753600D01*
X157551099Y-98753600D01*
X156335512Y-98753600D01*
X156318541Y-98746571D01*
X156311512Y-98729600D01*
X156313339Y-98720415D01*
X156326600Y-98688400D01*
X156326600Y-98578799D01*
X156306013Y-98529100D01*
X156284657Y-98477542D01*
X156207158Y-98400043D01*
X156156529Y-98379071D01*
X156105901Y-98358100D01*
X156105900Y-98358100D01*
X155996300Y-98358100D01*
X155996299Y-98358100D01*
X155945671Y-98379071D01*
X155895042Y-98400043D01*
X155817543Y-98477542D01*
X155796571Y-98528171D01*
X155775600Y-98578799D01*
X155775600Y-98688400D01*
X155788861Y-98720415D01*
X155788861Y-98738784D01*
X155775873Y-98751773D01*
X155766688Y-98753600D01*
X152751101Y-98753600D01*
X152751100Y-98753600D01*
X152751100Y-98753601D01*
X152751100Y-100929600D01*
X152744071Y-100946571D01*
X152727100Y-100953600D01*
X149750657Y-100953600D01*
X149733687Y-100946571D01*
X149707161Y-100920046D01*
X149707158Y-100920043D01*
X149627710Y-100887134D01*
X149605901Y-100878100D01*
X149605900Y-100878100D01*
X149496300Y-100878100D01*
X149496299Y-100878100D01*
X149474490Y-100887134D01*
X149395042Y-100920043D01*
X149395040Y-100920044D01*
X149395038Y-100920046D01*
X149368513Y-100946571D01*
X149351543Y-100953600D01*
X147731500Y-100953600D01*
X147714529Y-100946571D01*
X147707500Y-100929600D01*
X147714528Y-100912630D01*
X147781595Y-100845564D01*
X147844195Y-100737136D01*
X147876600Y-100616201D01*
X147876600Y-100490999D01*
X147844195Y-100370064D01*
X147781595Y-100261636D01*
X147693064Y-100173105D01*
X147650966Y-100148800D01*
X151625600Y-100148800D01*
X151625600Y-100258400D01*
X151667543Y-100359658D01*
X151745042Y-100437157D01*
X151816641Y-100466814D01*
X151846299Y-100479100D01*
X151846300Y-100479100D01*
X151955901Y-100479100D01*
X151977712Y-100470065D01*
X152057158Y-100437157D01*
X152134657Y-100359658D01*
X152176600Y-100258400D01*
X152176600Y-100148800D01*
X152134657Y-100047542D01*
X152057158Y-99970043D01*
X152006529Y-99949071D01*
X151955901Y-99928100D01*
X151955900Y-99928100D01*
X151846300Y-99928100D01*
X151846299Y-99928100D01*
X151795671Y-99949071D01*
X151745042Y-99970043D01*
X151667543Y-100047542D01*
X151654885Y-100078100D01*
X151641463Y-100110505D01*
X151625600Y-100148800D01*
X147650966Y-100148800D01*
X147584636Y-100110505D01*
X147584635Y-100110504D01*
X147584634Y-100110504D01*
X147507965Y-100089960D01*
X147463701Y-100078100D01*
X147338499Y-100078100D01*
X147306095Y-100086782D01*
X147217565Y-100110504D01*
X147109136Y-100173105D01*
X147020605Y-100261636D01*
X146958004Y-100370065D01*
X146944607Y-100420064D01*
X146925600Y-100490999D01*
X146925600Y-100616201D01*
X146958005Y-100737136D01*
X147020605Y-100845564D01*
X147087671Y-100912630D01*
X147094700Y-100929600D01*
X147087671Y-100946571D01*
X147070700Y-100953600D01*
X146681500Y-100953600D01*
X146664529Y-100946571D01*
X146657500Y-100929600D01*
X146664528Y-100912630D01*
X146681595Y-100895564D01*
X146744195Y-100787136D01*
X146776600Y-100666201D01*
X146776600Y-100540999D01*
X146744195Y-100420064D01*
X146681595Y-100311636D01*
X146593064Y-100223105D01*
X146484636Y-100160505D01*
X146484635Y-100160504D01*
X146484634Y-100160504D01*
X146372620Y-100130490D01*
X146363701Y-100128100D01*
X146238499Y-100128100D01*
X146229580Y-100130490D01*
X146117565Y-100160504D01*
X146009136Y-100223105D01*
X145920605Y-100311636D01*
X145858004Y-100420065D01*
X145852395Y-100440999D01*
X145825600Y-100540999D01*
X145825600Y-100666201D01*
X145858005Y-100787136D01*
X145920605Y-100895564D01*
X145937671Y-100912630D01*
X145944700Y-100929600D01*
X145937671Y-100946571D01*
X145920700Y-100953600D01*
X145231500Y-100953600D01*
X145214529Y-100946571D01*
X145207500Y-100929600D01*
X145214528Y-100912630D01*
X145281595Y-100845564D01*
X145344195Y-100737136D01*
X145376600Y-100616201D01*
X145376600Y-100490999D01*
X145344195Y-100370064D01*
X145281595Y-100261636D01*
X145193064Y-100173105D01*
X145084636Y-100110505D01*
X145084635Y-100110504D01*
X145084634Y-100110504D01*
X145007965Y-100089960D01*
X144963701Y-100078100D01*
X144838499Y-100078100D01*
X144806095Y-100086782D01*
X144717565Y-100110504D01*
X144687100Y-100128093D01*
X144668888Y-100130490D01*
X144654315Y-100119308D01*
X144651100Y-100107308D01*
X144651100Y-99484000D01*
X144658129Y-99467029D01*
X144675100Y-99460000D01*
X144692069Y-99467028D01*
X144759136Y-99534095D01*
X144867564Y-99596695D01*
X144988499Y-99629100D01*
X144988500Y-99629100D01*
X145113700Y-99629100D01*
X145113701Y-99629100D01*
X145234636Y-99596695D01*
X145343064Y-99534095D01*
X145431595Y-99445564D01*
X145494195Y-99337136D01*
X145526600Y-99216201D01*
X145526600Y-99090999D01*
X145825600Y-99090999D01*
X145825600Y-99216201D01*
X145835235Y-99252157D01*
X145855583Y-99328100D01*
X145858005Y-99337136D01*
X145920605Y-99445564D01*
X146009136Y-99534095D01*
X146117564Y-99596695D01*
X146238499Y-99629100D01*
X146238500Y-99629100D01*
X146363700Y-99629100D01*
X146363701Y-99629100D01*
X146484636Y-99596695D01*
X146593064Y-99534095D01*
X146681595Y-99445564D01*
X146744195Y-99337136D01*
X146776600Y-99216201D01*
X146776600Y-99090999D01*
X147025600Y-99090999D01*
X147025600Y-99216201D01*
X147035235Y-99252157D01*
X147055583Y-99328100D01*
X147058005Y-99337136D01*
X147120605Y-99445564D01*
X147209136Y-99534095D01*
X147317564Y-99596695D01*
X147438499Y-99629100D01*
X147438500Y-99629100D01*
X147563700Y-99629100D01*
X147563701Y-99629100D01*
X147684636Y-99596695D01*
X147793064Y-99534095D01*
X147881595Y-99445564D01*
X147944195Y-99337136D01*
X147976600Y-99216201D01*
X147976600Y-99090999D01*
X147944195Y-98970064D01*
X147881595Y-98861636D01*
X147793064Y-98773105D01*
X147684636Y-98710505D01*
X147684635Y-98710504D01*
X147684634Y-98710504D01*
X147602140Y-98688400D01*
X147563701Y-98678100D01*
X147438499Y-98678100D01*
X147406095Y-98686782D01*
X147317565Y-98710504D01*
X147209136Y-98773105D01*
X147120605Y-98861636D01*
X147058004Y-98970065D01*
X147038998Y-99040999D01*
X147025600Y-99090999D01*
X146776600Y-99090999D01*
X146744195Y-98970064D01*
X146681595Y-98861636D01*
X146593064Y-98773105D01*
X146484636Y-98710505D01*
X146484635Y-98710504D01*
X146484634Y-98710504D01*
X146402140Y-98688400D01*
X146363701Y-98678100D01*
X146238499Y-98678100D01*
X146206095Y-98686782D01*
X146117565Y-98710504D01*
X146009136Y-98773105D01*
X145920605Y-98861636D01*
X145858004Y-98970065D01*
X145838998Y-99040999D01*
X145825600Y-99090999D01*
X145526600Y-99090999D01*
X145494195Y-98970064D01*
X145431595Y-98861636D01*
X145343064Y-98773105D01*
X145234636Y-98710505D01*
X145234635Y-98710504D01*
X145234634Y-98710504D01*
X145152140Y-98688400D01*
X145113701Y-98678100D01*
X144988499Y-98678100D01*
X144956095Y-98686782D01*
X144867565Y-98710504D01*
X144759136Y-98773105D01*
X144670605Y-98861636D01*
X144608004Y-98970065D01*
X144590387Y-99035812D01*
X144579205Y-99050385D01*
X144567205Y-99053600D01*
X144198392Y-99053600D01*
X144181421Y-99046571D01*
X144175210Y-99035812D01*
X144144195Y-98920064D01*
X144081595Y-98811636D01*
X143993064Y-98723105D01*
X143884636Y-98660505D01*
X143884635Y-98660504D01*
X143884634Y-98660504D01*
X143807965Y-98639960D01*
X143763701Y-98628100D01*
X143638499Y-98628100D01*
X143606095Y-98636782D01*
X143517565Y-98660504D01*
X143409136Y-98723105D01*
X143320605Y-98811636D01*
X143258004Y-98920065D01*
X143226990Y-99035812D01*
X143215808Y-99050385D01*
X143203808Y-99053600D01*
X141500600Y-99053600D01*
X141483629Y-99046571D01*
X141476600Y-99029600D01*
X141476600Y-98963799D01*
X141458484Y-98920065D01*
X141434657Y-98862542D01*
X141357158Y-98785043D01*
X141297919Y-98760505D01*
X141255901Y-98743100D01*
X141255900Y-98743100D01*
X141146300Y-98743100D01*
X141146299Y-98743100D01*
X141104281Y-98760505D01*
X141045042Y-98785043D01*
X140967543Y-98862542D01*
X140952009Y-98900043D01*
X140925600Y-98963799D01*
X140925600Y-99029600D01*
X140918571Y-99046571D01*
X140901600Y-99053600D01*
X124075100Y-99053600D01*
X124058129Y-99046571D01*
X124051100Y-99029600D01*
X124051100Y-97998800D01*
X139475600Y-97998800D01*
X139475600Y-98108400D01*
X139517543Y-98209658D01*
X139595042Y-98287157D01*
X139666641Y-98316814D01*
X139696299Y-98329100D01*
X139696300Y-98329100D01*
X139805901Y-98329100D01*
X139824602Y-98321352D01*
X139907158Y-98287157D01*
X139984657Y-98209658D01*
X140026600Y-98108400D01*
X140026600Y-97998800D01*
X140026079Y-97997543D01*
X140013096Y-97966199D01*
X139984657Y-97897542D01*
X139907158Y-97820043D01*
X139856529Y-97799071D01*
X139805901Y-97778100D01*
X139805900Y-97778100D01*
X139696300Y-97778100D01*
X139696299Y-97778100D01*
X139645671Y-97799071D01*
X139595042Y-97820043D01*
X139517543Y-97897542D01*
X139517543Y-97897543D01*
X139476121Y-97997543D01*
X139475600Y-97998800D01*
X124051100Y-97998800D01*
X124051100Y-97098800D01*
X141425600Y-97098800D01*
X141425600Y-97208400D01*
X141467543Y-97309658D01*
X141467546Y-97309661D01*
X141519514Y-97361630D01*
X141526543Y-97378600D01*
X141519514Y-97395570D01*
X141467546Y-97447538D01*
X141467544Y-97447540D01*
X141467543Y-97447542D01*
X141454885Y-97478100D01*
X141441463Y-97510505D01*
X141425600Y-97548800D01*
X141425600Y-97658400D01*
X141467543Y-97759658D01*
X141545042Y-97837157D01*
X141567422Y-97846427D01*
X141580410Y-97859416D01*
X141580410Y-97877785D01*
X141567422Y-97890772D01*
X141545042Y-97900043D01*
X141467543Y-97977542D01*
X141459259Y-97997542D01*
X141430819Y-98066201D01*
X141425600Y-98078800D01*
X141425600Y-98188400D01*
X141467543Y-98289658D01*
X141544515Y-98366630D01*
X141551544Y-98383600D01*
X141544515Y-98400569D01*
X141467543Y-98477542D01*
X141425600Y-98578800D01*
X141425600Y-98688400D01*
X141467543Y-98789658D01*
X141545042Y-98867157D01*
X141616641Y-98896814D01*
X141646299Y-98909100D01*
X141646300Y-98909100D01*
X141755901Y-98909100D01*
X141777765Y-98900043D01*
X141857158Y-98867157D01*
X141934657Y-98789658D01*
X141976600Y-98688400D01*
X141976600Y-98578800D01*
X141934657Y-98477542D01*
X141857684Y-98400569D01*
X141850656Y-98383600D01*
X141857684Y-98366630D01*
X141934657Y-98289658D01*
X141976600Y-98188400D01*
X141976600Y-98078800D01*
X141971380Y-98066199D01*
X141963652Y-98047542D01*
X141934657Y-97977542D01*
X141857158Y-97900043D01*
X141835325Y-97890999D01*
X143175600Y-97890999D01*
X143175600Y-98016201D01*
X143208005Y-98137136D01*
X143270605Y-98245564D01*
X143359136Y-98334095D01*
X143467564Y-98396695D01*
X143588499Y-98429100D01*
X143588500Y-98429100D01*
X143713700Y-98429100D01*
X143713701Y-98429100D01*
X143834636Y-98396695D01*
X143943064Y-98334095D01*
X144031595Y-98245564D01*
X144094195Y-98137136D01*
X144126600Y-98016201D01*
X144126600Y-97890999D01*
X144425600Y-97890999D01*
X144425600Y-98016201D01*
X144458005Y-98137136D01*
X144520605Y-98245564D01*
X144609136Y-98334095D01*
X144717564Y-98396695D01*
X144838499Y-98429100D01*
X144838500Y-98429100D01*
X144963700Y-98429100D01*
X144963701Y-98429100D01*
X145084636Y-98396695D01*
X145193064Y-98334095D01*
X145281595Y-98245564D01*
X145344195Y-98137136D01*
X145376600Y-98016201D01*
X145376600Y-97940999D01*
X145825600Y-97940999D01*
X145825600Y-98066201D01*
X145858005Y-98187136D01*
X145920605Y-98295564D01*
X146009136Y-98384095D01*
X146117564Y-98446695D01*
X146238499Y-98479100D01*
X146238500Y-98479100D01*
X146363700Y-98479100D01*
X146363701Y-98479100D01*
X146484636Y-98446695D01*
X146593064Y-98384095D01*
X146681595Y-98295564D01*
X146744195Y-98187136D01*
X146776600Y-98066201D01*
X146776600Y-97990999D01*
X146975600Y-97990999D01*
X146975600Y-98116201D01*
X146981209Y-98137134D01*
X147000641Y-98209656D01*
X147008005Y-98237136D01*
X147070605Y-98345564D01*
X147159136Y-98434095D01*
X147267564Y-98496695D01*
X147388499Y-98529100D01*
X147388500Y-98529100D01*
X147513700Y-98529100D01*
X147513701Y-98529100D01*
X147634636Y-98496695D01*
X147743064Y-98434095D01*
X147831595Y-98345564D01*
X147894195Y-98237136D01*
X147926600Y-98116201D01*
X147926600Y-98098800D01*
X149325600Y-98098800D01*
X149325600Y-98208400D01*
X149367543Y-98309658D01*
X149445042Y-98387157D01*
X149516641Y-98416814D01*
X149546299Y-98429100D01*
X149546300Y-98429100D01*
X149655901Y-98429100D01*
X149674602Y-98421352D01*
X149757158Y-98387157D01*
X149834657Y-98309658D01*
X149876600Y-98208400D01*
X149876600Y-98148800D01*
X154075600Y-98148800D01*
X154075600Y-98258400D01*
X154117543Y-98359658D01*
X154195042Y-98437157D01*
X154266641Y-98466814D01*
X154296299Y-98479100D01*
X154296300Y-98479100D01*
X154405901Y-98479100D01*
X154424602Y-98471352D01*
X154507158Y-98437157D01*
X154584657Y-98359658D01*
X154626600Y-98258400D01*
X154626600Y-98148800D01*
X154584657Y-98047542D01*
X154535915Y-97998800D01*
X154675600Y-97998800D01*
X154675600Y-98108400D01*
X154717543Y-98209658D01*
X154795042Y-98287157D01*
X154866641Y-98316814D01*
X154896299Y-98329100D01*
X154896300Y-98329100D01*
X155005901Y-98329100D01*
X155024602Y-98321352D01*
X155107158Y-98287157D01*
X155184657Y-98209658D01*
X155226600Y-98108400D01*
X155226600Y-97998800D01*
X155226079Y-97997543D01*
X155213096Y-97966199D01*
X155184657Y-97897542D01*
X155107158Y-97820043D01*
X155056529Y-97799071D01*
X155005901Y-97778100D01*
X155005900Y-97778100D01*
X154896300Y-97778100D01*
X154896299Y-97778100D01*
X154845671Y-97799071D01*
X154795042Y-97820043D01*
X154717543Y-97897542D01*
X154717543Y-97897543D01*
X154676121Y-97997543D01*
X154675600Y-97998800D01*
X154535915Y-97998800D01*
X154507158Y-97970043D01*
X154437041Y-97940999D01*
X154405901Y-97928100D01*
X154405900Y-97928100D01*
X154296300Y-97928100D01*
X154296299Y-97928100D01*
X154265159Y-97940999D01*
X154195042Y-97970043D01*
X154117543Y-98047542D01*
X154075600Y-98148800D01*
X149876600Y-98148800D01*
X149876600Y-98098800D01*
X149873047Y-98090223D01*
X149855368Y-98047543D01*
X149834657Y-97997542D01*
X149757158Y-97920043D01*
X149686495Y-97890773D01*
X149655901Y-97878100D01*
X149655900Y-97878100D01*
X149546300Y-97878100D01*
X149546299Y-97878100D01*
X149515705Y-97890773D01*
X149445042Y-97920043D01*
X149367543Y-97997542D01*
X149367022Y-97998800D01*
X149329153Y-98090223D01*
X149325600Y-98098800D01*
X147926600Y-98098800D01*
X147926600Y-97990999D01*
X147894195Y-97870064D01*
X147831595Y-97761636D01*
X147818759Y-97748800D01*
X155825600Y-97748800D01*
X155825600Y-97858400D01*
X155867543Y-97959658D01*
X155945042Y-98037157D01*
X156016641Y-98066814D01*
X156046299Y-98079100D01*
X156046300Y-98079100D01*
X156155901Y-98079100D01*
X156174602Y-98071352D01*
X156257158Y-98037157D01*
X156334657Y-97959658D01*
X156376600Y-97858400D01*
X156376600Y-97840999D01*
X157575600Y-97840999D01*
X157575600Y-97966201D01*
X157582245Y-97990999D01*
X157605851Y-98079100D01*
X157608005Y-98087136D01*
X157670605Y-98195564D01*
X157759136Y-98284095D01*
X157867564Y-98346695D01*
X157988499Y-98379100D01*
X157988500Y-98379100D01*
X158113700Y-98379100D01*
X158113701Y-98379100D01*
X158234636Y-98346695D01*
X158343064Y-98284095D01*
X158431595Y-98195564D01*
X158494195Y-98087136D01*
X158526600Y-97966201D01*
X158526600Y-97890999D01*
X158825600Y-97890999D01*
X158825600Y-98016201D01*
X158858005Y-98137136D01*
X158920605Y-98245564D01*
X159009136Y-98334095D01*
X159117564Y-98396695D01*
X159238499Y-98429100D01*
X159238500Y-98429100D01*
X159363700Y-98429100D01*
X159363701Y-98429100D01*
X159484636Y-98396695D01*
X159593064Y-98334095D01*
X159681595Y-98245564D01*
X159744195Y-98137136D01*
X159776600Y-98016201D01*
X159776600Y-97890999D01*
X160125600Y-97890999D01*
X160125600Y-98016201D01*
X160158005Y-98137136D01*
X160220605Y-98245564D01*
X160309136Y-98334095D01*
X160417564Y-98396695D01*
X160538499Y-98429100D01*
X160538500Y-98429100D01*
X160663700Y-98429100D01*
X160663701Y-98429100D01*
X160784636Y-98396695D01*
X160893064Y-98334095D01*
X160981595Y-98245564D01*
X161044195Y-98137136D01*
X161076600Y-98016201D01*
X161076600Y-97940999D01*
X161375600Y-97940999D01*
X161375600Y-98066201D01*
X161408005Y-98187136D01*
X161470605Y-98295564D01*
X161559136Y-98384095D01*
X161667564Y-98446695D01*
X161788499Y-98479100D01*
X161788500Y-98479100D01*
X161913700Y-98479100D01*
X161913701Y-98479100D01*
X162034636Y-98446695D01*
X162143064Y-98384095D01*
X162231595Y-98295564D01*
X162294195Y-98187136D01*
X162317865Y-98098800D01*
X162475600Y-98098800D01*
X162475600Y-98208400D01*
X162517543Y-98309658D01*
X162595042Y-98387157D01*
X162666641Y-98416814D01*
X162696299Y-98429100D01*
X162696300Y-98429100D01*
X162805901Y-98429100D01*
X162824602Y-98421352D01*
X162907158Y-98387157D01*
X162984657Y-98309658D01*
X163026600Y-98208400D01*
X163026600Y-98098800D01*
X163023047Y-98090223D01*
X163005368Y-98047543D01*
X162984657Y-97997542D01*
X162907158Y-97920043D01*
X162836495Y-97890773D01*
X162805901Y-97878100D01*
X162805900Y-97878100D01*
X162696300Y-97878100D01*
X162696299Y-97878100D01*
X162665705Y-97890773D01*
X162595042Y-97920043D01*
X162517543Y-97997542D01*
X162517022Y-97998800D01*
X162479153Y-98090223D01*
X162475600Y-98098800D01*
X162317865Y-98098800D01*
X162326600Y-98066201D01*
X162326600Y-97940999D01*
X162294195Y-97820064D01*
X162231595Y-97711636D01*
X162143064Y-97623105D01*
X162034636Y-97560505D01*
X162034635Y-97560504D01*
X162034634Y-97560504D01*
X161957965Y-97539960D01*
X161913701Y-97528100D01*
X161788499Y-97528100D01*
X161756095Y-97536782D01*
X161667565Y-97560504D01*
X161559136Y-97623105D01*
X161470605Y-97711636D01*
X161408004Y-97820065D01*
X161389413Y-97889448D01*
X161375600Y-97940999D01*
X161076600Y-97940999D01*
X161076600Y-97890999D01*
X161044195Y-97770064D01*
X160981595Y-97661636D01*
X160893064Y-97573105D01*
X160784636Y-97510505D01*
X160784635Y-97510504D01*
X160784634Y-97510504D01*
X160707965Y-97489960D01*
X160663701Y-97478100D01*
X160538499Y-97478100D01*
X160506095Y-97486782D01*
X160417565Y-97510504D01*
X160309136Y-97573105D01*
X160220605Y-97661636D01*
X160158004Y-97770065D01*
X160144613Y-97820043D01*
X160125600Y-97890999D01*
X159776600Y-97890999D01*
X159744195Y-97770064D01*
X159681595Y-97661636D01*
X159593064Y-97573105D01*
X159484636Y-97510505D01*
X159484635Y-97510504D01*
X159484634Y-97510504D01*
X159407965Y-97489960D01*
X159363701Y-97478100D01*
X159238499Y-97478100D01*
X159206095Y-97486782D01*
X159117565Y-97510504D01*
X159009136Y-97573105D01*
X158920605Y-97661636D01*
X158858004Y-97770065D01*
X158844613Y-97820043D01*
X158825600Y-97890999D01*
X158526600Y-97890999D01*
X158526600Y-97840999D01*
X158494195Y-97720064D01*
X158431595Y-97611636D01*
X158343064Y-97523105D01*
X158234636Y-97460505D01*
X158234635Y-97460504D01*
X158234634Y-97460504D01*
X158157965Y-97439960D01*
X158113701Y-97428100D01*
X157988499Y-97428100D01*
X157956095Y-97436782D01*
X157867565Y-97460504D01*
X157759136Y-97523105D01*
X157670605Y-97611636D01*
X157608004Y-97720065D01*
X157594607Y-97770064D01*
X157575600Y-97840999D01*
X156376600Y-97840999D01*
X156376600Y-97748800D01*
X156334657Y-97647542D01*
X156257158Y-97570043D01*
X156205871Y-97548799D01*
X156155901Y-97528100D01*
X156155900Y-97528100D01*
X156046300Y-97528100D01*
X156046299Y-97528100D01*
X155996329Y-97548799D01*
X155945042Y-97570043D01*
X155867543Y-97647542D01*
X155846571Y-97698171D01*
X155837503Y-97720065D01*
X155825600Y-97748800D01*
X147818759Y-97748800D01*
X147743064Y-97673105D01*
X147634636Y-97610505D01*
X147634635Y-97610504D01*
X147634634Y-97610504D01*
X147557965Y-97589960D01*
X147513701Y-97578100D01*
X147388499Y-97578100D01*
X147356095Y-97586782D01*
X147267565Y-97610504D01*
X147159136Y-97673105D01*
X147070605Y-97761636D01*
X147008004Y-97870065D01*
X146999972Y-97900043D01*
X146975600Y-97990999D01*
X146776600Y-97990999D01*
X146776600Y-97940999D01*
X146744195Y-97820064D01*
X146681595Y-97711636D01*
X146593064Y-97623105D01*
X146484636Y-97560505D01*
X146484635Y-97560504D01*
X146484634Y-97560504D01*
X146407965Y-97539960D01*
X146363701Y-97528100D01*
X146238499Y-97528100D01*
X146206095Y-97536782D01*
X146117565Y-97560504D01*
X146009136Y-97623105D01*
X145920605Y-97711636D01*
X145858004Y-97820065D01*
X145839413Y-97889448D01*
X145825600Y-97940999D01*
X145376600Y-97940999D01*
X145376600Y-97890999D01*
X145344195Y-97770064D01*
X145281595Y-97661636D01*
X145193064Y-97573105D01*
X145084636Y-97510505D01*
X145084635Y-97510504D01*
X145084634Y-97510504D01*
X145007965Y-97489960D01*
X144963701Y-97478100D01*
X144838499Y-97478100D01*
X144806095Y-97486782D01*
X144717565Y-97510504D01*
X144609136Y-97573105D01*
X144520605Y-97661636D01*
X144458004Y-97770065D01*
X144444613Y-97820043D01*
X144425600Y-97890999D01*
X144126600Y-97890999D01*
X144094195Y-97770064D01*
X144031595Y-97661636D01*
X143943064Y-97573105D01*
X143834636Y-97510505D01*
X143834635Y-97510504D01*
X143834634Y-97510504D01*
X143757965Y-97489960D01*
X143713701Y-97478100D01*
X143588499Y-97478100D01*
X143556095Y-97486782D01*
X143467565Y-97510504D01*
X143359136Y-97573105D01*
X143270605Y-97661636D01*
X143208004Y-97770065D01*
X143194613Y-97820043D01*
X143175600Y-97890999D01*
X141835325Y-97890999D01*
X141833386Y-97890196D01*
X141832074Y-97889448D01*
X141827299Y-97883293D01*
X141821790Y-97877785D01*
X141821790Y-97876192D01*
X141820814Y-97874935D01*
X141821790Y-97867205D01*
X141821790Y-97859416D01*
X141822915Y-97858290D01*
X141823115Y-97856711D01*
X141829269Y-97851936D01*
X141834778Y-97846427D01*
X141834779Y-97846427D01*
X141847883Y-97840999D01*
X141857158Y-97837157D01*
X141934657Y-97759658D01*
X141976600Y-97658400D01*
X141976600Y-97548800D01*
X141934657Y-97447542D01*
X141882684Y-97395569D01*
X141875656Y-97378600D01*
X141882684Y-97361630D01*
X141934657Y-97309658D01*
X141976600Y-97208400D01*
X141976600Y-97098800D01*
X144075600Y-97098800D01*
X144075600Y-97208400D01*
X144117543Y-97309658D01*
X144195042Y-97387157D01*
X144266641Y-97416814D01*
X144296299Y-97429100D01*
X144296300Y-97429100D01*
X144405901Y-97429100D01*
X144424602Y-97421352D01*
X144507158Y-97387157D01*
X144584657Y-97309658D01*
X144626600Y-97208400D01*
X144626600Y-97098800D01*
X144605889Y-97048800D01*
X145125600Y-97048800D01*
X145125600Y-97158400D01*
X145167543Y-97259658D01*
X145245042Y-97337157D01*
X145316641Y-97366814D01*
X145346299Y-97379100D01*
X145346300Y-97379100D01*
X145455901Y-97379100D01*
X145474602Y-97371352D01*
X145557158Y-97337157D01*
X145634130Y-97260184D01*
X145651100Y-97253156D01*
X145668069Y-97260184D01*
X145745042Y-97337157D01*
X145816641Y-97366814D01*
X145846299Y-97379100D01*
X145846300Y-97379100D01*
X145955901Y-97379100D01*
X145974602Y-97371352D01*
X146057158Y-97337157D01*
X146134657Y-97259658D01*
X146176600Y-97158400D01*
X146176600Y-97098800D01*
X146625600Y-97098800D01*
X146625600Y-97208400D01*
X146667543Y-97309658D01*
X146745042Y-97387157D01*
X146816641Y-97416814D01*
X146846299Y-97429100D01*
X146846300Y-97429100D01*
X146955901Y-97429100D01*
X146974602Y-97421352D01*
X147057158Y-97387157D01*
X147134657Y-97309658D01*
X147176600Y-97208400D01*
X147176600Y-97098800D01*
X149325600Y-97098800D01*
X149325600Y-97208400D01*
X149367543Y-97309658D01*
X149445042Y-97387157D01*
X149516641Y-97416814D01*
X149546299Y-97429100D01*
X149546300Y-97429100D01*
X149655901Y-97429100D01*
X149674602Y-97421352D01*
X149757158Y-97387157D01*
X149834657Y-97309658D01*
X149876600Y-97208400D01*
X149876600Y-97098800D01*
X149855889Y-97048800D01*
X155775600Y-97048800D01*
X155775600Y-97158400D01*
X155817543Y-97259658D01*
X155895042Y-97337157D01*
X155966641Y-97366814D01*
X155996299Y-97379100D01*
X155996300Y-97379100D01*
X156105901Y-97379100D01*
X156124602Y-97371352D01*
X156207158Y-97337157D01*
X156284657Y-97259658D01*
X156326600Y-97158400D01*
X156326600Y-97098800D01*
X158425600Y-97098800D01*
X158425600Y-97208400D01*
X158467543Y-97309658D01*
X158545042Y-97387157D01*
X158616641Y-97416814D01*
X158646299Y-97429100D01*
X158646300Y-97429100D01*
X158755901Y-97429100D01*
X158774602Y-97421352D01*
X158857158Y-97387157D01*
X158934657Y-97309658D01*
X158976600Y-97208400D01*
X158976600Y-97098800D01*
X159425600Y-97098800D01*
X159425600Y-97208400D01*
X159467543Y-97309658D01*
X159545042Y-97387157D01*
X159616641Y-97416814D01*
X159646299Y-97429100D01*
X159646300Y-97429100D01*
X159755901Y-97429100D01*
X159774602Y-97421352D01*
X159857158Y-97387157D01*
X159934657Y-97309658D01*
X159953928Y-97263133D01*
X159966916Y-97250147D01*
X159985285Y-97250147D01*
X159998271Y-97263133D01*
X160017543Y-97309658D01*
X160095042Y-97387157D01*
X160166641Y-97416814D01*
X160196299Y-97429100D01*
X160196300Y-97429100D01*
X160305901Y-97429100D01*
X160324602Y-97421352D01*
X160407158Y-97387157D01*
X160484657Y-97309658D01*
X160526600Y-97208400D01*
X160526600Y-97098800D01*
X160925600Y-97098800D01*
X160925600Y-97208400D01*
X160967543Y-97309658D01*
X161045042Y-97387157D01*
X161116641Y-97416814D01*
X161146299Y-97429100D01*
X161146300Y-97429100D01*
X161255901Y-97429100D01*
X161274602Y-97421352D01*
X161357158Y-97387157D01*
X161434657Y-97309658D01*
X161476600Y-97208400D01*
X161476600Y-97098800D01*
X163725600Y-97098800D01*
X163725600Y-97208400D01*
X163767543Y-97309658D01*
X163845042Y-97387157D01*
X163916641Y-97416814D01*
X163946299Y-97429100D01*
X163946300Y-97429100D01*
X164055901Y-97429100D01*
X164074602Y-97421352D01*
X164157158Y-97387157D01*
X164234657Y-97309658D01*
X164276600Y-97208400D01*
X164276600Y-97098800D01*
X164234657Y-96997542D01*
X164157158Y-96920043D01*
X164106529Y-96899071D01*
X164055901Y-96878100D01*
X164055900Y-96878100D01*
X163946300Y-96878100D01*
X163946299Y-96878100D01*
X163895671Y-96899071D01*
X163845042Y-96920043D01*
X163767543Y-96997542D01*
X163725600Y-97098800D01*
X161476600Y-97098800D01*
X161434657Y-96997542D01*
X161357158Y-96920043D01*
X161306529Y-96899071D01*
X161255901Y-96878100D01*
X161255900Y-96878100D01*
X161146300Y-96878100D01*
X161146299Y-96878100D01*
X161095671Y-96899071D01*
X161045042Y-96920043D01*
X160967543Y-96997542D01*
X160925600Y-97098800D01*
X160526600Y-97098800D01*
X160484657Y-96997542D01*
X160407158Y-96920043D01*
X160356529Y-96899071D01*
X160305901Y-96878100D01*
X160305900Y-96878100D01*
X160196300Y-96878100D01*
X160196299Y-96878100D01*
X160145671Y-96899071D01*
X160095042Y-96920043D01*
X160017543Y-96997542D01*
X160017543Y-96997543D01*
X159998273Y-97044063D01*
X159985284Y-97057051D01*
X159966915Y-97057051D01*
X159953927Y-97044063D01*
X159934657Y-96997542D01*
X159857158Y-96920043D01*
X159806529Y-96899071D01*
X159755901Y-96878100D01*
X159755900Y-96878100D01*
X159646300Y-96878100D01*
X159646299Y-96878100D01*
X159595671Y-96899071D01*
X159545042Y-96920043D01*
X159467543Y-96997542D01*
X159425600Y-97098800D01*
X158976600Y-97098800D01*
X158934657Y-96997542D01*
X158857158Y-96920043D01*
X158806529Y-96899071D01*
X158755901Y-96878100D01*
X158755900Y-96878100D01*
X158646300Y-96878100D01*
X158646299Y-96878100D01*
X158595671Y-96899071D01*
X158545042Y-96920043D01*
X158467543Y-96997542D01*
X158425600Y-97098800D01*
X156326600Y-97098800D01*
X156326600Y-97048800D01*
X156284657Y-96947542D01*
X156207158Y-96870043D01*
X156156529Y-96849071D01*
X156105901Y-96828100D01*
X156105900Y-96828100D01*
X155996300Y-96828100D01*
X155996299Y-96828100D01*
X155945671Y-96849071D01*
X155895042Y-96870043D01*
X155817543Y-96947542D01*
X155775600Y-97048800D01*
X149855889Y-97048800D01*
X149834657Y-96997542D01*
X149757158Y-96920043D01*
X149706529Y-96899071D01*
X149655901Y-96878100D01*
X149655900Y-96878100D01*
X149546300Y-96878100D01*
X149546299Y-96878100D01*
X149495671Y-96899071D01*
X149445042Y-96920043D01*
X149367543Y-96997542D01*
X149325600Y-97098800D01*
X147176600Y-97098800D01*
X147134657Y-96997542D01*
X147057158Y-96920043D01*
X147006529Y-96899071D01*
X146955901Y-96878100D01*
X146955900Y-96878100D01*
X146846300Y-96878100D01*
X146846299Y-96878100D01*
X146795671Y-96899071D01*
X146745042Y-96920043D01*
X146667543Y-96997542D01*
X146625600Y-97098800D01*
X146176600Y-97098800D01*
X146176600Y-97048800D01*
X146134657Y-96947542D01*
X146057158Y-96870043D01*
X146006529Y-96849071D01*
X145955901Y-96828100D01*
X145955900Y-96828100D01*
X145846300Y-96828100D01*
X145846299Y-96828100D01*
X145795671Y-96849071D01*
X145745042Y-96870043D01*
X145668069Y-96947015D01*
X145651100Y-96954044D01*
X145634130Y-96947015D01*
X145557158Y-96870043D01*
X145506529Y-96849071D01*
X145455901Y-96828100D01*
X145455900Y-96828100D01*
X145346300Y-96828100D01*
X145346299Y-96828100D01*
X145295671Y-96849071D01*
X145245042Y-96870043D01*
X145167543Y-96947542D01*
X145125600Y-97048800D01*
X144605889Y-97048800D01*
X144584657Y-96997542D01*
X144507158Y-96920043D01*
X144456529Y-96899071D01*
X144405901Y-96878100D01*
X144405900Y-96878100D01*
X144296300Y-96878100D01*
X144296299Y-96878100D01*
X144245671Y-96899071D01*
X144195042Y-96920043D01*
X144117543Y-96997542D01*
X144075600Y-97098800D01*
X141976600Y-97098800D01*
X141934657Y-96997542D01*
X141857158Y-96920043D01*
X141806529Y-96899071D01*
X141755901Y-96878100D01*
X141755900Y-96878100D01*
X141646300Y-96878100D01*
X141646299Y-96878100D01*
X141595671Y-96899071D01*
X141545042Y-96920043D01*
X141467543Y-96997542D01*
X141425600Y-97098800D01*
X124051100Y-97098800D01*
X124051100Y-95848800D01*
X142775600Y-95848800D01*
X142775600Y-95958400D01*
X142817543Y-96059658D01*
X142895042Y-96137157D01*
X142966641Y-96166814D01*
X142996299Y-96179100D01*
X142996300Y-96179100D01*
X143105901Y-96179100D01*
X143124602Y-96171352D01*
X143207158Y-96137157D01*
X143284657Y-96059658D01*
X143326600Y-95958400D01*
X143326600Y-95848800D01*
X143284657Y-95747542D01*
X143207158Y-95670043D01*
X143155875Y-95648800D01*
X149365600Y-95648800D01*
X149365600Y-95758400D01*
X149407543Y-95859658D01*
X149485042Y-95937157D01*
X149556641Y-95966814D01*
X149586299Y-95979100D01*
X149586300Y-95979100D01*
X149695901Y-95979100D01*
X149714602Y-95971352D01*
X149797158Y-95937157D01*
X149874657Y-95859658D01*
X149879155Y-95848800D01*
X156875600Y-95848800D01*
X156875600Y-95958400D01*
X156917543Y-96059658D01*
X156995042Y-96137157D01*
X157066641Y-96166814D01*
X157096299Y-96179100D01*
X157096300Y-96179100D01*
X157205901Y-96179100D01*
X157224602Y-96171352D01*
X157307158Y-96137157D01*
X157384657Y-96059658D01*
X157426600Y-95958400D01*
X157426600Y-95848800D01*
X157384657Y-95747542D01*
X157307158Y-95670043D01*
X157255875Y-95648800D01*
X162375600Y-95648800D01*
X162375600Y-95758400D01*
X162417543Y-95859658D01*
X162495042Y-95937157D01*
X162566641Y-95966814D01*
X162596299Y-95979100D01*
X162596300Y-95979100D01*
X162705901Y-95979100D01*
X162724602Y-95971352D01*
X162807158Y-95937157D01*
X162884657Y-95859658D01*
X162926600Y-95758400D01*
X162926600Y-95648800D01*
X162884657Y-95547542D01*
X162807158Y-95470043D01*
X162756529Y-95449071D01*
X162705901Y-95428100D01*
X162705900Y-95428100D01*
X162596300Y-95428100D01*
X162596299Y-95428100D01*
X162545671Y-95449071D01*
X162495042Y-95470043D01*
X162417543Y-95547542D01*
X162375600Y-95648800D01*
X157255875Y-95648800D01*
X157237815Y-95641319D01*
X157205901Y-95628100D01*
X157205900Y-95628100D01*
X157096300Y-95628100D01*
X157096299Y-95628100D01*
X157046329Y-95648799D01*
X156995042Y-95670043D01*
X156917543Y-95747542D01*
X156896571Y-95798171D01*
X156880384Y-95837251D01*
X156875600Y-95848800D01*
X149879155Y-95848800D01*
X149916600Y-95758400D01*
X149916600Y-95648800D01*
X149874657Y-95547542D01*
X149797158Y-95470043D01*
X149746529Y-95449071D01*
X149695901Y-95428100D01*
X149695900Y-95428100D01*
X149586300Y-95428100D01*
X149586299Y-95428100D01*
X149535671Y-95449071D01*
X149485042Y-95470043D01*
X149407543Y-95547542D01*
X149365600Y-95648800D01*
X143155875Y-95648800D01*
X143137815Y-95641319D01*
X143105901Y-95628100D01*
X143105900Y-95628100D01*
X142996300Y-95628100D01*
X142996299Y-95628100D01*
X142946329Y-95648799D01*
X142895042Y-95670043D01*
X142817543Y-95747542D01*
X142796571Y-95798171D01*
X142780384Y-95837251D01*
X142775600Y-95848800D01*
X124051100Y-95848800D01*
X124051100Y-94448800D01*
X146575600Y-94448800D01*
X146575600Y-94558400D01*
X146617543Y-94659658D01*
X146695042Y-94737157D01*
X146766641Y-94766814D01*
X146796299Y-94779100D01*
X146796300Y-94779100D01*
X146905901Y-94779100D01*
X146924602Y-94771352D01*
X147007158Y-94737157D01*
X147084657Y-94659658D01*
X147126600Y-94558400D01*
X147126600Y-94448800D01*
X147124532Y-94443808D01*
X147105889Y-94398800D01*
X147084657Y-94347542D01*
X147007158Y-94270043D01*
X146956529Y-94249071D01*
X146905901Y-94228100D01*
X146905900Y-94228100D01*
X146796300Y-94228100D01*
X146796299Y-94228100D01*
X146745671Y-94249071D01*
X146695042Y-94270043D01*
X146617543Y-94347542D01*
X146602261Y-94384436D01*
X146577668Y-94443808D01*
X146575600Y-94448800D01*
X124051100Y-94448800D01*
X124051100Y-94135456D01*
X152390600Y-94135456D01*
X152390600Y-94227744D01*
X152401934Y-94270043D01*
X152414486Y-94316889D01*
X152414486Y-94316890D01*
X152460628Y-94396808D01*
X152460629Y-94396809D01*
X152460631Y-94396812D01*
X152525888Y-94462069D01*
X152525890Y-94462070D01*
X152525891Y-94462071D01*
X152605809Y-94508213D01*
X152605811Y-94508213D01*
X152605812Y-94508214D01*
X152694956Y-94532100D01*
X152694957Y-94532100D01*
X152787243Y-94532100D01*
X152787244Y-94532100D01*
X152876388Y-94508214D01*
X152956312Y-94462069D01*
X153021569Y-94396812D01*
X153067714Y-94316888D01*
X153079121Y-94274314D01*
X153090303Y-94259742D01*
X153108514Y-94257344D01*
X153123087Y-94268526D01*
X153125485Y-94274314D01*
X153149486Y-94363889D01*
X153149486Y-94363890D01*
X153195628Y-94443808D01*
X153195629Y-94443809D01*
X153195631Y-94443812D01*
X153260888Y-94509069D01*
X153260890Y-94509070D01*
X153260891Y-94509071D01*
X153340809Y-94555213D01*
X153340811Y-94555213D01*
X153340812Y-94555214D01*
X153429956Y-94579100D01*
X153429957Y-94579100D01*
X153522243Y-94579100D01*
X153522244Y-94579100D01*
X153611388Y-94555214D01*
X153691312Y-94509069D01*
X153756569Y-94443812D01*
X153782557Y-94398800D01*
X160975600Y-94398800D01*
X160975600Y-94508400D01*
X161017543Y-94609658D01*
X161095042Y-94687157D01*
X161166641Y-94716814D01*
X161196299Y-94729100D01*
X161196300Y-94729100D01*
X161305901Y-94729100D01*
X161324602Y-94721352D01*
X161407158Y-94687157D01*
X161484657Y-94609658D01*
X161526600Y-94508400D01*
X161526600Y-94398800D01*
X161520651Y-94384439D01*
X161517097Y-94375860D01*
X161484657Y-94297542D01*
X161407158Y-94220043D01*
X161316419Y-94182457D01*
X161305901Y-94178100D01*
X161305900Y-94178100D01*
X161196300Y-94178100D01*
X161196299Y-94178100D01*
X161185781Y-94182457D01*
X161095042Y-94220043D01*
X161017543Y-94297542D01*
X161017543Y-94297543D01*
X160981549Y-94384439D01*
X160975600Y-94398800D01*
X153782557Y-94398800D01*
X153802714Y-94363888D01*
X153826600Y-94274744D01*
X153826600Y-94182456D01*
X153802714Y-94093312D01*
X153802713Y-94093310D01*
X153802713Y-94093309D01*
X153756571Y-94013391D01*
X153756570Y-94013390D01*
X153756569Y-94013388D01*
X153691312Y-93948131D01*
X153691309Y-93948129D01*
X153691308Y-93948128D01*
X153611390Y-93901986D01*
X153551958Y-93886062D01*
X153522244Y-93878100D01*
X153429956Y-93878100D01*
X153400241Y-93886062D01*
X153340810Y-93901986D01*
X153340809Y-93901986D01*
X153260891Y-93948128D01*
X153195628Y-94013391D01*
X153149486Y-94093309D01*
X153149486Y-94093310D01*
X153138078Y-94135885D01*
X153126896Y-94150458D01*
X153108684Y-94152855D01*
X153094111Y-94141673D01*
X153091714Y-94135884D01*
X153091600Y-94135457D01*
X153091600Y-94135456D01*
X153067714Y-94046312D01*
X153067713Y-94046310D01*
X153067713Y-94046309D01*
X153021571Y-93966391D01*
X153021570Y-93966390D01*
X153021569Y-93966388D01*
X152956312Y-93901131D01*
X152956309Y-93901129D01*
X152956308Y-93901128D01*
X152876390Y-93854986D01*
X152816958Y-93839062D01*
X152787244Y-93831100D01*
X152694956Y-93831100D01*
X152665241Y-93839062D01*
X152605810Y-93854986D01*
X152605809Y-93854986D01*
X152525891Y-93901128D01*
X152460628Y-93966391D01*
X152414486Y-94046309D01*
X152414486Y-94046310D01*
X152401893Y-94093309D01*
X152390600Y-94135456D01*
X124051100Y-94135456D01*
X124051100Y-93348800D01*
X144075600Y-93348800D01*
X144075600Y-93458400D01*
X144117543Y-93559658D01*
X144195042Y-93637157D01*
X144266641Y-93666814D01*
X144296299Y-93679100D01*
X144296300Y-93679100D01*
X144405901Y-93679100D01*
X144424602Y-93671352D01*
X144507158Y-93637157D01*
X144584657Y-93559658D01*
X144626600Y-93458400D01*
X144626600Y-93435456D01*
X152840600Y-93435456D01*
X152840600Y-93527744D01*
X152856524Y-93587173D01*
X152864486Y-93616889D01*
X152864486Y-93616890D01*
X152910628Y-93696808D01*
X152910629Y-93696809D01*
X152910631Y-93696812D01*
X152975888Y-93762069D01*
X152975890Y-93762070D01*
X152975891Y-93762071D01*
X153055809Y-93808213D01*
X153055811Y-93808213D01*
X153055812Y-93808214D01*
X153144956Y-93832100D01*
X153144957Y-93832100D01*
X153237243Y-93832100D01*
X153237244Y-93832100D01*
X153326388Y-93808214D01*
X153406312Y-93762069D01*
X153471569Y-93696812D01*
X153502332Y-93643529D01*
X153517713Y-93616890D01*
X153517713Y-93616889D01*
X153517714Y-93616888D01*
X153541600Y-93527744D01*
X153541600Y-93435456D01*
X153517714Y-93346312D01*
X153517713Y-93346310D01*
X153517713Y-93346309D01*
X153471571Y-93266391D01*
X153471570Y-93266390D01*
X153471569Y-93266388D01*
X153406312Y-93201131D01*
X153406309Y-93201129D01*
X153406308Y-93201128D01*
X153326390Y-93154986D01*
X153266958Y-93139062D01*
X153237244Y-93131100D01*
X153144956Y-93131100D01*
X153115241Y-93139062D01*
X153055810Y-93154986D01*
X153055809Y-93154986D01*
X152975891Y-93201128D01*
X152910628Y-93266391D01*
X152864486Y-93346309D01*
X152864486Y-93346310D01*
X152863819Y-93348800D01*
X152840600Y-93435456D01*
X144626600Y-93435456D01*
X144626600Y-93348800D01*
X144625569Y-93346312D01*
X144601066Y-93287157D01*
X144584657Y-93247542D01*
X144507158Y-93170043D01*
X144413143Y-93131100D01*
X144405901Y-93128100D01*
X144405900Y-93128100D01*
X144296300Y-93128100D01*
X144296299Y-93128100D01*
X144289057Y-93131100D01*
X144195042Y-93170043D01*
X144117543Y-93247542D01*
X144104471Y-93279100D01*
X144076631Y-93346312D01*
X144075600Y-93348800D01*
X124051100Y-93348800D01*
X124051100Y-92998800D01*
X139925600Y-92998800D01*
X139925600Y-93108400D01*
X139967543Y-93209658D01*
X140045042Y-93287157D01*
X140116641Y-93316814D01*
X140146299Y-93329100D01*
X140146300Y-93329100D01*
X140255901Y-93329100D01*
X140267578Y-93324263D01*
X140278387Y-93319785D01*
X140357158Y-93287157D01*
X140434657Y-93209658D01*
X140476600Y-93108400D01*
X140476600Y-92998800D01*
X140455889Y-92948800D01*
X158425600Y-92948800D01*
X158425600Y-93058400D01*
X158467543Y-93159658D01*
X158545042Y-93237157D01*
X158615611Y-93266388D01*
X158646299Y-93279100D01*
X158646300Y-93279100D01*
X158755901Y-93279100D01*
X158774602Y-93271352D01*
X158857158Y-93237157D01*
X158934657Y-93159658D01*
X158976600Y-93058400D01*
X158976600Y-92948800D01*
X158934657Y-92847542D01*
X158857158Y-92770043D01*
X158806529Y-92749071D01*
X158755901Y-92728100D01*
X158755900Y-92728100D01*
X158646300Y-92728100D01*
X158646299Y-92728100D01*
X158595671Y-92749071D01*
X158545042Y-92770043D01*
X158467543Y-92847542D01*
X158425600Y-92948800D01*
X140455889Y-92948800D01*
X140434657Y-92897542D01*
X140357158Y-92820043D01*
X140306529Y-92799071D01*
X140255901Y-92778100D01*
X140255900Y-92778100D01*
X140146300Y-92778100D01*
X140146299Y-92778100D01*
X140095671Y-92799071D01*
X140045042Y-92820043D01*
X139967543Y-92897542D01*
X139925600Y-92998800D01*
X124051100Y-92998800D01*
X124051100Y-69266329D01*
X124058128Y-69249359D01*
X124161726Y-69145762D01*
X124254803Y-69006463D01*
X124272299Y-68964226D01*
X124318915Y-68851684D01*
X124318917Y-68851677D01*
X124339847Y-68746453D01*
X124351600Y-68687367D01*
X124351600Y-68519833D01*
X124318916Y-68355518D01*
X124318915Y-68355515D01*
X124254805Y-68200740D01*
X124228966Y-68162069D01*
X124161726Y-68061438D01*
X124115671Y-68015383D01*
X124058129Y-67957840D01*
X124051100Y-67940870D01*
X124051100Y-66977600D01*
X124058129Y-66960629D01*
X124075100Y-66953600D01*
X124209464Y-66953600D01*
X124226435Y-66960629D01*
G37*
%TD.AperFunction*%
%TD*%
M02*
