%TF.GenerationSoftware,KiCad,Pcbnew,10.0.0*%
%TF.CreationDate,2026-03-23T00:54:02+02:00*%
%TF.ProjectId,Clocks_Freq_Synth_board,436c6f63-6b73-45f4-9672-65715f53796e,rev?*%
%TF.SameCoordinates,Original*%
%TF.FileFunction,Copper,L4,Inr*%
%TF.FilePolarity,Positive*%
%FSLAX46Y46*%
G04 Gerber Fmt 4.6, Leading zero omitted, Abs format (unit mm)*
G04 Created by KiCad (PCBNEW 10.0.0) date 2026-03-23 00:54:02*
%MOMM*%
%LPD*%
G01*
G04 APERTURE LIST*
G04 Aperture macros list*
%AMOutline5P*
0 Free polygon, 5 corners , with rotation*
0 The origin of the aperture is its center*
0 number of corners: always 5*
0 $1 to $10 corner X, Y*
0 $11 Rotation angle, in degrees counterclockwise*
0 create outline with 5 corners*
4,1,5,$1,$2,$3,$4,$5,$6,$7,$8,$9,$10,$1,$2,$11*%
%AMOutline6P*
0 Free polygon, 6 corners , with rotation*
0 The origin of the aperture is its center*
0 number of corners: always 6*
0 $1 to $12 corner X, Y*
0 $13 Rotation angle, in degrees counterclockwise*
0 create outline with 6 corners*
4,1,6,$1,$2,$3,$4,$5,$6,$7,$8,$9,$10,$11,$12,$1,$2,$13*%
%AMOutline7P*
0 Free polygon, 7 corners , with rotation*
0 The origin of the aperture is its center*
0 number of corners: always 7*
0 $1 to $14 corner X, Y*
0 $15 Rotation angle, in degrees counterclockwise*
0 create outline with 7 corners*
4,1,7,$1,$2,$3,$4,$5,$6,$7,$8,$9,$10,$11,$12,$13,$14,$1,$2,$15*%
%AMOutline8P*
0 Free polygon, 8 corners , with rotation*
0 The origin of the aperture is its center*
0 number of corners: always 8*
0 $1 to $16 corner X, Y*
0 $17 Rotation angle, in degrees counterclockwise*
0 create outline with 8 corners*
4,1,8,$1,$2,$3,$4,$5,$6,$7,$8,$9,$10,$11,$12,$13,$14,$15,$16,$1,$2,$17*%
G04 Aperture macros list end*
%TA.AperFunction,ComponentPad*%
%ADD10C,1.791000*%
%TD*%
%TA.AperFunction,ComponentPad*%
%ADD11O,3.000000X1.500000*%
%TD*%
%TA.AperFunction,ComponentPad*%
%ADD12O,1.500000X3.000000*%
%TD*%
%TA.AperFunction,ComponentPad*%
%ADD13Outline8P,-0.762000X0.315631X-0.315631X0.762000X0.315631X0.762000X0.762000X0.315631X0.762000X-0.315631X0.315631X-0.762000X-0.315631X-0.762000X-0.762000X-0.315631X180.000000*%
%TD*%
%TA.AperFunction,ComponentPad*%
%ADD14C,1.143000*%
%TD*%
%TA.AperFunction,ComponentPad*%
%ADD15C,1.346200*%
%TD*%
%TA.AperFunction,ComponentPad*%
%ADD16Outline8P,-0.762000X0.315631X-0.315631X0.762000X0.315631X0.762000X0.762000X0.315631X0.762000X-0.315631X0.315631X-0.762000X-0.315631X-0.762000X-0.762000X-0.315631X90.000000*%
%TD*%
%TA.AperFunction,ViaPad*%
%ADD17C,0.350000*%
%TD*%
%TA.AperFunction,ViaPad*%
%ADD18C,0.450000*%
%TD*%
%TA.AperFunction,ViaPad*%
%ADD19C,0.500000*%
%TD*%
%TA.AperFunction,ViaPad*%
%ADD20C,0.750000*%
%TD*%
%TA.AperFunction,ViaPad*%
%ADD21C,1.500000*%
%TD*%
%TA.AperFunction,ViaPad*%
%ADD22C,0.400000*%
%TD*%
%TA.AperFunction,ViaPad*%
%ADD23C,3.000000*%
%TD*%
%TA.AperFunction,Conductor*%
%ADD24C,0.500000*%
%TD*%
%TA.AperFunction,Conductor*%
%ADD25C,1.000000*%
%TD*%
%TA.AperFunction,Conductor*%
%ADD26C,2.000000*%
%TD*%
%TA.AperFunction,Conductor*%
%ADD27C,0.150000*%
%TD*%
%TA.AperFunction,Conductor*%
%ADD28C,0.100000*%
%TD*%
G04 APERTURE END LIST*
D10*
%TO.N,GND*%
%TO.C,J5*%
X160521100Y-134625500D03*
X160521100Y-139705500D03*
X165601100Y-139705500D03*
X165601100Y-134625500D03*
%TD*%
%TO.N,GND*%
%TO.C,J9*%
X110891100Y-75173600D03*
X110891100Y-70093600D03*
X105811100Y-70093600D03*
X105811100Y-75173600D03*
%TD*%
D11*
%TO.N,N$69*%
%TO.C,X10*%
X103301100Y-123033600D03*
%TO.N,GND*%
X103301100Y-125573600D03*
%TD*%
%TO.N,+5V0_LO*%
%TO.C,X15*%
X192501100Y-71773600D03*
%TO.N,GND*%
X192501100Y-69233600D03*
%TD*%
D12*
%TO.N,N$73*%
%TO.C,X12*%
X185031100Y-150903600D03*
%TO.N,GND*%
X187571100Y-150903600D03*
%TD*%
D10*
%TO.N,GND*%
%TO.C,J7*%
X188671100Y-127343600D03*
X193751100Y-127343600D03*
X193751100Y-122263600D03*
X188671100Y-122263600D03*
%TD*%
%TO.N,GND*%
%TO.C,J12*%
X169288998Y-83023600D03*
X172881100Y-86615702D03*
X176473202Y-83023600D03*
X172881100Y-79431498D03*
%TD*%
%TO.N,GND*%
%TO.C,J2*%
X188821100Y-108183600D03*
X193901100Y-108183600D03*
X193901100Y-103103600D03*
X188821100Y-103103600D03*
%TD*%
%TO.N,GND*%
%TO.C,J11*%
X156161100Y-78463600D03*
X156161100Y-83543600D03*
X161241100Y-83543600D03*
X161241100Y-78463600D03*
%TD*%
D12*
%TO.N,N$75*%
%TO.C,X13*%
X112171100Y-59803600D03*
%TO.N,GND*%
X109631100Y-59803600D03*
%TD*%
D10*
%TO.N,GND*%
%TO.C,J1*%
X148901100Y-62463600D03*
X148901100Y-67543600D03*
X153981100Y-67543600D03*
X153981100Y-62463600D03*
%TD*%
%TO.N,GND*%
%TO.C,J8*%
X188671100Y-136183600D03*
X188671100Y-141263600D03*
X193751100Y-141263600D03*
X193751100Y-136183600D03*
%TD*%
%TO.N,GND*%
%TO.C,J10*%
X141891100Y-78463600D03*
X141891100Y-83543600D03*
X146971100Y-83543600D03*
X146971100Y-78463600D03*
%TD*%
D13*
%TO.N,AD9523_PD*%
%TO.C,JP1*%
X119941100Y-136333600D03*
%TO.N,AD9523_REF_SEL*%
X119941100Y-138873600D03*
%TO.N,AD9523_SYNC*%
X117401100Y-136333600D03*
%TO.N,AD9523_RESET*%
X117401100Y-138873600D03*
%TO.N,AD9523_CS*%
X114861100Y-136333600D03*
%TO.N,AD9523_SCLK*%
X114861100Y-138873600D03*
%TO.N,AD9523_SDIO*%
X112321100Y-136333600D03*
%TO.N,AD9523_SDO*%
X112321100Y-138873600D03*
%TO.N,AD9523_STATUS0*%
X109781100Y-136333600D03*
%TO.N,AD9523_STATUS1*%
X109781100Y-138873600D03*
%TO.N,AD9523_EEPROM_SEL*%
X107241100Y-136333600D03*
%TO.N,GND*%
X107241100Y-138873600D03*
%TD*%
D12*
%TO.N,N$71*%
%TO.C,X11*%
X126631100Y-151203600D03*
%TO.N,GND*%
X129171100Y-151203600D03*
%TD*%
D10*
%TO.N,GND*%
%TO.C,J6*%
X148751100Y-134193600D03*
X148751100Y-139273600D03*
X153831100Y-139273600D03*
X153831100Y-134193600D03*
%TD*%
D14*
%TO.N,AD9523_OUT5_P*%
%TO.C,J4*%
X177371100Y-114753600D03*
%TO.N,AD9523_OUT5_N*%
X177371100Y-116023600D03*
D15*
%TO.N,N/C*%
X178641100Y-114118600D03*
X178641100Y-116658600D03*
X176101100Y-114118600D03*
X176101100Y-116658600D03*
%TD*%
D12*
%TO.N,N$77*%
%TO.C,X14*%
X141871100Y-59703600D03*
%TO.N,GND*%
X139331100Y-59703600D03*
%TD*%
D10*
%TO.N,GND*%
%TO.C,J13*%
X107631100Y-89633600D03*
X112711100Y-89633600D03*
X112711100Y-84553600D03*
X107631100Y-84553600D03*
%TD*%
D16*
%TO.N,ADF4382_SDO*%
%TO.C,JP2*%
X188321100Y-96643600D03*
%TO.N,ADF4382_SCLK*%
X185781100Y-96643600D03*
%TO.N,ADF4382_SDIO*%
X188321100Y-94103600D03*
%TO.N,ADF4382_TX_CS*%
X185781100Y-94103600D03*
%TO.N,ADF4382_TX_CE*%
X188321100Y-91563600D03*
%TO.N,ADF4382_TX_DELSTR*%
X185781100Y-91563600D03*
%TO.N,ADF4382_TX_DELADJ*%
X188321100Y-89023600D03*
%TO.N,ADF4382_TX_LKDET*%
X185781100Y-89023600D03*
%TO.N,ADF4382_RX_CS*%
X188321100Y-86483600D03*
%TO.N,ADF4382_RX_CE*%
X185781100Y-86483600D03*
%TO.N,ADF4382_RX_DELSTR*%
X188321100Y-83943600D03*
%TO.N,ADF4382_RX_DELADJ*%
X185781100Y-83943600D03*
%TO.N,ADF4382_RX_LKDET*%
X188321100Y-81403600D03*
%TO.N,GND*%
X185781100Y-81403600D03*
%TD*%
D14*
%TO.N,AD9523_OUT4_P*%
%TO.C,J3*%
X177371100Y-107293600D03*
%TO.N,AD9523_OUT4_N*%
X177371100Y-108563600D03*
D15*
%TO.N,N/C*%
X178641100Y-106658600D03*
X178641100Y-109198600D03*
X176101100Y-106658600D03*
X176101100Y-109198600D03*
%TD*%
D17*
%TO.N,GND*%
X144751100Y-89653600D03*
D18*
X152051100Y-70303600D03*
D19*
X130441100Y-90481600D03*
X119491100Y-130031600D03*
D18*
X150831100Y-67103600D03*
X150831100Y-81503600D03*
X145041100Y-83503600D03*
D20*
X161801100Y-100703600D03*
D19*
X168741100Y-133381600D03*
X110891100Y-100531600D03*
D17*
X161956100Y-117678600D03*
D19*
X146391100Y-122831600D03*
X180891100Y-120531600D03*
X148341100Y-60281600D03*
D21*
X154151100Y-114403600D03*
D19*
X168391100Y-75531600D03*
X135641100Y-91981600D03*
X177691100Y-97281600D03*
X135741100Y-106231600D03*
D20*
X146301100Y-100603600D03*
D19*
X135891100Y-140531600D03*
D17*
X147151100Y-114603600D03*
D19*
X138441100Y-133431600D03*
X115141100Y-85431600D03*
X163741100Y-118881600D03*
D17*
X152701100Y-88553600D03*
D19*
X139391100Y-82731600D03*
D17*
X148151100Y-106053600D03*
D19*
X113741100Y-131281600D03*
X177541100Y-85431600D03*
D17*
X146851100Y-94503600D03*
X151051100Y-90253600D03*
D18*
X152051100Y-71103600D03*
X152051100Y-77503600D03*
D21*
X156701100Y-114403600D03*
D22*
X114951100Y-131253600D03*
D19*
X105391100Y-86131600D03*
X106041100Y-82081600D03*
X100891100Y-130531600D03*
X162391100Y-90181600D03*
X110891100Y-140531600D03*
X155941100Y-60031600D03*
X104391100Y-110931600D03*
D21*
X123501100Y-68603600D03*
D18*
X152051100Y-68703600D03*
D19*
X153641100Y-70631600D03*
D18*
X150831100Y-85503600D03*
X172141800Y-82762900D03*
D19*
X130391100Y-80831600D03*
X141641100Y-92081600D03*
X145841100Y-143181600D03*
X110941100Y-66531600D03*
D21*
X169401100Y-66703600D03*
D17*
X149001100Y-91153600D03*
D19*
X170791100Y-105631600D03*
X181041100Y-105431600D03*
D17*
X166451100Y-90003600D03*
D19*
X160891100Y-60531600D03*
D18*
X152051100Y-66303600D03*
D17*
X158901100Y-105803600D03*
D20*
X144901100Y-100553600D03*
X159301100Y-97953600D03*
D19*
X145891100Y-60531600D03*
D17*
X176301100Y-102403600D03*
D19*
X125891100Y-140531600D03*
D20*
X146351100Y-101703600D03*
D17*
X154501100Y-99603600D03*
D20*
X158101100Y-101803600D03*
D18*
X143821100Y-84303600D03*
D17*
X151801100Y-90253600D03*
D19*
X161191100Y-92031600D03*
D17*
X163031100Y-119753600D03*
D19*
X195891100Y-150531600D03*
X123391100Y-115531600D03*
X146591100Y-62281600D03*
X105291100Y-88731600D03*
D21*
X136751100Y-129253600D03*
D18*
X150831100Y-82303600D03*
D19*
X196741100Y-125481600D03*
X178441100Y-131781600D03*
D17*
X151051100Y-90953600D03*
D18*
X150831100Y-73503600D03*
D19*
X140091100Y-91831600D03*
X130941100Y-121231600D03*
X160891100Y-120531600D03*
X147291100Y-91981600D03*
D18*
X169316800Y-85587900D03*
D17*
X143001100Y-86753600D03*
X167201100Y-99403600D03*
D19*
X170891100Y-110531600D03*
X100891100Y-110531600D03*
X164471100Y-128971600D03*
D17*
X139151100Y-99553600D03*
X144751100Y-90353600D03*
X160751100Y-104953600D03*
D19*
X110891100Y-80531600D03*
X166191100Y-153181600D03*
X165891100Y-130531600D03*
X107091100Y-105531600D03*
X120891100Y-130531600D03*
D17*
X159801100Y-114053600D03*
D19*
X175891100Y-130531600D03*
X163741100Y-82381600D03*
X161141100Y-152481600D03*
X138391100Y-85531600D03*
D18*
X145041100Y-81903600D03*
D19*
X151041100Y-59231600D03*
X105891100Y-150531600D03*
X178391100Y-135531600D03*
X145541100Y-76131600D03*
X165491100Y-101431600D03*
X139791100Y-116181600D03*
X163791100Y-123431600D03*
X196641100Y-120331600D03*
D17*
X168051100Y-91803600D03*
D19*
X146491100Y-69181600D03*
X164951100Y-131281600D03*
D17*
X147201100Y-111603600D03*
D19*
X157691100Y-152731600D03*
D18*
X152051100Y-73503600D03*
D19*
X188441100Y-115881600D03*
X191491100Y-95331600D03*
X175891100Y-99781600D03*
X103112540Y-71532450D03*
X140891100Y-120531600D03*
X163731100Y-124511600D03*
X110891100Y-110531600D03*
D21*
X132801100Y-64703600D03*
D19*
X153441100Y-60031600D03*
D17*
X169551100Y-88003600D03*
X146851100Y-103803600D03*
X158701100Y-97153600D03*
D18*
X150831100Y-70303600D03*
X143821100Y-82703600D03*
D19*
X110891100Y-90531600D03*
D17*
X161201100Y-97153600D03*
D19*
X103391100Y-65531600D03*
X108041100Y-134481600D03*
X170891100Y-130531600D03*
X168811100Y-144951600D03*
D17*
X160251100Y-97153600D03*
X141701100Y-97153600D03*
D19*
X133141100Y-142281600D03*
X146541100Y-124181600D03*
X183391100Y-85531600D03*
X141441100Y-117731600D03*
X103795740Y-69821041D03*
X166641100Y-80481600D03*
X178091100Y-127931600D03*
X107341100Y-93731600D03*
X135341100Y-107381600D03*
D18*
X150831100Y-69503600D03*
D19*
X145891100Y-70531600D03*
X103391100Y-115531600D03*
X113391100Y-95531600D03*
X149391100Y-83531600D03*
X175941100Y-86831600D03*
X163641100Y-121181600D03*
D18*
X150831100Y-72703600D03*
D19*
X170891100Y-140531600D03*
D17*
X156351100Y-90553600D03*
D19*
X147341100Y-152791600D03*
X111841059Y-68656247D03*
X145841100Y-138181600D03*
X156841100Y-86081600D03*
X173091100Y-118531600D03*
X163291100Y-75981600D03*
D18*
X143821100Y-85903600D03*
D20*
X147351100Y-101753600D03*
D18*
X158091100Y-83903600D03*
X145041100Y-85103600D03*
D20*
X143651100Y-100503600D03*
D19*
X115891100Y-140531600D03*
D20*
X147451100Y-98053600D03*
D17*
X158351100Y-89653600D03*
X162651100Y-95703600D03*
D19*
X115241100Y-83831600D03*
D20*
X160701100Y-100653600D03*
D19*
X133391100Y-85531600D03*
X112818437Y-75407069D03*
D20*
X158051100Y-97903600D03*
D19*
X176041100Y-92481600D03*
X130391100Y-84831600D03*
D18*
X150831100Y-66303600D03*
D19*
X170616100Y-117606600D03*
D18*
X157921100Y-80633600D03*
D19*
X120891100Y-111581600D03*
X114191100Y-82231600D03*
X145841100Y-133181600D03*
D21*
X147431100Y-143393600D03*
D18*
X171011800Y-83892900D03*
D19*
X173391100Y-105531600D03*
D22*
X112351100Y-131253600D03*
D18*
X170176800Y-86427900D03*
D19*
X166541100Y-141181600D03*
X127541100Y-114531600D03*
D17*
X162031100Y-116053600D03*
D19*
X174341100Y-77381600D03*
X112981584Y-70103622D03*
X139341100Y-74981600D03*
D17*
X151801100Y-90953600D03*
D19*
X158541100Y-152731600D03*
X123391100Y-105531600D03*
X191141100Y-80381600D03*
X104773118Y-76571863D03*
X158891100Y-75231600D03*
D17*
X145901100Y-97103600D03*
X143051100Y-95903600D03*
D22*
X113101100Y-150953600D03*
D19*
X140941100Y-76131600D03*
X151391100Y-152581600D03*
D17*
X157101100Y-87003600D03*
D19*
X146441100Y-125631600D03*
X103055881Y-73374319D03*
X108391100Y-145531600D03*
D18*
X150831100Y-71903600D03*
D21*
X179801100Y-153603600D03*
D19*
X100891100Y-60531600D03*
X140791100Y-138631600D03*
D21*
X154401100Y-117153600D03*
D19*
X178041100Y-90231600D03*
X132241100Y-110081600D03*
D17*
X144351100Y-93403600D03*
D19*
X165191100Y-106131600D03*
D18*
X150731100Y-65473600D03*
D19*
X153541100Y-83331600D03*
X143441100Y-75981600D03*
X155891100Y-153331600D03*
D17*
X146851100Y-116103600D03*
X147051100Y-90503600D03*
D18*
X143821100Y-85103600D03*
D19*
X153541100Y-80631600D03*
D17*
X154951100Y-98053600D03*
D18*
X159311100Y-84703600D03*
D19*
X137091100Y-106081600D03*
X177091100Y-80031600D03*
X141791100Y-122231600D03*
X110891100Y-150531600D03*
X180891100Y-60531600D03*
D17*
X163951100Y-101153600D03*
D18*
X152051100Y-85503600D03*
D19*
X171991100Y-89081600D03*
X103391100Y-145531600D03*
X152741100Y-152531600D03*
X108441100Y-82181600D03*
X156341100Y-67881600D03*
X161141100Y-65581600D03*
D17*
X144051100Y-89653600D03*
D19*
X115691100Y-128531600D03*
D17*
X144051100Y-90353600D03*
D19*
X145841100Y-140681600D03*
X173841100Y-111631600D03*
D17*
X158351100Y-90403600D03*
X150001100Y-88553600D03*
D19*
X153841100Y-76231600D03*
X115891100Y-80531600D03*
X175391100Y-126881600D03*
D18*
X143821100Y-81903600D03*
D21*
X144401100Y-153503600D03*
D19*
X124291100Y-129581600D03*
X170891100Y-60531600D03*
D18*
X150831100Y-71103600D03*
D19*
X162791100Y-89131600D03*
X125941100Y-106431600D03*
X100891100Y-90531600D03*
X141691100Y-86031600D03*
X188491100Y-130781600D03*
D17*
X154051100Y-91153600D03*
D20*
X160601100Y-97953600D03*
D18*
X150831100Y-74303600D03*
X143821100Y-83503600D03*
D21*
X156801100Y-117203600D03*
D19*
X116041100Y-152281600D03*
D18*
X145041100Y-85903600D03*
D19*
X175891100Y-140531600D03*
D17*
X146151100Y-117403600D03*
D18*
X158091100Y-84703600D03*
D17*
X142951100Y-87953600D03*
D20*
X144901100Y-97953600D03*
D19*
X155291100Y-86181600D03*
X150891100Y-80531600D03*
D20*
X161901100Y-99103600D03*
D21*
X186101100Y-64003600D03*
D19*
X147991100Y-86081600D03*
X153191100Y-93481600D03*
X104546512Y-67324644D03*
D17*
X159201100Y-119653600D03*
D19*
X128391100Y-125531600D03*
D18*
X152051100Y-79903600D03*
D19*
X128441100Y-134531600D03*
X153991100Y-86181600D03*
X140641100Y-133231600D03*
X112291100Y-127081600D03*
D17*
X141701100Y-97603600D03*
D21*
X151701100Y-111803600D03*
D20*
X160751100Y-101853600D03*
D19*
X166891100Y-81681600D03*
D21*
X154101100Y-111853600D03*
D19*
X163741100Y-141231600D03*
X139291100Y-141031600D03*
X99891100Y-140531600D03*
X105891100Y-80531600D03*
X146391100Y-126631600D03*
D18*
X150831100Y-75903600D03*
X158091100Y-81503600D03*
D19*
X141131100Y-125331600D03*
D17*
X149601100Y-97153600D03*
X149601100Y-102153600D03*
D19*
X105891100Y-120531600D03*
X131541100Y-128981600D03*
X140491100Y-86181600D03*
X105023075Y-68446507D03*
X190891100Y-130531600D03*
D17*
X161801100Y-113103600D03*
D18*
X159441100Y-80613600D03*
D19*
X115241100Y-92081600D03*
X170891100Y-120531600D03*
D22*
X130501100Y-142053600D03*
D19*
X146391100Y-64681600D03*
X109291100Y-78631600D03*
X166791100Y-84131600D03*
D21*
X168901100Y-153403600D03*
D19*
X141291100Y-115581600D03*
X100891100Y-70531600D03*
X121741100Y-118281600D03*
X169671100Y-145911600D03*
D18*
X152051100Y-80703600D03*
D19*
X149441100Y-80581600D03*
X170141100Y-95481600D03*
X140891100Y-70531600D03*
X163391100Y-65531600D03*
X108143940Y-77917504D03*
X184841100Y-104531600D03*
X101141100Y-125281600D03*
D20*
X158101100Y-99203600D03*
D19*
X156391100Y-63731600D03*
X175191100Y-86331600D03*
D17*
X148051100Y-110053600D03*
D18*
X145041100Y-84303600D03*
D19*
X170091100Y-78181600D03*
X125841100Y-111731600D03*
D17*
X144376100Y-108328600D03*
D19*
X160241100Y-76131600D03*
X195891100Y-90531600D03*
D21*
X167571100Y-143273600D03*
X109001100Y-128103600D03*
D20*
X161851100Y-98003600D03*
D19*
X147991100Y-70331600D03*
X100891100Y-80531600D03*
X131141100Y-129681600D03*
D20*
X159251100Y-101853600D03*
D19*
X105341100Y-90481600D03*
X174591100Y-88381600D03*
D17*
X157501100Y-120003600D03*
D19*
X167641100Y-85081600D03*
X171541100Y-101481600D03*
D17*
X141051100Y-103603600D03*
X162751100Y-98153600D03*
D19*
X106691100Y-129981600D03*
D21*
X151701100Y-114553600D03*
D19*
X163681100Y-125531600D03*
D17*
X157101100Y-87903600D03*
D18*
X168751100Y-86153600D03*
D19*
X162741100Y-152481600D03*
D17*
X145701100Y-88053600D03*
X162701100Y-104703600D03*
D18*
X159311100Y-82303600D03*
X152051100Y-82303600D03*
D19*
X154391100Y-89981600D03*
D20*
X144901100Y-101753600D03*
D18*
X171576800Y-83327900D03*
D20*
X158051100Y-100453600D03*
D17*
X148801100Y-119853600D03*
D20*
X159301100Y-100553600D03*
D19*
X163641100Y-84331600D03*
X110091100Y-130181600D03*
X155141100Y-90681600D03*
X169941100Y-93131600D03*
X139391100Y-78881600D03*
X146591100Y-86031600D03*
X111841100Y-146481600D03*
X195891100Y-130531600D03*
D17*
X146401100Y-115603600D03*
D18*
X150831100Y-78303600D03*
D19*
X149441100Y-77181600D03*
X195891100Y-80281600D03*
X172541100Y-95481600D03*
X136841100Y-134481600D03*
X171421100Y-144321600D03*
X186191100Y-104631600D03*
X170741100Y-122431600D03*
X120891100Y-151331600D03*
D17*
X147201100Y-113103600D03*
X145401100Y-97103600D03*
X164001100Y-102053600D03*
D18*
X159311100Y-81503600D03*
D19*
X130791100Y-106231600D03*
X170691100Y-134331600D03*
X145291100Y-110131600D03*
X103432593Y-75074488D03*
D22*
X114851100Y-143603600D03*
D17*
X152801100Y-86353600D03*
D19*
X160891100Y-70531600D03*
D17*
X152401100Y-103453600D03*
D19*
X128391100Y-105531600D03*
D18*
X150831100Y-83903600D03*
D17*
X159981100Y-115603600D03*
D18*
X152051100Y-69503600D03*
D19*
X159041100Y-65531600D03*
X145381100Y-144511600D03*
X169191100Y-90181600D03*
X144551100Y-145521600D03*
X115891100Y-110531600D03*
X145841100Y-135681600D03*
D18*
X158091100Y-83103600D03*
D20*
X161801100Y-101803600D03*
D18*
X145331100Y-81083600D03*
D19*
X156341100Y-65331600D03*
D17*
X159151100Y-90403600D03*
D18*
X171871800Y-84732900D03*
D19*
X152741100Y-94181600D03*
D17*
X167701100Y-86253600D03*
D19*
X164441100Y-152531600D03*
X193891100Y-85181600D03*
X195891100Y-100531600D03*
D17*
X154751100Y-102653600D03*
D18*
X158091100Y-86303600D03*
D19*
X179641100Y-83431600D03*
X180891100Y-140531600D03*
D18*
X169881800Y-85022900D03*
D17*
X164151100Y-88053600D03*
D18*
X152051100Y-74303600D03*
D19*
X160841100Y-86081600D03*
X104741100Y-116831600D03*
D17*
X154351100Y-98203600D03*
D20*
X146301100Y-98003600D03*
D19*
X134241100Y-117181600D03*
D20*
X143751100Y-101803600D03*
D18*
X152051100Y-78303600D03*
D19*
X197091100Y-105631600D03*
D17*
X144351100Y-97153600D03*
D19*
X185891100Y-60531600D03*
X169681100Y-143661600D03*
D17*
X160501100Y-88053600D03*
D19*
X115291100Y-77931600D03*
X180291100Y-115681600D03*
X115491100Y-75481600D03*
D17*
X156051100Y-97103600D03*
D20*
X147401100Y-100553600D03*
D17*
X166401100Y-88903600D03*
X150051100Y-86353600D03*
X152951100Y-107353600D03*
X159701100Y-97153600D03*
X166601100Y-99153600D03*
D18*
X150831100Y-77503600D03*
D19*
X191641100Y-90531600D03*
X104241100Y-134881600D03*
X115891100Y-100531600D03*
X103391100Y-95531600D03*
X140891100Y-140531600D03*
X127641100Y-122031600D03*
D21*
X134951100Y-141553600D03*
D19*
X142391100Y-109931600D03*
D18*
X152051100Y-67903600D03*
D17*
X142151100Y-90503600D03*
D19*
X119091100Y-134431600D03*
D17*
X147201100Y-118703600D03*
D19*
X106991100Y-92181600D03*
D18*
X152051100Y-84703600D03*
D19*
X156491100Y-69781600D03*
X185991100Y-101031600D03*
X111591100Y-76781600D03*
X116741100Y-105581600D03*
X163791100Y-86631600D03*
X121591100Y-134781600D03*
X175891100Y-60531600D03*
D18*
X159311100Y-83903600D03*
D19*
X185891100Y-110531600D03*
X139291100Y-84981600D03*
X133941100Y-129231600D03*
X115341100Y-89331600D03*
X153391100Y-75531600D03*
X154141100Y-152581600D03*
D21*
X151851100Y-117103600D03*
D19*
X166941100Y-95581600D03*
X163791100Y-114881600D03*
X168941100Y-79781600D03*
X182841100Y-115831600D03*
X102141100Y-76131600D03*
X193391100Y-145531600D03*
D17*
X142701100Y-108278600D03*
X161301100Y-117578600D03*
D19*
X106641100Y-67481600D03*
D17*
X149641100Y-95703600D03*
X159201100Y-103753600D03*
X155901100Y-104103600D03*
D19*
X109967665Y-77653466D03*
X113531100Y-126661600D03*
D18*
X150831100Y-75103600D03*
D19*
X139391100Y-76931600D03*
X180891100Y-80531600D03*
X110274284Y-67686244D03*
D18*
X152051100Y-83103600D03*
D20*
X159251100Y-99203600D03*
D19*
X170841100Y-87981600D03*
X140891100Y-90531600D03*
D17*
X161401100Y-90503600D03*
D21*
X114201100Y-68603600D03*
D18*
X150831100Y-84703600D03*
D19*
X128891100Y-110231600D03*
X130891100Y-70531600D03*
X135891100Y-70531600D03*
X138691100Y-91931600D03*
D17*
X164001100Y-105853600D03*
D19*
X121841100Y-140481600D03*
D17*
X158701100Y-93003600D03*
D19*
X139391100Y-80631600D03*
D17*
X161356100Y-119678600D03*
D19*
X113391100Y-105531600D03*
D18*
X159311100Y-83103600D03*
D20*
X160701100Y-99153600D03*
D19*
X105241100Y-83981600D03*
X133391100Y-105531600D03*
D17*
X156001100Y-120003600D03*
X160351100Y-87003600D03*
D19*
X153791100Y-105981600D03*
X111041100Y-82081600D03*
X170341100Y-101931600D03*
X164381100Y-127821600D03*
X155891100Y-70531600D03*
X147541100Y-76181600D03*
X179941100Y-97331600D03*
X146291100Y-66781600D03*
D18*
X170741800Y-85862900D03*
D17*
X161201100Y-104953600D03*
X140201100Y-93053600D03*
X169151100Y-89203600D03*
D18*
X152051100Y-76703600D03*
D19*
X168541100Y-95231600D03*
X180891100Y-130531600D03*
X118391100Y-115531600D03*
D17*
X145801100Y-86803600D03*
D19*
X164841100Y-141181600D03*
X149341100Y-84981600D03*
D21*
X125001100Y-66603600D03*
D17*
X139751100Y-98053600D03*
D19*
X180741100Y-99831600D03*
D18*
X159311100Y-86303600D03*
D19*
X103391100Y-105531600D03*
X197541100Y-141281600D03*
D17*
X155251100Y-92403600D03*
D19*
X163591100Y-139431600D03*
X100891100Y-120531600D03*
D17*
X151901100Y-100203600D03*
D18*
X150831100Y-68703600D03*
D17*
X105901100Y-94303600D03*
D18*
X152051100Y-83903600D03*
D19*
X172691100Y-75981600D03*
D21*
X120101100Y-128003600D03*
D19*
X138391100Y-125531600D03*
D18*
X158091100Y-82303600D03*
D17*
X148501100Y-103703600D03*
X164151100Y-103453600D03*
X155351100Y-108703600D03*
D18*
X150831100Y-67903600D03*
D17*
X167001100Y-89403600D03*
D19*
X195691100Y-95581600D03*
D17*
X159151100Y-89653600D03*
D19*
X190891100Y-60531600D03*
D17*
X161601100Y-111603600D03*
X166051100Y-89553600D03*
D19*
X145591100Y-118331600D03*
X108470237Y-67310607D03*
D18*
X143501100Y-81083600D03*
X152051100Y-81503600D03*
D19*
X148781100Y-152691600D03*
D17*
X159901100Y-119753600D03*
X144901100Y-112903600D03*
D19*
X148191100Y-90531600D03*
X163641100Y-80581600D03*
D20*
X143651100Y-97953600D03*
D18*
X150831100Y-76703600D03*
D19*
X109891100Y-92131600D03*
D17*
X154451100Y-120003600D03*
X149601100Y-102653600D03*
D19*
X169991100Y-94431600D03*
D18*
X145041100Y-82703600D03*
X171306800Y-85297900D03*
X149481100Y-81553600D03*
D19*
X100891100Y-100531600D03*
X190891100Y-110531600D03*
X183391100Y-135531600D03*
D18*
X152051100Y-67103600D03*
D19*
X134991100Y-80881600D03*
D20*
X146301100Y-99153600D03*
D19*
X192541100Y-100481600D03*
X148391100Y-75531600D03*
X104741100Y-139581600D03*
D17*
X161251100Y-94453600D03*
D21*
X156601100Y-111803600D03*
D20*
X147501100Y-99153600D03*
D19*
X154191100Y-92081600D03*
D18*
X152171100Y-65483600D03*
D19*
X150891100Y-60531600D03*
D17*
X144851100Y-104003600D03*
D19*
X185891100Y-120531600D03*
D17*
X164001100Y-97153600D03*
D19*
X156291100Y-76031600D03*
D18*
X152051100Y-72703600D03*
D20*
X145051100Y-99153600D03*
D19*
X135841100Y-75481600D03*
X142491100Y-116381600D03*
X130541100Y-111481600D03*
D18*
X152051100Y-75103600D03*
D17*
X150551100Y-108653600D03*
X149551100Y-101153600D03*
D23*
X133151100Y-90103600D03*
D19*
X103841100Y-85581600D03*
D17*
X164001100Y-102503600D03*
D19*
X115891100Y-90531600D03*
D17*
X149601100Y-98153600D03*
X157131100Y-105928600D03*
D18*
X159311100Y-85503600D03*
D17*
X146001100Y-120403600D03*
D19*
X171891100Y-137481600D03*
X195891100Y-110531600D03*
X153591100Y-78281600D03*
D18*
X169611100Y-86993600D03*
D19*
X180891100Y-110531600D03*
X111091100Y-128131600D03*
D18*
X150831100Y-79903600D03*
X152051100Y-75903600D03*
D19*
X165891100Y-60531600D03*
D17*
X159701100Y-109603600D03*
D19*
X115891100Y-130531600D03*
X183541100Y-131981600D03*
X185891100Y-130531600D03*
X175891100Y-120531600D03*
D21*
X134001100Y-153603600D03*
D19*
X106339893Y-77541866D03*
D17*
X147301100Y-109253600D03*
D19*
X124591100Y-125681600D03*
D17*
X166701100Y-86703600D03*
D19*
X100841100Y-114481600D03*
X176391100Y-90131600D03*
X138591100Y-90131600D03*
X146391100Y-131981600D03*
X133591100Y-134531600D03*
X149541100Y-78931600D03*
X105891100Y-100531600D03*
D17*
X147201100Y-112603600D03*
D18*
X150831100Y-83103600D03*
X170446800Y-84457900D03*
X150831100Y-79103600D03*
X173171800Y-83722900D03*
D19*
X149691100Y-70481600D03*
D17*
X157151100Y-95903600D03*
D19*
X163971100Y-126621600D03*
D17*
X156501100Y-108703600D03*
D19*
X100891100Y-150531600D03*
X191491100Y-85281600D03*
X195891100Y-60531600D03*
D18*
X152051100Y-71903600D03*
D19*
X141041100Y-123531600D03*
D17*
X161551100Y-115903600D03*
D21*
X119401100Y-58303600D03*
D19*
X183841100Y-109681600D03*
X164891100Y-115431600D03*
X190941100Y-119731600D03*
D17*
X148401100Y-120353600D03*
D20*
X143701100Y-99103600D03*
D18*
X152051100Y-79103600D03*
D19*
X163741100Y-78581600D03*
D18*
X158091100Y-85503600D03*
D19*
X112441100Y-92131600D03*
D18*
X172436800Y-84167900D03*
D21*
X132901100Y-68303600D03*
D19*
X170941100Y-111831600D03*
X147241100Y-106031600D03*
D17*
X146901100Y-97153600D03*
D19*
X168801100Y-130761600D03*
X193391100Y-115881600D03*
D17*
X148801100Y-104653600D03*
D21*
%TO.N,+5V0_LO*%
X169401100Y-68903600D03*
D19*
X167751100Y-95303600D03*
X153476100Y-94228600D03*
D17*
%TO.N,+3V3_LO_1*%
X140301100Y-101153600D03*
X146351100Y-103803600D03*
D21*
X121401100Y-69203600D03*
D17*
X156101100Y-102503600D03*
X158701100Y-103753600D03*
X139351100Y-100603600D03*
X161201100Y-103753600D03*
X144351100Y-104053600D03*
X163801100Y-101613600D03*
X141401100Y-99553600D03*
X155751100Y-99653600D03*
X141551100Y-102703600D03*
X149601100Y-101653600D03*
X154801100Y-101103600D03*
X160701100Y-103753600D03*
%TO.N,+1V8_CLOCK*%
X160001100Y-116053600D03*
X159951100Y-113103600D03*
X159901100Y-110103600D03*
X155451100Y-120003600D03*
X158801100Y-120003600D03*
X154451100Y-108653600D03*
X151351100Y-108653600D03*
D21*
X165911100Y-144693600D03*
D17*
%TO.N,+3V3_CLOCK*%
X148451100Y-116103600D03*
X152951100Y-108753600D03*
X159901100Y-111603600D03*
X149301100Y-119853600D03*
X148301100Y-110553600D03*
X156951100Y-120003600D03*
D21*
X147421100Y-145503600D03*
D17*
X159851100Y-114603600D03*
X153951100Y-120003600D03*
X155951100Y-108653600D03*
X159851100Y-117583600D03*
D19*
%TO.N,OSC_CTRL*%
X144951100Y-113603600D03*
D17*
X132701100Y-140653600D03*
%TO.N,AD9523_STATUS0*%
X157601100Y-108103600D03*
%TO.N,AD9523_PD*%
X145901100Y-123453600D03*
%TO.N,AD9523_REF_SEL*%
X147751100Y-118103600D03*
%TO.N,AD9523_SYNC*%
X146276100Y-119878600D03*
%TO.N,AD9523_RESET*%
X125251100Y-141453600D03*
%TO.N,AD9523_OUT9_N*%
X161878100Y-119703600D03*
X143824100Y-108103600D03*
%TO.N,AD9523_OUT9_P*%
X143214100Y-108103600D03*
X162488100Y-119703600D03*
%TO.N,AD9523_OUT8_N*%
X158308600Y-106053600D03*
X162026100Y-117165600D03*
%TO.N,AD9523_OUT8_P*%
X162026100Y-116555600D03*
X157698600Y-106053600D03*
%TO.N,AD9523_EEPROM_SEL*%
X157151100Y-108503600D03*
%TO.N,AD9523_STATUS1*%
X158401100Y-108703600D03*
X113151100Y-150303600D03*
%TO.N,ADF4382_SCLK*%
X141701100Y-101653600D03*
X155901100Y-101753600D03*
%TO.N,ADF4382_SDIO*%
X156001100Y-101103600D03*
X141701100Y-101153600D03*
%TO.N,ADF4382_TX_CS*%
X141501100Y-100658600D03*
%TO.N,ADF4382_TX_CE*%
X141451100Y-100133600D03*
%TO.N,ADF4382_TX_DELSTR*%
X141201100Y-99018600D03*
%TO.N,ADF4382_TX_DELADJ*%
X141701100Y-98633600D03*
%TO.N,ADF4382_TX_LKDET*%
X141701100Y-98133600D03*
%TO.N,N$51*%
X175711100Y-102963600D03*
X155971100Y-104853600D03*
%TO.N,ADF4382_RX_LKDET*%
X156101100Y-97803600D03*
%TO.N,ADF4382_RX_DELADJ*%
X156051100Y-98633600D03*
%TO.N,ADF4382_RX_DELSTR*%
X155401100Y-99133600D03*
%TO.N,ADF4382_RX_CE*%
X155551100Y-100133600D03*
%TO.N,ADF4382_RX_CS*%
X155851100Y-100588600D03*
%TO.N,ADF4382_SDO*%
X155401100Y-102153600D03*
X141601100Y-102153600D03*
%TO.N,+3V3_LO_2*%
X144351100Y-95053600D03*
D21*
X125901100Y-68403600D03*
D17*
X146851100Y-96053600D03*
X149591100Y-97643600D03*
X149521100Y-96173600D03*
X161201100Y-96053600D03*
X163401100Y-95753600D03*
X164011100Y-100603600D03*
X158701100Y-95053600D03*
X156301100Y-95853600D03*
X149551100Y-100603600D03*
X142461100Y-95943600D03*
X164001100Y-97653600D03*
%TD*%
%TO.N,+5V0_LO*%
D24*
X165526100Y-93678600D02*
X154026100Y-93678600D01*
X153476100Y-94228600D02*
X154026100Y-93678600D01*
X167751100Y-95203600D02*
X167751100Y-95303600D01*
D25*
X165151100Y-68803600D02*
X169301100Y-68803600D01*
X165151100Y-93303600D02*
X165151100Y-68803600D01*
D24*
X167751100Y-95203600D02*
X166226100Y-93678600D01*
X166226100Y-93678600D02*
X165526100Y-93678600D01*
D26*
X169301100Y-68803600D02*
X169401100Y-68903600D01*
D24*
X165151100Y-93303600D02*
X165526100Y-93678600D01*
%TO.N,AD9523_PD*%
D27*
X138721100Y-136333600D02*
X119941100Y-136333600D01*
X145901100Y-123453600D02*
X145901100Y-129153600D01*
X145901100Y-129153600D02*
X138721100Y-136333600D01*
%TO.N,AD9523_REF_SEL*%
X119941100Y-138873600D02*
X138781100Y-138873600D01*
X147751100Y-129903600D02*
X147751100Y-118103600D01*
X138781100Y-138873600D02*
X147751100Y-129903600D01*
%TO.N,AD9523_SYNC*%
X117401100Y-128253600D02*
X125801100Y-119853600D01*
X125801100Y-119853600D02*
X146276100Y-119853600D01*
X117401100Y-136333600D02*
X117401100Y-128253600D01*
X146276100Y-119853600D02*
X146276100Y-119878600D01*
%TO.N,ADF4382_SCLK*%
D28*
X140851100Y-97503600D02*
X141601100Y-96753600D01*
X140851100Y-100803600D02*
X140851100Y-97503600D01*
X148801100Y-98553600D02*
X155301100Y-98553600D01*
X156351100Y-99603600D02*
X156351100Y-101303600D01*
X156351100Y-101303600D02*
X155901100Y-101753600D01*
X141601100Y-96753600D02*
X147001100Y-96753600D01*
X141701100Y-101653600D02*
X140851100Y-100803600D01*
X155301100Y-98553600D02*
X156351100Y-99603600D01*
X147001100Y-96753600D02*
X148801100Y-98553600D01*
%TO.N,ADF4382_TX_CS*%
X140651100Y-102303600D02*
X141401100Y-103053600D01*
X185781100Y-94103600D02*
X175051100Y-94103600D01*
X141501100Y-100703600D02*
X141501100Y-100658600D01*
X140651100Y-97403600D02*
X140651100Y-102303600D01*
X142051100Y-102703600D02*
X142051100Y-101003600D01*
X141701100Y-103053600D02*
X142051100Y-102703600D01*
X141401100Y-103053600D02*
X141701100Y-103053600D01*
X172651100Y-96503600D02*
X141551100Y-96503600D01*
X141551100Y-96503600D02*
X140651100Y-97403600D01*
X142051100Y-101003600D02*
X141751100Y-100703600D01*
X141751100Y-100703600D02*
X141501100Y-100703600D01*
X175051100Y-94103600D02*
X172651100Y-96503600D01*
%TO.N,ADF4382_TX_LKDET*%
X141701100Y-98153600D02*
X141701100Y-98133600D01*
X187601100Y-82653600D02*
X189151100Y-82653600D01*
X142001100Y-98153600D02*
X141701100Y-98153600D01*
X143801100Y-99953600D02*
X142001100Y-98153600D01*
X190451100Y-97303600D02*
X189201100Y-98553600D01*
X187101100Y-87703600D02*
X187101100Y-83153600D01*
X151151100Y-99953600D02*
X143801100Y-99953600D01*
X154251100Y-103053600D02*
X151151100Y-99953600D01*
X179151100Y-98553600D02*
X174651100Y-103053600D01*
X189201100Y-98553600D02*
X179151100Y-98553600D01*
X190451100Y-83953600D02*
X190451100Y-97303600D01*
X174651100Y-103053600D02*
X154251100Y-103053600D01*
X187101100Y-83153600D02*
X187601100Y-82653600D01*
X189151100Y-82653600D02*
X190451100Y-83953600D01*
X185781100Y-89023600D02*
X187101100Y-87703600D01*
%TO.N,ADF4382_RX_DELSTR*%
X189901100Y-85503600D02*
X189901100Y-96953600D01*
X155401100Y-99803600D02*
X155401100Y-99133600D01*
X155051100Y-102303600D02*
X155051100Y-102003600D01*
X161501100Y-102853600D02*
X155601100Y-102853600D01*
X188701100Y-98153600D02*
X165901100Y-98153600D01*
X189901100Y-96953600D02*
X188701100Y-98153600D01*
X155151100Y-100053600D02*
X155401100Y-99803600D01*
X155601100Y-102853600D02*
X155051100Y-102303600D01*
X163601100Y-100753600D02*
X161501100Y-102853600D01*
X155151100Y-101903600D02*
X155151100Y-100053600D01*
X188351100Y-83953600D02*
X189901100Y-85503600D01*
X165901100Y-98153600D02*
X163601100Y-100453600D01*
X155051100Y-102003600D02*
X155151100Y-101903600D01*
X188351100Y-83953600D02*
X188321100Y-83943600D01*
X163601100Y-100453600D02*
X163601100Y-100753600D01*
%TO.N,ADF4382_SDO*%
X162001100Y-101253600D02*
X166001100Y-97253600D01*
X172751100Y-97253600D02*
X174701100Y-95303600D01*
X156001100Y-102153600D02*
X156901100Y-101253600D01*
X188301100Y-96603600D02*
X188321100Y-96643600D01*
X156901100Y-101253600D02*
X162001100Y-101253600D01*
X155401100Y-102153600D02*
X156001100Y-102153600D01*
X166001100Y-97253600D02*
X172751100Y-97253600D01*
X174701100Y-95303600D02*
X186551100Y-95303600D01*
X187851100Y-96603600D02*
X188301100Y-96603600D01*
X186551100Y-95303600D02*
X187851100Y-96603600D01*
%TD*%
%TA.AperFunction,Conductor*%
%TO.N,+1V8_CLOCK*%
G36*
X147100911Y-106357767D02*
G01*
X147101128Y-106356959D01*
X147105812Y-106358214D01*
X147194953Y-106382099D01*
X147194954Y-106382100D01*
X147194956Y-106382100D01*
X147287246Y-106382100D01*
X147287246Y-106382099D01*
X147376388Y-106358214D01*
X147376387Y-106358214D01*
X147381072Y-106356959D01*
X147381288Y-106357767D01*
X147402246Y-106353600D01*
X163077100Y-106353600D01*
X163129426Y-106375274D01*
X163151100Y-106427600D01*
X163151100Y-119404100D01*
X163129426Y-119456426D01*
X163077100Y-119478100D01*
X162976300Y-119478100D01*
X162934358Y-119495473D01*
X162875043Y-119520042D01*
X162875040Y-119520044D01*
X162835838Y-119559246D01*
X162783512Y-119580920D01*
X162731187Y-119559245D01*
X162721986Y-119548035D01*
X162721657Y-119547543D01*
X162721657Y-119547542D01*
X162644158Y-119470043D01*
X162542900Y-119428100D01*
X162433300Y-119428100D01*
X162392399Y-119445042D01*
X162332043Y-119470042D01*
X162254542Y-119547543D01*
X162251467Y-119554968D01*
X162211418Y-119595016D01*
X162154781Y-119595016D01*
X162114733Y-119554968D01*
X162111657Y-119547543D01*
X162111657Y-119547542D01*
X162034158Y-119470043D01*
X161932900Y-119428100D01*
X161823300Y-119428100D01*
X161782399Y-119445042D01*
X161722043Y-119470042D01*
X161722040Y-119470044D01*
X161681925Y-119510159D01*
X161629599Y-119531833D01*
X161577274Y-119510159D01*
X161545215Y-119478100D01*
X161512158Y-119445043D01*
X161410900Y-119403100D01*
X161301300Y-119403100D01*
X161260399Y-119420042D01*
X161200043Y-119445042D01*
X161122542Y-119522543D01*
X161091476Y-119597543D01*
X161080600Y-119623800D01*
X161080600Y-119733400D01*
X161107690Y-119798800D01*
X161121994Y-119833334D01*
X161122543Y-119834658D01*
X161200042Y-119912157D01*
X161301300Y-119954100D01*
X161301301Y-119954100D01*
X161410898Y-119954100D01*
X161410900Y-119954100D01*
X161512158Y-119912157D01*
X161552275Y-119872039D01*
X161604600Y-119850366D01*
X161656924Y-119872039D01*
X161722042Y-119937157D01*
X161823300Y-119979100D01*
X161823301Y-119979100D01*
X161932898Y-119979100D01*
X161932900Y-119979100D01*
X162034158Y-119937157D01*
X162111657Y-119859658D01*
X162114732Y-119852232D01*
X162154780Y-119812183D01*
X162211417Y-119812182D01*
X162251465Y-119852228D01*
X162254543Y-119859658D01*
X162332042Y-119937157D01*
X162433300Y-119979100D01*
X162433301Y-119979100D01*
X162542898Y-119979100D01*
X162542900Y-119979100D01*
X162644158Y-119937157D01*
X162683361Y-119897953D01*
X162735685Y-119876279D01*
X162788011Y-119897953D01*
X162797211Y-119909162D01*
X162797539Y-119909653D01*
X162797542Y-119909656D01*
X162797543Y-119909658D01*
X162875042Y-119987157D01*
X162976300Y-120029100D01*
X162976301Y-120029100D01*
X163077100Y-120029100D01*
X163129426Y-120050774D01*
X163151100Y-120103100D01*
X163151100Y-141853600D01*
X167077100Y-141853600D01*
X167129426Y-141875274D01*
X167151100Y-141927600D01*
X167151100Y-142491792D01*
X167129426Y-142544118D01*
X167118213Y-142553320D01*
X167028943Y-142612969D01*
X166910471Y-142731441D01*
X166817396Y-142870737D01*
X166753284Y-143025517D01*
X166753282Y-143025524D01*
X166720600Y-143189833D01*
X166720600Y-143357366D01*
X166753282Y-143521675D01*
X166753284Y-143521682D01*
X166817396Y-143676462D01*
X166910471Y-143815758D01*
X166910474Y-143815762D01*
X167028938Y-143934226D01*
X167118213Y-143993878D01*
X167149678Y-144040968D01*
X167151100Y-144055405D01*
X167151100Y-152079600D01*
X167129426Y-152131926D01*
X167077100Y-152153600D01*
X162880959Y-152153600D01*
X162861807Y-152151079D01*
X162787244Y-152131100D01*
X162694956Y-152131100D01*
X162620393Y-152151079D01*
X162601241Y-152153600D01*
X161280959Y-152153600D01*
X161261807Y-152151079D01*
X161187244Y-152131100D01*
X161094956Y-152131100D01*
X161020393Y-152151079D01*
X161001241Y-152153600D01*
X154925100Y-152153600D01*
X154872774Y-152131926D01*
X154851100Y-152079600D01*
X154851100Y-142153600D01*
X146425100Y-142153600D01*
X146372774Y-142131926D01*
X146351100Y-142079600D01*
X146351100Y-139175504D01*
X147755100Y-139175504D01*
X147755100Y-139371695D01*
X147793374Y-139564116D01*
X147793377Y-139564126D01*
X147868453Y-139745378D01*
X147868455Y-139745381D01*
X147868456Y-139745383D01*
X147977456Y-139908513D01*
X148116187Y-140047244D01*
X148279317Y-140156244D01*
X148279322Y-140156246D01*
X148279321Y-140156246D01*
X148330110Y-140177283D01*
X148460578Y-140231324D01*
X148653003Y-140269600D01*
X148653005Y-140269600D01*
X148849195Y-140269600D01*
X148849197Y-140269600D01*
X149041622Y-140231324D01*
X149222883Y-140156244D01*
X149386013Y-140047244D01*
X149524744Y-139908513D01*
X149633744Y-139745383D01*
X149708824Y-139564122D01*
X149747100Y-139371697D01*
X149747100Y-139175504D01*
X152835100Y-139175504D01*
X152835100Y-139371695D01*
X152873374Y-139564116D01*
X152873377Y-139564126D01*
X152948453Y-139745378D01*
X152948455Y-139745381D01*
X152948456Y-139745383D01*
X153057456Y-139908513D01*
X153196187Y-140047244D01*
X153359317Y-140156244D01*
X153359322Y-140156246D01*
X153359321Y-140156246D01*
X153410110Y-140177283D01*
X153540578Y-140231324D01*
X153733003Y-140269600D01*
X153733005Y-140269600D01*
X153929195Y-140269600D01*
X153929197Y-140269600D01*
X154121622Y-140231324D01*
X154302883Y-140156244D01*
X154466013Y-140047244D01*
X154604744Y-139908513D01*
X154713744Y-139745383D01*
X154770896Y-139607404D01*
X159525100Y-139607404D01*
X159525100Y-139803595D01*
X159563374Y-139996016D01*
X159563377Y-139996026D01*
X159638453Y-140177278D01*
X159638455Y-140177281D01*
X159638456Y-140177283D01*
X159747456Y-140340413D01*
X159886187Y-140479144D01*
X160049317Y-140588144D01*
X160049322Y-140588146D01*
X160049321Y-140588146D01*
X160163539Y-140635456D01*
X160230578Y-140663224D01*
X160423003Y-140701500D01*
X160423005Y-140701500D01*
X160619195Y-140701500D01*
X160619197Y-140701500D01*
X160811622Y-140663224D01*
X160992883Y-140588144D01*
X161156013Y-140479144D01*
X161294744Y-140340413D01*
X161403744Y-140177283D01*
X161478824Y-139996022D01*
X161517100Y-139803597D01*
X161517100Y-139607403D01*
X161478824Y-139414978D01*
X161460896Y-139371695D01*
X161403746Y-139233721D01*
X161403745Y-139233719D01*
X161403744Y-139233717D01*
X161294744Y-139070587D01*
X161156013Y-138931856D01*
X160992883Y-138822856D01*
X160992879Y-138822854D01*
X160992877Y-138822853D01*
X160992878Y-138822853D01*
X160811626Y-138747777D01*
X160811616Y-138747774D01*
X160682756Y-138722142D01*
X160619197Y-138709500D01*
X160423003Y-138709500D01*
X160368452Y-138720350D01*
X160230583Y-138747774D01*
X160230573Y-138747777D01*
X160049321Y-138822853D01*
X159886187Y-138931855D01*
X159886186Y-138931857D01*
X159747457Y-139070586D01*
X159747455Y-139070587D01*
X159638453Y-139233721D01*
X159563377Y-139414973D01*
X159563374Y-139414983D01*
X159525100Y-139607404D01*
X154770896Y-139607404D01*
X154788824Y-139564122D01*
X154827100Y-139371697D01*
X154827100Y-139175503D01*
X154788824Y-138983078D01*
X154767608Y-138931857D01*
X154713746Y-138801821D01*
X154713745Y-138801819D01*
X154713744Y-138801817D01*
X154604744Y-138638687D01*
X154466013Y-138499956D01*
X154302883Y-138390956D01*
X154302879Y-138390954D01*
X154302877Y-138390953D01*
X154302878Y-138390953D01*
X154121626Y-138315877D01*
X154121616Y-138315874D01*
X153992756Y-138290242D01*
X153929197Y-138277600D01*
X153733003Y-138277600D01*
X153678452Y-138288450D01*
X153540583Y-138315874D01*
X153540573Y-138315877D01*
X153359321Y-138390953D01*
X153196187Y-138499955D01*
X153196186Y-138499957D01*
X153057457Y-138638686D01*
X153057455Y-138638687D01*
X152948453Y-138801821D01*
X152873377Y-138983073D01*
X152873374Y-138983083D01*
X152835100Y-139175504D01*
X149747100Y-139175504D01*
X149747100Y-139175503D01*
X149708824Y-138983078D01*
X149687608Y-138931857D01*
X149633746Y-138801821D01*
X149633745Y-138801819D01*
X149633744Y-138801817D01*
X149524744Y-138638687D01*
X149386013Y-138499956D01*
X149222883Y-138390956D01*
X149222879Y-138390954D01*
X149222877Y-138390953D01*
X149222878Y-138390953D01*
X149041626Y-138315877D01*
X149041616Y-138315874D01*
X148912756Y-138290242D01*
X148849197Y-138277600D01*
X148653003Y-138277600D01*
X148598452Y-138288450D01*
X148460583Y-138315874D01*
X148460573Y-138315877D01*
X148279321Y-138390953D01*
X148116187Y-138499955D01*
X148116186Y-138499957D01*
X147977457Y-138638686D01*
X147977455Y-138638687D01*
X147868453Y-138801821D01*
X147793377Y-138983073D01*
X147793374Y-138983083D01*
X147755100Y-139175504D01*
X146351100Y-139175504D01*
X146351100Y-134095504D01*
X147755100Y-134095504D01*
X147755100Y-134291695D01*
X147793374Y-134484116D01*
X147793377Y-134484126D01*
X147868453Y-134665378D01*
X147868455Y-134665381D01*
X147868456Y-134665383D01*
X147977456Y-134828513D01*
X148116187Y-134967244D01*
X148279317Y-135076244D01*
X148279322Y-135076246D01*
X148279321Y-135076246D01*
X148330110Y-135097283D01*
X148460578Y-135151324D01*
X148653003Y-135189600D01*
X148653005Y-135189600D01*
X148849195Y-135189600D01*
X148849197Y-135189600D01*
X149041622Y-135151324D01*
X149222883Y-135076244D01*
X149386013Y-134967244D01*
X149524744Y-134828513D01*
X149633744Y-134665383D01*
X149708824Y-134484122D01*
X149747100Y-134291697D01*
X149747100Y-134095504D01*
X152835100Y-134095504D01*
X152835100Y-134291695D01*
X152873374Y-134484116D01*
X152873377Y-134484126D01*
X152948453Y-134665378D01*
X152948455Y-134665381D01*
X152948456Y-134665383D01*
X153057456Y-134828513D01*
X153196187Y-134967244D01*
X153359317Y-135076244D01*
X153359322Y-135076246D01*
X153359321Y-135076246D01*
X153410110Y-135097283D01*
X153540578Y-135151324D01*
X153733003Y-135189600D01*
X153733005Y-135189600D01*
X153929195Y-135189600D01*
X153929197Y-135189600D01*
X154121622Y-135151324D01*
X154302883Y-135076244D01*
X154466013Y-134967244D01*
X154604744Y-134828513D01*
X154713744Y-134665383D01*
X154770896Y-134527404D01*
X159525100Y-134527404D01*
X159525100Y-134723595D01*
X159563374Y-134916016D01*
X159563377Y-134916026D01*
X159638453Y-135097278D01*
X159638455Y-135097281D01*
X159638456Y-135097283D01*
X159747456Y-135260413D01*
X159886187Y-135399144D01*
X160049317Y-135508144D01*
X160049322Y-135508146D01*
X160049321Y-135508146D01*
X160230573Y-135583222D01*
X160230578Y-135583224D01*
X160423003Y-135621500D01*
X160423005Y-135621500D01*
X160619195Y-135621500D01*
X160619197Y-135621500D01*
X160811622Y-135583224D01*
X160992883Y-135508144D01*
X161156013Y-135399144D01*
X161294744Y-135260413D01*
X161403744Y-135097283D01*
X161478824Y-134916022D01*
X161517100Y-134723597D01*
X161517100Y-134527403D01*
X161478824Y-134334978D01*
X161403744Y-134153717D01*
X161294744Y-133990587D01*
X161156013Y-133851856D01*
X160992883Y-133742856D01*
X160992879Y-133742854D01*
X160992877Y-133742853D01*
X160992878Y-133742853D01*
X160811626Y-133667777D01*
X160811616Y-133667774D01*
X160682756Y-133642142D01*
X160619197Y-133629500D01*
X160423003Y-133629500D01*
X160368452Y-133640350D01*
X160230583Y-133667774D01*
X160230573Y-133667777D01*
X160049321Y-133742853D01*
X159886187Y-133851855D01*
X159886186Y-133851857D01*
X159747457Y-133990586D01*
X159747455Y-133990587D01*
X159638453Y-134153721D01*
X159563377Y-134334973D01*
X159563374Y-134334983D01*
X159525100Y-134527404D01*
X154770896Y-134527404D01*
X154788824Y-134484122D01*
X154827100Y-134291697D01*
X154827100Y-134095503D01*
X154788824Y-133903078D01*
X154767608Y-133851857D01*
X154713746Y-133721821D01*
X154713745Y-133721819D01*
X154713744Y-133721817D01*
X154604744Y-133558687D01*
X154466013Y-133419956D01*
X154302883Y-133310956D01*
X154302879Y-133310954D01*
X154302877Y-133310953D01*
X154302878Y-133310953D01*
X154121626Y-133235877D01*
X154121616Y-133235874D01*
X153992756Y-133210242D01*
X153929197Y-133197600D01*
X153733003Y-133197600D01*
X153678452Y-133208450D01*
X153540583Y-133235874D01*
X153540573Y-133235877D01*
X153359321Y-133310953D01*
X153196187Y-133419955D01*
X153196186Y-133419957D01*
X153057457Y-133558686D01*
X153057455Y-133558687D01*
X152948453Y-133721821D01*
X152873377Y-133903073D01*
X152873374Y-133903083D01*
X152835100Y-134095504D01*
X149747100Y-134095504D01*
X149747100Y-134095503D01*
X149708824Y-133903078D01*
X149687608Y-133851857D01*
X149633746Y-133721821D01*
X149633745Y-133721819D01*
X149633744Y-133721817D01*
X149524744Y-133558687D01*
X149386013Y-133419956D01*
X149222883Y-133310956D01*
X149222879Y-133310954D01*
X149222877Y-133310953D01*
X149222878Y-133310953D01*
X149041626Y-133235877D01*
X149041616Y-133235874D01*
X148912756Y-133210242D01*
X148849197Y-133197600D01*
X148653003Y-133197600D01*
X148598452Y-133208450D01*
X148460583Y-133235874D01*
X148460573Y-133235877D01*
X148279321Y-133310953D01*
X148116187Y-133419955D01*
X148116186Y-133419957D01*
X147977457Y-133558686D01*
X147977455Y-133558687D01*
X147868453Y-133721821D01*
X147793377Y-133903073D01*
X147793374Y-133903083D01*
X147755100Y-134095504D01*
X146351100Y-134095504D01*
X146351100Y-132406100D01*
X146372774Y-132353774D01*
X146425100Y-132332100D01*
X146437246Y-132332100D01*
X146437246Y-132332099D01*
X146526388Y-132308214D01*
X146606312Y-132262069D01*
X146671569Y-132196812D01*
X146717714Y-132116888D01*
X146741599Y-132027746D01*
X146741600Y-132027746D01*
X146741600Y-131935454D01*
X146741599Y-131935453D01*
X146717715Y-131846315D01*
X146717713Y-131846310D01*
X146671571Y-131766391D01*
X146671570Y-131766390D01*
X146671569Y-131766388D01*
X146606312Y-131701131D01*
X146606309Y-131701129D01*
X146606308Y-131701128D01*
X146526389Y-131654986D01*
X146526384Y-131654984D01*
X146432559Y-131629844D01*
X146433160Y-131627599D01*
X146390759Y-131603110D01*
X146376109Y-131548400D01*
X146397146Y-131505747D01*
X147899882Y-130003013D01*
X147926601Y-129938509D01*
X147926601Y-129868691D01*
X147926601Y-129862733D01*
X147926600Y-129862719D01*
X147926600Y-120298800D01*
X148125600Y-120298800D01*
X148125600Y-120408400D01*
X148167543Y-120509658D01*
X148245042Y-120587157D01*
X148346300Y-120629100D01*
X148346301Y-120629100D01*
X148455898Y-120629100D01*
X148455900Y-120629100D01*
X148557158Y-120587157D01*
X148634657Y-120509658D01*
X148644683Y-120485453D01*
X160540600Y-120485453D01*
X160540600Y-120577746D01*
X160564484Y-120666884D01*
X160564486Y-120666889D01*
X160610628Y-120746808D01*
X160610629Y-120746809D01*
X160610631Y-120746812D01*
X160675888Y-120812069D01*
X160755812Y-120858214D01*
X160755813Y-120858214D01*
X160755815Y-120858215D01*
X160800384Y-120870157D01*
X160844953Y-120882099D01*
X160844954Y-120882100D01*
X160844956Y-120882100D01*
X160937246Y-120882100D01*
X160937246Y-120882099D01*
X161026388Y-120858214D01*
X161106312Y-120812069D01*
X161171569Y-120746812D01*
X161217714Y-120666888D01*
X161241599Y-120577746D01*
X161241600Y-120577746D01*
X161241600Y-120485454D01*
X161241599Y-120485453D01*
X161217715Y-120396315D01*
X161217713Y-120396310D01*
X161171571Y-120316391D01*
X161171570Y-120316390D01*
X161171569Y-120316388D01*
X161106312Y-120251131D01*
X161106309Y-120251129D01*
X161106308Y-120251128D01*
X161026389Y-120204986D01*
X161026384Y-120204984D01*
X160937246Y-120181100D01*
X160937244Y-120181100D01*
X160844956Y-120181100D01*
X160844954Y-120181100D01*
X160755815Y-120204984D01*
X160755810Y-120204986D01*
X160675891Y-120251128D01*
X160610628Y-120316391D01*
X160564486Y-120396310D01*
X160564484Y-120396315D01*
X160540600Y-120485453D01*
X148644683Y-120485453D01*
X148676600Y-120408400D01*
X148676600Y-120298800D01*
X148645681Y-120224155D01*
X148645681Y-120167519D01*
X148685729Y-120127470D01*
X148742365Y-120127470D01*
X148746300Y-120129100D01*
X148746302Y-120129100D01*
X148855898Y-120129100D01*
X148855900Y-120129100D01*
X148957158Y-120087157D01*
X148998775Y-120045539D01*
X149051100Y-120023866D01*
X149103424Y-120045539D01*
X149145042Y-120087157D01*
X149246300Y-120129100D01*
X149246301Y-120129100D01*
X149355898Y-120129100D01*
X149355900Y-120129100D01*
X149457158Y-120087157D01*
X149534657Y-120009658D01*
X149559866Y-119948800D01*
X153675600Y-119948800D01*
X153675600Y-120058400D01*
X153717543Y-120159658D01*
X153795042Y-120237157D01*
X153896300Y-120279100D01*
X153896301Y-120279100D01*
X154005898Y-120279100D01*
X154005900Y-120279100D01*
X154107158Y-120237157D01*
X154148775Y-120195539D01*
X154201100Y-120173866D01*
X154253424Y-120195539D01*
X154295042Y-120237157D01*
X154396300Y-120279100D01*
X154396301Y-120279100D01*
X154505898Y-120279100D01*
X154505900Y-120279100D01*
X154607158Y-120237157D01*
X154684657Y-120159658D01*
X154726600Y-120058400D01*
X154726600Y-119948800D01*
X155725600Y-119948800D01*
X155725600Y-120058400D01*
X155767543Y-120159658D01*
X155845042Y-120237157D01*
X155946300Y-120279100D01*
X155946301Y-120279100D01*
X156055898Y-120279100D01*
X156055900Y-120279100D01*
X156157158Y-120237157D01*
X156234657Y-120159658D01*
X156276600Y-120058400D01*
X156276600Y-119948800D01*
X156675600Y-119948800D01*
X156675600Y-120058400D01*
X156717543Y-120159658D01*
X156795042Y-120237157D01*
X156896300Y-120279100D01*
X156896301Y-120279100D01*
X157005898Y-120279100D01*
X157005900Y-120279100D01*
X157107158Y-120237157D01*
X157173775Y-120170539D01*
X157226100Y-120148866D01*
X157278424Y-120170539D01*
X157345042Y-120237157D01*
X157446300Y-120279100D01*
X157446301Y-120279100D01*
X157555898Y-120279100D01*
X157555900Y-120279100D01*
X157657158Y-120237157D01*
X157734657Y-120159658D01*
X157776600Y-120058400D01*
X157776600Y-119948800D01*
X157734657Y-119847542D01*
X157657158Y-119770043D01*
X157555900Y-119728100D01*
X157446300Y-119728100D01*
X157404358Y-119745473D01*
X157345043Y-119770042D01*
X157345042Y-119770042D01*
X157345042Y-119770043D01*
X157278424Y-119836660D01*
X157226100Y-119858334D01*
X157173775Y-119836660D01*
X157107158Y-119770043D01*
X157005900Y-119728100D01*
X156896300Y-119728100D01*
X156854358Y-119745473D01*
X156795043Y-119770042D01*
X156717542Y-119847543D01*
X156690349Y-119913193D01*
X156675600Y-119948800D01*
X156276600Y-119948800D01*
X156234657Y-119847542D01*
X156157158Y-119770043D01*
X156055900Y-119728100D01*
X155946300Y-119728100D01*
X155904358Y-119745473D01*
X155845043Y-119770042D01*
X155767542Y-119847543D01*
X155740349Y-119913193D01*
X155725600Y-119948800D01*
X154726600Y-119948800D01*
X154684657Y-119847542D01*
X154607158Y-119770043D01*
X154505900Y-119728100D01*
X154396300Y-119728100D01*
X154354358Y-119745473D01*
X154295043Y-119770042D01*
X154295042Y-119770042D01*
X154295042Y-119770043D01*
X154253424Y-119811660D01*
X154201100Y-119833334D01*
X154148775Y-119811660D01*
X154107158Y-119770043D01*
X154005900Y-119728100D01*
X153896300Y-119728100D01*
X153854358Y-119745473D01*
X153795043Y-119770042D01*
X153717542Y-119847543D01*
X153690349Y-119913193D01*
X153675600Y-119948800D01*
X149559866Y-119948800D01*
X149576600Y-119908400D01*
X149576600Y-119798800D01*
X149534657Y-119697542D01*
X149457158Y-119620043D01*
X149405874Y-119598800D01*
X158925600Y-119598800D01*
X158925600Y-119708400D01*
X158967543Y-119809658D01*
X159045042Y-119887157D01*
X159146300Y-119929100D01*
X159146301Y-119929100D01*
X159255898Y-119929100D01*
X159255900Y-119929100D01*
X159357158Y-119887157D01*
X159434657Y-119809658D01*
X159476600Y-119708400D01*
X159476600Y-119698800D01*
X159625600Y-119698800D01*
X159625600Y-119808400D01*
X159646284Y-119858334D01*
X159667337Y-119909162D01*
X159667543Y-119909658D01*
X159745042Y-119987157D01*
X159846300Y-120029100D01*
X159846301Y-120029100D01*
X159955898Y-120029100D01*
X159955900Y-120029100D01*
X160057158Y-119987157D01*
X160134657Y-119909658D01*
X160176600Y-119808400D01*
X160176600Y-119698800D01*
X160134657Y-119597542D01*
X160057158Y-119520043D01*
X159955900Y-119478100D01*
X159846300Y-119478100D01*
X159804358Y-119495473D01*
X159745043Y-119520042D01*
X159667542Y-119597543D01*
X159647867Y-119645043D01*
X159625600Y-119698800D01*
X159476600Y-119698800D01*
X159476600Y-119598800D01*
X159434657Y-119497542D01*
X159357158Y-119420043D01*
X159255900Y-119378100D01*
X159146300Y-119378100D01*
X159104358Y-119395473D01*
X159045043Y-119420042D01*
X158967542Y-119497543D01*
X158946628Y-119548035D01*
X158925600Y-119598800D01*
X149405874Y-119598800D01*
X149355900Y-119578100D01*
X149246300Y-119578100D01*
X149205462Y-119595016D01*
X149145043Y-119620042D01*
X149145042Y-119620042D01*
X149145042Y-119620043D01*
X149103424Y-119661660D01*
X149051100Y-119683334D01*
X148998775Y-119661660D01*
X148957158Y-119620043D01*
X148855900Y-119578100D01*
X148746300Y-119578100D01*
X148705462Y-119595016D01*
X148645043Y-119620042D01*
X148567542Y-119697543D01*
X148525600Y-119798800D01*
X148525600Y-119908401D01*
X148556518Y-119983044D01*
X148556518Y-120039681D01*
X148516469Y-120079729D01*
X148459833Y-120079729D01*
X148455900Y-120078100D01*
X148346300Y-120078100D01*
X148324435Y-120087157D01*
X148245043Y-120120042D01*
X148167542Y-120197543D01*
X148145345Y-120251131D01*
X148125600Y-120298800D01*
X147926600Y-120298800D01*
X147926600Y-118348366D01*
X147948273Y-118296041D01*
X147984657Y-118259658D01*
X148026600Y-118158400D01*
X148026600Y-118048800D01*
X147984657Y-117947542D01*
X147907158Y-117870043D01*
X147805900Y-117828100D01*
X147696300Y-117828100D01*
X147680473Y-117834656D01*
X147595043Y-117870042D01*
X147517542Y-117947543D01*
X147475600Y-118048800D01*
X147475600Y-118158400D01*
X147517543Y-118259658D01*
X147553926Y-118296041D01*
X147575600Y-118348366D01*
X147575600Y-118515785D01*
X147553926Y-118568111D01*
X147501600Y-118589785D01*
X147449274Y-118568111D01*
X147439311Y-118553201D01*
X147438708Y-118553605D01*
X147434657Y-118547543D01*
X147434657Y-118547542D01*
X147357158Y-118470043D01*
X147349541Y-118466888D01*
X147327500Y-118457758D01*
X147255900Y-118428100D01*
X147146300Y-118428100D01*
X147104358Y-118445473D01*
X147045043Y-118470042D01*
X146967542Y-118547543D01*
X146925600Y-118648800D01*
X146925600Y-118758399D01*
X146965031Y-118853595D01*
X146967543Y-118859658D01*
X147045042Y-118937157D01*
X147146300Y-118979100D01*
X147146301Y-118979100D01*
X147255898Y-118979100D01*
X147255900Y-118979100D01*
X147357158Y-118937157D01*
X147434657Y-118859658D01*
X147434659Y-118859652D01*
X147438708Y-118853595D01*
X147441121Y-118855208D01*
X147473277Y-118823049D01*
X147529914Y-118823045D01*
X147569965Y-118863091D01*
X147575600Y-118891414D01*
X147575600Y-129800253D01*
X147553926Y-129852579D01*
X146477426Y-130929079D01*
X146425100Y-130950753D01*
X146372774Y-130929079D01*
X146351100Y-130876753D01*
X146351100Y-127056100D01*
X146372774Y-127003774D01*
X146425100Y-126982100D01*
X146437246Y-126982100D01*
X146437246Y-126982099D01*
X146526388Y-126958214D01*
X146606312Y-126912069D01*
X146671569Y-126846812D01*
X146717714Y-126766888D01*
X146741599Y-126677746D01*
X146741600Y-126677746D01*
X146741600Y-126585454D01*
X146741599Y-126585453D01*
X146738920Y-126575456D01*
X146717714Y-126496312D01*
X146717713Y-126496310D01*
X146671571Y-126416391D01*
X146671570Y-126416390D01*
X146671569Y-126416388D01*
X146606312Y-126351131D01*
X146606309Y-126351129D01*
X146606308Y-126351128D01*
X146526389Y-126304986D01*
X146526384Y-126304984D01*
X146437246Y-126281100D01*
X146437244Y-126281100D01*
X146425100Y-126281100D01*
X146372774Y-126259426D01*
X146351100Y-126207100D01*
X146351100Y-126056100D01*
X146372774Y-126003774D01*
X146425100Y-125982100D01*
X146487246Y-125982100D01*
X146487246Y-125982099D01*
X146576388Y-125958214D01*
X146656312Y-125912069D01*
X146721569Y-125846812D01*
X146767714Y-125766888D01*
X146791599Y-125677746D01*
X146791600Y-125677746D01*
X146791600Y-125585454D01*
X146791599Y-125585453D01*
X146789533Y-125577744D01*
X146767714Y-125496312D01*
X146721569Y-125416388D01*
X146656312Y-125351131D01*
X146656309Y-125351129D01*
X146656308Y-125351128D01*
X146576389Y-125304986D01*
X146576384Y-125304984D01*
X146487246Y-125281100D01*
X146487244Y-125281100D01*
X146425100Y-125281100D01*
X146372774Y-125259426D01*
X146351100Y-125207100D01*
X146351100Y-124589992D01*
X146372774Y-124537666D01*
X146425100Y-124515992D01*
X146444250Y-124518513D01*
X146476688Y-124527205D01*
X146494955Y-124532100D01*
X146494956Y-124532100D01*
X146587246Y-124532100D01*
X146587246Y-124532099D01*
X146676388Y-124508214D01*
X146756312Y-124462069D01*
X146821569Y-124396812D01*
X146867714Y-124316888D01*
X146891599Y-124227746D01*
X146891600Y-124227746D01*
X146891600Y-124135454D01*
X146891599Y-124135453D01*
X146867715Y-124046315D01*
X146867713Y-124046310D01*
X146821571Y-123966391D01*
X146821570Y-123966390D01*
X146821569Y-123966388D01*
X146756312Y-123901131D01*
X146756309Y-123901129D01*
X146756308Y-123901128D01*
X146676389Y-123854986D01*
X146676384Y-123854984D01*
X146587246Y-123831100D01*
X146587244Y-123831100D01*
X146494956Y-123831100D01*
X146444252Y-123844686D01*
X146388100Y-123837293D01*
X146353621Y-123792359D01*
X146351100Y-123773207D01*
X146351100Y-123256100D01*
X146372774Y-123203774D01*
X146425100Y-123182100D01*
X146437246Y-123182100D01*
X146437246Y-123182099D01*
X146526388Y-123158214D01*
X146606312Y-123112069D01*
X146671569Y-123046812D01*
X146717714Y-122966888D01*
X146741599Y-122877746D01*
X146741600Y-122877746D01*
X146741600Y-122785454D01*
X146741599Y-122785453D01*
X146717715Y-122696315D01*
X146717713Y-122696310D01*
X146671571Y-122616391D01*
X146671570Y-122616390D01*
X146671569Y-122616388D01*
X146606312Y-122551131D01*
X146606309Y-122551129D01*
X146606308Y-122551128D01*
X146526389Y-122504986D01*
X146526384Y-122504984D01*
X146437246Y-122481100D01*
X146437244Y-122481100D01*
X146425100Y-122481100D01*
X146372774Y-122459426D01*
X146351100Y-122407100D01*
X146351100Y-120195177D01*
X146372774Y-120142851D01*
X146396780Y-120126811D01*
X146432158Y-120112157D01*
X146509657Y-120034658D01*
X146551600Y-119933400D01*
X146551600Y-119823800D01*
X146509657Y-119722542D01*
X146432158Y-119645043D01*
X146396781Y-119630389D01*
X146356733Y-119590340D01*
X146351100Y-119562022D01*
X146351100Y-117623866D01*
X146372773Y-117571541D01*
X146384657Y-117559658D01*
X146426600Y-117458400D01*
X146426600Y-117348800D01*
X146384657Y-117247542D01*
X146384654Y-117247539D01*
X146372773Y-117235657D01*
X146351100Y-117183333D01*
X146351100Y-117019833D01*
X151000600Y-117019833D01*
X151000600Y-117187366D01*
X151033282Y-117351675D01*
X151033284Y-117351682D01*
X151097396Y-117506462D01*
X151182213Y-117633399D01*
X151190474Y-117645762D01*
X151308938Y-117764226D01*
X151448237Y-117857303D01*
X151603018Y-117921416D01*
X151767333Y-117954100D01*
X151767334Y-117954100D01*
X151934866Y-117954100D01*
X151934867Y-117954100D01*
X152099182Y-117921416D01*
X152253963Y-117857303D01*
X152393262Y-117764226D01*
X152511726Y-117645762D01*
X152604803Y-117506463D01*
X152668916Y-117351682D01*
X152701600Y-117187367D01*
X152701600Y-117069833D01*
X153550600Y-117069833D01*
X153550600Y-117237366D01*
X153583282Y-117401675D01*
X153583284Y-117401682D01*
X153647396Y-117556462D01*
X153730975Y-117681546D01*
X153740474Y-117695762D01*
X153858938Y-117814226D01*
X153998237Y-117907303D01*
X154153018Y-117971416D01*
X154317333Y-118004100D01*
X154317334Y-118004100D01*
X154484866Y-118004100D01*
X154484867Y-118004100D01*
X154649182Y-117971416D01*
X154803963Y-117907303D01*
X154943262Y-117814226D01*
X155061726Y-117695762D01*
X155154803Y-117556463D01*
X155218916Y-117401682D01*
X155251600Y-117237367D01*
X155251600Y-117119833D01*
X155950600Y-117119833D01*
X155950600Y-117287367D01*
X155954724Y-117308100D01*
X155983282Y-117451675D01*
X155983284Y-117451682D01*
X156047396Y-117606462D01*
X156136394Y-117739656D01*
X156140474Y-117745762D01*
X156258938Y-117864226D01*
X156398237Y-117957303D01*
X156553018Y-118021416D01*
X156717333Y-118054100D01*
X156717334Y-118054100D01*
X156884866Y-118054100D01*
X156884867Y-118054100D01*
X157049182Y-118021416D01*
X157203963Y-117957303D01*
X157343262Y-117864226D01*
X157461726Y-117745762D01*
X157554803Y-117606463D01*
X157586972Y-117528800D01*
X159575600Y-117528800D01*
X159575600Y-117638400D01*
X159605258Y-117710000D01*
X159614140Y-117731444D01*
X159617543Y-117739658D01*
X159695042Y-117817157D01*
X159796300Y-117859100D01*
X159796301Y-117859100D01*
X159905898Y-117859100D01*
X159905900Y-117859100D01*
X160007158Y-117817157D01*
X160084657Y-117739658D01*
X160126600Y-117638400D01*
X160126600Y-117528800D01*
X160124529Y-117523800D01*
X161025600Y-117523800D01*
X161025600Y-117633400D01*
X161067543Y-117734658D01*
X161145042Y-117812157D01*
X161246300Y-117854100D01*
X161246301Y-117854100D01*
X161355898Y-117854100D01*
X161355900Y-117854100D01*
X161457158Y-117812157D01*
X161534657Y-117734658D01*
X161540068Y-117721595D01*
X161580116Y-117681546D01*
X161636753Y-117681546D01*
X161676802Y-117721594D01*
X161679790Y-117731444D01*
X161680600Y-117733399D01*
X161680600Y-117733400D01*
X161683192Y-117739658D01*
X161719826Y-117828100D01*
X161722543Y-117834658D01*
X161800042Y-117912157D01*
X161901300Y-117954100D01*
X161901301Y-117954100D01*
X162010898Y-117954100D01*
X162010900Y-117954100D01*
X162112158Y-117912157D01*
X162189657Y-117834658D01*
X162231600Y-117733400D01*
X162231600Y-117623800D01*
X162189657Y-117522542D01*
X162176447Y-117509332D01*
X162154774Y-117457008D01*
X162176448Y-117404682D01*
X162177476Y-117403838D01*
X162182156Y-117399157D01*
X162182158Y-117399157D01*
X162259657Y-117321658D01*
X162301600Y-117220400D01*
X162301600Y-117110800D01*
X162259657Y-117009542D01*
X162182158Y-116932043D01*
X162174732Y-116928967D01*
X162134683Y-116888920D01*
X162134682Y-116832283D01*
X162174728Y-116792234D01*
X162182158Y-116789157D01*
X162259657Y-116711658D01*
X162301600Y-116610400D01*
X162301600Y-116500800D01*
X162259657Y-116399542D01*
X162219539Y-116359424D01*
X162197866Y-116307100D01*
X162219539Y-116254775D01*
X162264657Y-116209658D01*
X162306600Y-116108400D01*
X162306600Y-115998800D01*
X162264657Y-115897542D01*
X162187158Y-115820043D01*
X162085900Y-115778100D01*
X161976300Y-115778100D01*
X161891893Y-115813062D01*
X161835256Y-115813062D01*
X161795208Y-115773014D01*
X161794947Y-115772384D01*
X161784657Y-115747542D01*
X161707158Y-115670043D01*
X161605900Y-115628100D01*
X161496300Y-115628100D01*
X161454358Y-115645473D01*
X161395043Y-115670042D01*
X161317542Y-115747543D01*
X161313193Y-115758043D01*
X161275600Y-115848800D01*
X161275600Y-115958400D01*
X161317543Y-116059658D01*
X161395042Y-116137157D01*
X161496300Y-116179100D01*
X161496301Y-116179100D01*
X161605898Y-116179100D01*
X161605900Y-116179100D01*
X161690307Y-116144137D01*
X161746942Y-116144137D01*
X161777979Y-116168311D01*
X161783472Y-116175689D01*
X161797543Y-116209658D01*
X161841470Y-116253585D01*
X161844688Y-116257907D01*
X161850401Y-116280539D01*
X161859333Y-116302101D01*
X161857166Y-116307331D01*
X161858552Y-116312821D01*
X161846590Y-116332862D01*
X161837659Y-116354425D01*
X161792544Y-116399540D01*
X161792542Y-116399543D01*
X161771685Y-116449896D01*
X161750600Y-116500800D01*
X161750600Y-116610400D01*
X161792543Y-116711658D01*
X161870042Y-116789157D01*
X161877313Y-116792169D01*
X161877468Y-116792233D01*
X161917516Y-116832282D01*
X161917516Y-116888919D01*
X161877468Y-116928967D01*
X161870043Y-116932042D01*
X161792542Y-117009543D01*
X161788280Y-117019833D01*
X161750600Y-117110800D01*
X161750600Y-117220400D01*
X161792543Y-117321658D01*
X161805752Y-117334867D01*
X161827426Y-117387192D01*
X161805752Y-117439518D01*
X161804722Y-117440363D01*
X161722541Y-117522544D01*
X161717130Y-117535608D01*
X161677079Y-117575655D01*
X161620442Y-117575652D01*
X161580395Y-117535601D01*
X161577409Y-117525756D01*
X161576600Y-117523802D01*
X161576600Y-117523800D01*
X161534657Y-117422542D01*
X161457158Y-117345043D01*
X161355900Y-117303100D01*
X161246300Y-117303100D01*
X161204358Y-117320473D01*
X161145043Y-117345042D01*
X161067542Y-117422543D01*
X161052690Y-117458399D01*
X161025600Y-117523800D01*
X160124529Y-117523800D01*
X160084657Y-117427542D01*
X160007158Y-117350043D01*
X160004157Y-117348800D01*
X159938631Y-117321658D01*
X159905900Y-117308100D01*
X159796300Y-117308100D01*
X159763569Y-117321658D01*
X159695043Y-117350042D01*
X159617542Y-117427543D01*
X159604761Y-117458399D01*
X159575600Y-117528800D01*
X157586972Y-117528800D01*
X157618916Y-117451682D01*
X157651600Y-117287367D01*
X157651600Y-117119833D01*
X157618916Y-116955518D01*
X157554803Y-116800737D01*
X157461726Y-116661438D01*
X157343262Y-116542974D01*
X157343258Y-116542971D01*
X157203962Y-116449896D01*
X157049182Y-116385784D01*
X157049175Y-116385782D01*
X156916670Y-116359426D01*
X156884867Y-116353100D01*
X156717333Y-116353100D01*
X156685530Y-116359426D01*
X156553024Y-116385782D01*
X156553017Y-116385784D01*
X156398237Y-116449896D01*
X156258941Y-116542971D01*
X156140471Y-116661441D01*
X156047396Y-116800737D01*
X155983284Y-116955517D01*
X155983282Y-116955524D01*
X155952397Y-117110800D01*
X155950600Y-117119833D01*
X155251600Y-117119833D01*
X155251600Y-117069833D01*
X155218916Y-116905518D01*
X155154803Y-116750737D01*
X155061726Y-116611438D01*
X154943262Y-116492974D01*
X154878793Y-116449897D01*
X154803962Y-116399896D01*
X154649182Y-116335784D01*
X154649175Y-116335782D01*
X154525388Y-116311160D01*
X154484867Y-116303100D01*
X154317333Y-116303100D01*
X154296062Y-116307331D01*
X154153024Y-116335782D01*
X154153017Y-116335784D01*
X153998237Y-116399896D01*
X153858941Y-116492971D01*
X153740471Y-116611441D01*
X153647396Y-116750737D01*
X153583284Y-116905517D01*
X153583282Y-116905524D01*
X153550600Y-117069833D01*
X152701600Y-117069833D01*
X152701600Y-117019833D01*
X152668916Y-116855518D01*
X152604803Y-116700737D01*
X152511726Y-116561438D01*
X152393262Y-116442974D01*
X152328793Y-116399897D01*
X152253962Y-116349896D01*
X152099182Y-116285784D01*
X152099175Y-116285782D01*
X151975388Y-116261160D01*
X151934867Y-116253100D01*
X151767333Y-116253100D01*
X151734828Y-116259565D01*
X151603024Y-116285782D01*
X151603017Y-116285784D01*
X151448237Y-116349896D01*
X151308941Y-116442971D01*
X151190471Y-116561441D01*
X151097396Y-116700737D01*
X151033284Y-116855517D01*
X151033282Y-116855524D01*
X151000600Y-117019833D01*
X146351100Y-117019833D01*
X146351100Y-115953100D01*
X146372774Y-115900774D01*
X146406383Y-115881506D01*
X146415586Y-115879100D01*
X146455900Y-115879100D01*
X146524883Y-115850525D01*
X146529790Y-115849243D01*
X146553197Y-115852470D01*
X146576825Y-115852470D01*
X146580603Y-115856248D01*
X146585896Y-115856978D01*
X146600164Y-115875809D01*
X146616874Y-115892518D01*
X146616874Y-115897861D01*
X146620101Y-115902120D01*
X146616874Y-115925527D01*
X146616874Y-115949155D01*
X146575600Y-116048799D01*
X146575600Y-116048800D01*
X146575600Y-116158400D01*
X146596831Y-116209656D01*
X146614826Y-116253100D01*
X146617543Y-116259658D01*
X146695042Y-116337157D01*
X146796300Y-116379100D01*
X146796301Y-116379100D01*
X146905898Y-116379100D01*
X146905900Y-116379100D01*
X147007158Y-116337157D01*
X147084657Y-116259658D01*
X147126600Y-116158400D01*
X147126600Y-116048800D01*
X148175600Y-116048800D01*
X148175600Y-116158400D01*
X148196831Y-116209656D01*
X148214826Y-116253100D01*
X148217543Y-116259658D01*
X148295042Y-116337157D01*
X148396300Y-116379100D01*
X148396301Y-116379100D01*
X148505898Y-116379100D01*
X148505900Y-116379100D01*
X148607158Y-116337157D01*
X148684657Y-116259658D01*
X148726600Y-116158400D01*
X148726600Y-116048800D01*
X148684657Y-115947542D01*
X148607158Y-115870043D01*
X148505900Y-115828100D01*
X148396300Y-115828100D01*
X148374435Y-115837157D01*
X148295043Y-115870042D01*
X148217542Y-115947543D01*
X148213045Y-115958400D01*
X148175600Y-116048800D01*
X147126600Y-116048800D01*
X147084657Y-115947542D01*
X147007158Y-115870043D01*
X146905900Y-115828100D01*
X146796300Y-115828100D01*
X146732010Y-115854729D01*
X146675373Y-115854729D01*
X146635325Y-115814680D01*
X146635325Y-115758045D01*
X146676600Y-115658400D01*
X146676600Y-115548800D01*
X159705600Y-115548800D01*
X159705600Y-115658400D01*
X159747543Y-115759658D01*
X159825042Y-115837157D01*
X159926300Y-115879100D01*
X159926301Y-115879100D01*
X160035898Y-115879100D01*
X160035900Y-115879100D01*
X160137158Y-115837157D01*
X160214657Y-115759658D01*
X160256600Y-115658400D01*
X160256600Y-115548800D01*
X160214657Y-115447542D01*
X160137158Y-115370043D01*
X160035900Y-115328100D01*
X159926300Y-115328100D01*
X159884358Y-115345473D01*
X159825043Y-115370042D01*
X159747542Y-115447543D01*
X159705600Y-115548800D01*
X146676600Y-115548800D01*
X146634657Y-115447542D01*
X146557158Y-115370043D01*
X146455900Y-115328100D01*
X146425100Y-115328100D01*
X146372774Y-115306426D01*
X146351100Y-115254100D01*
X146351100Y-114548800D01*
X146875600Y-114548800D01*
X146875600Y-114658400D01*
X146917543Y-114759658D01*
X146995042Y-114837157D01*
X147096300Y-114879100D01*
X147096301Y-114879100D01*
X147205898Y-114879100D01*
X147205900Y-114879100D01*
X147307158Y-114837157D01*
X147384657Y-114759658D01*
X147426600Y-114658400D01*
X147426600Y-114548800D01*
X147393890Y-114469833D01*
X150850600Y-114469833D01*
X150850600Y-114637367D01*
X150854784Y-114658400D01*
X150883282Y-114801675D01*
X150883284Y-114801682D01*
X150947396Y-114956462D01*
X151030677Y-115081100D01*
X151040474Y-115095762D01*
X151158938Y-115214226D01*
X151298237Y-115307303D01*
X151453018Y-115371416D01*
X151617333Y-115404100D01*
X151617334Y-115404100D01*
X151784866Y-115404100D01*
X151784867Y-115404100D01*
X151949182Y-115371416D01*
X152103963Y-115307303D01*
X152243262Y-115214226D01*
X152361726Y-115095762D01*
X152454803Y-114956463D01*
X152518916Y-114801682D01*
X152551600Y-114637367D01*
X152551600Y-114469833D01*
X152531127Y-114366908D01*
X152523912Y-114330634D01*
X152521763Y-114319833D01*
X153300600Y-114319833D01*
X153300600Y-114487366D01*
X153333282Y-114651675D01*
X153333284Y-114651682D01*
X153397396Y-114806462D01*
X153490471Y-114945758D01*
X153490474Y-114945762D01*
X153608938Y-115064226D01*
X153748237Y-115157303D01*
X153903018Y-115221416D01*
X154067333Y-115254100D01*
X154067334Y-115254100D01*
X154234866Y-115254100D01*
X154234867Y-115254100D01*
X154399182Y-115221416D01*
X154553963Y-115157303D01*
X154693262Y-115064226D01*
X154811726Y-114945762D01*
X154904803Y-114806463D01*
X154968916Y-114651682D01*
X155001600Y-114487367D01*
X155001600Y-114319833D01*
X155850600Y-114319833D01*
X155850600Y-114487366D01*
X155883282Y-114651675D01*
X155883284Y-114651682D01*
X155947396Y-114806462D01*
X156040471Y-114945758D01*
X156040474Y-114945762D01*
X156158938Y-115064226D01*
X156298237Y-115157303D01*
X156453018Y-115221416D01*
X156617333Y-115254100D01*
X156617334Y-115254100D01*
X156784866Y-115254100D01*
X156784867Y-115254100D01*
X156949182Y-115221416D01*
X157103963Y-115157303D01*
X157243262Y-115064226D01*
X157361726Y-114945762D01*
X157454803Y-114806463D01*
X157518916Y-114651682D01*
X157551600Y-114487367D01*
X157551600Y-114319833D01*
X157518916Y-114155518D01*
X157454803Y-114000737D01*
X157453509Y-113998800D01*
X159525600Y-113998800D01*
X159525600Y-114108400D01*
X159567543Y-114209658D01*
X159645042Y-114287157D01*
X159645044Y-114287158D01*
X159649731Y-114290290D01*
X159681195Y-114337384D01*
X159670143Y-114392932D01*
X159660942Y-114404142D01*
X159617544Y-114447540D01*
X159617542Y-114447543D01*
X159598085Y-114494517D01*
X159575600Y-114548800D01*
X159575600Y-114658400D01*
X159617543Y-114759658D01*
X159695042Y-114837157D01*
X159796300Y-114879100D01*
X159796301Y-114879100D01*
X159905898Y-114879100D01*
X159905900Y-114879100D01*
X160007158Y-114837157D01*
X160084657Y-114759658D01*
X160126600Y-114658400D01*
X160126600Y-114548800D01*
X160084657Y-114447542D01*
X160007158Y-114370043D01*
X160007156Y-114370042D01*
X160007154Y-114370040D01*
X160002467Y-114366908D01*
X159971004Y-114319814D01*
X159982057Y-114264266D01*
X159991253Y-114253061D01*
X160034657Y-114209658D01*
X160076600Y-114108400D01*
X160076600Y-113998800D01*
X160034657Y-113897542D01*
X159957158Y-113820043D01*
X159855900Y-113778100D01*
X159746300Y-113778100D01*
X159704358Y-113795473D01*
X159645043Y-113820042D01*
X159567542Y-113897543D01*
X159525600Y-113998800D01*
X157453509Y-113998800D01*
X157361726Y-113861438D01*
X157243262Y-113742974D01*
X157243258Y-113742971D01*
X157103962Y-113649896D01*
X156949182Y-113585784D01*
X156949175Y-113585782D01*
X156825388Y-113561160D01*
X156784867Y-113553100D01*
X156617333Y-113553100D01*
X156584828Y-113559565D01*
X156453024Y-113585782D01*
X156453017Y-113585784D01*
X156298237Y-113649896D01*
X156158941Y-113742971D01*
X156040471Y-113861441D01*
X155947396Y-114000737D01*
X155883284Y-114155517D01*
X155883282Y-114155524D01*
X155850600Y-114319833D01*
X155001600Y-114319833D01*
X154968916Y-114155518D01*
X154904803Y-114000737D01*
X154811726Y-113861438D01*
X154693262Y-113742974D01*
X154693258Y-113742971D01*
X154553962Y-113649896D01*
X154399182Y-113585784D01*
X154399175Y-113585782D01*
X154275388Y-113561160D01*
X154234867Y-113553100D01*
X154067333Y-113553100D01*
X154034828Y-113559565D01*
X153903024Y-113585782D01*
X153903017Y-113585784D01*
X153748237Y-113649896D01*
X153608941Y-113742971D01*
X153490471Y-113861441D01*
X153397396Y-114000737D01*
X153333284Y-114155517D01*
X153333282Y-114155524D01*
X153300600Y-114319833D01*
X152521763Y-114319833D01*
X152518917Y-114305524D01*
X152518916Y-114305518D01*
X152454803Y-114150737D01*
X152361726Y-114011438D01*
X152243262Y-113892974D01*
X152196070Y-113861441D01*
X152103962Y-113799896D01*
X151949182Y-113735784D01*
X151949175Y-113735782D01*
X151825388Y-113711160D01*
X151784867Y-113703100D01*
X151617333Y-113703100D01*
X151584828Y-113709565D01*
X151453024Y-113735782D01*
X151453017Y-113735784D01*
X151298237Y-113799896D01*
X151158941Y-113892971D01*
X151040471Y-114011441D01*
X150947396Y-114150737D01*
X150883284Y-114305517D01*
X150883282Y-114305524D01*
X150855034Y-114447540D01*
X150850600Y-114469833D01*
X147393890Y-114469833D01*
X147384657Y-114447542D01*
X147307158Y-114370043D01*
X147205900Y-114328100D01*
X147096300Y-114328100D01*
X147073887Y-114337384D01*
X146995043Y-114370042D01*
X146917542Y-114447543D01*
X146898085Y-114494517D01*
X146875600Y-114548800D01*
X146351100Y-114548800D01*
X146351100Y-112548800D01*
X146925600Y-112548800D01*
X146925600Y-112658400D01*
X146967543Y-112759658D01*
X147009160Y-112801275D01*
X147030834Y-112853600D01*
X147009160Y-112905924D01*
X146967543Y-112947542D01*
X146967542Y-112947543D01*
X146925600Y-113048800D01*
X146925600Y-113158400D01*
X146967543Y-113259658D01*
X147045042Y-113337157D01*
X147146300Y-113379100D01*
X147146301Y-113379100D01*
X147255898Y-113379100D01*
X147255900Y-113379100D01*
X147357158Y-113337157D01*
X147434657Y-113259658D01*
X147476600Y-113158400D01*
X147476600Y-113048800D01*
X161525600Y-113048800D01*
X161525600Y-113158400D01*
X161567543Y-113259658D01*
X161645042Y-113337157D01*
X161746300Y-113379100D01*
X161746301Y-113379100D01*
X161855898Y-113379100D01*
X161855900Y-113379100D01*
X161957158Y-113337157D01*
X162034657Y-113259658D01*
X162076600Y-113158400D01*
X162076600Y-113048800D01*
X162034657Y-112947542D01*
X161957158Y-112870043D01*
X161855900Y-112828100D01*
X161746300Y-112828100D01*
X161724435Y-112837157D01*
X161645043Y-112870042D01*
X161567542Y-112947543D01*
X161525600Y-113048800D01*
X147476600Y-113048800D01*
X147434657Y-112947542D01*
X147393039Y-112905924D01*
X147371366Y-112853600D01*
X147393039Y-112801275D01*
X147434657Y-112759658D01*
X147476600Y-112658400D01*
X147476600Y-112548800D01*
X147434657Y-112447542D01*
X147357158Y-112370043D01*
X147255900Y-112328100D01*
X147146300Y-112328100D01*
X147104358Y-112345473D01*
X147045043Y-112370042D01*
X146967542Y-112447543D01*
X146960632Y-112464226D01*
X146925600Y-112548800D01*
X146351100Y-112548800D01*
X146351100Y-111548800D01*
X146925600Y-111548800D01*
X146925600Y-111658400D01*
X146967543Y-111759658D01*
X147045042Y-111837157D01*
X147146300Y-111879100D01*
X147146301Y-111879100D01*
X147255898Y-111879100D01*
X147255900Y-111879100D01*
X147357158Y-111837157D01*
X147434657Y-111759658D01*
X147451153Y-111719833D01*
X150850600Y-111719833D01*
X150850600Y-111887366D01*
X150883282Y-112051675D01*
X150883284Y-112051682D01*
X150947396Y-112206462D01*
X151040471Y-112345758D01*
X151040474Y-112345762D01*
X151158938Y-112464226D01*
X151298237Y-112557303D01*
X151453018Y-112621416D01*
X151617333Y-112654100D01*
X151617334Y-112654100D01*
X151784866Y-112654100D01*
X151784867Y-112654100D01*
X151949182Y-112621416D01*
X152103963Y-112557303D01*
X152243262Y-112464226D01*
X152361726Y-112345762D01*
X152454803Y-112206463D01*
X152518916Y-112051682D01*
X152551600Y-111887367D01*
X152551600Y-111769833D01*
X153250600Y-111769833D01*
X153250600Y-111937366D01*
X153283282Y-112101675D01*
X153283284Y-112101682D01*
X153347396Y-112256462D01*
X153407062Y-112345758D01*
X153440474Y-112395762D01*
X153558938Y-112514226D01*
X153698237Y-112607303D01*
X153853018Y-112671416D01*
X154017333Y-112704100D01*
X154017334Y-112704100D01*
X154184866Y-112704100D01*
X154184867Y-112704100D01*
X154349182Y-112671416D01*
X154503963Y-112607303D01*
X154643262Y-112514226D01*
X154761726Y-112395762D01*
X154854803Y-112256463D01*
X154918916Y-112101682D01*
X154951600Y-111937367D01*
X154951600Y-111769833D01*
X154941654Y-111719833D01*
X155750600Y-111719833D01*
X155750600Y-111887366D01*
X155783282Y-112051675D01*
X155783284Y-112051682D01*
X155847396Y-112206462D01*
X155940471Y-112345758D01*
X155940474Y-112345762D01*
X156058938Y-112464226D01*
X156198237Y-112557303D01*
X156353018Y-112621416D01*
X156517333Y-112654100D01*
X156517334Y-112654100D01*
X156684866Y-112654100D01*
X156684867Y-112654100D01*
X156849182Y-112621416D01*
X157003963Y-112557303D01*
X157143262Y-112464226D01*
X157261726Y-112345762D01*
X157354803Y-112206463D01*
X157418916Y-112051682D01*
X157451600Y-111887367D01*
X157451600Y-111719833D01*
X157418916Y-111555518D01*
X157416133Y-111548800D01*
X159625600Y-111548800D01*
X159625600Y-111658400D01*
X159667543Y-111759658D01*
X159745042Y-111837157D01*
X159846300Y-111879100D01*
X159846301Y-111879100D01*
X159955898Y-111879100D01*
X159955900Y-111879100D01*
X160057158Y-111837157D01*
X160134657Y-111759658D01*
X160176600Y-111658400D01*
X160176600Y-111548800D01*
X161325600Y-111548800D01*
X161325600Y-111658400D01*
X161367543Y-111759658D01*
X161445042Y-111837157D01*
X161546300Y-111879100D01*
X161546301Y-111879100D01*
X161655898Y-111879100D01*
X161655900Y-111879100D01*
X161757158Y-111837157D01*
X161834657Y-111759658D01*
X161876600Y-111658400D01*
X161876600Y-111548800D01*
X161834657Y-111447542D01*
X161757158Y-111370043D01*
X161655900Y-111328100D01*
X161546300Y-111328100D01*
X161504358Y-111345473D01*
X161445043Y-111370042D01*
X161367542Y-111447543D01*
X161325600Y-111548800D01*
X160176600Y-111548800D01*
X160134657Y-111447542D01*
X160057158Y-111370043D01*
X159955900Y-111328100D01*
X159846300Y-111328100D01*
X159804358Y-111345473D01*
X159745043Y-111370042D01*
X159667542Y-111447543D01*
X159625600Y-111548800D01*
X157416133Y-111548800D01*
X157354803Y-111400737D01*
X157261726Y-111261438D01*
X157143262Y-111142974D01*
X157078793Y-111099897D01*
X157003962Y-111049896D01*
X156849182Y-110985784D01*
X156849175Y-110985782D01*
X156725388Y-110961160D01*
X156684867Y-110953100D01*
X156517333Y-110953100D01*
X156484828Y-110959565D01*
X156353024Y-110985782D01*
X156353017Y-110985784D01*
X156198237Y-111049896D01*
X156058941Y-111142971D01*
X155940471Y-111261441D01*
X155847396Y-111400737D01*
X155783284Y-111555517D01*
X155783282Y-111555524D01*
X155750600Y-111719833D01*
X154941654Y-111719833D01*
X154918917Y-111605524D01*
X154918916Y-111605518D01*
X154854803Y-111450737D01*
X154761726Y-111311438D01*
X154643262Y-111192974D01*
X154643258Y-111192971D01*
X154503962Y-111099896D01*
X154349182Y-111035784D01*
X154349175Y-111035782D01*
X154225388Y-111011160D01*
X154184867Y-111003100D01*
X154017333Y-111003100D01*
X153984828Y-111009565D01*
X153853024Y-111035782D01*
X153853017Y-111035784D01*
X153698237Y-111099896D01*
X153558941Y-111192971D01*
X153440471Y-111311441D01*
X153347396Y-111450737D01*
X153283284Y-111605517D01*
X153283282Y-111605524D01*
X153250600Y-111769833D01*
X152551600Y-111769833D01*
X152551600Y-111719833D01*
X152518916Y-111555518D01*
X152454803Y-111400737D01*
X152361726Y-111261438D01*
X152243262Y-111142974D01*
X152178793Y-111099897D01*
X152103962Y-111049896D01*
X151949182Y-110985784D01*
X151949175Y-110985782D01*
X151825388Y-110961160D01*
X151784867Y-110953100D01*
X151617333Y-110953100D01*
X151584828Y-110959565D01*
X151453024Y-110985782D01*
X151453017Y-110985784D01*
X151298237Y-111049896D01*
X151158941Y-111142971D01*
X151040471Y-111261441D01*
X150947396Y-111400737D01*
X150883284Y-111555517D01*
X150883282Y-111555524D01*
X150850600Y-111719833D01*
X147451153Y-111719833D01*
X147476600Y-111658400D01*
X147476600Y-111548800D01*
X147434657Y-111447542D01*
X147357158Y-111370043D01*
X147255900Y-111328100D01*
X147146300Y-111328100D01*
X147104358Y-111345473D01*
X147045043Y-111370042D01*
X146967542Y-111447543D01*
X146925600Y-111548800D01*
X146351100Y-111548800D01*
X146351100Y-109998800D01*
X147775600Y-109998800D01*
X147775600Y-110108400D01*
X147817543Y-110209658D01*
X147895042Y-110287157D01*
X147996300Y-110329100D01*
X147999875Y-110329811D01*
X148002904Y-110331835D01*
X148003034Y-110331889D01*
X148003023Y-110331914D01*
X148046967Y-110361277D01*
X148058016Y-110416826D01*
X148053804Y-110430708D01*
X148025600Y-110498800D01*
X148025600Y-110608400D01*
X148067543Y-110709658D01*
X148145042Y-110787157D01*
X148246300Y-110829100D01*
X148246301Y-110829100D01*
X148355898Y-110829100D01*
X148355900Y-110829100D01*
X148457158Y-110787157D01*
X148534657Y-110709658D01*
X148576600Y-110608400D01*
X148576600Y-110498800D01*
X148534657Y-110397542D01*
X148457158Y-110320043D01*
X148457156Y-110320042D01*
X148355896Y-110278098D01*
X148352319Y-110277387D01*
X148349288Y-110275361D01*
X148349166Y-110275311D01*
X148349176Y-110275286D01*
X148305229Y-110245917D01*
X148294184Y-110190368D01*
X148298389Y-110176506D01*
X148326600Y-110108400D01*
X148326600Y-109998800D01*
X148284657Y-109897542D01*
X148207158Y-109820043D01*
X148105900Y-109778100D01*
X147996300Y-109778100D01*
X147954358Y-109795473D01*
X147895043Y-109820042D01*
X147817542Y-109897543D01*
X147776631Y-109996312D01*
X147775600Y-109998800D01*
X146351100Y-109998800D01*
X146351100Y-109548800D01*
X159425600Y-109548800D01*
X159425600Y-109658400D01*
X159467543Y-109759658D01*
X159545042Y-109837157D01*
X159646300Y-109879100D01*
X159646301Y-109879100D01*
X159755898Y-109879100D01*
X159755900Y-109879100D01*
X159857158Y-109837157D01*
X159934657Y-109759658D01*
X159976600Y-109658400D01*
X159976600Y-109548800D01*
X159934657Y-109447542D01*
X159857158Y-109370043D01*
X159755900Y-109328100D01*
X159646300Y-109328100D01*
X159604358Y-109345473D01*
X159545043Y-109370042D01*
X159467542Y-109447543D01*
X159433760Y-109529100D01*
X159425600Y-109548800D01*
X146351100Y-109548800D01*
X146351100Y-109198800D01*
X147025600Y-109198800D01*
X147025600Y-109308400D01*
X147067543Y-109409658D01*
X147145042Y-109487157D01*
X147246300Y-109529100D01*
X147246301Y-109529100D01*
X147355898Y-109529100D01*
X147355900Y-109529100D01*
X147457158Y-109487157D01*
X147534657Y-109409658D01*
X147576600Y-109308400D01*
X147576600Y-109198800D01*
X147534657Y-109097542D01*
X147457158Y-109020043D01*
X147355900Y-108978100D01*
X147246300Y-108978100D01*
X147224435Y-108987157D01*
X147145043Y-109020042D01*
X147067542Y-109097543D01*
X147025600Y-109198800D01*
X146351100Y-109198800D01*
X146351100Y-108598800D01*
X150275600Y-108598800D01*
X150275600Y-108708399D01*
X150317124Y-108808648D01*
X150317543Y-108809658D01*
X150395042Y-108887157D01*
X150496300Y-108929100D01*
X150496301Y-108929100D01*
X150605898Y-108929100D01*
X150605900Y-108929100D01*
X150707158Y-108887157D01*
X150784657Y-108809658D01*
X150826600Y-108708400D01*
X150826600Y-108698800D01*
X152675600Y-108698800D01*
X152675600Y-108808400D01*
X152717543Y-108909658D01*
X152795042Y-108987157D01*
X152896300Y-109029100D01*
X152896301Y-109029100D01*
X153005898Y-109029100D01*
X153005900Y-109029100D01*
X153107158Y-108987157D01*
X153184657Y-108909658D01*
X153226600Y-108808400D01*
X153226600Y-108698800D01*
X153205889Y-108648800D01*
X155075600Y-108648800D01*
X155075600Y-108758400D01*
X155089769Y-108792606D01*
X155110956Y-108843757D01*
X155117543Y-108859658D01*
X155195042Y-108937157D01*
X155296300Y-108979100D01*
X155296301Y-108979100D01*
X155405898Y-108979100D01*
X155405900Y-108979100D01*
X155507158Y-108937157D01*
X155584657Y-108859658D01*
X155595842Y-108832654D01*
X155635888Y-108792608D01*
X155692525Y-108792606D01*
X155716534Y-108808648D01*
X155717542Y-108809656D01*
X155717543Y-108809658D01*
X155795042Y-108887157D01*
X155896300Y-108929100D01*
X155896301Y-108929100D01*
X156005898Y-108929100D01*
X156005900Y-108929100D01*
X156107158Y-108887157D01*
X156150557Y-108843757D01*
X156202881Y-108822083D01*
X156255207Y-108843757D01*
X156264408Y-108854967D01*
X156267540Y-108859654D01*
X156267542Y-108859656D01*
X156267543Y-108859658D01*
X156345042Y-108937157D01*
X156446300Y-108979100D01*
X156446301Y-108979100D01*
X156555898Y-108979100D01*
X156555900Y-108979100D01*
X156657158Y-108937157D01*
X156734657Y-108859658D01*
X156776600Y-108758400D01*
X156776600Y-108691414D01*
X156798274Y-108639088D01*
X156850600Y-108617414D01*
X156902926Y-108639088D01*
X156912888Y-108653998D01*
X156913492Y-108653595D01*
X156917541Y-108659654D01*
X156917543Y-108659658D01*
X156995042Y-108737157D01*
X157096300Y-108779100D01*
X157096301Y-108779100D01*
X157205898Y-108779100D01*
X157205900Y-108779100D01*
X157307158Y-108737157D01*
X157384657Y-108659658D01*
X157389155Y-108648800D01*
X158125600Y-108648800D01*
X158125600Y-108758400D01*
X158139769Y-108792606D01*
X158160956Y-108843757D01*
X158167543Y-108859658D01*
X158245042Y-108937157D01*
X158346300Y-108979100D01*
X158346301Y-108979100D01*
X158455898Y-108979100D01*
X158455900Y-108979100D01*
X158557158Y-108937157D01*
X158634657Y-108859658D01*
X158676600Y-108758400D01*
X158676600Y-108648800D01*
X158634657Y-108547542D01*
X158557158Y-108470043D01*
X158455900Y-108428100D01*
X158346300Y-108428100D01*
X158313921Y-108441512D01*
X158245043Y-108470042D01*
X158167542Y-108547543D01*
X158129623Y-108639088D01*
X158125600Y-108648800D01*
X157389155Y-108648800D01*
X157426600Y-108558400D01*
X157426600Y-108448800D01*
X157426600Y-108441512D01*
X157430355Y-108441512D01*
X157438799Y-108399046D01*
X157485889Y-108367578D01*
X157528646Y-108371787D01*
X157546300Y-108379100D01*
X157546302Y-108379100D01*
X157655898Y-108379100D01*
X157655900Y-108379100D01*
X157757158Y-108337157D01*
X157834657Y-108259658D01*
X157876600Y-108158400D01*
X157876600Y-108048800D01*
X157834657Y-107947542D01*
X157757158Y-107870043D01*
X157655900Y-107828100D01*
X157546300Y-107828100D01*
X157504358Y-107845473D01*
X157445043Y-107870042D01*
X157367542Y-107947543D01*
X157325600Y-108048800D01*
X157325600Y-108165688D01*
X157321854Y-108165688D01*
X157313377Y-108208188D01*
X157266268Y-108239630D01*
X157223551Y-108235411D01*
X157205900Y-108228100D01*
X157096300Y-108228100D01*
X157054358Y-108245473D01*
X156995043Y-108270042D01*
X156917542Y-108347543D01*
X156875600Y-108448800D01*
X156875600Y-108515785D01*
X156853926Y-108568111D01*
X156801600Y-108589785D01*
X156749274Y-108568111D01*
X156739311Y-108553201D01*
X156738708Y-108553605D01*
X156734657Y-108547543D01*
X156734657Y-108547542D01*
X156657158Y-108470043D01*
X156555900Y-108428100D01*
X156446300Y-108428100D01*
X156413921Y-108441512D01*
X156345043Y-108470042D01*
X156345040Y-108470044D01*
X156301642Y-108513442D01*
X156249316Y-108535116D01*
X156196991Y-108513441D01*
X156187790Y-108502231D01*
X156184657Y-108497543D01*
X156184657Y-108497542D01*
X156107158Y-108420043D01*
X156005900Y-108378100D01*
X155896300Y-108378100D01*
X155854358Y-108395473D01*
X155795043Y-108420042D01*
X155717542Y-108497543D01*
X155706358Y-108524544D01*
X155666309Y-108564592D01*
X155609672Y-108564592D01*
X155585665Y-108548551D01*
X155584657Y-108547543D01*
X155584657Y-108547542D01*
X155507158Y-108470043D01*
X155405900Y-108428100D01*
X155296300Y-108428100D01*
X155263921Y-108441512D01*
X155195043Y-108470042D01*
X155117542Y-108547543D01*
X155079623Y-108639088D01*
X155075600Y-108648800D01*
X153205889Y-108648800D01*
X153184657Y-108597542D01*
X153107158Y-108520043D01*
X153096878Y-108515785D01*
X153077500Y-108507758D01*
X153005900Y-108478100D01*
X152896300Y-108478100D01*
X152854358Y-108495473D01*
X152795043Y-108520042D01*
X152717542Y-108597543D01*
X152678659Y-108691414D01*
X152675600Y-108698800D01*
X150826600Y-108698800D01*
X150826600Y-108598800D01*
X150784657Y-108497542D01*
X150707158Y-108420043D01*
X150605900Y-108378100D01*
X150496300Y-108378100D01*
X150454358Y-108395473D01*
X150395043Y-108420042D01*
X150317542Y-108497543D01*
X150275600Y-108598800D01*
X146351100Y-108598800D01*
X146351100Y-107298800D01*
X152675600Y-107298800D01*
X152675600Y-107408400D01*
X152717543Y-107509658D01*
X152795042Y-107587157D01*
X152896300Y-107629100D01*
X152896301Y-107629100D01*
X153005898Y-107629100D01*
X153005900Y-107629100D01*
X153107158Y-107587157D01*
X153184657Y-107509658D01*
X153226600Y-107408400D01*
X153226600Y-107298800D01*
X153184657Y-107197542D01*
X153107158Y-107120043D01*
X153005900Y-107078100D01*
X152896300Y-107078100D01*
X152854358Y-107095473D01*
X152795043Y-107120042D01*
X152717542Y-107197543D01*
X152675600Y-107298800D01*
X146351100Y-107298800D01*
X146351100Y-106427600D01*
X146372774Y-106375274D01*
X146425100Y-106353600D01*
X147079954Y-106353600D01*
X147100911Y-106357767D01*
G37*
%TD.AperFunction*%
%TD*%
M02*
